<?xml version="1.0" standalone="no"?>
<!DOCTYPE svg PUBLIC "-//W3C//DTD SVG 20010904//EN"
 "http://www.w3.org/TR/2001/REC-SVG-20010904/DTD/svg10.dtd">
<svg version="1.0" xmlns="http://www.w3.org/2000/svg"
 width="300.000000pt" height="322.000000pt" viewBox="0 0 300.000000 322.000000"
 preserveAspectRatio="xMidYMid meet">
<metadata>
Created by potrace 1.10, written by Peter Selinger 2001-2011
</metadata>
<g transform="translate(0.000000,322.000000) scale(0.050000,-0.050000)"
fill="#000000" stroke="none">
<path d="M4933 6410 c-31 -16 -64 -26 -72 -21 -8 5 -34 -8 -57 -29 -43 -40
-80 -22 -51 25 9 14 -9 9 -38 -10 -58 -38 -105 -47 -86 -17 12 21 -126 -12
-159 -37 -23 -18 -126 -44 -138 -36 -4 3 -24 -10 -45 -28 -40 -35 -249 -137
-281 -137 -33 0 -153 -63 -198 -104 -24 -21 -51 -36 -60 -35 -46 9 -89 -3 -78
-21 12 -20 -104 -140 -135 -140 -9 0 -2 27 15 61 18 33 40 55 51 48 10 -6 19
-2 19 10 0 30 -21 26 -106 -20 -42 -22 -84 -35 -93 -30 -9 6 -28 -3 -41 -19
-14 -17 -34 -30 -46 -30 -11 0 -3 20 18 45 51 60 -7 17 -108 -80 -37 -36 -75
-61 -84 -55 -9 5 -21 -4 -28 -22 -19 -50 -14 -55 23 -27 32 25 33 24 3 -8 -17
-19 -57 -38 -89 -41 -38 -4 -72 -28 -103 -74 -25 -37 -46 -54 -47 -37 0 18
-16 8 -41 -26 -23 -30 -49 -50 -59 -44 -10 6 -46 -17 -81 -50 -63 -60 -114
-83 -86 -38 9 14 5 18 -9 9 -13 -8 -23 -26 -23 -41 0 -14 -15 -38 -34 -54 -19
-15 -28 -17 -20 -3 46 76 -103 24 -187 -65 -84 -90 -287 -174 -303 -126 -15
43 -103 -23 -306 -232 -159 -163 -227 -218 -333 -267 -140 -65 -197 -123 -197
-198 0 -31 -26 -62 -79 -97 -91 -61 -150 -169 -132 -243 10 -37 -2 -72 -41
-129 -30 -44 -70 -124 -89 -179 -26 -79 -52 -111 -121 -156 -176 -114 -280
-245 -339 -426 -30 -91 -63 -164 -74 -162 -28 6 -135 -112 -183 -204 -63 -119
-55 -176 33 -249 54 -44 76 -78 78 -121 1 -33 3 -84 4 -112 4 -65 133 -200
211 -219 51 -13 75 -5 237 74 50 24 55 22 55 -26 0 -93 237 -545 407 -776 192
-261 642 -679 685 -636 19 19 -219 312 -255 314 -57 2 -357 377 -357 447 0 18
-10 38 -23 46 -15 9 -18 5 -7 -12 10 -16 8 -21 -5 -13 -12 7 -17 31 -11 52 6
22 -4 54 -22 72 -18 17 -32 49 -32 71 0 21 -18 77 -39 123 -101 219 -120 355
-48 355 19 0 28 15 23 43 -9 63 -43 66 -108 10 l-57 -49 34 -73 c19 -40 35
-81 35 -93 0 -11 18 -57 40 -103 22 -45 40 -99 40 -119 0 -20 11 -34 24 -31
13 3 29 -28 37 -70 10 -57 7 -70 -11 -55 -30 25 -203 375 -221 449 -9 32 -24
49 -40 44 -24 -10 -89 45 -89 75 0 30 114 112 200 145 50 19 102 43 117 54 15
12 114 22 220 24 149 3 248 18 433 69 512 140 819 54 821 -228 0 -164 51 -373
151 -629 113 -289 130 -496 51 -619 -9 -15 -17 -60 -16 -100 0 -41 -13 -104
-29 -140 -48 -103 -31 -153 52 -160 39 -3 79 -18 90 -32 42 -54 82 -29 73 46
-8 64 -5 69 24 44 48 -39 42 9 -7 58 -47 47 -49 83 -11 190 16 44 30 124 30
178 1 97 1 98 41 62 46 -42 78 -26 40 20 -14 17 -20 37 -13 44 7 7 13 3 13 -9
0 -11 14 -26 31 -33 28 -10 28 -7 0 33 -38 54 -42 123 -6 104 14 -7 6 4 -17
24 -24 20 -49 64 -57 97 -8 33 -26 74 -40 90 -14 17 -31 75 -38 130 l-12 100
46 -56 c25 -30 52 -49 59 -41 20 20 17 51 -3 39 -16 -10 -67 74 -72 118 -4 36
-75 259 -95 297 -13 26 -12 33 3 24 27 -17 27 1 -1 53 -20 37 -18 40 14 28 20
-8 -2 22 -48 67 -47 45 -90 81 -96 81 -32 0 -123 89 -114 113 6 16 -3 27 -22
27 -18 0 -32 8 -32 18 0 10 -54 36 -120 57 -66 22 -120 32 -120 23 0 -9 -14
-11 -32 -5 -22 9 -24 17 -8 27 26 16 -143 46 -275 48 -47 1 -85 -4 -85 -12 0
-16 -158 -5 -175 12 -6 6 1 25 15 42 31 38 31 38 -80 72 -79 25 -89 35 -85 80
3 31 -10 66 -35 88 -22 20 -40 44 -40 53 0 22 46 13 65 -13 8 -11 15 -6 15 14
0 18 -18 39 -40 46 -101 32 0 127 147 139 31 2 62 14 70 25 11 18 114 51 170
55 9 0 27 16 41 35 29 40 112 27 112 -18 0 -24 5 -24 29 -2 63 56 83 66 131
66 28 0 67 17 88 37 34 34 40 34 56 6 10 -18 38 -31 62 -29 24 2 80 -15 124
-36 44 -21 98 -39 120 -38 38 0 101 -54 174 -150 19 -26 55 -45 85 -45 30 0
51 -11 51 -27 0 -32 -32 -37 -50 -8 -7 11 -32 20 -56 19 -44 0 -44 -1 -4 -30
32 -25 35 -34 12 -48 -21 -13 -14 -24 30 -46 115 -59 148 -62 148 -15 0 46 41
46 56 1 5 -15 0 -21 -11 -14 -11 7 -25 -5 -31 -27 -13 -50 35 -54 66 -5 19 30
20 29 10 -10 -11 -37 -5 -45 34 -45 26 0 37 7 24 15 -12 8 -34 49 -49 90 -15
41 -42 80 -60 85 -19 6 -50 29 -69 51 -20 21 -55 40 -78 41 -23 0 -31 6 -17
11 43 17 28 47 -24 47 -27 0 -54 9 -61 20 -7 11 -1 20 12 20 13 0 5 17 -19 37
-57 50 -54 65 7 36 27 -13 50 -32 50 -44 0 -40 124 -71 149 -37 23 31 151 -17
151 -57 0 -8 14 -15 30 -15 17 0 30 16 30 35 1 28 4 29 18 7 10 -15 32 -22 50
-16 22 9 32 1 32 -24 0 -21 -18 -42 -42 -48 -30 -8 -38 -3 -30 17 6 16 2 29
-9 29 -10 0 -19 -13 -19 -29 0 -22 -13 -24 -64 -10 -35 10 -67 15 -71 11 -13
-13 166 -92 206 -91 38 2 38 2 -1 19 -38 16 -37 17 6 19 26 0 60 -12 77 -29
16 -16 38 -30 48 -30 35 0 19 38 -35 88 -66 62 -52 88 18 33 28 -22 56 -34 63
-27 7 7 13 2 13 -11 0 -12 -10 -23 -21 -23 -12 0 -16 -9 -9 -20 7 -12 21 -16
31 -9 30 18 139 -117 116 -145 -14 -16 -4 -34 34 -59 30 -19 67 -65 82 -101
34 -80 44 -84 33 -11 -7 45 -5 49 13 21 12 -18 25 -61 29 -95 7 -63 32 -110
32 -62 0 21 6 21 31 0 27 -22 30 -18 23 33 -4 32 6 80 24 107 18 28 21 43 8
34 -17 -10 -29 4 -39 41 -7 31 -27 77 -43 102 -16 25 -24 50 -18 56 6 7 25
-16 43 -50 37 -71 52 -80 37 -21 -6 22 -3 38 6 35 62 -21 -44 207 -113 245
-49 26 -52 69 -4 49 19 -9 50 -17 69 -19 19 -2 51 -19 72 -37 20 -19 52 -34
71 -34 18 0 33 -8 33 -18 0 -23 217 -132 232 -116 18 17 -43 74 -78 74 -46 0
-134 78 -89 79 19 1 35 -6 35 -14 0 -8 29 -17 65 -20 36 -2 68 -14 72 -26 4
-12 29 -30 55 -40 26 -10 48 -30 48 -44 0 -14 19 -37 42 -51 37 -24 40 -23 29
13 -7 22 -3 45 8 52 12 8 16 1 9 -18 -11 -28 11 -41 57 -33 8 1 15 -15 15 -36
0 -20 14 -48 30 -62 17 -14 30 -37 30 -52 0 -16 9 -28 20 -28 33 0 -25 140
-84 203 -56 59 -87 105 -59 88 19 -11 25 -6 20 20 -4 19 -20 37 -37 40 -96 16
-128 48 -41 42 49 -4 92 -17 97 -30 4 -13 19 -23 34 -23 72 0 153 -104 147
-188 -5 -64 1 -83 28 -88 19 -4 35 -17 35 -29 0 -12 5 -16 12 -10 6 6 -4 35
-23 63 -25 39 -30 71 -18 127 14 71 16 72 30 25 8 -27 17 -36 19 -20 3 17 12
-1 21 -40 9 -38 26 -106 39 -150 28 -97 27 -167 -2 -203 -12 -14 -18 -39 -12
-55 14 -35 -37 -108 -59 -86 -9 9 -4 24 11 32 14 9 22 34 17 54 -7 29 -18 17
-45 -47 -20 -47 -49 -85 -64 -85 -34 0 -21 57 35 155 35 60 35 65 3 67 -21 1
-24 5 -9 11 14 6 25 42 25 80 0 76 -48 88 -52 13 -1 -22 -30 -80 -63 -129 -72
-104 -111 -232 -110 -357 l1 -90 -21 75 c-12 41 -29 75 -39 75 -9 0 -17 16
-17 35 -1 27 -6 24 -20 -10 -10 -25 -12 -59 -6 -76 7 -18 2 -28 -13 -25 -13 3
-37 -30 -52 -74 -23 -68 -23 -75 0 -44 21 27 31 30 38 10 6 -14 12 -7 12 17 6
148 57 141 55 -8 0 -86 11 -186 26 -225 42 -108 48 -129 43 -148 -2 -10 10 -7
27 7 23 19 31 19 31 2 0 -62 40 11 41 75 2 68 3 70 23 29 12 -25 30 -45 39
-45 9 0 17 -15 17 -33 0 -19 5 -29 10 -24 17 18 -14 137 -32 125 -10 -5 -18 4
-18 22 0 18 8 27 18 21 29 -18 37 79 9 106 -21 19 -22 32 -2 64 14 22 28 30
32 18 12 -36 63 22 63 71 0 25 14 51 30 57 21 8 30 -1 30 -29 0 -22 -8 -35
-18 -30 -19 12 22 -119 44 -141 8 -7 14 -31 14 -52 0 -20 9 -32 20 -25 34 21
25 111 -10 97 -21 -8 -30 2 -31 36 -1 26 -4 86 -8 134 -6 59 6 118 36 185 41
94 89 139 64 60 -8 -23 -1 -42 17 -48 21 -8 29 -46 29 -135 1 -68 6 -129 12
-135 6 -6 11 20 12 58 0 37 21 129 46 204 26 74 39 140 30 146 -21 13 -22 48
-2 48 9 0 24 -20 35 -45 11 -25 31 -45 43 -45 13 0 30 -7 39 -15 31 -31 52
-13 40 34 -7 27 -3 54 8 61 12 7 19 6 16 -4 -15 -51 26 -146 63 -146 28 0 55
-32 95 -113 30 -62 84 -139 119 -172 39 -37 69 -89 76 -133 22 -124 53 -202
80 -202 35 0 75 -51 83 -105 4 -25 12 -80 18 -122 11 -80 70 -190 70 -131 0
16 -10 40 -23 53 -12 12 -16 38 -9 57 16 43 45 17 58 -52 5 -27 10 -3 11 55 3
103 0 109 -107 214 -60 60 -110 122 -110 140 0 17 -7 31 -16 31 -9 0 -26 40
-39 88 -13 48 -38 102 -55 119 -17 17 -34 59 -38 93 -4 34 -14 68 -22 76 -8 8
-9 -6 -1 -31 7 -25 5 -45 -5 -45 -25 0 -60 91 -70 180 -5 39 -5 54 0 35 5 -19
17 -35 27 -35 11 0 19 -13 19 -29 0 -16 20 -51 45 -78 92 -99 135 -157 135
-185 0 -15 9 -28 20 -28 28 0 25 26 -9 71 -17 22 -30 55 -30 74 -1 19 -14 35
-29 35 -15 0 -37 27 -49 60 -12 33 -30 60 -41 60 -28 0 -47 73 -32 120 7 22
21 35 31 29 11 -6 19 -1 19 11 0 13 -16 18 -35 12 -36 -11 -105 98 -90 143 12
36 85 3 85 -39 0 -21 14 -53 31 -70 17 -17 26 -44 20 -60 -33 -86 -37 -137 -7
-99 27 35 29 34 52 -15 13 -29 31 -52 41 -52 10 0 24 -30 31 -67 7 -36 27 -83
44 -105 30 -37 31 -37 21 2 -24 92 -76 216 -104 243 -16 17 -29 45 -29 63 -1
55 -59 206 -92 239 -57 57 -92 124 -81 154 6 16 3 35 -6 41 -10 6 -24 -8 -31
-31 -8 -23 -18 -38 -22 -33 -5 5 -1 31 10 58 22 58 -10 236 -42 236 -11 0 -15
-21 -8 -48 15 -60 -6 -172 -33 -172 -11 0 -15 18 -9 40 22 86 -74 32 -103 -58
-15 -46 -32 -80 -37 -75 -20 20 -27 236 -7 223 53 -32 -64 188 -123 233 -25
19 -39 40 -32 48 16 16 178 -131 166 -150 -4 -7 1 -26 11 -42 14 -22 18 -22
19 -3 0 15 9 21 20 14 41 -25 -72 142 -127 189 -32 26 -69 60 -84 75 -14 14
-32 26 -39 26 -7 0 -28 15 -46 34 -32 31 -34 31 -41 -2 -6 -34 54 -96 79 -81
7 5 11 -31 8 -79 -3 -75 1 -85 33 -77 29 8 37 -2 37 -41 0 -32 14 -56 37 -63
33 -10 37 -30 32 -151 -3 -77 1 -140 10 -140 34 0 34 -74 0 -116 -53 -66 -85
-56 -69 21 8 40 6 55 -5 39 -10 -14 -33 -20 -52 -13 -20 8 -34 3 -34 -14 -1
-15 -9 -9 -18 13 -9 22 -8 50 2 63 12 14 6 27 -15 35 -29 11 -31 2 -20 -73 10
-61 8 -79 -8 -63 -11 11 -27 70 -33 130 -7 59 -19 117 -27 128 -8 11 -22 41
-30 67 -14 48 -55 102 -153 205 -34 35 -45 59 -30 65 16 7 16 15 2 26 -32 25
-89 113 -89 136 0 12 9 8 20 -9 11 -16 20 -21 21 -10 0 11 12 -7 26 -39 21
-50 28 -54 39 -24 9 24 6 30 -9 21 -16 -10 -20 -1 -13 26 12 45 -117 92 -234
85 -33 -2 -76 -5 -95 -6 -27 -1 -20 -15 30 -63 56 -52 66 -56 71 -26 4 20 20
36 35 36 35 0 38 -32 6 -52 -14 -9 -3 -24 31 -42 29 -15 61 -23 71 -17 10 7
25 1 33 -12 9 -14 6 -18 -9 -9 -30 19 -30 -13 1 -44 30 -30 5 -56 -29 -28 -15
12 -53 15 -95 6 l-70 -14 64 -14 c36 -7 89 -40 118 -73 61 -68 133 -181 116
-181 -17 0 -227 142 -239 162 -6 10 -27 18 -45 18 -27 -1 -23 -10 16 -42 l50
-41 -50 14 c-101 29 -141 49 -153 79 -6 16 -21 30 -32 30 -12 0 -16 -6 -9 -13
8 -7 -2 -26 -21 -42 -32 -26 -32 -27 10 -18 30 6 45 0 45 -19 0 -15 10 -28 21
-28 12 0 15 -10 8 -22 -9 -14 -19 -15 -26 -3 -7 11 -67 29 -133 40 -102 17
-109 20 -44 22 84 3 85 43 2 43 -32 0 -45 8 -36 23 9 15 -8 19 -58 14 -39 -5
-67 -2 -61 7 5 9 -9 16 -32 16 -22 0 -41 -9 -41 -20 0 -11 8 -20 18 -20 10 0
23 -13 29 -30 16 -41 -12 -38 -65 8 -31 27 -36 41 -18 48 20 8 20 11 1 12 -14
1 -25 18 -25 37 0 20 7 26 15 15 20 -26 93 -39 77 -13 -7 11 3 24 23 29 30 8
29 12 -9 24 -24 8 -39 25 -33 40 5 14 1 31 -10 38 -11 7 -17 -12 -15 -43 4
-54 2 -55 -97 -48 -104 7 -172 51 -155 100 7 21 0 22 -32 5 -58 -31 -98 -27
-112 10 -10 26 -2 31 38 23 27 -5 50 -2 50 8 0 9 -13 17 -30 17 -16 0 -30 7
-30 15 2 73 166 99 213 35 15 -21 27 -29 27 -19 0 11 20 -21 44 -70 46 -94 74
-80 39 19 -22 64 2 83 45 35 12 -14 20 -22 19 -19 -2 4 6 35 17 68 23 64 0 97
-64 94 -20 0 -16 -7 10 -18 22 -9 29 -18 16 -19 -14 0 -20 -14 -13 -31 15 -39
-112 2 -145 47 -16 22 -26 23 -37 5 -10 -17 -26 -11 -53 20 -21 24 -38 36 -38
27 0 -9 -11 -6 -24 7 -43 43 -59 25 -17 -19 53 -58 41 -69 -82 -75 -57 -2
-112 -9 -122 -15 -9 -6 -30 0 -46 14 -23 19 -35 19 -58 0 -24 -20 -41 -16 -89
18 -33 23 -67 41 -76 39 -49 -8 -107 5 -96 22 7 12 -9 10 -39 -3 -28 -13 -58
-17 -66 -9 -15 15 44 57 92 65 14 2 41 10 60 18 32 14 55 17 198 25 47 3 65
14 65 40 0 19 14 56 32 81 19 27 29 70 24 104 -10 63 2 73 39 36 13 -13 37
-16 59 -7 20 9 46 15 58 13 43 -7 168 58 168 87 0 17 16 30 35 30 30 -1 31 -3
5 -21 -25 -18 -23 -20 10 -15 22 4 40 20 41 36 0 17 17 64 38 105 21 41 34 79
28 84 -14 14 -137 -34 -137 -53 0 -30 -73 -88 -99 -80 -17 6 -21 0 -12 -15 15
-24 -40 -79 -81 -80 -23 -1 -129 89 -128 108 2 51 -7 67 -57 96 -66 39 -87 28
-70 -38 8 -32 3 -47 -16 -47 -21 -1 -21 -5 2 -19 17 -10 23 -25 15 -33 -8 -8
1 -31 19 -51 73 -81 -48 -297 -166 -297 -39 0 -10 55 36 67 25 6 38 24 34 47
-3 20 2 48 11 63 10 17 8 33 -6 42 -13 8 -18 29 -11 48 9 23 3 33 -20 33 -26
0 -30 10 -19 45 8 25 14 59 14 75 0 17 9 43 22 59 16 21 16 25 -2 15 -13 -8
-29 -5 -36 6 -7 11 4 26 24 34 37 13 75 61 75 96 1 11 46 26 101 33 55 7 117
20 138 28 25 10 34 9 26 -5 -19 -30 66 -49 104 -24 26 17 23 19 -13 11 -51
-11 -62 16 -13 35 50 19 92 14 77 -10 -10 -15 5 -18 47 -9 54 12 60 9 50 -28
-6 -22 -17 -37 -25 -32 -8 5 -14 -17 -14 -50 0 -32 4 -59 10 -59 37 0 143 52
152 75 6 15 2 22 -9 15 -11 -7 -20 -3 -20 9 0 11 8 21 19 21 10 0 18 27 17 59
-1 33 8 72 21 87 38 47 5 54 -241 54 -174 0 -254 -8 -297 -31 -32 -16 -59 -22
-59 -12 0 10 14 24 30 30 47 18 35 43 -20 43 -32 0 -47 -9 -41 -25 5 -14 -1
-25 -13 -25 -13 0 -39 -15 -59 -33 -20 -18 -58 -35 -85 -38 -47 -5 -197 -97
-259 -159 -16 -16 -33 -21 -36 -11 -14 40 -135 -46 -229 -163 -212 -263 -315
-351 -247 -210 15 32 9 28 -22 -11 -50 -64 -71 -69 -84 -18 -6 22 16 65 58
112 64 72 90 127 47 101 -11 -7 -29 -7 -41 1 -28 17 15 70 48 57 13 -5 36 21
52 57 39 91 59 175 41 175 -26 0 3 97 32 108 22 8 25 -1 15 -42 l-13 -52 52
38 c49 35 78 85 34 58 -32 -19 -23 44 10 77 17 17 30 42 30 56 0 15 -23 1 -52
-30 -29 -30 -57 -50 -64 -44 -16 16 92 116 111 104 9 -5 33 3 54 19 21 15 32
29 25 31 -8 1 -21 3 -29 5 -8 1 -26 10 -40 18 -14 10 -25 7 -25 -5 0 -11 -10
-21 -22 -21 -26 0 64 117 92 119 11 1 43 33 70 71 28 38 65 69 83 69 43 1 84
53 67 85 -7 14 1 9 18 -13 35 -42 36 -41 70 25 13 25 33 40 43 33 10 -6 19 -4
19 5 0 22 74 67 125 77 23 4 61 27 85 49 31 29 66 40 117 37 40 -3 84 6 97 19
37 37 76 29 76 -16 0 -22 -13 -40 -30 -40 -16 0 -30 -9 -30 -19 0 -11 -12 -15
-27 -9 -29 11 -86 -45 -66 -66 7 -7 13 -3 13 9 0 14 22 11 60 -8 60 -30 171
-19 121 13 -17 10 -7 19 27 28 29 7 52 21 52 31 0 30 -80 -2 -109 -44 -15 -21
-38 -33 -50 -25 -26 16 9 70 45 70 11 0 37 15 57 33 29 26 42 28 66 8 16 -13
48 -18 70 -11 23 7 41 4 41 -6 0 -11 -18 -24 -40 -30 -22 -6 -40 -25 -40 -42
0 -18 -9 -32 -20 -32 -11 0 -20 -9 -20 -20 0 -12 15 -11 38 3 21 13 33 36 28
51 -12 31 -4 32 63 6 33 -12 51 -12 51 0 0 11 9 20 20 20 11 0 20 -15 20 -32
0 -21 -12 -29 -35 -24 -19 5 -52 -7 -73 -27 -38 -36 -38 -37 3 -37 24 0 49 10
56 22 7 12 30 17 51 12 21 -6 43 -2 49 8 6 10 52 18 101 18 108 0 101 -30 -12
-48 -44 -7 -80 -20 -80 -29 0 -10 25 -13 55 -9 38 6 47 3 28 -10 -21 -14 -15
-28 28 -61 51 -40 52 -43 12 -43 -24 0 -43 -9 -43 -20 0 -19 53 -28 125 -21
19 2 35 -6 35 -18 0 -11 -36 -21 -80 -21 -44 0 -80 -9 -80 -20 0 -11 14 -20
32 -20 20 0 28 -11 21 -30 -8 -21 2 -30 33 -31 41 0 42 -2 9 -27 -32 -24 -27
-28 45 -40 44 -7 80 -19 80 -28 0 -8 24 -17 54 -20 l54 -4 -64 66 c-35 36 -64
85 -64 108 0 45 51 77 71 45 6 -11 20 -15 30 -9 9 6 13 -21 8 -60 -7 -53 1
-79 31 -105 22 -19 40 -50 40 -69 0 -20 14 -36 30 -36 17 0 30 14 30 30 0 17
10 30 22 30 11 0 -9 25 -45 55 -95 78 -131 137 -70 113 15 -6 33 4 40 21 7 19
1 31 -15 31 -31 0 -58 54 -41 82 7 10 -8 11 -35 2 -90 -29 -126 -18 -125 41 0
36 -10 55 -30 56 -20 1 -15 9 14 23 42 21 64 59 30 54 -42 -7 -65 5 -65 34 0
20 -11 28 -30 21 -19 -7 -30 0 -30 19 0 17 -7 26 -15 21 -26 -16 -149 45 -135
67 7 11 3 20 -9 20 -11 0 -21 -10 -21 -21 0 -12 -13 -8 -30 8 -16 17 -30 36
-30 44 0 7 14 8 30 2 18 -7 30 -1 30 15 0 15 14 33 30 39 17 7 30 3 30 -8 0
-10 10 -19 21 -19 12 0 16 9 10 19 -15 23 58 64 105 60 63 -6 124 25 124 63 0
21 -10 38 -21 38 -12 0 -15 11 -7 25 8 15 7 18 -4 8 -10 -9 -18 -27 -18 -39 0
-13 -18 -26 -40 -30 -30 -5 -33 -2 -12 13 15 10 22 28 15 38 -7 11 -1 29 12
40 37 29 115 44 115 23 0 -21 111 31 128 59 6 9 -11 13 -39 8 -27 -5 -49 -18
-49 -27 0 -10 -10 -18 -22 -18 -14 0 -17 20 -9 53 15 60 -9 48 -100 -48 -24
-24 -49 -38 -56 -31 -7 7 -13 2 -13 -12 0 -13 -8 -20 -17 -14 -19 12 -194 -97
-216 -133 -16 -26 19 -7 107 58 89 66 101 59 23 -13 -36 -33 -73 -60 -81 -60
-9 0 -16 -13 -16 -30 0 -17 -18 -30 -40 -30 -22 0 -40 8 -40 19 0 34 -69 32
-105 -4 -19 -19 -45 -35 -56 -35 -12 0 -7 15 11 32 60 61 -6 49 -155 -28 -8
-4 -15 7 -15 25 0 27 61 65 130 79 58 12 110 37 110 51 0 9 40 22 89 30 96 14
311 142 311 185 0 14 8 26 18 26 10 0 25 25 33 55 12 41 17 46 24 20 8 -34 65
-51 65 -19 0 37 194 110 300 114 89 3 122 14 168 57 32 29 66 54 75 56 9 1 24
3 34 5 20 3 163 152 145 152 -6 0 -38 -14 -69 -30z m-808 -391 c-36 -34 -65
-69 -65 -78 0 -37 -128 -64 -152 -32 -12 17 -28 25 -35 17 -21 -20 -15 -50 7
-36 11 7 20 -8 20 -34 -1 -37 -4 -40 -20 -16 -18 27 -22 27 -40 0 -17 -26 -19
-25 -20 5 0 19 -5 35 -11 35 -27 0 -101 -48 -129 -82 -21 -27 -62 -40 -138
-45 -90 -5 -111 -14 -125 -50 -9 -24 -9 -43 -1 -43 8 0 -8 -12 -36 -27 -60
-31 -85 -5 -65 69 l13 48 12 -50 c12 -50 12 -50 41 15 28 62 56 76 144 68 19
-1 35 5 35 14 0 25 200 125 222 112 10 -6 18 -4 18 5 0 29 106 68 121 44 9
-13 18 -9 26 12 7 18 20 28 30 22 9 -6 47 12 84 39 98 72 144 63 64 -12z
m-1077 -540 c38 30 41 4 6 -39 -37 -47 -134 -104 -134 -79 0 31 -60 -32 -62
-65 -1 -21 -3 -21 -11 0 -20 47 -326 -277 -327 -345 0 -12 -36 -60 -80 -107
-44 -47 -80 -91 -80 -98 0 -77 -210 -287 -251 -250 -8 8 -9 3 -2 -9 7 -13 -1
-38 -18 -55 -55 -56 7 -34 75 25 36 32 89 64 116 73 28 8 67 33 89 56 30 31
41 34 48 13 5 -15 -1 -30 -13 -34 -12 -4 -17 -23 -11 -41 8 -26 6 -28 -9 -7
-23 33 -54 -5 -32 -40 9 -15 5 -18 -11 -8 -28 18 -121 -25 -121 -55 0 -11 24
-40 53 -65 l53 -45 -56 -52 c-31 -29 -67 -52 -81 -52 -16 0 -21 -16 -14 -42 8
-31 15 -35 27 -15 9 14 22 20 30 12 7 -8 2 -28 -13 -46 -23 -28 -28 -28 -43
-2 -17 31 -118 -2 -147 -48 -6 -11 -21 -19 -33 -19 -12 0 -7 16 11 37 18 20
33 47 33 60 0 13 14 29 30 36 17 6 30 36 30 69 0 32 9 58 20 58 11 0 20 15 20
32 0 27 -5 28 -30 8 -27 -23 -39 -14 -32 25 1 8 -8 15 -20 15 -13 0 -18 -17
-13 -39 7 -23 -5 -53 -27 -73 -46 -41 -51 -97 -8 -81 55 21 31 -31 -50 -109
-92 -90 -109 -96 -93 -33 l11 45 -39 -47 c-33 -40 -40 -42 -51 -15 -10 26 -19
28 -41 10 -15 -13 -34 -17 -42 -9 -8 8 1 23 20 33 48 27 44 64 -4 48 -35 -11
-37 -6 -20 54 30 104 23 134 -31 148 -56 14 -66 43 -20 61 16 6 25 19 19 28
-5 9 29 54 76 100 47 45 74 77 60 70 -31 -17 -33 21 -2 41 15 9 10 20 -14 34
-26 14 -39 14 -44 -2 -4 -12 -19 -17 -33 -12 -14 5 -36 -14 -49 -44 -21 -47
-20 -51 9 -40 28 11 30 8 9 -17 -14 -17 -32 -26 -40 -21 -8 5 -25 -13 -38 -41
-27 -59 -72 -66 -57 -9 13 52 -2 51 -49 -3 -20 -24 -37 -34 -37 -23 0 11 18
36 40 56 22 20 40 44 40 55 0 40 60 81 62 41 1 -23 11 -13 30 29 15 36 35 66
43 67 8 0 33 4 54 8 22 4 51 -2 65 -14 19 -15 26 -14 26 2 0 12 -9 22 -20 22
-11 0 -20 9 -20 20 0 11 13 20 29 20 15 0 31 20 35 43 6 47 101 113 163 116
26 1 33 11 25 33 -9 23 -4 29 18 21 19 -8 30 0 30 23 1 29 3 30 20 4 11 -16
20 -21 20 -9 0 11 16 22 35 25 19 2 53 6 74 9 24 3 42 -9 47 -30 5 -26 -2 -32
-30 -22 -28 10 -31 7 -13 -12 29 -31 107 6 107 51 0 18 -9 25 -23 16 -16 -10
-20 -3 -10 20 7 20 13 39 13 44 0 4 12 8 27 8 15 0 52 24 82 54 l54 54 -13
-52 c-23 -92 27 -81 131 28 55 58 128 135 161 170 34 35 73 59 88 53 14 -5 40
11 58 36 18 25 32 37 33 26 0 -10 10 -2 22 18 17 29 25 32 38 12 13 -22 22
-22 47 0z m-1436 -1110 c-34 -34 -112 -39 -112 -8 0 12 8 17 17 11 9 -6 34 2
55 17 47 34 78 19 40 -20z m1528 34 c0 -25 -92 -69 -123 -59 -17 6 -5 21 33
42 68 37 90 41 90 17z m-1651 -102 c6 -10 3 -24 -9 -31 -26 -16 -26 -50 0 -50
11 0 20 14 20 30 0 17 7 31 15 32 126 13 122 18 111 -99 -7 -89 -1 -120 33
-166 l42 -57 -127 0 c-71 0 -157 -10 -192 -22 -35 -13 -68 -18 -73 -13 -18 18
15 75 43 75 15 0 28 10 28 21 0 48 -71 4 -91 -55 -20 -63 -21 -63 -47 -22 -21
34 -29 37 -45 14 -26 -40 -2 66 49 215 38 110 46 120 79 100 26 -17 40 -17 51
-1 13 20 55 43 88 46 7 1 19 -6 25 -17z m1336 -71 c82 21 84 -26 3 -74 -41
-24 -64 -47 -52 -51 13 -5 43 6 66 22 45 31 145 26 191 -11 15 -11 29 -9 38 6
10 16 21 12 35 -13 15 -28 10 -44 -23 -71 -24 -19 -43 -47 -43 -63 0 -34 -108
-43 -164 -13 -23 13 -36 13 -36 0 0 -11 -18 -18 -40 -16 -40 3 -40 3 -1 42 37
37 42 37 77 6 43 -39 64 -43 64 -13 0 12 -8 16 -19 10 -10 -6 -23 5 -30 24 -7
24 -34 38 -76 41 -35 3 -72 13 -81 22 -16 16 -117 -11 -172 -46 -23 -15 -22
-23 8 -45 29 -21 43 -21 67 -2 25 21 28 19 18 -8 -14 -37 20 -57 97 -57 150 0
-27 -106 -185 -112 -68 -2 -135 -11 -149 -19 -17 -11 -21 -6 -12 19 8 20 6 29
-6 22 -11 -7 -20 -28 -20 -46 -1 -29 -3 -30 -20 -4 -19 30 -31 6 -22 -46 2
-10 -5 -12 -16 -5 -10 6 -44 2 -75 -10 l-57 -22 45 42 c68 64 54 72 -24 13
-72 -55 -111 -66 -111 -32 0 12 -32 6 -75 -12 -173 -75 -233 -86 -277 -50 -38
30 -45 95 -9 72 40 -24 205 -15 222 12 13 21 4 32 -37 42 -45 12 -41 13 21 9
41 -3 75 4 75 14 0 11 6 14 13 7 16 -16 160 61 215 115 40 39 40 38 63 -18 26
-63 60 -37 39 29 -8 24 -4 40 10 40 12 0 17 -9 10 -20 -7 -11 -3 -20 9 -20 12
0 27 14 34 30 6 17 25 30 41 30 17 0 48 22 69 49 21 27 49 46 63 41 13 -4 56
31 94 78 39 47 75 77 82 68 6 -10 35 -13 63 -6z m-1645 -69 c0 -24 -79 -68
-95 -53 -16 16 36 72 67 72 16 0 28 -9 28 -19z m866 -176 c-7 -19 -5 -28 4
-20 9 8 28 5 43 -8 21 -17 27 -12 27 22 0 39 3 41 30 14 17 -17 30 -40 30 -52
0 -25 -174 -114 -190 -98 -22 23 16 79 45 68 25 -10 26 -7 6 18 -14 17 -20 44
-14 61 16 42 35 38 19 -5z m-954 -148 c-14 -98 -27 -117 -43 -65 -7 21 -19 52
-27 68 -23 44 -4 80 41 80 36 0 39 -9 29 -83z m711 50 c48 -43 49 -108 2 -104
-80 7 -147 -4 -135 -22 27 -44 -50 -120 -102 -100 -39 14 -48 12 -48 -15 0
-18 -29 -58 -65 -88 l-65 -55 80 20 c44 11 94 19 110 18 120 -5 233 4 249 20
28 28 137 24 119 -4 -10 -16 -5 -18 14 -6 15 10 42 16 60 13 18 -3 43 8 57 25
14 17 35 31 46 31 11 0 9 -14 -5 -30 -14 -17 -19 -37 -11 -45 8 -8 23 1 33 20
32 56 102 86 97 42 -7 -73 2 -75 57 -15 30 33 67 57 80 53 14 -5 56 6 93 23
83 39 91 40 91 2 0 -27 8 -27 70 -1 39 16 70 20 70 9 0 -12 17 -10 43 3 32 18
46 17 57 -1 11 -17 19 -18 29 -2 20 33 107 26 127 -11 13 -22 23 -25 32 -10 8
13 43 23 77 23 49 0 58 -5 39 -24 -33 -33 -30 -57 6 -43 17 6 30 0 30 -13 0
-14 13 -19 31 -12 38 14 65 -46 30 -67 -17 -11 -5 -25 37 -43 34 -15 62 -34
62 -42 0 -8 23 -6 50 4 34 13 50 12 50 -3 0 -13 20 -16 50 -9 35 9 50 5 50
-14 0 -19 19 -24 60 -18 36 5 60 0 60 -14 0 -12 11 -22 24 -22 32 0 116 -81
116 -113 0 -14 27 -46 60 -70 42 -31 54 -51 39 -66 -14 -14 -26 -12 -38 7 -23
37 -84 13 -69 -27 7 -17 25 -31 41 -31 16 0 24 -8 18 -19 -7 -10 11 -41 38
-68 28 -29 40 -53 28 -57 -17 -6 -16 -20 1 -53 14 -25 20 -56 15 -69 -5 -13
-11 -8 -11 12 -1 20 -10 31 -20 26 -22 -14 -127 143 -112 168 6 10 -12 33 -40
52 -29 19 -48 44 -43 57 5 13 -20 35 -54 49 -123 49 -149 64 -95 54 28 -6 40
-2 30 8 -10 10 -54 22 -98 28 -44 5 -82 11 -85 13 -3 2 -12 6 -20 7 -99 23
-213 119 -161 137 14 4 4 13 -21 20 -26 7 -42 7 -36 1 7 -6 -1 -29 -15 -50
-15 -21 -23 -56 -17 -77 5 -22 0 -39 -12 -39 -12 0 -17 12 -11 28 7 17 -8 32
-41 40 -28 7 -51 26 -51 42 0 20 -20 30 -60 30 -59 0 -84 43 -40 70 11 7 20 2
20 -10 0 -12 9 -17 20 -10 10 6 37 2 58 -9 28 -15 44 -15 53 0 17 29 4 40 -55
46 -26 3 -57 11 -68 18 -50 31 -212 23 -231 -12 -22 -38 -57 -27 -57 18 0 16
15 29 33 29 46 0 16 26 -39 34 -30 4 -36 1 -18 -11 22 -14 20 -24 -7 -52 -35
-34 -81 -7 -56 33 17 28 -27 17 -52 -13 -13 -16 -36 -24 -50 -19 -14 6 -75
-13 -134 -42 -59 -29 -129 -61 -157 -72 l-50 -18 48 40 c80 68 30 70 -96 4
-150 -78 -231 -90 -232 -34 0 26 -16 42 -45 46 -25 4 -45 -3 -45 -15 0 -11 13
-21 29 -21 20 0 11 -20 -27 -58 -43 -44 -74 -58 -129 -56 -87 2 -99 34 -13 34
33 0 60 9 60 20 0 11 -30 20 -66 20 -36 0 -77 9 -90 20 -17 15 -19 13 -4 -4
29 -35 25 -47 -19 -50 -26 -2 -35 6 -28 26 10 23 2 25 -41 9 -91 -35 -155 -41
-147 -15 5 13 21 25 37 27 15 1 46 4 68 6 40 4 40 4 0 21 -22 9 -32 18 -21 19
10 0 1 14 -20 29 -34 25 -36 37 -16 89 12 33 17 66 11 73 -27 26 -60 201 -42
219 11 12 18 5 18 -18 0 -20 32 -66 70 -102 47 -44 62 -71 47 -81 -13 -8 -34
1 -48 20 -14 20 -30 26 -37 15 -7 -11 2 -34 19 -51 35 -35 89 -43 89 -13 0 11
36 58 80 105 43 47 105 115 138 151 65 72 111 81 165 32z m-615 -32 c78 -78
70 -406 -12 -458 -18 -11 -19 -16 -2 -17 13 0 29 9 36 20 7 11 23 20 36 20 40
-1 -71 -76 -125 -85 -28 -5 -100 -29 -160 -53 -108 -44 -109 -44 -72 -3 20 22
29 41 19 41 -27 0 118 85 152 89 115 13 159 61 119 131 -3 6 -8 33 -11 60 -3
28 -16 87 -30 132 -34 114 -7 180 50 123z m212 -17 c0 -48 -47 -42 -56 9 -4
19 6 33 25 33 18 0 31 -17 31 -42z m-383 -96 c14 -9 26 -22 25 -29 -6 -40 1
-53 26 -53 26 0 52 -41 52 -82 0 -34 -40 -18 -42 17 -3 33 -3 33 -12 0 -12
-47 -40 -44 -67 7 -12 23 -34 36 -50 30 -41 -15 -60 30 -22 52 18 10 33 31 33
47 0 33 18 36 57 11z m-142 -260 c51 -26 61 -82 15 -82 -16 0 -30 -16 -31 -35
0 -28 -6 -26 -26 11 l-25 46 -26 -49 c-15 -27 -50 -59 -79 -72 -47 -22 -49
-26 -16 -44 53 -30 -42 -112 -114 -99 -10 2 -12 -11 -5 -29 7 -19 -5 -54 -28
-83 -42 -54 -53 -135 -22 -155 39 -24 -89 -271 -140 -271 -8 0 -7 29 3 65 11
36 19 89 19 119 0 29 10 79 23 110 13 31 21 74 19 96 -3 30 1 33 15 13 21 -31
83 74 83 141 0 21 33 69 72 107 42 39 68 80 62 96 -8 21 0 25 31 18 32 -9 39
-4 30 19 -13 34 66 146 84 119 6 -9 31 -28 56 -41z m364 -231 c19 -23 14 -29
-31 -35 -70 -8 -90 -56 -24 -56 27 0 57 9 68 20 13 13 45 2 93 -30 40 -28 81
-50 91 -50 27 0 85 -143 82 -200 -2 -27 2 -90 8 -140 6 -49 7 -79 1 -65 -17
41 -58 28 -62 -18 -3 -50 -65 -124 -65 -79 0 22 -6 22 -30 2 -17 -14 -30 -16
-30 -5 0 11 20 34 45 51 l45 31 -44 -11 c-25 -5 -55 -23 -68 -38 -40 -49 -94
-35 -83 22 7 37 1 50 -23 50 -17 0 -32 -8 -32 -18 0 -29 -71 -38 -106 -12 -18
13 -28 30 -20 37 7 7 1 13 -13 13 -14 0 -49 -28 -78 -63 -136 -162 -247 -247
-216 -167 7 17 4 30 -5 30 -25 0 -43 -54 -30 -88 12 -30 -26 -64 -48 -43 -7 7
-1 21 14 30 17 10 19 20 5 29 -19 12 -63 -101 -63 -163 0 -26 -91 20 -127 65
-10 13 -19 12 -26 -5 -6 -14 -19 -20 -29 -14 -25 16 -23 89 3 89 12 0 15 10 8
21 -7 12 2 33 21 46 30 22 30 28 4 50 -42 35 -19 99 49 134 59 31 80 62 27 42
-16 -7 -30 -3 -30 7 0 28 84 100 103 88 9 -6 17 2 17 17 0 15 27 53 60 85 33
32 60 52 60 45 0 -7 27 -4 60 5 35 10 64 9 71 -1 18 -29 49 -22 49 11 0 37
-120 42 -156 6 -13 -13 -24 -15 -24 -4 0 11 11 31 25 45 20 20 18 23 -10 12
-19 -7 -35 -22 -35 -32 0 -10 -16 -24 -35 -31 -19 -8 -44 -26 -56 -41 -16 -21
-33 -23 -77 -6 -60 23 -43 81 24 81 35 0 104 56 104 85 0 32 54 73 93 70 38
-3 210 50 317 98 77 34 100 33 129 -2z m206 -39 c29 -22 31 -31 9 -49 -30 -25
-74 5 -74 51 0 33 20 32 65 -2z m3907 -145 c-7 -17 -2 -45 11 -60 12 -15 17
-34 10 -41 -7 -7 -3 -24 8 -37 15 -18 14 -30 -1 -39 -32 -20 -47 1 -47 69 0
35 -8 54 -20 47 -12 -8 -15 1 -6 22 7 20 13 44 13 54 0 10 10 18 22 18 12 0
17 -15 10 -33z m-5041 -296 c-13 -71 -37 -90 -62 -50 -18 30 8 123 32 109 10
-7 19 -1 19 12 0 14 6 19 12 12 7 -7 7 -44 -1 -83z m4710 9 c11 0 19 -13 19
-30 0 -16 -7 -30 -15 -30 -28 0 -67 81 -51 106 11 17 17 14 22 -11 4 -19 15
-35 25 -35z m-3306 7 c62 -16 57 -47 -7 -47 -45 0 -51 -7 -43 -49 5 -28 2 -45
-8 -39 -17 11 -15 148 3 148 6 0 30 -6 55 -13z m3725 -207 c10 0 16 18 15 40
-2 22 -11 40 -19 40 -9 0 -16 7 -16 17 0 36 90 9 95 -29 2 -21 -1 -27 -7 -13
-23 51 -45 3 -27 -59 19 -66 9 -105 -13 -49 -7 18 -20 28 -29 23 -25 -16 -70
94 -61 150 7 41 12 35 26 -35 10 -47 26 -85 36 -85z m-280 21 c0 -10 -9 -24
-20 -31 -12 -7 -16 -21 -9 -31 6 -10 2 -35 -9 -54 -17 -28 -21 -18 -21 50 -1
62 7 85 29 85 17 0 30 -8 30 -19z m-4184 -126 c-23 -9 -47 -10 -54 -3 -7 8 -1
17 13 22 14 5 25 24 25 41 0 27 5 26 28 -6 26 -35 25 -41 -12 -54z m3730 -153
c2 -27 15 -52 28 -57 17 -5 21 13 12 64 -10 64 -7 71 34 71 37 0 41 -5 21 -29
-13 -16 -19 -46 -12 -67 16 -52 -43 -165 -80 -151 -23 9 -29 -12 -29 -112 0
-86 -7 -119 -22 -109 -15 9 -20 65 -13 166 5 83 2 134 -6 112 -15 -38 -16 -38
-18 5 0 25 8 45 18 45 11 0 15 13 9 28 -6 15 -1 34 11 41 11 7 21 24 21 37 0
14 -8 12 -20 -6 -15 -23 -19 -16 -20 32 0 131 56 71 66 -70z m174 71 c0 -61
-48 -135 -63 -96 -11 29 -8 55 8 73 23 26 55 39 55 23z m-2111 -260 c99 -204
164 -454 116 -452 -54 2 -92 65 -94 154 0 62 -13 107 -36 130 -19 19 -35 57
-35 84 0 27 -9 54 -20 61 -11 7 -20 27 -20 45 0 17 -15 48 -32 68 -33 36 -26
97 10 97 11 0 61 -84 111 -187z m103 -494 c10 2 21 -11 24 -28 9 -41 -48 -40
-64 1 -18 48 -15 83 6 51 9 -14 24 -25 34 -24z m52 -324 c-7 -42 -14 -51 -26
-32 -9 15 -12 44 -5 65 8 26 4 32 -13 22 -18 -11 -18 -3 1 32 32 59 57 9 43
-87z m15 -571 c2 -45 -39 -4 -41 42 -2 41 -3 41 -18 -6 -10 -30 -17 -37 -18
-17 -5 76 22 105 50 54 15 -26 27 -59 27 -73z"/>
<path d="M2168 4853 c-14 -38 -71 -61 -87 -35 -23 37 -156 -110 -154 -171 2
-31 -6 -61 -17 -67 -45 -23 -26 128 26 198 l52 72 -69 -64 c-58 -54 -69 -77
-66 -143 2 -65 -10 -92 -65 -151 -37 -40 -57 -72 -43 -71 32 1 105 62 120 100
8 20 12 17 13 -12 1 -23 -9 -53 -23 -67 -20 -22 -19 -25 5 -18 17 5 33 26 37
47 10 50 65 90 106 78 18 -6 38 4 45 23 11 29 9 30 -20 6 -30 -25 -32 -23 -20
22 13 46 12 47 -15 14 -24 -30 -30 -31 -40 -5 -7 18 4 39 26 51 27 14 40 13
46 -4 5 -16 26 -11 66 17 116 82 169 82 92 1 -37 -39 -64 -81 -60 -94 10 -28
80 30 115 95 13 25 36 45 51 45 15 0 31 12 37 27 7 17 -5 25 -33 22 -64 -5
-97 12 -76 38 12 15 9 32 -9 49 -24 21 -30 21 -40 -3z"/>
<path d="M2010 4480 c-19 -21 -43 -34 -53 -28 -9 6 -17 -3 -17 -20 0 -17 -22
-45 -48 -63 -44 -28 -96 -106 -54 -80 10 6 23 -3 29 -19 19 -48 47 -35 60 28
6 33 29 75 49 95 37 36 93 127 78 127 -4 0 -24 -18 -44 -40z"/>
<path d="M1480 4143 c0 -20 -18 -53 -40 -73 -59 -53 -49 -76 19 -41 59 31 94
94 71 131 -20 33 -50 23 -50 -17z"/>
<path d="M3340 3353 c0 -37 140 -85 191 -65 47 18 30 30 -60 41 -41 5 -88 20
-103 33 -22 18 -28 16 -28 -9z"/>
<path d="M980 3021 c0 -33 46 -121 63 -121 9 0 17 16 16 35 -1 57 -79 142 -79
86z"/>
<path d="M753 2867 c-7 -8 -13 -30 -13 -49 0 -44 -53 -76 -103 -63 -43 11 -44
6 -14 -69 l23 -56 12 49 c17 61 57 76 65 23 5 -31 14 -36 37 -21 27 17 27 21
0 39 -25 18 -21 27 25 62 47 36 51 45 26 70 -32 32 -39 34 -58 15z"/>
<path d="M1272 2828 c-10 -26 5 -33 78 -33 61 0 73 6 65 29 -11 35 -130 38
-143 4z"/>
<path d="M800 2722 c2 -50 36 -61 80 -26 l46 37 -63 0 c-35 0 -63 -5 -63 -11z"/>
<path d="M520 2633 c0 -41 24 -55 53 -30 39 32 33 57 -13 57 -22 0 -40 -12
-40 -27z"/>
<path d="M555 2482 c-61 -65 -70 -102 -25 -102 17 0 30 15 30 33 0 18 15 43
33 57 18 13 29 34 25 47 -5 13 -31 -1 -63 -35z"/>
<path d="M5253 6410 c-8 -21 -29 -26 -72 -17 -37 7 -73 2 -91 -13 -24 -20 -30
-19 -30 6 0 40 -95 -1 -111 -48 -16 -50 -89 -111 -90 -76 -1 15 -10 6 -21 -22
-15 -37 -24 -43 -37 -22 -13 22 -21 19 -39 -14 -30 -56 -31 -54 48 -56 41 0
70 9 70 22 0 13 18 40 40 60 23 21 40 26 40 13 0 -13 -8 -23 -19 -23 -10 0
-25 -20 -32 -44 -8 -24 -30 -58 -49 -75 -41 -36 -87 -161 -60 -161 10 0 25 12
34 27 14 24 127 73 167 73 8 0 11 -17 5 -38 -8 -31 -1 -35 42 -27 43 8 52 2
52 -34 0 -24 9 -38 20 -31 12 7 15 21 9 32 -6 10 16 24 50 31 59 12 106 47 62
47 -11 0 -21 16 -22 35 0 33 -2 33 -27 0 -39 -51 -55 -43 -28 15 12 28 27 46
32 41 5 -6 35 9 67 31 31 22 57 36 57 30 0 -22 182 105 221 155 22 28 53 46
68 41 15 -6 46 -1 68 10 26 14 56 15 87 3 34 -14 37 -19 11 -20 -42 -1 -213
-121 -174 -121 22 0 22 -5 2 -25 -20 -20 -28 -19 -42 3 -13 22 -32 16 -92 -30
-41 -32 -107 -73 -147 -91 -44 -21 -58 -34 -36 -35 20 -1 74 17 120 39 49 25
136 45 209 49 129 8 265 46 265 74 0 22 -35 20 -82 -5 -40 -22 -159 -8 -157
18 3 31 212 149 282 158 42 6 77 18 77 28 0 27 -136 20 -146 -8 -7 -20 -14
-20 -36 0 -33 32 -123 32 -154 1 -17 -17 -24 -17 -24 -2 0 24 -49 23 -73 0 -7
-8 -39 -14 -69 -14 -31 0 -61 -9 -68 -20 -7 -12 -21 -16 -31 -9 -10 6 -14 -2
-8 -17 7 -17 -4 -35 -24 -43 -21 -7 -39 -4 -44 9 -5 15 -15 15 -35 -2 -15 -12
-28 -17 -28 -10 0 7 -20 4 -45 -9 -33 -16 -28 -5 20 39 63 60 83 102 47 102
-10 0 -23 -13 -29 -30z m-106 -80 c-6 -16 -18 -30 -27 -30 -9 0 -11 -20 -5
-45 8 -36 5 -40 -16 -21 -20 20 -21 36 -3 75 24 54 71 72 51 21z m-87 -114 c0
-11 -15 -14 -34 -7 -19 7 -28 7 -20 -1 16 -17 -42 -88 -72 -88 -11 0 -7 16 10
35 16 19 35 51 42 70 13 36 74 28 74 -9z"/>
<path d="M5911 6322 c-27 -11 -31 -20 -14 -30 13 -8 18 -24 11 -36 -8 -12 -2
-17 14 -11 15 5 25 22 22 36 -5 19 0 20 21 3 20 -17 26 -13 26 17 0 41 -17 46
-80 21z"/>
<path d="M5896 6142 c-75 -52 -106 -101 -41 -63 52 30 132 101 123 109 -4 3
-41 -17 -82 -46z"/>
<path d="M4612 6089 c-6 -17 -21 -26 -32 -19 -11 7 -20 3 -20 -9 0 -11 11 -22
25 -23 14 -1 -2 -9 -34 -19 -46 -14 -68 -10 -98 17 -29 25 -41 27 -48 9 -4
-14 -25 -25 -45 -25 -19 0 -41 -14 -48 -32 -18 -47 -16 -48 43 -17 33 17 58
21 62 9 3 -11 14 -20 24 -20 10 0 12 16 5 35 -12 31 -9 32 20 8 18 -15 28 -36
21 -47 -6 -11 7 -10 31 3 24 13 42 14 42 3 0 -10 5 -32 11 -48 7 -18 -6 -34
-35 -44 -25 -8 -50 -17 -56 -20 -5 -2 -39 -11 -75 -20 -36 -8 -65 -22 -65 -31
0 -8 -17 -11 -38 -5 -37 9 -77 -26 -55 -48 6 -6 35 -11 64 -11 32 0 44 -6 29
-15 -28 -17 -5 -34 40 -29 17 1 50 4 75 6 25 2 45 16 45 33 0 17 18 30 40 30
47 0 53 -31 10 -47 -16 -7 -30 -22 -30 -35 0 -16 12 -14 35 6 54 46 107 59
138 34 34 -29 207 -42 207 -16 0 11 -13 24 -30 31 -50 19 -35 38 70 87 92 43
129 80 80 80 -11 0 -20 -8 -20 -17 0 -9 -47 -15 -105 -12 -59 3 -117 -5 -133
-18 -22 -18 -30 -17 -37 2 -5 14 -17 20 -27 14 -10 -6 -18 -3 -18 7 0 27 51
66 67 50 7 -7 13 2 13 21 0 39 -9 40 -63 11 -25 -13 -48 -15 -60 -3 -26 26 -1
79 44 91 22 6 38 22 37 37 -1 20 -4 21 -11 2 -6 -14 -27 -25 -48 -25 -25 0
-34 10 -26 30 6 17 7 30 1 30 -5 0 -15 -14 -22 -31z m-148 -330 c-25 -23 -54
-35 -65 -28 -31 19 18 69 67 69 41 0 41 0 -2 -41z"/>
<path d="M5573 6071 c-19 -50 29 -58 73 -13 l43 42 -52 0 c-29 0 -58 -13 -64
-29z"/>
<path d="M5769 6044 c10 -33 0 -45 -58 -64 -39 -13 -71 -32 -71 -44 0 -11 -18
-16 -40 -10 -22 6 -36 3 -30 -5 15 -25 -94 -124 -124 -112 -14 5 -37 -8 -51
-30 -28 -45 -95 -53 -95 -11 0 32 54 58 84 40 13 -8 15 3 6 33 -12 36 -8 43
17 33 17 -7 38 -3 45 9 9 14 18 13 28 -3 9 -15 19 14 23 67 4 51 0 93 -8 93
-8 0 -15 -8 -15 -18 0 -10 -20 -14 -45 -9 -44 10 -44 10 -5 -22 43 -35 9 -81
-45 -61 -16 5 -25 -9 -25 -38 0 -31 -14 -51 -40 -58 -31 -8 -40 0 -40 33 -1
30 -6 35 -17 17 -25 -39 -163 -56 -186 -22 -14 22 -17 19 -13 -11 4 -27 -7
-42 -34 -46 -22 -4 -53 -13 -70 -19 -16 -7 -37 -11 -46 -9 -10 2 -12 -4 -6
-14 7 -12 42 -11 87 1 41 11 98 22 127 25 28 2 62 11 75 19 12 8 23 5 23 -7 0
-11 13 -21 28 -21 15 0 33 -13 39 -30 7 -16 4 -30 -6 -30 -10 0 -22 11 -27 25
-5 14 -16 18 -26 8 -10 -9 -3 -24 15 -34 38 -22 29 -84 -18 -123 -25 -21 -33
-21 -40 -1 -5 14 -21 25 -37 25 -15 0 -28 14 -28 30 0 17 14 30 30 30 17 0 30
10 30 22 0 14 -19 18 -48 10 -30 -7 -52 -3 -57 13 -6 17 -19 14 -44 -11 -20
-20 -50 -31 -67 -24 -17 6 -38 0 -47 -14 -26 -41 -20 -49 28 -48 34 2 44 -8
41 -38 -3 -22 0 -29 6 -15 14 31 148 33 148 3 0 -13 -18 -18 -40 -12 -27 7
-40 0 -40 -21 0 -18 6 -26 13 -19 7 8 25 4 40 -9 20 -16 27 -16 27 1 0 12 16
21 35 20 21 -1 25 -5 10 -11 -14 -6 -25 -27 -25 -47 0 -20 -14 -40 -31 -44
-24 -5 -22 -11 10 -31 29 -18 40 -19 36 -3 -3 13 6 27 20 32 30 11 32 -23 4
-75 -20 -37 2 -51 65 -42 8 2 9 -11 3 -27 -17 -45 12 -37 137 39 108 65 189
65 103 0 -34 -26 -34 -28 -2 -28 19 -1 36 -17 37 -36 1 -21 5 -25 11 -10 6 14
19 20 29 14 27 -17 22 59 -7 88 -20 21 -17 32 15 55 34 25 36 32 10 48 -40 25
-75 25 -91 -1 -8 -14 -28 -11 -59 9 -40 27 -48 27 -58 1 -11 -29 -112 -42
-112 -14 1 18 90 105 109 105 7 0 8 -9 1 -20 -7 -11 6 -20 29 -20 22 0 41 10
41 21 0 12 -11 15 -23 7 -16 -10 -20 -4 -11 19 16 42 -23 43 -83 1 -25 -18
-51 -27 -57 -21 -6 7 17 28 51 47 35 20 63 47 63 61 0 14 7 25 15 25 8 0 26
25 40 55 13 31 51 66 85 79 36 13 60 37 60 58 0 28 5 31 24 12 19 -19 19 -29
0 -48 -29 -29 -32 -63 -4 -46 11 7 20 3 20 -9 0 -11 9 -21 20 -21 11 0 20 17
20 38 0 28 26 47 92 70 76 25 88 26 69 3 -13 -16 -44 -31 -67 -35 -27 -4 -46
-22 -48 -46 -9 -89 -46 -180 -46 -113 0 36 -25 28 -84 -27 -30 -27 -63 -50
-73 -50 -10 0 -24 -13 -30 -30 -15 -39 -12 -39 67 20 37 28 76 50 85 50 34 0
-11 -45 -101 -102 -51 -32 -78 -58 -61 -58 17 0 37 7 45 15 9 8 21 15 29 15 7
0 37 23 67 50 30 28 82 75 117 106 52 47 58 61 37 86 -27 33 71 25 176 -14 34
-12 42 -10 33 11 -5 16 -45 34 -89 41 -100 17 -80 54 24 42 59 -6 78 -1 78 20
0 20 -14 25 -46 17 -30 -7 -56 0 -73 20 -32 38 -75 39 -145 3 -52 -28 -76 -23
-76 13 0 10 11 15 24 10 13 -4 40 6 60 23 20 17 71 45 115 62 62 24 75 37 60
60 -10 17 -19 20 -19 7 0 -25 -77 -23 -119 2 -18 12 -22 5 -12 -25z m-409
-374 c-49 -52 -91 -42 -69 17 8 19 35 33 65 33 l51 0 -47 -50z"/>
<path d="M5865 5714 c30 -12 59 -36 65 -54 13 -40 70 -45 70 -7 0 26 -124 89
-167 85 -13 -1 2 -12 32 -24z"/>
<path d="M4790 5651 c-38 -28 -37 -30 25 -30 36 -1 65 9 65 20 0 12 -8 16 -18
10 -10 -6 -22 -2 -26 10 -4 12 -22 9 -46 -10z"/>
<path d="M5799 5659 c-20 -13 -21 -18 -4 -19 14 0 45 -20 69 -44 55 -55 142
-68 131 -20 -4 19 -19 32 -32 29 -14 -3 -50 12 -80 33 -38 27 -64 33 -84 21z"/>
<path d="M4574 5620 c8 -31 3 -38 -22 -28 -17 7 -32 2 -32 -10 0 -12 7 -22 15
-22 9 0 41 -23 72 -52 60 -56 90 -53 55 5 -11 21 -21 28 -22 17 -1 -20 -39 30
-40 52 0 7 22 8 49 3 28 -5 44 -19 38 -34 -5 -14 5 -31 22 -38 17 -6 31 -26
31 -42 0 -17 9 -31 20 -31 11 0 20 -10 20 -23 0 -12 16 -35 35 -49 28 -22 29
-27 5 -28 -61 -2 27 -39 94 -40 86 0 107 39 22 42 l-66 2 70 17 c39 9 92 11
118 5 34 -9 44 -5 33 12 -8 14 -20 20 -26 13 -7 -6 -26 2 -43 17 -18 15 -50
31 -72 36 -30 6 -39 21 -34 62 5 45 -2 54 -40 52 -25 0 -35 -6 -21 -11 27 -11
35 -87 10 -87 -39 1 -65 36 -52 70 9 25 6 32 -9 23 -13 -8 -34 4 -48 26 -14
23 -39 41 -56 41 -27 1 -27 3 0 20 24 16 22 19 -13 20 -24 0 -49 -11 -55 -25
-10 -20 -14 -20 -24 0 -19 41 -45 29 -34 -15z"/>
<path d="M4404 5576 c-33 -33 -30 -76 4 -76 33 0 60 60 37 83 -10 10 -28 6
-41 -7z"/>
<path d="M4468 5537 c-7 -12 -4 -27 6 -34 11 -7 24 -24 28 -38 6 -17 15 -14
31 11 19 30 16 41 -14 60 -27 17 -41 17 -51 1z"/>
<path d="M5710 5506 c-77 -40 -77 -39 -60 -67 9 -14 20 -16 28 -4 19 31 102
51 102 25 0 -12 9 -17 20 -10 12 7 20 -11 20 -44 -1 -43 -5 -49 -20 -26 -16
24 -19 21 -20 -16 0 -30 -8 -41 -23 -32 -13 8 -7 -9 15 -38 39 -54 68 -69 68
-36 0 10 -11 23 -25 29 -24 10 -5 32 55 63 12 6 10 15 -5 22 -14 6 -26 49 -27
95 0 46 -6 71 -12 57 -6 -17 -18 -19 -33 -7 -15 13 -44 9 -83 -11z"/>
<path d="M5860 5487 c0 -34 53 -36 67 -2 6 16 10 13 11 -8 2 -41 62 -67 62
-28 0 35 -27 53 -91 60 -31 3 -49 -5 -49 -22z"/>
<path d="M3195 5375 c-28 -42 -27 -45 18 -45 26 0 47 7 47 15 0 8 -10 15 -22
15 -16 0 -15 9 2 30 14 17 16 30 5 30 -11 0 -34 -20 -50 -45z"/>
<path d="M5900 5361 c0 -21 -9 -44 -21 -52 -14 -9 -14 -21 2 -40 12 -15 17
-37 10 -48 -8 -12 -1 -16 18 -9 37 15 39 2 8 -57 -13 -25 -29 -58 -37 -74 -17
-37 -107 -62 -143 -39 -20 13 -15 17 18 18 25 0 45 9 45 20 0 11 13 20 29 20
16 0 33 8 39 17 6 10 -11 13 -39 8 -28 -6 -49 0 -49 13 0 12 14 22 30 22 17 0
30 10 30 22 0 12 -12 18 -28 12 -15 -6 -38 0 -51 13 -18 18 -20 14 -10 -17 10
-32 9 -34 -9 -10 -12 17 -22 46 -22 66 0 20 -9 31 -20 24 -11 -7 -21 -1 -22
14 -1 14 -8 4 -16 -24 -11 -39 -26 -49 -69 -46 -52 4 -54 1 -41 -68 10 -51 7
-68 -9 -58 -13 8 -23 5 -23 -7 0 -11 12 -21 27 -21 14 0 27 -11 29 -25 1 -14
8 -49 15 -79 9 -38 3 -65 -20 -88 -24 -24 -27 -38 -11 -48 13 -8 22 -31 19
-52 -8 -83 2 -128 31 -128 17 0 30 -8 30 -18 0 -10 -18 -14 -40 -8 -46 12 -55
-24 -10 -41 47 -18 35 -54 -15 -46 -28 5 -43 20 -39 39 3 19 -20 45 -55 64
-36 18 -61 22 -61 10 0 -12 -21 -16 -50 -8 -38 9 -50 4 -50 -20 0 -19 17 -32
40 -32 22 0 40 -9 40 -20 0 -12 25 -31 55 -44 30 -13 71 -42 90 -65 28 -33 33
-34 23 -6 -17 48 12 44 73 -10 41 -35 49 -56 37 -95 -8 -27 -15 -39 -16 -26
-4 44 -73 68 -73 26 0 -20 4 -34 11 -30 6 3 28 -6 49 -22 38 -27 38 -28 -4
-28 -23 0 -48 -9 -55 -20 -7 -11 9 -20 36 -20 39 0 49 -10 49 -49 0 -55 -21
-49 -114 30 -40 34 -44 45 -20 60 21 13 17 16 -16 14 -25 -2 -45 -11 -45 -21
0 -9 -18 -11 -40 -4 -54 17 -50 1 9 -38 47 -30 49 -30 38 3 -7 19 20 -1 60
-45 40 -44 78 -96 85 -116 6 -21 24 -32 40 -26 15 6 28 2 28 -9 0 -10 -8 -19
-17 -19 -24 0 4 -140 38 -195 16 -24 42 -42 59 -40 18 3 30 -10 30 -35 0 -22
13 -40 30 -40 19 0 32 -22 34 -60 3 -33 -1 -46 -8 -30 -7 17 -29 42 -49 56
-20 15 -37 39 -37 55 0 42 -40 36 -41 -6 -1 -26 -57 100 -59 131 0 4 -10 0
-23 -8 -14 -9 -18 -5 -9 9 8 13 6 23 -3 23 -10 0 -29 20 -43 45 -13 25 -48 63
-78 84 -49 37 -49 35 11 -40 120 -149 159 -250 132 -340 l-24 -79 -2 90 c-2
50 -16 117 -32 150 l-29 60 11 -77 c13 -88 -30 -97 -53 -12 l-14 49 -1 -50
c-1 -27 11 -72 27 -100 16 -27 29 -70 29 -95 1 -25 10 -45 20 -45 11 0 15 -13
8 -30 -17 -44 -43 -37 -52 15 -7 38 -10 40 -23 11 -18 -38 42 -134 84 -135 19
-1 22 -20 13 -71 -8 -40 -5 -70 6 -70 23 0 71 -101 56 -116 -6 -6 -25 6 -41
27 -27 37 -29 36 -31 -21 -2 -59 -2 -59 -21 -11 -11 26 -15 59 -10 73 5 14 -4
30 -21 36 -16 7 -25 20 -18 30 6 9 -2 28 -17 41 -20 16 -33 16 -41 2 -8 -12
-4 -21 8 -21 11 0 21 -25 21 -55 0 -30 14 -81 31 -114 17 -32 26 -70 20 -84
-10 -28 49 -147 74 -147 26 0 16 96 -10 107 -19 8 -19 14 2 29 23 16 23 21 0
30 -16 6 -9 11 16 12 24 1 48 13 54 27 7 18 10 18 11 1 1 -13 -6 -29 -16 -35
-28 -17 60 -394 108 -466 44 -65 44 -65 66 -20 20 43 21 43 23 4 0 -23 14 -59
30 -80 39 -51 39 -81 1 -49 -24 20 -30 19 -30 -6 0 -18 8 -37 19 -43 10 -7 25
-52 32 -102 19 -123 53 -137 39 -16 -13 114 -13 97 0 377 9 220 -14 333 -77
373 -11 8 -22 28 -25 46 -6 40 -50 96 -64 82 -5 -6 1 -23 15 -40 14 -16 28
-75 32 -129 8 -117 41 -189 79 -175 18 7 26 -3 24 -28 -2 -28 -13 -36 -38 -28
-44 14 -47 -23 -6 -64 17 -16 29 -58 27 -93 l-3 -64 -9 60 c-11 83 -39 106
-72 61 -26 -35 -28 -34 -37 16 -6 29 -4 53 4 53 8 0 15 23 15 52 0 32 -6 43
-15 28 -19 -31 -60 -8 -60 33 0 20 11 27 30 20 17 -7 30 -4 30 6 0 10 -18 24
-41 31 -30 10 -37 24 -28 54 10 30 7 37 -12 25 -19 -11 -22 -6 -12 19 40 107
39 254 -4 312 -53 72 -54 87 -5 61 20 -11 43 -43 50 -70 7 -28 53 -88 103
-134 58 -54 82 -89 68 -98 -17 -10 -16 -28 4 -66 28 -52 28 -52 28 32 1 47 -6
90 -15 96 -14 10 -24 62 -34 174 -1 14 -12 23 -25 20 -12 -3 -26 6 -31 20 -6
15 8 25 34 25 34 0 41 8 31 35 -8 19 -21 74 -30 121 l-16 85 47 -31 c27 -17
48 -24 48 -15 0 8 -18 27 -40 40 -22 14 -40 43 -40 65 0 22 -18 51 -40 65 -22
13 -40 45 -40 71 0 25 7 42 15 37 51 -31 60 48 14 117 -34 49 -53 110 -59 184
-4 60 -19 123 -33 140 -21 25 -18 28 14 23 34 -6 39 5 39 86 0 122 15 133 92
69 35 -30 69 -48 76 -40 6 7 1 17 -13 22 -14 5 -25 23 -25 39 0 16 -8 24 -18
18 -9 -6 -29 3 -42 19 -14 17 -37 30 -52 30 -16 0 -28 14 -28 32 0 22 11 28
32 20 18 -7 5 14 -30 46 -34 32 -62 64 -62 71 0 18 83 -28 136 -76 37 -34 49
-37 63 -15 13 22 19 20 27 -10 7 -27 10 -22 12 17 1 36 -9 56 -28 58 -16 1
-39 4 -50 7 -11 3 -29 6 -40 8 -11 1 -20 16 -20 34 0 25 -12 29 -53 19 -46
-12 -50 -9 -30 16 17 20 18 34 4 42 -62 38 -17 67 94 60 63 -4 100 -2 82 3
-22 7 -30 25 -23 54 9 43 8 43 -23 5 -28 -35 -31 -35 -31 -4 0 20 -8 30 -18
24 -10 -6 -22 1 -28 15 -13 35 77 136 126 140 47 3 54 50 10 67 -16 6 -25 19
-19 29 7 10 22 13 35 7 13 -7 -1 11 -31 38 -60 56 -71 84 -26 66 23 -9 24 0 8
48 -24 68 -37 75 -37 20z m-120 -1385 c0 -12 23 -42 50 -68 58 -53 62 -68 20
-68 -17 0 -40 23 -50 50 -10 28 -35 50 -55 50 -27 1 -29 4 -7 18 16 10 21 28
11 43 -10 16 -7 20 8 11 13 -8 23 -24 23 -36z m87 -535 c-16 -18 -66 72 -65
119 1 43 6 38 37 -30 20 -44 32 -84 28 -89z m-31 -81 c20 -67 43 -115 50 -107
8 7 14 -2 14 -22 0 -30 -5 -32 -30 -11 -16 14 -30 38 -30 53 0 16 -13 48 -28
73 -41 64 -58 134 -34 134 11 0 37 -54 58 -120z"/>
<path d="M4372 5364 c-6 -10 -34 -16 -62 -13 -27 3 -50 -3 -50 -13 0 -10 10
-18 22 -18 15 0 14 -11 -4 -32 -23 -28 -22 -31 13 -24 21 5 36 20 33 35 -3 15
6 21 24 15 16 -6 34 3 41 20 14 36 1 59 -17 30z"/>
<path d="M3353 5308 l-57 -50 57 14 c89 22 138 60 96 76 -40 15 -29 19 -96
-40z"/>
<path d="M5070 5320 c-7 -12 -21 -15 -31 -9 -11 6 -19 2 -19 -10 0 -11 28 -21
62 -21 54 0 59 4 38 30 -29 36 -34 36 -50 10z"/>
<path d="M4503 5268 c-20 -23 -21 -36 -3 -58 13 -16 17 -38 10 -51 -9 -14 -24
-8 -43 19 -17 24 -41 36 -59 28 -24 -9 -16 -21 35 -54 77 -48 135 -111 136
-147 2 -44 36 -27 46 23 7 38 2 46 -23 37 -24 -8 -22 -1 8 29 41 41 79 39 127
-8 14 -15 35 -21 46 -14 11 7 40 -6 63 -27 24 -22 68 -45 97 -52 29 -7 68 -18
85 -25 21 -8 32 -1 32 18 0 20 -27 35 -75 43 -129 22 -148 50 -34 51 115 0
289 -52 289 -87 0 -13 28 -39 62 -58 45 -26 57 -43 43 -60 -22 -28 60 -123 85
-99 8 8 8 -7 0 -34 -9 -30 -7 -43 6 -34 12 7 39 -10 60 -38 22 -27 45 -50 52
-50 25 0 10 39 -38 96 -57 68 -64 93 -19 76 19 -7 26 -3 18 10 -7 11 -25 16
-40 10 -15 -6 -34 0 -41 12 -8 13 -5 17 7 9 11 -7 26 0 31 15 12 29 -21 72
-55 73 -64 2 -95 54 -62 105 33 50 25 102 -21 149 -33 33 -48 32 -48 -5 0 -16
9 -30 20 -30 29 0 24 -59 -8 -91 -24 -24 -31 -24 -51 0 -16 19 -16 32 -2 40
28 18 27 56 -2 47 -13 -5 -43 12 -68 37 -42 42 -118 49 -173 15 -27 -17 -18
-48 14 -48 17 0 30 -7 30 -16 0 -18 -106 -15 -137 4 -11 7 -24 3 -30 -8 -5
-12 -8 -10 -5 5 3 14 25 22 49 19 24 -4 43 3 43 16 0 14 -36 20 -96 18 -53 -3
-108 2 -123 11 -14 9 -31 6 -39 -6 -45 -73 -171 -28 -141 50 10 27 19 54 19
58 0 21 -52 5 -77 -23z"/>
<path d="M3220 5235 c-120 -47 -216 -100 -300 -163 -87 -67 -124 -76 -112 -26
3 13 2 17 -3 9 -5 -8 -16 -11 -25 -5 -33 20 -40 -27 -9 -58 28 -28 25 -36 -26
-86 -31 -31 -48 -49 -37 -41 35 26 71 17 59 -15 -8 -21 -2 -27 18 -19 17 6 30
22 29 35 -1 60 8 94 25 94 10 0 43 22 72 49 29 27 59 48 66 47 17 -3 114 36
209 85 42 22 92 43 110 47 126 26 164 39 164 55 0 23 -82 21 -119 -2 -16 -10
-39 -11 -50 -2 -12 9 -43 7 -71 -4z"/>
<path d="M5353 5226 c-30 -29 71 -126 132 -126 40 0 8 45 -45 63 -33 11 -55
28 -50 38 13 20 -20 43 -37 25z"/>
<path d="M3662 5196 c-105 -29 -46 -51 98 -36 72 8 103 15 69 17 -34 2 -70 11
-80 20 -11 10 -49 9 -87 -1z"/>
<path d="M3225 5093 c-80 -11 -145 -28 -145 -39 0 -12 41 -13 105 -5 220 30
335 31 335 3 0 -22 21 -22 122 2 132 30 198 6 198 -72 0 -33 175 -103 252
-101 45 1 -42 54 -106 65 -66 10 -125 52 -76 54 34 1 32 6 -14 31 -32 17 -50
41 -44 57 13 34 -391 37 -627 5z"/>
<path d="M4632 4987 c-7 -18 -10 -34 -7 -36 87 -49 235 -69 235 -31 0 11 -23
20 -52 20 -36 0 -49 9 -42 27 8 20 -5 26 -49 20 -35 -4 -54 1 -47 13 7 11 4
20 -7 20 -10 0 -24 -15 -31 -33z"/>
<path d="M3260 4988 c0 -32 45 -68 84 -68 20 0 36 9 36 20 0 11 -16 20 -36 20
-20 0 -47 11 -60 24 -13 13 -24 15 -24 4z"/>
<path d="M3525 4965 c-90 -11 -82 -43 10 -41 41 1 118 -7 170 -18 112 -24 119
-19 30 21 -86 39 -132 48 -210 38z"/>
<path d="M4900 4962 c0 -10 28 -28 63 -40 83 -29 106 -28 73 5 -33 33 -136 60
-136 35z"/>
<path d="M3070 4940 c-112 -25 -301 -140 -231 -140 14 0 13 -13 -3 -39 -14
-22 -19 -45 -12 -52 15 -15 136 52 136 75 0 9 14 16 30 16 17 0 46 16 65 35
19 19 56 44 82 56 66 29 14 67 -67 49z"/>
<path d="M5161 4901 c-36 -23 -31 -28 64 -55 66 -20 75 -18 75 13 0 19 -13 34
-30 34 -16 0 -30 -9 -30 -20 0 -11 -11 -6 -25 13 -17 23 -34 28 -54 15z"/>
<path d="M4874 4887 c-8 -7 1 -24 19 -37 18 -13 27 -34 19 -46 -16 -27 -75 -8
-99 32 -14 23 -21 24 -34 3 -25 -41 25 -99 86 -99 30 0 54 7 53 15 -7 40 6 43
49 15 25 -16 52 -25 58 -18 7 7 8 -9 2 -35 -9 -43 -8 -44 14 -9 23 37 25 36
51 -10 19 -34 27 -38 27 -15 1 17 -12 43 -29 57 -16 14 -30 37 -30 52 0 39
-160 121 -186 95z"/>
<path d="M5101 4844 c-1 -15 12 -40 27 -55 16 -16 24 -47 17 -72 -8 -30 -4
-39 12 -29 15 9 23 -1 23 -27 0 -22 -10 -41 -21 -41 -12 0 -16 -9 -9 -20 7
-12 20 -16 30 -10 9 6 21 -1 26 -15 4 -14 5 -5 1 19 -4 24 2 49 13 56 13 8 7
33 -17 66 -20 30 -33 67 -28 82 6 16 1 22 -11 14 -12 -7 -31 3 -42 23 -13 22
-21 25 -21 9z"/>
<path d="M4000 4823 c0 -27 40 -52 90 -55 77 -4 90 -8 90 -28 0 -11 -18 -20
-40 -20 -22 0 -40 -9 -40 -20 0 -11 19 -20 41 -20 25 0 36 -9 28 -22 -10 -15
1 -18 33 -7 l48 14 -50 -42 c-27 -23 -39 -42 -25 -42 14 -1 25 8 25 19 0 11
28 20 61 20 36 0 56 8 49 20 -7 11 -4 20 7 20 11 0 23 -7 26 -15 8 -17 130
-105 146 -105 5 0 0 22 -12 48 -14 32 -34 45 -54 39 -29 -9 -29 -7 1 18 20 17
27 37 17 53 -11 19 -18 20 -24 3 -4 -13 -41 8 -86 50 -68 62 -85 69 -125 51
-37 -17 -46 -15 -46 10 0 28 -3 28 -31 0 -28 -28 -36 -28 -80 1 -28 18 -49 22
-49 10z"/>
<path d="M4595 4773 c-14 -15 -37 -22 -50 -18 -14 5 -25 -1 -25 -13 0 -12 7
-21 15 -20 73 12 86 -25 20 -54 -25 -11 -32 -17 -17 -14 15 4 42 -6 60 -21 45
-39 130 -51 157 -22 32 35 9 50 -44 29 -58 -22 -116 10 -71 40 17 11 50 20 74
20 58 0 71 26 35 72 -25 33 -27 33 -17 3 9 -26 2 -35 -31 -35 -24 0 -38 8 -32
18 18 30 -46 42 -74 15z"/>
<path d="M5220 4763 c0 -33 74 -83 122 -82 l48 0 -50 29 c-32 18 -39 29 -20
31 20 1 17 7 -10 19 -53 23 -90 24 -90 3z"/>
<path d="M4960 4666 c0 -24 9 -49 20 -56 11 -7 20 -21 20 -33 0 -11 -13 -6
-30 10 -16 17 -30 44 -30 60 0 22 -20 29 -70 27 -38 -2 -70 -14 -70 -27 0 -13
25 -21 58 -19 38 3 65 -9 82 -35 25 -41 -3 -42 -110 -4 -36 13 -36 12 -5 -8
19 -13 35 -37 35 -53 0 -17 9 -25 20 -18 11 7 20 2 20 -10 0 -12 11 -20 25
-19 72 10 84 -3 37 -39 l-49 -37 59 8 c32 5 69 10 83 11 14 2 25 10 25 19 0
30 81 18 93 -14 8 -22 28 -28 65 -20 63 13 124 -16 74 -36 -18 -6 -32 -21 -32
-32 0 -30 55 -26 67 4 6 15 16 7 24 -20 8 -25 21 -45 31 -45 9 0 11 16 4 35
-12 30 -9 31 19 9 28 -23 30 -21 21 15 -8 32 -4 39 22 29 17 -7 32 -3 32 8 0
34 -49 39 -72 8 -27 -36 -71 -15 -55 27 8 21 -3 29 -42 29 -34 0 -48 8 -40 22
21 34 -34 58 -78 34 -41 -21 -105 29 -82 65 5 8 -12 5 -39 -7 -29 -14 -44 -35
-38 -53 8 -27 7 -27 -11 -2 -14 21 -14 38 1 55 13 16 14 26 1 26 -11 0 -34 29
-52 65 -27 54 -32 58 -33 21z"/>
<path d="M2588 4637 c-88 -66 -98 -77 -76 -77 21 0 166 118 146 119 -7 1 -39
-19 -70 -42z"/>
<path d="M4035 4639 c6 -25 21 -37 38 -31 15 6 27 -2 27 -17 0 -16 -16 -32
-35 -37 -28 -7 -26 -10 8 -12 67 -3 78 95 13 119 -64 25 -64 25 -51 -22z"/>
<path d="M4222 4567 c-28 -32 -4 -66 47 -67 10 0 8 -11 -5 -24 -50 -50 6 -94
133 -106 l73 -7 -60 33 -60 33 94 11 c52 7 100 17 106 23 15 15 -109 40 -131
26 -10 -6 -47 5 -83 23 -63 33 -64 34 -21 50 61 23 57 38 -10 37 -30 0 -67
-15 -83 -32z"/>
<path d="M3986 4445 c-17 -49 -88 -125 -117 -125 -14 0 -30 -13 -36 -29 -9
-25 0 -24 58 3 38 19 69 41 69 50 0 22 87 20 111 -2 10 -10 51 -27 90 -37 l70
-19 -8 67 c-4 37 -16 67 -27 67 -11 0 -15 -15 -8 -32 15 -40 -85 -23 -118 20
-11 14 -31 22 -45 17 -14 -5 -25 1 -25 12 0 11 11 24 25 30 20 8 19 10 -1 11
-14 1 -31 -14 -38 -33z"/>
<path d="M4714 4464 c-57 -12 -1 -64 69 -64 33 0 63 -13 70 -30 6 -16 18 -30
27 -30 19 0 2 79 -17 82 -55 6 -91 18 -101 33 -7 9 -28 13 -48 9z"/>
<path d="M4550 4429 c-58 -27 -59 -28 -15 -41 25 -7 45 -21 45 -32 0 -10 -18
-13 -40 -6 -32 10 -40 4 -38 -34 0 -25 5 -36 10 -24 21 50 189 -58 182 -117
-5 -36 2 -53 17 -50 14 3 48 -20 77 -51 60 -64 64 -77 22 -61 -16 6 -30 2 -30
-10 0 -11 17 -26 38 -32 23 -8 37 -31 37 -61 0 -27 -8 -44 -17 -38 -10 5 -18
19 -18 29 0 23 -126 139 -138 128 -4 -4 4 -22 18 -39 20 -24 20 -30 -3 -30
-17 -1 -12 -13 15 -35 57 -47 72 -97 37 -126 -23 -19 -36 -18 -59 1 -25 21
-29 21 -19 -2 6 -15 40 -50 75 -78 35 -27 51 -33 36 -14 -39 49 -10 68 38 24
25 -23 36 -51 29 -78 -6 -24 -1 -87 11 -141 13 -61 14 -102 3 -109 -11 -7 2
-39 29 -72 30 -37 48 -49 48 -30 1 64 39 -29 41 -100 2 -75 34 -173 39 -120 2
17 16 1 32 -35 37 -86 48 -82 33 10 -11 69 -9 73 22 47 56 -46 -10 102 -103
233 -26 36 -48 83 -49 105 -2 22 -11 40 -19 40 -9 0 -16 14 -16 31 0 17 -15
53 -33 80 -18 28 -27 56 -20 63 7 7 13 2 13 -10 0 -13 13 -18 28 -12 35 13 31
44 -13 108 -47 66 -44 83 10 62 73 -29 224 -72 235 -68 6 2 39 -24 75 -59 36
-34 65 -52 65 -38 0 14 9 20 20 13 35 -22 22 -48 -20 -40 -46 9 -54 -33 -14
-74 15 -14 43 -51 63 -82 46 -70 64 -55 26 22 -24 48 -25 67 -5 105 l25 46 24
-45 c43 -81 45 -29 2 55 -47 93 -49 103 -21 103 11 0 20 -12 20 -28 0 -15 12
-37 27 -49 27 -23 26 -9 -18 222 -18 94 0 94 82 3 46 -52 68 -65 80 -47 9 16
7 20 -7 12 -23 -15 -71 53 -52 73 7 6 -11 26 -39 44 -31 20 -46 45 -39 63 8
21 0 28 -26 24 -27 -5 -40 7 -44 38 -4 25 -15 40 -25 34 -11 -6 -19 -1 -19 11
0 12 -9 17 -20 10 -13 -8 -5 -33 20 -64 63 -81 32 -77 -48 6 -50 51 -69 86
-61 111 9 29 1 37 -35 37 -25 0 -72 14 -104 31 -47 24 -62 25 -75 5 -11 -18
-16 -11 -17 21 0 35 -8 44 -32 35 -17 -7 -53 -18 -80 -24 -26 -7 -48 -19 -48
-27 0 -20 89 -101 111 -101 11 1 -3 18 -31 39 -76 59 -41 63 70 9 55 -27 116
-45 135 -40 19 4 35 0 35 -11 0 -11 8 -14 19 -8 10 6 24 3 31 -9 7 -11 4 -20
-6 -20 -10 0 -14 -23 -9 -52 7 -33 16 -43 25 -28 20 32 138 -139 124 -178 -6
-20 1 -24 24 -16 28 11 30 7 10 -29 -17 -33 -16 -46 5 -59 20 -13 14 -17 -19
-18 -26 0 -42 7 -36 16 5 9 -7 31 -28 49 -27 23 -40 26 -46 9 -5 -13 -19 -1
-30 28 -22 55 -126 111 -164 88 -12 -7 -66 33 -121 91 -104 109 -127 155 -59
119 22 -12 40 -17 40 -11 0 5 -26 23 -58 40 -56 29 -58 28 -47 -12 11 -40 9
-40 -30 -6 -23 19 -37 47 -31 62 6 15 -1 27 -14 27 -13 0 -20 12 -14 27 6 16
-9 39 -37 53 -49 27 -82 80 -48 80 10 0 19 -10 19 -21 0 -12 9 -16 19 -10 74
46 -21 81 -109 40z m568 -527 c15 -10 21 -28 13 -40 -8 -13 -7 -22 3 -20 43 7
62 -8 105 -87 l47 -85 -49 45 c-27 25 -58 45 -68 46 -21 0 -104 71 -146 125
-32 39 40 51 95 16z"/>
<path d="M5908 4285 c4 -25 0 -45 -10 -45 -10 0 -18 10 -18 21 0 12 -9 16 -20
9 -28 -17 -5 -50 35 -50 17 0 48 -15 68 -33 33 -29 37 -29 37 -2 0 17 -14 36
-30 42 -17 7 -40 33 -51 58 l-20 45 9 -45z"/>
<path d="M4392 4272 c9 -24 -8 -29 -95 -25 -59 3 -117 -3 -130 -12 -14 -10
-29 -8 -36 4 -28 44 -181 23 -273 -37 -48 -33 -114 -65 -147 -74 -32 -8 -80
-26 -107 -39 -27 -14 -78 -23 -114 -20 -50 5 -64 -1 -62 -26 3 -49 75 -86 111
-56 23 19 26 17 16 -10 -7 -18 1 -50 17 -70 28 -35 29 -34 17 11 -11 39 -7 46
19 36 17 -7 32 -4 32 7 0 10 -10 19 -21 19 -12 0 -15 10 -8 22 9 15 43 17 97
8 150 -26 172 -27 172 -3 1 14 6 16 15 3 20 -27 127 -100 170 -116 33 -12 33
-9 4 48 -20 39 -42 57 -60 50 -44 -17 -100 9 -66 30 19 13 14 17 -18 18 -25 0
-45 10 -45 22 0 14 18 18 45 11 25 -7 52 -13 61 -13 9 0 10 -10 2 -23 -9 -15
-5 -18 10 -8 15 9 41 -2 64 -27 40 -42 91 -59 68 -22 -7 11 1 20 16 20 50 0
55 -97 7 -131 -23 -16 -35 -30 -27 -31 7 -2 24 -4 37 -5 30 -4 69 -67 51 -85
-26 -27 -170 37 -234 105 -35 37 -87 72 -117 78 -29 6 -69 20 -88 30 -42 23
-75 25 -75 4 0 -8 27 -27 60 -42 34 -15 72 -37 85 -50 82 -77 247 -160 337
-170 12 -2 17 -15 12 -31 -8 -19 0 -24 27 -17 22 5 39 0 39 -13 0 -12 10 -22
22 -22 15 0 14 11 -3 32 -52 62 -38 168 17 132 38 -25 51 -26 63 -5 11 18 20
19 30 3 17 -28 131 -29 131 -1 0 11 -11 19 -25 16 -80 -16 -214 66 -178 109
14 17 3 45 -38 94 -49 59 -62 65 -79 40 -18 -26 -26 -24 -59 15 -21 25 -60 45
-89 45 -42 0 -52 10 -52 48 0 40 -8 46 -45 38 -36 -8 -39 -5 -15 12 71 50 260
10 260 -55 0 -8 27 -30 60 -50 75 -44 78 -20 5 43 l-55 47 78 -11 c43 -6 84
-19 91 -30 8 -13 23 -13 42 -1 23 15 23 18 2 19 -20 0 -25 17 -16 59 6 33 3
65 -7 71 -11 7 -14 -1 -8 -18z m-423 -153 c-7 -12 -25 -17 -40 -12 -14 6 -37
-2 -50 -18 -13 -16 -30 -25 -37 -20 -8 5 -53 0 -101 -11 -59 -13 -94 -13 -108
1 -15 15 -2 21 42 21 34 0 68 9 74 19 7 11 25 14 40 8 16 -5 45 -1 65 11 48
28 132 28 115 1z"/>
<path d="M5280 4243 c0 -20 25 -49 55 -65 30 -15 62 -38 70 -51 8 -12 46 -28
85 -36 38 -7 70 -22 70 -34 0 -12 -15 -15 -35 -8 -19 7 0 -23 44 -67 43 -45
82 -78 86 -73 9 8 -32 94 -53 111 -7 6 -21 27 -33 47 -35 65 -289 219 -289
176z"/>
<path d="M4475 4247 c14 -6 25 -32 25 -57 0 -26 9 -53 20 -60 11 -7 20 -3 20
9 0 11 18 21 40 21 22 0 40 -9 40 -19 0 -11 14 -15 30 -8 17 6 30 24 30 39 0
24 -15 30 -70 28 -6 -1 -37 13 -69 30 -33 16 -66 29 -75 28 -9 0 -5 -6 9 -11z"/>
<path d="M4914 4127 c-20 -32 33 -91 87 -97 27 -3 76 -13 109 -21 54 -14 57
-12 33 17 -42 52 -143 98 -128 59 9 -24 4 -26 -30 -8 -23 13 -45 33 -50 47 -5
16 -12 17 -21 3z"/>
<path d="M4407 4004 c-1 -19 -8 -49 -15 -66 -17 -39 23 -60 136 -69 96 -9 126
6 80 40 -22 16 -30 40 -23 68 8 30 2 43 -19 43 -19 0 -26 -11 -19 -30 15 -40
-4 -87 -33 -82 -45 6 -77 36 -67 63 6 14 0 35 -14 46 -18 15 -25 11 -26 -13z"/>
<path d="M3398 3923 c-56 -46 -28 -63 56 -34 59 21 61 24 27 46 -31 19 -47 17
-83 -12z"/>
<path d="M3689 3890 c48 -37 28 -61 -27 -31 -23 12 -42 15 -42 7 0 -26 109
-69 117 -46 3 11 21 19 40 18 20 -1 24 -5 8 -11 -39 -16 -29 -58 15 -61 70 -6
35 75 -50 117 -92 44 -114 47 -61 7z"/>
<path d="M3960 3660 c0 -20 11 -41 25 -47 19 -7 18 -15 -5 -31 -26 -18 -26
-24 2 -53 30 -30 34 -30 45 0 7 20 4 28 -7 21 -11 -7 -20 -4 -20 6 0 11 18 24
41 30 22 6 38 21 35 35 -3 13 6 28 21 34 20 7 24 -2 14 -31 -10 -32 -3 -42 32
-47 24 -4 48 -20 53 -37 7 -23 3 -25 -16 -7 -26 25 -80 15 -80 -15 0 -10 17
-18 38 -18 63 0 102 -22 102 -57 1 -26 4 -28 18 -6 14 22 29 19 79 -18 35 -25
69 -40 77 -32 7 8 -6 28 -30 45 -24 16 -44 41 -44 54 1 16 7 14 18 -4 14 -22
20 -20 28 10 9 35 10 35 12 2 1 -20 11 -31 23 -23 11 7 34 2 50 -12 16 -13 29
-16 28 -6 0 9 -30 40 -68 67 -38 28 -58 56 -46 63 12 7 2 22 -22 36 -28 15
-43 15 -43 2 0 -12 7 -21 16 -21 58 0 12 -71 -49 -75 -42 -3 -65 3 -57 15 7
11 3 20 -9 20 -11 0 -21 14 -21 30 0 17 -11 28 -25 25 -14 -3 -22 10 -19 30 4
25 -8 35 -40 36 -25 1 -71 5 -101 9 -43 6 -55 -1 -55 -30z"/>
<path d="M5140 3600 c0 -40 10 -60 30 -60 33 0 35 9 17 75 -17 65 -47 55 -47
-15z"/>
<path d="M5440 3489 c0 -17 -9 -26 -20 -19 -11 7 -20 -6 -20 -29 0 -23 16 -48
35 -55 19 -8 47 -28 61 -45 21 -26 24 -18 15 49 -5 44 -10 91 -10 105 -1 37
-61 31 -61 -6z"/>
<path d="M5311 3385 c8 -19 25 -64 37 -100 12 -36 29 -65 37 -65 22 0 19 11
-27 110 -40 84 -80 131 -47 55z"/>
<path d="M1955 3265 c-30 -19 -55 -45 -55 -58 0 -17 -28 -21 -92 -14 -68 7
-88 4 -78 -13 8 -13 41 -20 73 -15 32 4 64 0 70 -9 6 -10 23 -7 39 5 15 13 23
31 17 40 -5 9 -1 22 11 29 11 7 20 4 20 -5 0 -10 27 -14 60 -9 55 8 87 44 39
44 -12 0 -16 9 -9 20 19 31 -34 23 -95 -15z"/>
<path d="M2181 3188 c-38 -27 -81 -45 -95 -39 -14 5 -26 2 -26 -8 0 -21 57
-36 100 -26 17 4 46 34 64 66 19 32 32 58 30 57 -2 -1 -35 -23 -73 -50z"/>
<path d="M2273 3194 c-68 -54 -49 -81 77 -103 44 -8 109 -28 145 -45 37 -18
86 -25 115 -18 55 14 69 52 19 52 -17 0 -88 19 -159 42 -72 23 -149 36 -174
29 -49 -14 -32 5 57 63 29 18 30 24 7 25 -16 0 -56 -20 -87 -45z"/>
<path d="M1860 3061 c0 -20 168 -87 276 -110 54 -12 62 -20 43 -43 -19 -23
-15 -28 24 -29 72 -3 -13 -36 -96 -38 -36 0 -68 -14 -74 -31 -7 -16 -30 -30
-52 -30 -23 0 -41 -8 -41 -17 0 -10 23 -13 50 -8 28 5 50 18 50 27 0 10 20 18
44 18 43 0 43 -1 5 -29 -37 -28 -37 -28 11 -16 27 6 66 28 87 47 60 56 130 3
72 -55 -15 -15 -13 -25 8 -33 16 -6 35 1 41 17 14 38 80 37 112 -1 13 -16 33
-25 42 -19 10 7 43 -6 73 -27 30 -21 87 -54 125 -72 l70 -34 -50 42 c-27 22
-75 63 -105 91 -31 27 -66 49 -79 49 -12 0 -17 6 -10 13 8 7 5 24 -7 38 -14
17 -11 28 10 36 49 19 36 47 -32 71 -81 28 -77 30 -73 -27 3 -26 13 -47 23
-45 10 2 22 -7 27 -19 5 -14 -7 -21 -28 -17 -20 4 -42 8 -50 8 -8 1 -9 17 -2
34 10 26 3 30 -36 19 -44 -12 -45 -11 -13 15 46 37 44 47 -10 60 -25 6 -124
39 -221 72 -190 67 -214 72 -214 43z"/>
<path d="M4070 3040 c-7 -12 -6 -20 4 -18 41 7 67 -4 62 -27 -3 -14 13 -44 37
-68 23 -23 52 -59 64 -80 18 -32 27 -33 63 -11 47 29 80 17 80 -30 0 -24 -6
-26 -27 -9 -22 18 -27 10 -29 -41 -1 -43 4 -55 15 -37 19 30 61 -90 61 -174 0
-25 12 -45 26 -45 18 0 23 -22 17 -73 -5 -50 -1 -68 14 -59 13 8 23 43 23 79
0 35 13 83 29 106 16 23 24 47 18 54 -7 6 -16 53 -20 103 -4 51 -22 114 -40
141 -17 27 -23 49 -12 49 57 0 144 -306 112 -392 -6 -15 0 -28 14 -28 78 0
-29 406 -135 512 -63 63 -73 60 -58 -16 l13 -64 -57 54 c-31 30 -71 54 -90 54
-19 0 -34 10 -34 22 0 17 -8 16 -28 -1 -20 -16 -33 -16 -41 -2 -17 27 -65 27
-81 1z m150 -40 c0 -11 16 -20 35 -20 20 0 48 -20 63 -45 l28 -45 -47 40 -47
40 34 -54 c18 -30 26 -58 17 -64 -23 -15 -148 124 -133 148 16 26 50 26 50 0z
m231 -348 c7 -37 8 -85 3 -105 -6 -26 -10 -21 -12 17 -1 29 -11 76 -22 105
-11 31 -12 51 0 51 10 0 24 -31 31 -68z"/>
<path d="M3360 3023 c0 -9 23 -42 51 -72 28 -31 45 -61 38 -68 -7 -7 -25 5
-41 27 -25 34 -32 35 -48 10 -15 -23 -22 -20 -38 20 -13 33 -20 38 -21 16 0
-18 26 -53 60 -76 53 -39 59 -52 48 -117 -11 -71 -10 -72 22 -33 25 29 31 31
23 7 -7 -19 8 -49 35 -73 26 -22 56 -57 67 -77 12 -20 28 -29 37 -20 10 9 1
28 -18 42 -19 14 -30 29 -24 35 5 6 -4 36 -21 68 -16 32 -30 80 -30 106 0 62
58 16 108 -84 18 -38 31 -50 32 -30 0 45 -42 136 -63 136 -9 0 -17 14 -17 30
0 17 -11 30 -25 30 -14 0 -51 32 -84 70 -56 68 -91 88 -91 53z"/>
<path d="M2740 2990 c-14 -17 -22 -33 -18 -37 64 -45 123 -72 137 -64 10 6 30
-16 44 -49 16 -35 38 -56 53 -51 14 6 51 -14 83 -44 65 -63 196 -137 212 -121
29 29 -36 109 -82 101 -38 -8 -52 3 -75 58 -30 73 -94 139 -94 98 0 -14 -21
-8 -51 16 -28 23 -62 38 -75 35 -13 -3 -17 -2 -9 3 28 16 15 39 -36 62 -63 29
-59 29 -89 -7z"/>
<path d="M3622 2975 c-2 -41 -11 -42 -63 -14 -51 27 -50 -5 2 -52 36 -32 44
-33 62 -8 15 23 17 20 8 -11 -7 -27 3 -49 30 -66 36 -22 38 -21 20 11 -11 19
-29 67 -39 105 -10 39 -19 54 -20 35z"/>
<path d="M4034 2946 c-7 -10 4 -45 24 -78 35 -57 36 -81 11 -228 l-13 -69 -27
49 c-20 36 -28 40 -28 16 -1 -18 12 -46 28 -63 17 -16 38 -67 49 -113 27 -120
49 -128 30 -10 -28 175 24 432 62 308 9 -26 25 -55 38 -65 16 -11 15 -19 -3
-26 -14 -6 -26 -25 -27 -44 -1 -20 -8 -13 -18 17 -13 41 -16 43 -17 10 -1 -22
10 -56 24 -74 15 -19 29 -96 31 -170 2 -75 13 -145 24 -156 14 -13 16 -9 7 15
-7 19 6 73 31 124 38 79 40 99 19 163 -19 59 -19 76 4 91 22 15 18 25 -18 50
-25 18 -45 42 -45 54 -1 36 -174 220 -186 199z m221 -466 c0 -52 -3 -57 -9
-20 -5 28 -16 57 -25 66 -8 9 -10 40 -4 70 l10 54 15 -50 c8 -27 14 -81 13
-120z"/>
<path d="M4581 2845 c20 -52 43 -122 50 -155 12 -53 15 -55 29 -20 8 22 7 43
-3 47 -9 3 -13 14 -7 23 13 21 -67 200 -89 200 -10 0 -1 -43 20 -95z"/>
<path d="M3252 2828 c-18 -47 -14 -62 8 -28 16 25 19 25 20 2 0 -16 14 -45 32
-64 39 -43 21 -111 -33 -128 -45 -14 -53 -50 -11 -50 15 0 39 -15 55 -34 29
-36 33 -36 -78 8 -19 8 -9 -10 23 -40 38 -35 59 -76 60 -114 2 -70 -17 -77
-49 -17 -19 34 -27 37 -42 15 -14 -20 -16 -16 -8 15 9 31 -2 54 -39 84 -29 22
-50 52 -46 67 3 14 -3 29 -14 33 -59 21 -90 48 -90 81 0 38 -53 96 -71 77 -6
-5 22 -52 61 -104 111 -146 150 -287 65 -239 -16 9 -15 4 3 -14 21 -22 29 -22
36 -3 13 34 39 31 54 -6 6 -17 3 -26 -7 -20 -10 6 -41 3 -69 -8 -44 -17 -57
-11 -99 42 -26 34 -53 53 -60 42 -7 -11 19 -51 56 -90 44 -46 65 -84 59 -108
-6 -20 4 -90 21 -155 16 -64 25 -125 19 -135 -6 -9 -3 -28 5 -42 21 -33 25
-155 6 -155 -21 0 1 -78 27 -93 13 -8 16 3 9 30 -6 24 -2 43 9 43 12 0 15 23
8 55 -12 52 -11 53 18 16 34 -43 41 -100 10 -81 -29 18 -26 -4 31 -191 28 -93
55 -187 58 -209 4 -22 14 -56 21 -75 27 -66 -8 -35 -43 38 -19 41 -38 63 -42
51 -5 -13 6 -43 24 -68 17 -25 31 -59 30 -75 0 -25 -4 -24 -21 4 -11 19 -28
35 -39 35 -10 0 -1 -29 21 -65 41 -67 56 -207 20 -185 -11 7 -20 30 -20 51 0
68 -55 43 -69 -31 -7 -39 -21 -70 -30 -70 -45 0 -103 -192 -69 -226 39 -38
128 118 128 225 1 73 7 101 19 83 9 -16 13 -61 9 -100 -8 -64 -7 -67 12 -24
30 69 49 36 22 -40 -34 -100 -30 -123 18 -93 25 15 41 47 41 85 2 47 5 52 17
22 14 -36 26 80 26 252 0 58 5 69 25 50 14 -12 22 -41 17 -63 -7 -39 -6 -39
12 1 11 26 12 97 2 180 -10 75 -14 142 -9 150 4 7 -10 29 -31 48 -48 43 -52
73 -9 57 23 -9 19 8 -15 66 -68 113 -112 252 -96 297 8 22 7 61 -3 88 -10 26
-13 52 -7 58 6 6 25 -26 43 -72 26 -65 43 -84 80 -84 62 0 60 9 -23 96 -38 41
-65 87 -59 102 7 21 3 22 -16 6 -19 -16 -31 -9 -49 29 -19 41 -19 46 3 28 40
-34 55 53 20 121 -37 72 -36 99 2 49 16 -21 29 -30 29 -20 1 11 19 -3 42 -31
27 -32 44 -41 51 -26 8 19 18 19 48 1 20 -13 44 -16 53 -8 9 9 0 24 -18 35
-63 35 -122 137 -98 166 13 15 17 41 11 58 -21 54 72 15 97 -41 13 -28 48 -77
78 -110 31 -32 56 -72 56 -89 0 -47 150 -185 180 -166 32 20 -28 89 -77 90
-16 0 -32 11 -35 26 -3 14 0 16 5 5 16 -31 47 -25 47 9 0 17 -13 30 -30 30
-16 0 -30 11 -30 25 0 14 -45 69 -100 124 -55 54 -95 103 -89 109 21 21 140
-61 186 -128 26 -38 56 -64 65 -58 37 22 -215 308 -271 308 -36 0 -91 67 -91
112 -1 57 -92 139 -108 96z m140 -253 c13 -1 32 -18 45 -37 21 -33 18 -34 -53
-5 -91 38 -137 79 -64 58 28 -8 60 -15 72 -16z m-229 -389 c-15 -29 -13 -54 7
-93 24 -46 24 -53 -1 -53 -16 0 -30 16 -32 35 -1 19 -4 62 -6 95 -6 73 7 100
33 74 13 -13 13 -33 -1 -58z"/>
<path d="M2628 2788 c9 -23 4 -29 -18 -21 -16 7 -30 5 -30 -3 1 -37 36 -62 90
-63 98 -2 128 -7 124 -19 -7 -23 110 -161 133 -156 13 2 22 -12 20 -31 -1 -19
7 -29 18 -22 12 7 33 -3 48 -24 16 -22 27 -26 27 -11 0 14 -17 48 -39 75 -21
27 -34 62 -28 78 7 17 -8 37 -37 50 -26 12 -56 41 -67 65 -10 25 -41 47 -69
51 -27 4 -57 19 -66 35 -24 41 -122 37 -106 -4z"/>
<path d="M3749 2755 c8 -25 21 -118 30 -207 18 -176 72 -315 103 -266 13 21
17 17 18 -17 0 -25 10 -45 22 -45 14 0 18 -19 10 -50 -16 -62 3 -66 27 -5 18
44 19 43 20 -9 0 -29 -7 -59 -17 -65 -9 -6 -22 -33 -27 -61 -9 -50 -9 -50 29
-16 64 58 143 286 99 286 -11 0 -24 -20 -29 -45 -7 -38 -9 -37 -11 11 -2 30
-16 60 -31 66 -31 12 -57 77 -54 138 1 40 1 40 -17 0 -10 -22 -20 -31 -21 -20
-2 11 -6 36 -10 55 -3 19 2 35 12 35 10 0 18 9 18 21 0 11 -15 18 -33 15 -18
-3 -37 8 -41 24 -8 27 -7 27 12 0 47 -67 18 4 -41 99 -68 109 -90 127 -68 56z
m211 -463 c0 -51 -12 -36 -50 59 l-32 79 41 -50 c22 -27 40 -67 41 -88z"/>
<path d="M3633 2595 c7 -36 26 -76 43 -90 45 -36 53 -15 16 38 -18 25 -32 62
-32 81 0 20 -9 36 -19 36 -12 0 -15 -28 -8 -65z"/>
<path d="M4315 2560 c25 -115 17 -240 -16 -261 -20 -13 -21 -18 -4 -19 17 0
24 -29 22 -90 -4 -99 -37 -126 -37 -30 0 65 -32 83 -45 25 -15 -69 59 -188 87
-141 8 12 20 -7 27 -41 13 -59 31 -76 54 -53 10 10 -2 94 -39 265 -16 72 -13
92 20 130 23 26 30 47 17 51 -12 4 -18 13 -13 21 14 24 -18 173 -36 166 -10
-3 -25 6 -35 20 -10 16 -11 -2 -2 -43z"/>
<path d="M5387 2424 c-24 -15 -47 -127 -51 -251 l-3 -77 -28 54 c-20 37 -24
83 -15 152 16 118 -14 131 -47 20 -35 -117 -94 -158 -77 -54 8 48 5 71 -6 60
-17 -17 -20 -60 -20 -276 0 -42 -9 -89 -22 -104 -16 -20 -14 -35 10 -59 29
-29 32 -27 32 23 0 107 20 33 27 -100 6 -117 1 -143 -37 -189 -65 -78 -111
-176 -98 -210 6 -17 1 -51 -12 -76 -22 -45 -21 -45 20 3 l43 50 -11 -53 c-18
-82 5 -129 39 -83 21 28 20 8 -4 -84 -19 -73 -27 -161 -21 -223 8 -79 2 -121
-28 -176 -22 -40 -35 -80 -29 -89 5 -9 -11 -45 -37 -80 -31 -41 -48 -92 -48
-145 -1 -64 -15 -95 -63 -142 -39 -38 -61 -80 -61 -115 0 -31 -13 -61 -30 -67
-17 -7 -41 -34 -53 -62 -12 -27 -37 -53 -55 -58 -18 -4 38 -9 124 -11 92 -1
152 6 145 17 -6 10 -3 24 9 31 11 7 20 -2 20 -19 0 -41 12 -39 60 9 48 48 49
53 10 53 -16 0 -30 -8 -30 -18 0 -9 -9 -12 -20 -5 -39 24 -21 122 30 166 28
24 50 65 50 92 0 26 14 53 32 60 18 7 27 25 21 42 -7 17 -2 30 9 30 11 0 15 8
9 19 -6 10 -3 24 9 31 11 7 20 1 20 -12 0 -24 51 28 93 95 12 20 29 30 38 22
9 -9 -8 -41 -37 -71 -30 -31 -54 -67 -54 -81 0 -13 -27 -51 -60 -83 -33 -32
-60 -76 -60 -98 0 -22 -9 -45 -20 -52 -24 -15 -27 -110 -4 -110 9 0 27 11 40
24 19 19 24 19 24 -1 0 -43 80 14 102 73 20 52 51 83 85 84 10 0 3 -20 -14
-45 -18 -25 -46 -74 -61 -109 -27 -59 -34 -63 -91 -46 -42 12 -61 10 -61 -5 0
-12 -15 -38 -33 -58 -31 -35 -31 -37 7 -37 23 0 52 13 66 30 14 17 42 25 68
19 41 -11 116 89 122 161 1 11 13 40 26 64 29 52 31 73 5 57 -10 -7 -3 24 15
68 40 96 74 107 57 19 -11 -54 -9 -59 17 -38 17 14 30 36 30 48 0 35 48 132
65 132 8 0 15 25 15 55 0 38 14 62 45 75 28 12 47 41 51 75 7 60 43 76 45 20
1 -25 8 -20 22 15 11 28 17 79 12 115 -4 36 0 65 9 65 9 0 16 13 16 29 0 16
10 35 22 42 20 13 14 -97 -14 -229 -9 -40 -6 -45 18 -26 15 13 33 18 39 12 7
-7 7 7 2 29 -10 36 -4 40 43 31 50 -9 54 -5 45 42 -5 28 -1 56 9 63 12 7 17
-24 13 -76 -4 -50 2 -85 13 -82 28 6 36 216 10 264 -23 45 -63 56 -55 16 7
-37 -121 -24 -150 15 -8 11 -15 -5 -15 -36 0 -31 -17 -74 -38 -97 l-39 -41
-33 50 c-31 48 -30 56 9 141 22 50 41 100 41 112 0 29 -34 26 -47 -4 -5 -14
-11 2 -13 35 -2 33 -8 49 -13 35 -6 -14 -23 -25 -38 -25 -17 0 -23 12 -16 31
7 17 4 29 -6 27 -38 -7 -51 3 -33 27 31 39 46 95 27 95 -29 0 -64 -132 -50
-188 8 -33 5 -52 -9 -52 -12 0 -22 -25 -22 -56 0 -31 -11 -67 -24 -80 -19 -19
-19 -24 0 -24 17 0 21 -18 12 -55 -12 -52 -11 -53 17 -17 16 22 25 54 20 73
-5 19 3 56 17 82 15 26 25 53 23 60 -2 7 10 25 27 39 38 32 19 -65 -27 -137
-26 -40 -26 -45 3 -45 47 0 39 -42 -18 -104 -55 -60 -66 -101 -22 -84 16 6 39
37 53 69 13 33 32 59 43 59 10 0 12 -10 4 -23 -9 -15 -5 -18 11 -8 66 41 -30
-151 -128 -255 -78 -84 -98 -147 -25 -77 26 24 52 38 58 32 17 -17 -63 -172
-83 -160 -10 6 -45 -32 -78 -84 -112 -174 -167 -217 -148 -113 8 38 15 44 27
25 16 -25 26 -10 20 28 -1 8 9 13 23 10 16 -3 24 17 22 60 -2 36 5 60 14 55 9
-6 22 -2 29 10 7 11 2 20 -11 20 -13 0 -3 17 22 37 29 23 41 49 33 70 -18 46
-108 43 -123 -5 -7 -21 -25 -49 -41 -62 -23 -19 -22 -10 4 42 18 36 34 91 37
122 2 32 19 74 37 94 17 19 32 49 32 67 0 17 8 35 18 38 10 4 21 25 25 47 4
22 16 46 27 54 11 8 17 43 13 77 -4 35 1 59 11 53 10 -6 17 6 17 27 0 56 -44
48 -59 -11 -7 -28 -22 -50 -32 -50 -11 0 -20 -17 -20 -39 0 -21 -9 -44 -20
-51 -11 -7 -20 -10 -19 -6 8 61 77 295 78 266 1 -33 5 -35 21 -10 23 36 25 61
5 58 -45 -7 -59 7 -50 52 6 31 23 50 45 50 29 0 35 14 29 74 -4 41 1 80 10 85
9 6 20 29 24 51 4 22 19 52 33 68 15 15 22 39 16 55 -6 15 -3 27 7 27 10 0 22
-11 27 -25 6 -15 18 -4 29 25 l19 49 17 -49 c18 -54 21 -70 26 -126 2 -20 11
-31 21 -25 10 6 13 30 7 54 -8 30 -4 39 12 29 13 -8 23 -6 23 5 0 11 -9 23
-19 26 -13 5 -13 18 -1 37 17 26 19 25 20 -5 0 -19 8 -35 18 -35 9 0 12 -43 6
-95 -10 -88 -8 -93 24 -66 41 33 71 3 71 -69 0 -29 -4 -33 -17 -13 -21 34 -42
-14 -42 -97 0 -32 -9 -63 -20 -70 -12 -7 -17 12 -12 49 4 34 -2 61 -12 61 -10
0 -13 9 -6 20 7 11 3 20 -9 20 -32 0 -53 -66 -25 -75 13 -5 24 -25 24 -45 0
-21 8 -43 18 -49 9 -5 14 -53 10 -106 -6 -73 -3 -84 10 -45 10 28 20 41 23 30
3 -11 10 14 17 56 7 41 21 73 32 70 11 -3 17 -17 14 -31 -3 -14 8 -31 25 -37
17 -7 31 -21 31 -31 0 -11 -9 -14 -21 -7 -13 9 -16 -6 -7 -43 19 -79 21 -79
37 6 8 42 6 79 -4 82 -25 8 -5 128 28 161 23 23 27 22 27 -3 0 -17 -9 -36 -20
-43 -25 -16 -26 -70 -1 -70 11 0 25 34 33 75 12 62 17 68 30 35 12 -32 15 -28
17 24 1 50 -6 62 -29 53 -17 -6 -44 0 -60 13 -25 21 -30 17 -30 -26 0 -67 -66
-140 -77 -85 -4 20 5 59 20 87 50 93 33 302 -27 354 -29 25 -71 80 -93 123
l-41 77 -4 -60 c-2 -38 -9 -21 -19 49 -9 61 -25 113 -37 117 -12 4 -22 21 -22
37 0 16 -9 24 -21 16 -11 -7 -15 -31 -8 -53 9 -27 6 -36 -9 -27 -12 7 -22 34
-22 59 0 25 -7 52 -15 60 -16 17 -19 27 -22 102 -2 29 -15 50 -31 50 -16 0
-32 9 -35 19 -4 11 -17 13 -30 5z m33 -92 c0 -25 -6 -51 -13 -58 -25 -25 -40
5 -31 65 10 68 44 63 44 -7z m130 -362 c13 -31 7 -29 -24 10 -24 30 -46 95
-53 160 l-13 110 37 -120 c21 -66 45 -138 53 -160z m-270 -370 c0 -21 -9 -43
-20 -50 -11 -7 -20 -30 -20 -51 0 -27 -9 -34 -34 -25 -19 8 -24 17 -11 21 12
4 18 20 13 34 -6 15 -1 33 11 40 11 7 21 31 21 53 0 22 9 35 20 28 11 -7 20
-29 20 -50z"/>
<path d="M1212 2340 c79 -532 478 -1326 742 -1475 63 -36 74 2 19 68 -77 93
-205 306 -286 477 -49 102 -79 147 -83 123 -7 -34 -10 -34 -37 5 -17 24 -24
60 -17 82 17 52 -8 94 -34 57 -13 -19 -15 -15 -7 14 6 23 -12 117 -41 210 -29
93 -59 240 -66 327 -12 162 -46 218 -79 131 l-16 -45 -54 58 -54 58 13 -90z
m226 -438 c23 -71 38 -132 34 -137 -6 -6 -73 177 -106 295 -25 87 35 -44 72
-158z m221 -572 c35 -40 67 -110 51 -110 -17 0 -125 172 -138 220 -12 43 -9
42 20 -10 18 -33 48 -78 67 -100z"/>
<path d="M4167 2230 c3 -79 36 -104 50 -39 4 19 -2 28 -14 21 -11 -7 -24 11
-29 43 -6 34 -8 24 -7 -25z"/>
<path d="M3496 2227 c-3 -31 2 -73 13 -92 14 -23 13 -41 -2 -56 -16 -16 -31 1
-54 60 -30 74 -73 110 -73 61 0 -11 8 -20 18 -20 15 0 45 -75 50 -126 2 -18
54 -53 78 -54 9 0 11 9 4 20 -21 34 9 99 41 87 16 -6 29 -19 29 -29 0 -9 -16
-11 -35 -4 -31 12 -32 9 -8 -20 94 -116 99 21 6 149 l-60 81 -7 -57z"/>
<path d="M3311 2197 c8 -26 6 -37 -7 -30 -10 7 4 -32 33 -87 33 -61 56 -87 60
-68 4 18 -3 42 -15 54 -29 29 -28 80 1 62 12 -7 2 15 -24 49 -55 74 -67 79
-48 20z"/>
<path d="M3000 2121 c0 -10 9 -24 20 -31 12 -7 16 -20 11 -28 -5 -9 4 -33 20
-54 29 -38 29 7 -2 107 -9 29 -49 34 -49 6z"/>
<path d="M5820 2020 c0 -11 27 -49 59 -85 54 -59 60 -61 60 -22 1 23 -12 48
-29 54 -16 7 -30 26 -30 42 0 17 -13 31 -30 31 -16 0 -30 -9 -30 -20z"/>
<path d="M5556 1699 c-11 -35 6 -159 23 -159 8 0 11 38 7 85 -10 91 -17 111
-30 74z"/>
<path d="M5965 1257 c-35 -97 -31 -139 6 -68 17 32 28 77 25 98 -5 30 -12 22
-31 -30z"/>
<path d="M2560 852 c0 -76 123 -144 147 -82 7 18 0 30 -18 30 -17 0 -53 15
-80 32 -27 18 -49 27 -49 20z"/>
<path d="M5418 782 c-16 -45 -29 -59 -44 -44 -14 14 -13 29 4 50 20 23 18 28
-7 24 -66 -9 -75 -45 -20 -81 29 -19 54 -31 57 -28 22 36 51 124 43 133 -6 6
-21 -19 -33 -54z"/>
<path d="M2500 785 c1 -46 91 -106 154 -103 24 1 18 8 -19 21 -30 11 -55 32
-55 47 0 14 -14 31 -32 38 -41 16 -48 15 -48 -3z"/>
<path d="M5952 635 c5 -69 11 -158 15 -199 3 -41 0 -70 -6 -66 -7 4 -24 -19
-38 -52 -26 -57 -72 -64 -50 -7 8 21 2 26 -22 17 -24 -9 -30 -27 -23 -59 13
-50 -3 -109 -29 -109 -9 0 -17 34 -18 75 -4 149 -13 223 -30 239 -9 9 -11 -9
-3 -39 7 -30 5 -55 -5 -55 -19 0 -53 -184 -46 -252 2 -24 -9 -53 -24 -65 -23
-19 -24 -6 -11 81 21 130 8 147 -24 33 l-25 -87 -13 60 c-7 33 -5 76 4 95 10
19 10 35 1 35 -24 0 -66 -122 -50 -148 7 -12 11 -47 8 -77 -7 -66 82 -80 131
-20 28 33 29 33 18 0 -6 -19 -6 -35 1 -35 17 0 187 184 187 203 0 9 9 17 20
17 11 0 20 -13 20 -30 0 -16 14 -30 30 -30 40 0 45 531 5 547 -20 8 -20 10 0
11 35 3 31 42 -4 42 -23 0 -27 -25 -19 -125z"/>
<path d="M5811 718 c-19 -58 -19 -89 2 -128 25 -45 24 -107 -2 -149 -13 -21
-9 -25 15 -15 20 7 42 -1 55 -22 19 -30 20 -29 8 6 -7 22 -20 101 -29 176 -16
139 -32 182 -49 132z"/>
<path d="M5445 232 c-71 -75 -45 -175 27 -103 17 17 23 31 13 31 -9 0 -28 -11
-41 -24 -19 -19 -24 -16 -24 11 0 19 13 39 28 45 15 6 33 28 38 49 13 48 14
48 -41 -9z"/>
</g>
</svg>
