<?xml version="1.0" standalone="no"?>
<!DOCTYPE svg PUBLIC "-//W3C//DTD SVG 20010904//EN"
 "http://www.w3.org/TR/2001/REC-SVG-20010904/DTD/svg10.dtd">
<svg version="1.0" xmlns="http://www.w3.org/2000/svg"
 width="286.000000pt" height="286.000000pt" viewBox="0 0 286.000000 286.000000"
 preserveAspectRatio="xMidYMid meet">
<metadata>
Created by potrace 1.10, written by Peter Selinger 2001-2011
</metadata>
<g transform="translate(0.000000,286.000000) scale(0.100000,-0.100000)"
fill="#000000" stroke="none">
<path d="M1454 2615 c-86 -41 -206 -153 -236 -221 -12 -27 -22 -76 -24 -118
-20 -354 -18 -391 19 -429 12 -12 39 -43 60 -69 21 -26 43 -45 50 -42 11 4
115 -122 162 -195 6 -10 29 -17 60 -20 75 -5 108 -29 129 -93 3 -11 15 -18 28
-17 13 0 17 3 11 6 -7 2 -13 12 -13 21 0 13 -2 14 -9 4 -6 -10 -10 -6 -15 14
-4 16 -16 34 -27 42 -21 15 -26 36 -7 30 7 -3 21 5 33 17 11 12 29 27 40 34
18 11 18 11 -5 5 -14 -4 -28 -13 -33 -20 -13 -22 -71 -33 -123 -23 -53 10 -78
32 -138 124 -18 28 -43 59 -55 69 -24 22 -71 115 -71 143 0 15 -2 16 -11 3 -8
-12 -9 -9 -5 12 4 15 1 37 -6 47 -21 34 0 36 44 5 51 -36 59 -54 24 -54 -14 0
-26 -5 -26 -11 0 -8 16 -10 49 -6 41 5 49 3 44 -9 -3 -7 -12 -14 -20 -14 -8 0
-11 -5 -8 -11 5 -7 15 -3 30 11 20 19 22 26 13 46 -6 13 -15 24 -20 24 -5 0
-24 11 -42 25 -18 14 -38 25 -44 25 -17 0 -52 41 -52 61 0 10 10 35 22 56 l22
38 -32 -29 c-17 -16 -29 -33 -26 -37 3 -5 -2 -6 -12 -2 -14 5 -15 1 -9 -38 4
-24 16 -56 26 -71 11 -15 15 -29 10 -32 -11 -7 -3 -43 17 -73 8 -13 10 -23 5
-23 -25 0 -78 82 -69 106 3 8 0 14 -5 14 -8 0 -9 38 -5 126 5 96 11 135 26
164 15 30 18 45 10 64 -7 20 -6 24 5 19 8 -3 15 0 15 6 0 6 -5 11 -11 11 -8 0
-7 5 1 15 7 9 10 18 7 22 -4 3 2 14 13 23 10 9 24 30 31 46 6 16 13 23 16 17
3 -9 10 -10 24 -3 13 7 19 7 19 0 0 -5 5 -10 11 -10 8 0 8 5 -1 15 -7 8 -17
12 -23 8 -6 -4 -8 2 -5 15 4 15 2 19 -8 15 -8 -3 -12 -8 -10 -12 3 -4 -4 -7
-15 -7 -25 0 -24 3 10 21 19 9 32 11 36 5 3 -6 14 -10 23 -10 14 1 12 5 -8 22
l-25 21 33 -8 c31 -6 33 -5 24 12 -8 15 -6 22 9 31 11 7 24 10 28 7 5 -3 12 3
15 12 6 15 8 15 16 3 7 -11 10 -12 10 -2 0 8 9 12 23 11 12 -2 28 0 35 5 7 4
16 6 18 3 3 -3 18 -1 34 3 19 5 44 3 72 -6 l43 -14 -40 1 c-64 1 -83 -3 -45
-10 19 -4 52 -4 72 0 21 3 35 2 32 -2 -3 -5 12 -9 33 -9 39 0 127 -50 138 -79
5 -11 3 -12 -10 -1 -13 10 -18 11 -28 1 -7 -7 -7 -11 -2 -10 13 4 107 -32 100
-39 -2 -3 3 -11 13 -18 10 -8 12 -13 5 -14 -7 0 -13 -5 -13 -10 0 -7 6 -7 20
0 22 12 22 11 23 -22 1 -13 5 -26 11 -30 14 -10 17 -109 4 -127 -7 -9 -8 -12
-3 -8 5 5 14 -8 21 -30 7 -21 12 -30 13 -20 1 24 21 11 21 -14 0 -12 7 -19 18
-19 10 0 18 -8 19 -17 1 -10 3 -36 6 -58 3 -22 5 -50 6 -62 1 -13 5 -23 9 -23
5 0 7 14 4 30 -3 18 0 30 7 30 6 0 11 -6 11 -12 0 -9 4 -8 11 2 9 12 10 12 5
-3 -3 -11 -9 -30 -12 -43 -3 -13 -11 -24 -16 -24 -6 0 -7 -7 -4 -16 8 -21 -4
-40 -15 -23 -6 10 -8 9 -8 -6 0 -34 -6 -60 -16 -67 -6 -5 -3 -8 6 -8 9 0 21
-11 27 -25 12 -26 4 -33 -16 -13 -9 9 -12 9 -12 1 0 -7 8 -14 18 -17 23 -8 55
-62 46 -78 -5 -7 -2 -9 9 -5 9 3 18 -1 21 -9 9 -24 6 -41 -4 -19 -8 19 -9 19
-9 -2 -1 -12 3 -24 8 -28 6 -3 9 -23 8 -45 0 -21 -5 -36 -9 -34 -7 5 -48 -30
-48 -41 0 -11 30 -4 31 8 0 6 5 2 11 -10 7 -14 29 -29 59 -38 44 -15 85 -45
61 -45 -5 0 -15 7 -22 15 -13 16 -30 11 -30 -8 0 -8 3 -8 9 1 6 10 10 10 20
-2 6 -8 23 -17 37 -20 14 -4 22 -11 19 -16 -3 -6 -2 -10 3 -10 5 0 24 -29 41
-65 45 -91 51 -172 14 -172 -9 0 -24 7 -34 16 -30 27 -44 37 -54 39 -5 1 -17
5 -26 7 -9 3 -28 -1 -44 -9 -21 -11 -33 -12 -51 -4 -13 6 -23 16 -22 22 0 6
-5 25 -12 41 -13 28 -14 29 -17 8 -4 -18 -8 -21 -21 -14 -17 9 -63 7 -110 -4
-22 -5 -23 -3 -17 32 6 36 5 37 -9 19 -9 -11 -16 -26 -16 -34 0 -8 -11 -28
-25 -44 -18 -21 -25 -40 -23 -64 2 -39 -7 -51 -50 -63 -26 -8 -32 -6 -37 10
-7 21 -13 23 -34 10 -11 -7 -8 -12 13 -26 30 -20 24 -39 -10 -31 -19 5 -24 2
-24 -11 0 -23 17 -49 26 -40 4 3 1 13 -6 22 -11 13 -8 15 19 15 21 0 31 5 31
15 0 9 9 15 25 15 14 0 25 5 25 10 0 6 7 10 15 10 8 0 15 -4 15 -10 0 -5 5
-10 11 -10 8 0 10 18 6 59 -6 55 -5 61 18 79 28 22 120 37 166 27 25 -6 28 -9
18 -21 -7 -8 -20 -12 -30 -9 -11 4 -19 2 -19 -4 0 -6 15 -11 33 -11 34 -1 67
-19 67 -39 0 -6 5 -11 10 -11 6 0 10 4 10 10 0 32 84 35 124 5 18 -13 18 -16
4 -32 -18 -21 -34 -113 -20 -113 6 0 13 12 17 27 3 15 12 32 18 36 8 6 6 7 -5
3 -22 -7 -23 7 -2 28 27 27 84 17 84 -14 0 -11 5 -22 10 -25 18 -11 11 -26 -7
-16 -15 7 -18 5 -20 -17 -1 -18 1 -21 8 -11 5 8 9 9 9 3 0 -6 -3 -14 -7 -18
-7 -7 -23 -75 -58 -251 -19 -91 -56 -191 -91 -243 -13 -19 -24 -40 -24 -46 0
-6 -14 -38 -30 -71 -16 -33 -30 -66 -30 -72 0 -7 -12 -13 -28 -13 -15 0 -37
-7 -49 -15 -27 -19 -33 -10 -21 33 9 32 28 45 28 18 0 -17 27 -29 35 -16 4 6
2 10 -2 10 -5 0 -17 15 -28 32 -26 46 -33 49 -90 42 -43 -5 -54 -2 -77 18 -36
30 -36 55 0 69 18 8 22 13 12 16 -8 2 -24 8 -35 13 -43 18 -62 23 -107 30 -42
6 -47 4 -52 -14 -3 -12 -1 -23 5 -25 27 -9 71 -59 83 -96 16 -45 31 -55 39
-26 3 14 1 18 -10 14 -10 -4 -14 0 -11 14 1 11 -10 36 -25 56 -15 20 -24 37
-20 37 4 0 1 5 -7 10 -9 6 -10 10 -3 10 6 0 15 -5 18 -10 4 -6 10 -8 15 -5 16
10 58 -16 53 -34 -7 -29 15 -70 49 -91 25 -15 46 -19 85 -16 29 2 53 1 53 -1
0 -3 -10 -19 -22 -36 -12 -17 -17 -27 -10 -23 23 14 12 -10 -16 -37 -16 -15
-35 -43 -42 -62 -8 -19 -17 -35 -22 -35 -4 0 -8 -7 -8 -16 0 -9 -16 -31 -36
-50 -25 -25 -30 -34 -17 -32 10 2 21 8 25 13 5 6 8 5 9 -2 1 -7 2 -19 3 -25 1
-7 -1 -23 -6 -35 -10 -30 -2 -48 22 -50 16 -1 19 3 16 20 -15 69 -15 114 -2
137 8 14 25 46 37 73 12 26 28 47 35 47 16 0 19 -21 5 -36 -13 -14 -21 -73
-11 -79 6 -3 10 -20 10 -36 0 -16 9 -39 20 -51 11 -12 20 -30 20 -40 0 -21 34
-41 58 -35 15 4 15 5 -1 6 -10 0 -15 6 -12 11 3 6 2 10 -4 10 -12 0 -61 87
-61 109 0 14 2 14 11 1 8 -12 9 -11 6 5 -2 11 -9 19 -15 17 -15 -3 -15 17 -1
73 13 52 43 85 61 67 9 -9 9 -12 -1 -12 -7 0 -10 -4 -7 -9 4 -5 2 -11 -3 -13
-20 -7 -17 -144 3 -151 12 -5 13 -1 4 24 -6 17 -8 45 -5 62 16 85 21 97 43 97
8 0 14 5 14 11 0 5 6 7 13 3 8 -5 8 -2 -2 9 -11 14 -11 20 0 33 24 29 89 156
89 174 0 4 6 10 13 13 9 3 11 -8 9 -44 -2 -27 -8 -46 -13 -43 -5 3 -5 -6 1
-20 12 -33 3 -56 -18 -49 -15 4 -15 3 -2 -7 11 -9 12 -13 3 -17 -7 -2 -13 -9
-13 -14 0 -6 4 -8 9 -5 5 3 11 -3 14 -14 3 -11 0 -20 -6 -20 -7 0 -1 -10 13
-23 14 -12 31 -33 39 -47 14 -24 13 -25 -6 -7 -11 9 -26 17 -34 17 -9 0 -10
-3 -3 -8 17 -12 26 -44 26 -95 0 -33 3 -45 11 -40 8 4 7 1 -1 -9 -7 -9 -9 -18
-5 -20 4 -3 2 -3 -5 -1 -17 4 -40 -19 -35 -34 4 -10 9 -9 20 3 8 8 17 13 20
10 7 -7 -20 -45 -37 -50 -8 -3 -4 -4 9 -3 47 4 73 81 56 167 l-6 35 19 -39
c11 -22 18 -47 15 -55 -4 -14 -4 -14 6 -1 13 19 14 50 1 50 -5 0 -14 17 -19
38 -14 50 -14 65 2 56 6 -5 -2 8 -20 28 -40 47 -49 75 -31 96 17 19 68 111 68
121 0 3 -5 -1 -10 -9 -7 -11 -10 -1 -11 35 0 28 -6 68 -13 90 -10 35 -9 50 11
120 13 43 31 122 40 173 10 59 25 107 39 128 18 26 20 35 10 41 -22 13 -38 53
-32 81 18 86 -63 262 -143 314 -25 15 -53 28 -64 28 -17 0 -18 5 -11 43 13 69
5 138 -21 186 -14 24 -25 49 -25 56 0 6 -9 20 -20 30 -26 23 -25 50 1 68 14
11 23 32 29 77 11 81 -8 131 -79 205 l-52 56 6 53 c6 44 3 61 -15 97 -24 48
-68 99 -85 99 -15 0 -45 37 -37 45 4 4 0 5 -8 3 -8 -2 -15 3 -16 10 -1 6 -2
17 -3 22 0 6 -6 10 -12 10 -8 0 -7 -6 2 -17 7 -10 0 -7 -16 7 -38 32 -85 54
-155 70 -30 7 -68 16 -84 21 -52 16 -100 9 -172 -26z m124 8 c-10 -2 -26 -2
-35 0 -10 3 -2 5 17 5 19 0 27 -2 18 -5z m-293 -181 c-6 -4 -11 -14 -13 -22
-2 -8 -10 -22 -18 -31 -8 -8 -14 -21 -14 -27 0 -7 -4 -12 -10 -12 -14 0 -13 4
11 47 27 49 40 65 48 58 3 -3 1 -9 -4 -13z m-68 -154 c-3 -8 -6 -5 -6 6 -1 11
2 17 5 13 3 -3 4 -12 1 -19z m943 -239 c0 -6 -9 -2 -20 11 -11 13 -20 30 -20
38 0 9 7 6 20 -11 11 -14 20 -31 20 -38z m196 -1521 c2 -33 -2 -70 -9 -82 -6
-12 -10 -25 -9 -29 1 -5 -2 -6 -8 -2 -6 3 -8 11 -4 16 3 5 7 40 9 77 2 37 4
73 4 81 1 8 4 11 8 8 3 -4 8 -35 9 -69z m-381 -498 c3 -5 1 -10 -4 -10 -6 0
-11 5 -11 10 0 6 2 10 4 10 3 0 8 -4 11 -10z"/>
<path d="M1570 2559 c0 -5 5 -7 10 -4 6 3 10 8 10 11 0 2 -4 4 -10 4 -5 0 -10
-5 -10 -11z"/>
<path d="M1445 2549 c-11 -16 -1 -19 13 -3 7 8 8 14 3 14 -5 0 -13 -5 -16 -11z"/>
<path d="M1690 2545 c-19 -23 -8 -26 20 -5 19 15 21 20 9 20 -9 0 -22 -7 -29
-15z"/>
<path d="M1770 2544 c0 -4 76 -44 85 -44 3 0 5 5 5 10 0 6 -9 10 -19 10 -11 0
-22 4 -25 9 -6 9 -46 22 -46 15z"/>
<path d="M1640 2515 c-7 -8 -8 -15 -2 -15 5 0 15 7 22 15 7 8 8 15 2 15 -5 0
-15 -7 -22 -15z"/>
<path d="M1547 2514 c-14 -14 -6 -24 19 -24 16 0 24 5 22 13 -5 14 -31 21 -41
11z"/>
<path d="M1415 2500 c-3 -5 -1 -10 4 -10 6 0 11 5 11 10 0 6 -2 10 -4 10 -3 0
-8 -4 -11 -10z"/>
<path d="M1670 2490 c-11 -8 -7 -9 15 -4 37 8 45 14 19 14 -10 0 -26 -5 -34
-10z"/>
<path d="M1499 2477 c-9 -7 -14 -18 -12 -24 3 -7 -3 -13 -11 -13 -14 0 -32
-44 -27 -65 4 -17 15 -1 16 22 0 17 6 29 15 31 8 1 21 15 27 29 15 31 13 35
-8 20z"/>
<path d="M1419 2454 c-15 -19 -21 -47 -8 -38 5 3 9 11 9 19 0 7 6 15 13 18 6
2 9 7 6 11 -3 4 -12 -1 -20 -10z"/>
<path d="M1640 2461 c0 -5 10 -9 23 -9 12 0 33 -2 47 -5 14 -2 17 -2 7 0 -9 2
-15 9 -12 14 4 5 -10 9 -29 9 -20 0 -36 -4 -36 -9z"/>
<path d="M1830 2459 c-20 -6 -17 -7 18 -8 23 -1 42 1 42 3 0 9 -37 12 -60 5z"/>
<path d="M1558 2453 c7 -3 16 -2 19 1 4 3 -2 6 -13 5 -11 0 -14 -3 -6 -6z"/>
<path d="M1570 2430 c-8 -5 -10 -10 -5 -10 6 0 17 5 25 10 8 5 11 10 5 10 -5
0 -17 -5 -25 -10z"/>
<path d="M1908 2419 c12 -11 19 -25 16 -31 -4 -7 -2 -8 4 -4 16 9 -6 56 -26
56 -12 0 -10 -5 6 -21z"/>
<path d="M1678 2408 c9 -9 90 -14 98 -6 3 4 -19 8 -50 10 -30 1 -52 0 -48 -4z"/>
<path d="M1602 2379 c10 -5 26 -5 40 0 20 7 17 9 -16 9 -29 0 -36 -2 -24 -9z"/>
<path d="M1310 2365 c7 -8 17 -15 22 -15 5 0 3 7 -6 15 -8 8 -18 15 -22 15 -3
0 -1 -7 6 -15z"/>
<path d="M1555 2360 c3 -5 11 -10 16 -10 6 0 7 5 4 10 -3 6 -11 10 -16 10 -6
0 -7 -4 -4 -10z"/>
<path d="M1430 2344 c0 -8 5 -12 10 -9 6 4 8 11 5 16 -9 14 -15 11 -15 -7z"/>
<path d="M802 2338 c-27 -14 -30 -23 -37 -168 -8 -156 -13 -180 -49 -219 -17
-19 -45 -50 -63 -69 -17 -19 -33 -46 -36 -61 -6 -34 -72 -221 -102 -291 -28
-65 -77 -280 -99 -435 -8 -60 -27 -177 -41 -260 -27 -155 -27 -227 -4 -355 24
-133 30 -150 60 -165 39 -20 96 -18 148 5 55 26 64 25 58 -2 -9 -38 -29 -310
-23 -316 13 -13 18 12 22 120 3 62 9 124 13 138 4 14 8 70 9 124 1 55 7 127
12 160 5 34 12 115 16 181 5 114 13 222 34 450 18 200 21 265 11 265 -5 0 -12
-12 -15 -27 -5 -28 -17 -213 -20 -325 -2 -79 -13 -82 -21 -6 -12 113 -2 289
18 328 25 47 47 119 46 150 -1 24 -1 24 -14 -5 -8 -16 -14 -38 -15 -48 0 -10
-11 -30 -25 -45 -14 -15 -24 -34 -22 -43 4 -13 -1 -16 -19 -14 -26 3 -33 -12
-9 -21 21 -8 19 -25 -2 -18 -16 5 -16 4 -2 -5 13 -8 16 -33 18 -122 1 -61 7
-133 12 -158 23 -109 23 -99 -7 -566 -9 -141 -8 -138 -69 -168 -61 -30 -69
-32 -60 -17 8 13 -11 13 -36 0 -14 -8 -25 -7 -39 3 -11 8 -17 17 -14 20 4 4 1
9 -7 12 -10 4 -13 18 -11 49 3 35 -1 48 -19 65 -22 21 -24 28 -24 154 1 105 4
139 18 166 18 37 23 55 7 31 -5 -8 -10 -10 -10 -4 0 6 3 14 7 18 4 4 6 23 4
43 -2 21 1 33 7 29 12 -7 26 40 16 55 -9 15 5 61 16 54 6 -3 10 1 10 9 0 9 -4
16 -8 16 -8 0 -1 70 17 190 15 97 44 220 50 215 4 -2 8 5 9 16 4 42 6 49 13
49 4 0 10 14 14 30 4 17 11 30 16 30 5 0 9 10 9 22 0 38 64 216 80 222 50 18
72 44 59 69 -8 14 -5 24 15 44 l25 25 43 -21 c24 -11 51 -29 60 -41 17 -19 17
-20 -9 -26 -14 -4 -40 -2 -58 5 -38 13 -45 14 -45 2 0 -5 15 -14 33 -20 19 -7
34 -18 34 -26 0 -10 -6 -13 -19 -9 -28 9 -21 -4 12 -21 36 -18 42 -50 8 -39
-12 3 -41 17 -64 29 -40 21 -43 21 -57 5 -8 -10 -21 -20 -28 -22 -8 -3 -11 -8
-8 -12 3 -3 20 1 38 10 30 15 33 15 76 -11 25 -14 52 -39 60 -55 18 -36 18
-37 0 -44 -8 -3 -14 0 -12 6 3 14 -87 69 -104 63 -8 -3 -20 -19 -27 -35 -8
-17 -18 -28 -23 -24 -5 3 -9 -5 -9 -18 0 -13 -5 -29 -12 -36 -6 -6 -9 -15 -5
-18 4 -4 13 7 20 25 7 17 17 28 21 24 4 -5 6 -2 4 5 -1 8 8 23 22 33 25 19 27
19 60 2 46 -22 61 -43 54 -73 -7 -33 -11 -35 -29 -20 -9 7 -18 10 -22 6 -10
-10 11 -27 35 -29 20 -1 20 -8 -3 -37 -12 -16 -51 -428 -41 -438 3 -3 1 -11
-5 -19 -9 -9 -8 -13 0 -13 6 0 11 -17 11 -40 0 -22 -4 -40 -10 -40 -5 0 -10
-20 -10 -44 0 -25 -4 -48 -10 -51 -15 -9 -12 -36 7 -57 9 -11 11 -18 5 -18 -7
0 -12 -7 -12 -16 0 -8 3 -13 8 -10 4 2 5 -25 2 -62 -3 -38 -11 -67 -18 -70 -7
-2 -12 -8 -12 -13 0 -6 5 -7 10 -4 9 6 15 -21 12 -55 -8 -79 -8 -141 -1 -146
5 -3 9 -2 8 3 -2 4 1 33 4 63 4 30 9 89 12 130 3 41 7 93 10 115 3 22 7 78 10
125 5 102 22 347 35 524 5 71 15 135 21 142 6 8 9 24 6 36 -3 11 -1 31 6 42
14 26 18 137 5 153 -18 22 -5 67 25 81 34 16 34 25 1 47 -25 16 -26 19 -20 88
27 293 27 321 5 340 -24 19 -26 20 -57 5z m42 -24 c-1 -5 -5 -47 -9 -94 -4
-60 -3 -81 4 -70 16 23 13 3 -5 -32 -9 -18 -11 -27 -4 -23 8 5 10 2 6 -12 -3
-10 -8 -43 -11 -72 -2 -29 -6 -56 -9 -59 -11 -11 -55 28 -49 44 4 11 8 12 13
4 4 -6 5 25 4 69 -2 45 1 83 6 86 6 3 10 12 10 18 0 7 -4 6 -10 -3 -7 -11 -9
-4 -5 25 3 22 7 57 9 79 3 37 21 59 41 52 6 -2 9 -7 9 -12z m-161 -444 c-13
-10 -23 -23 -23 -29 0 -6 -4 -11 -10 -11 -5 0 -10 3 -10 7 0 12 53 63 59 57 3
-3 -4 -14 -16 -24z m157 -130 c0 -5 -2 -10 -4 -10 -3 0 -8 5 -11 10 -3 6 -1
10 4 10 6 0 11 -4 11 -10z m-73 -602 c-3 -7 -5 -2 -5 12 0 14 2 19 5 13 2 -7
2 -19 0 -25z m-22 -278 c3 -5 1 -10 -4 -10 -6 0 -11 5 -11 10 0 6 2 10 4 10 3
0 8 -4 11 -10z m-336 -437 c-1 -37 -1 -37 -8 -8 -7 28 -5 45 5 45 2 0 3 -17 3
-37z"/>
<path d="M1356 2314 c-12 -31 3 -34 22 -4 10 16 10 20 -2 20 -8 0 -17 -7 -20
-16z"/>
<path d="M1645 2310 c3 -5 8 -10 11 -10 2 0 4 5 4 10 0 6 -5 10 -11 10 -5 0
-7 -4 -4 -10z"/>
<path d="M1450 2295 c-36 -13 -53 -35 -26 -35 8 0 27 11 42 25 15 14 25 24 23
24 -2 -1 -20 -7 -39 -14z"/>
<path d="M1725 2280 c4 -6 11 -8 16 -5 14 9 11 15 -7 15 -8 0 -12 -5 -9 -10z"/>
<path d="M1350 2264 c0 -8 5 -12 10 -9 6 3 10 10 10 16 0 5 -4 9 -10 9 -5 0
-10 -7 -10 -16z"/>
<path d="M1560 2273 c8 -3 21 -10 28 -16 9 -7 11 -6 6 7 -3 9 -16 16 -28 15
-14 0 -16 -2 -6 -6z"/>
<path d="M1470 2250 c0 -5 7 -10 16 -10 8 0 12 5 9 10 -3 6 -10 10 -16 10 -5
0 -9 -4 -9 -10z"/>
<path d="M1625 2250 c4 -6 11 -8 16 -5 14 9 11 15 -7 15 -8 0 -12 -5 -9 -10z"/>
<path d="M1292 2227 c-8 -10 -6 -13 8 -14 13 -1 17 3 13 13 -6 17 -8 17 -21 1z"/>
<path d="M1390 2231 c0 -15 65 -111 75 -111 6 0 16 -9 23 -20 7 -11 18 -20 25
-20 7 0 8 3 2 8 -5 4 -11 13 -13 20 -1 8 -16 25 -32 39 -16 13 -29 27 -28 31
3 15 -26 62 -39 62 -7 0 -13 -4 -13 -9z"/>
<path d="M1431 2236 c2 -2 15 -9 29 -15 24 -11 24 -11 6 3 -16 13 -49 24 -35
12z"/>
<path d="M1510 2231 c0 -5 7 -12 16 -15 14 -5 15 -4 4 9 -14 17 -20 19 -20 6z"/>
<path d="M1589 2199 c29 -23 55 -39 58 -35 7 7 10 5 -46 45 -64 45 -73 38 -12
-10z"/>
<path d="M1667 2233 c-11 -10 -8 -20 7 -26 10 -4 12 0 9 14 -6 21 -7 22 -16
12z"/>
<path d="M1353 2188 c-14 -29 -39 -168 -35 -191 6 -29 22 -8 22 28 0 19 7 64
15 100 17 73 16 101 -2 63z"/>
<path d="M1271 2184 c-19 -13 -25 -14 -31 -4 -5 9 -11 -4 -15 -34 -9 -55 0
-73 9 -21 6 31 26 51 26 25 0 -5 4 -10 10 -10 5 0 7 7 4 15 -5 11 -2 13 10 9
12 -4 16 0 16 15 0 25 0 25 -29 5z"/>
<path d="M1490 2189 c0 -5 -4 -7 -10 -4 -5 3 -10 2 -10 -4 0 -5 5 -13 10 -16
6 -3 10 -1 10 4 0 6 7 11 16 11 12 0 15 -7 12 -24 -4 -21 -3 -23 13 -13 17 11
17 12 -3 34 -23 25 -38 29 -38 12z"/>
<path d="M1760 2180 c13 -11 28 -20 34 -20 13 0 -35 39 -48 40 -5 0 1 -9 14
-20z"/>
<path d="M1240 2109 c0 -5 5 -7 10 -4 6 3 10 8 10 11 0 2 -4 4 -10 4 -5 0 -10
-5 -10 -11z"/>
<path d="M1530 2105 c0 -8 7 -15 15 -15 8 0 15 -8 15 -19 0 -10 7 -24 15 -31
9 -8 15 -9 15 -2 0 6 -4 14 -10 17 -5 3 -10 11 -10 16 0 6 12 1 26 -10 31 -24
65 -30 42 -8 -7 7 -17 15 -23 16 -5 1 -24 13 -42 27 -37 28 -43 29 -43 9z"/>
<path d="M1534 2035 c8 -8 18 -15 22 -15 3 0 1 7 -6 15 -7 8 -17 15 -22 15 -5
0 -3 -7 6 -15z"/>
<path d="M2071 2024 c0 -11 3 -14 6 -6 3 7 2 16 -1 19 -3 4 -6 -2 -5 -13z"/>
<path d="M1590 2009 c-8 -5 -36 -18 -62 -29 -30 -12 -48 -26 -48 -35 0 -9 3
-15 8 -13 69 34 126 57 151 63 17 4 31 11 31 16 0 12 -60 11 -80 -2z"/>
<path d="M1750 1991 c0 -6 4 -13 10 -16 6 -3 7 1 4 9 -7 18 -14 21 -14 7z"/>
<path d="M2211 1974 c0 -11 3 -14 6 -6 3 7 2 16 -1 19 -3 4 -6 -2 -5 -13z"/>
<path d="M1790 1951 c0 -11 4 -22 9 -25 4 -3 6 6 3 19 -5 30 -12 33 -12 6z"/>
<path d="M1870 1950 c0 -5 6 -10 14 -10 8 0 18 5 21 10 3 6 -3 10 -14 10 -12
0 -21 -4 -21 -10z"/>
<path d="M1553 1933 c-37 -17 -40 -25 -17 -43 19 -17 64 -22 64 -8 0 5 7 8 15
4 9 -3 24 3 35 14 20 20 35 25 78 22 15 -1 21 -6 16 -14 -4 -7 -4 -10 0 -6 5
4 20 -4 34 -17 43 -40 39 -18 -4 24 -39 37 -42 38 -114 39 -51 1 -86 -4 -107
-15z m85 -17 c-18 -13 -62 -14 -66 -1 -1 4 9 10 24 11 14 2 29 5 31 8 3 3 10
3 16 -1 6 -4 4 -10 -5 -17z"/>
<path d="M1953 1923 c-14 -29 -8 -47 7 -23 9 13 14 50 8 50 -2 0 -9 -12 -15
-27z"/>
<path d="M760 1928 c0 -9 7 -19 16 -22 15 -6 15 -4 3 11 -7 10 -15 20 -16 22
-2 2 -3 -3 -3 -11z"/>
<path d="M1476 1904 c-10 -26 -7 -76 4 -69 6 3 10 1 10 -4 0 -6 -4 -11 -10
-11 -5 0 -10 -5 -10 -11 0 -5 5 -7 12 -3 7 4 8 3 4 -5 -5 -7 -5 -23 -2 -36 l6
-25 22 22 c21 21 22 21 29 2 9 -26 4 -32 -41 -44 -63 -17 -80 -2 -73 61 4 37
2 50 -6 45 -12 -8 -15 -66 -5 -102 4 -14 17 -24 37 -28 18 -3 46 -9 62 -13 27
-6 29 -5 16 10 -11 15 -11 17 2 17 40 0 18 99 -33 145 -15 13 -17 22 -10 36
12 22 13 29 1 29 -5 0 -12 -7 -15 -16z m41 -81 c-4 -3 -2 -12 4 -19 6 -8 6
-14 0 -18 -5 -4 -13 -2 -16 4 -8 12 1 40 11 40 4 0 4 -3 1 -7z"/>
<path d="M1730 1883 c0 -10 66 -63 79 -63 5 0 13 -12 18 -27 8 -22 11 -24 16
-10 3 9 1 21 -6 26 -7 6 -31 26 -53 45 -41 36 -54 43 -54 29z"/>
<path d="M1905 1870 c3 -5 12 -7 20 -3 21 7 19 13 -6 13 -11 0 -18 -4 -14 -10z"/>
<path d="M1844 1855 c22 -17 40 -20 32 -6 -3 5 -16 11 -28 14 -22 6 -22 5 -4
-8z"/>
<path d="M722 1848 c3 -7 12 -14 21 -16 12 -2 15 1 11 12 -7 19 -38 22 -32 4z"/>
<path d="M2061 1821 c-10 -7 -10 -10 -1 -16 6 -4 16 -3 22 3 13 13 -4 23 -21
13z"/>
<path d="M1210 1796 c0 -2 8 -10 18 -17 15 -13 16 -12 3 4 -13 16 -21 21 -21
13z"/>
<path d="M2194 1771 c21 -23 26 -26 26 -11 0 5 -10 15 -22 21 -23 12 -23 12
-4 -10z"/>
<path d="M1827 1746 c-4 -10 -5 -21 -2 -24 9 -9 17 6 13 25 -3 17 -4 17 -11
-1z"/>
<path d="M2230 1752 c0 -5 10 -17 21 -28 22 -19 22 -19 10 3 -12 24 -31 39
-31 25z"/>
<path d="M1315 1655 c0 -39 4 -64 10 -62 6 2 10 20 10 40 0 21 3 37 6 37 8 0
29 -45 50 -110 16 -48 18 -51 18 -23 1 17 -4 44 -9 60 -12 30 -72 123 -80 123
-3 0 -5 -29 -5 -65z"/>
<path d="M1792 1670 c-8 -16 -17 -28 -22 -25 -4 3 -11 -2 -14 -11 -13 -33 -5
-33 25 0 17 20 29 43 27 51 -2 10 -8 5 -16 -15z"/>
<path d="M1850 1690 c0 -5 5 -10 11 -10 5 0 7 5 4 10 -3 6 -8 10 -11 10 -2 0
-4 -4 -4 -10z"/>
<path d="M1893 1665 c0 -22 8 -50 18 -63 24 -31 31 -6 8 34 -9 17 -19 40 -22
50 -3 10 -5 1 -4 -21z"/>
<path d="M2236 1655 c4 -16 8 -42 8 -57 1 -14 5 -24 9 -21 10 6 0 71 -15 93
-6 10 -7 6 -2 -15z"/>
<path d="M724 1653 c-11 -10 -26 -32 -33 -50 -7 -17 -24 -46 -37 -64 -25 -34
-31 -59 -14 -59 6 0 10 6 10 13 0 6 14 28 30 47 16 19 30 45 30 57 0 12 9 29
21 37 12 8 19 20 17 26 -2 7 -11 5 -24 -7z"/>
<path d="M1450 1649 c1 -8 10 -25 20 -38 17 -19 26 -22 55 -17 19 4 47 18 61
31 l27 25 -44 0 c-24 0 -61 3 -81 6 -29 5 -38 3 -38 -7z m78 -30 c-18 -12 -48
-11 -48 0 0 5 14 9 31 9 20 -1 26 -4 17 -9z"/>
<path d="M2150 1630 c0 -5 5 -10 11 -10 5 0 7 5 4 10 -3 6 -8 10 -11 10 -2 0
-4 -4 -4 -10z"/>
<path d="M615 1579 c-4 -6 -5 -12 -2 -15 2 -3 7 2 10 11 7 17 1 20 -8 4z"/>
<path d="M1948 1584 c-4 -3 -4 -13 -1 -22 5 -11 2 -14 -10 -9 -11 4 -17 -2
-22 -24 -11 -51 -74 -162 -113 -199 -34 -34 -116 -90 -129 -90 -4 0 -14 -6
-22 -14 -31 -27 -152 -86 -176 -86 -14 0 -25 -5 -25 -11 0 -6 8 -8 19 -4 11 3
22 1 26 -5 5 -8 10 -7 18 3 7 8 28 20 47 28 19 7 68 36 107 63 40 27 75 47 78
44 12 -12 -198 -181 -288 -231 -32 -18 -90 -18 -109 1 -12 12 1 42 19 42 10 0
12 6 8 19 -4 13 2 25 20 39 14 11 25 23 25 27 0 11 31 39 60 55 83 45 346 229
379 264 23 24 23 25 3 23 -11 0 -18 -5 -16 -9 3 -5 -3 -11 -13 -15 -10 -4 -24
-13 -31 -20 -7 -7 -20 -13 -28 -13 -8 0 -14 -5 -14 -11 0 -6 -7 -9 -15 -5 -8
3 -14 1 -12 -3 5 -19 -161 -141 -191 -141 -3 0 -16 -10 -27 -22 -11 -13 -31
-29 -44 -36 -23 -13 -23 -13 -16 15 4 15 7 35 7 43 0 8 4 24 9 35 22 48 47
159 39 179 -6 17 -10 12 -23 -34 -9 -30 -19 -68 -23 -84 -8 -32 -107 -176
-131 -189 -41 -24 -71 -25 -90 -5 -18 21 -18 21 7 8 19 -10 22 -10 13 0 -9 10
-5 23 18 60 16 26 29 52 29 59 0 11 12 15 44 11 11 -1 17 3 14 11 -5 15 -46
17 -67 5 -8 -5 -16 -4 -21 4 -5 9 -9 9 -14 1 -4 -6 -2 -11 4 -11 22 0 -1 -19
-56 -46 -55 -27 -76 -28 -52 -2 7 7 18 23 25 33 6 11 16 19 23 17 6 -1 9 2 6
7 -7 11 58 51 83 51 10 0 24 7 31 15 19 22 28 18 22 -10 -2 -14 -11 -25 -18
-25 -8 0 -14 -4 -14 -10 0 -14 26 -12 37 3 6 6 13 28 17 48 5 28 12 38 31 43
14 4 25 10 25 15 0 14 -40 0 -85 -29 -22 -15 -52 -30 -66 -33 -35 -9 -128 -93
-135 -123 -7 -29 -9 -29 -34 -4 -12 12 -26 18 -31 14 -8 -4 -7 -9 2 -14 10 -7
10 -11 0 -24 -11 -14 -11 -16 3 -16 10 0 14 5 10 11 -5 9 1 10 22 5 37 -10 36
-9 25 -39 -6 -15 -6 -27 -1 -29 15 -5 0 -46 -19 -51 -11 -3 -10 -5 5 -6 12 0
27 -8 34 -16 9 -11 17 -12 31 -5 15 8 21 6 31 -10 7 -11 16 -20 20 -20 4 0 33
-19 64 -42 31 -24 60 -43 63 -43 3 0 11 -3 17 -7 10 -6 30 -2 87 18 9 4 17 10
17 15 0 5 7 9 15 9 8 0 15 5 15 12 0 6 3 9 6 5 3 -3 14 2 23 11 34 32 61 52
71 52 6 0 10 5 10 10 0 6 7 10 15 10 8 0 15 7 15 15 0 8 5 15 10 15 13 0 13
-3 -4 -35 -8 -15 -23 -33 -35 -41 -11 -8 -18 -21 -15 -29 8 -20 26 -19 22 1
-2 9 6 21 17 28 11 6 22 12 24 13 2 2 5 18 5 37 2 29 24 66 40 66 8 0 46 38
46 46 0 3 19 25 42 50 39 41 108 163 108 191 0 18 50 73 66 73 8 0 14 -4 14
-10 0 -5 3 -9 8 -8 20 4 102 -16 102 -25 0 -7 4 -7 12 1 10 10 10 15 -2 22 -8
5 -23 10 -32 10 -23 0 -49 11 -44 19 2 3 -10 6 -27 7 -18 0 -39 3 -48 7 -8 4
-18 5 -21 1z m-669 -311 c-37 -64 -53 -77 -78 -64 -12 7 -21 8 -21 2 0 -5 9
-13 20 -16 11 -3 20 -11 20 -17 0 -6 12 -21 28 -34 21 -19 28 -21 30 -9 2 8
13 15 25 15 25 0 87 49 87 68 0 7 5 12 10 12 6 0 10 7 10 15 0 8 5 15 10 15 6
0 10 7 10 15 0 8 5 15 10 15 15 0 13 -8 -16 -77 -18 -42 -31 -60 -40 -56 -8 3
-14 -1 -14 -11 0 -9 -4 -16 -8 -16 -5 0 -8 -10 -8 -22 1 -18 -4 -22 -19 -20
-16 3 -18 1 -7 -9 14 -15 16 -29 3 -29 -17 0 -111 74 -111 88 0 10 -23 16 -50
14 -3 0 -6 17 -7 38 -2 47 18 70 44 49 14 -12 16 -12 8 0 -6 10 2 22 26 42 49
41 66 38 38 -8z m-99 -143 c0 -5 -4 -10 -10 -10 -5 0 -10 5 -10 10 0 6 5 10
10 10 6 0 10 -4 10 -10z"/>
<path d="M2080 1586 c0 -2 8 -10 18 -17 15 -13 16 -12 3 4 -13 16 -21 21 -21
13z"/>
<path d="M581 1504 c0 -11 3 -14 6 -6 3 7 2 16 -1 19 -3 4 -6 -2 -5 -13z"/>
<path d="M2021 1479 c-24 -17 -50 -37 -58 -45 -8 -8 -18 -14 -23 -14 -12 0
-40 -29 -40 -41 0 -11 42 11 53 29 4 6 15 12 22 12 8 0 15 5 15 10 0 6 9 10
20 10 11 0 19 5 18 12 -2 6 17 19 41 28 33 13 39 18 27 23 -25 10 -27 9 -75
-24z"/>
<path d="M557 1476 c-4 -10 -5 -21 -2 -24 9 -9 17 6 13 25 -3 17 -4 17 -11 -1z"/>
<path d="M1445 1470 c3 -5 8 -10 11 -10 2 0 4 5 4 10 0 6 -5 10 -11 10 -5 0
-7 -4 -4 -10z"/>
<path d="M1970 1386 c7 -7 14 -6 21 1 9 9 7 12 -9 10 -14 -1 -18 -5 -12 -11z"/>
<path d="M590 1380 c0 -5 5 -10 10 -10 6 0 10 5 10 10 0 6 -4 10 -10 10 -5 0
-10 -4 -10 -10z"/>
<path d="M1540 1380 c0 -5 5 -10 11 -10 5 0 7 5 4 10 -3 6 -8 10 -11 10 -2 0
-4 -4 -4 -10z"/>
<path d="M2280 1379 c0 -5 5 -7 10 -4 6 3 10 8 10 11 0 2 -4 4 -10 4 -5 0 -10
-5 -10 -11z"/>
<path d="M546 1372 c-2 -4 9 -17 25 -27 16 -11 29 -28 29 -37 0 -10 4 -18 9
-18 5 0 8 11 7 25 0 14 -7 25 -13 25 -7 0 -13 3 -13 8 0 11 -38 33 -44 24z"/>
<path d="M1760 1360 c-9 -6 -10 -10 -3 -10 6 0 15 5 18 10 8 12 4 12 -15 0z"/>
<path d="M1944 1359 c-3 -6 -1 -16 5 -22 8 -8 11 -5 11 11 0 24 -5 28 -16 11z"/>
<path d="M1711 1330 c-13 -11 -19 -20 -14 -20 6 0 18 9 28 20 23 25 17 25 -14
0z"/>
<path d="M2345 1329 c-4 -6 -5 -12 -2 -15 2 -3 7 2 10 11 7 17 1 20 -8 4z"/>
<path d="M1334 1280 c2 -22 0 -30 -9 -26 -10 3 -10 -1 -1 -19 6 -13 12 -22 14
-21 9 9 11 85 2 91 -6 4 -8 -6 -6 -25z"/>
<path d="M511 1284 c0 -11 3 -14 6 -6 3 7 2 16 -1 19 -3 4 -6 -2 -5 -13z"/>
<path d="M1921 1286 c-7 -8 -8 -17 -3 -20 6 -3 13 1 16 10 9 23 2 28 -13 10z"/>
<path d="M588 1264 c-5 -4 -8 -26 -8 -48 1 -33 3 -38 11 -23 11 19 8 83 -3 71z"/>
<path d="M1012 1207 c-6 -6 -14 -25 -18 -40 -6 -28 -50 -84 -63 -80 -11 2 -11
-80 -1 -136 9 -50 15 -59 105 -144 53 -49 139 -147 193 -216 90 -117 284 -318
410 -424 30 -25 82 -60 116 -77 58 -30 66 -32 99 -21 41 14 66 39 26 27 -53
-16 -66 -17 -80 -4 -14 12 -50 34 -104 62 -14 7 -21 16 -17 20 4 4 0 6 -8 4
-8 -2 -14 3 -12 10 1 8 -2 11 -8 7 -5 -3 -10 -2 -10 3 0 5 -12 14 -26 21 -17
7 -24 17 -20 26 3 8 1 15 -4 15 -12 0 -63 43 -94 79 -58 66 -76 82 -86 76 -5
-3 -10 -2 -10 4 0 5 6 12 13 15 6 4 2 4 -11 2 -12 -2 -20 -1 -18 3 3 4 -6 19
-20 34 -13 14 -24 31 -24 37 0 7 -5 10 -12 8 -12 -4 -68 52 -68 68 0 5 -16 27
-35 49 -37 42 -47 67 -18 44 13 -11 13 -8 -2 13 -11 15 -24 28 -29 28 -5 0 -2
-8 5 -17 7 -10 -23 17 -66 59 -44 42 -97 92 -119 111 -31 27 -39 41 -41 73 -1
21 -6 51 -10 66 -7 27 8 59 53 107 13 15 20 31 17 42 -10 29 26 41 58 20 15
-10 24 -21 20 -25 -5 -5 1 -7 11 -5 31 6 28 22 -10 47 -40 25 -67 28 -82 9z"/>
<path d="M2030 1210 c0 -5 4 -10 9 -10 6 0 13 5 16 10 3 6 -1 10 -9 10 -9 0
-16 -4 -16 -10z"/>
<path d="M1731 1181 c0 -8 -9 -20 -18 -27 -10 -7 -13 -13 -8 -14 21 0 37 18
32 36 -3 11 -5 13 -6 5z"/>
<path d="M2031 1175 c-1 -28 -55 -211 -76 -259 -23 -55 -10 -57 17 -2 12 25
27 46 33 46 14 0 45 63 45 90 0 10 4 21 9 24 4 3 11 19 14 35 7 33 43 52 59
30 8 -11 9 -11 5 1 -2 8 -17 17 -33 18 -16 2 -32 9 -36 15 -6 9 -10 8 -17 -2
-7 -11 -10 -10 -14 5 -4 18 -5 18 -6 -1z m29 -29 c0 -15 -52 -166 -59 -170 -4
-3 4 35 18 84 14 50 29 90 34 90 4 0 7 -2 7 -4z"/>
<path d="M1885 1169 c-4 -6 -5 -12 -2 -15 2 -3 7 2 10 11 7 17 1 20 -8 4z"/>
<path d="M581 1154 c0 -11 3 -14 6 -6 3 7 2 16 -1 19 -3 4 -6 -2 -5 -13z"/>
<path d="M1969 1085 c-17 -86 -9 -88 15 -3 18 63 20 78 8 78 -4 0 -14 -34 -23
-75z"/>
<path d="M2252 1145 c-7 -8 -12 -17 -12 -20 1 -21 -2 -25 -16 -25 -25 0 -49
-29 -35 -43 8 -8 11 -8 11 1 0 18 18 14 23 -5 4 -15 5 -15 6 2 1 17 3 18 12 5
9 -13 10 -12 5 2 -5 18 20 76 39 90 6 5 4 8 -5 7 -8 0 -21 -6 -28 -14z"/>
<path d="M1850 1140 c-9 -6 -10 -10 -3 -10 6 0 15 5 18 10 8 12 4 12 -15 0z"/>
<path d="M2300 1140 c0 -5 5 -10 11 -10 5 0 7 5 4 10 -3 6 -8 10 -11 10 -2 0
-4 -4 -4 -10z"/>
<path d="M2157 1103 c-22 -25 -25 -33 -13 -33 9 0 16 5 16 12 0 6 7 20 17 30
9 10 14 20 12 22 -2 1 -17 -12 -32 -31z"/>
<path d="M1415 1120 c-3 -5 -1 -10 4 -10 6 0 11 5 11 10 0 6 -2 10 -4 10 -3 0
-8 -4 -11 -10z"/>
<path d="M512 1070 c0 -19 2 -27 5 -17 2 9 2 25 0 35 -3 9 -5 1 -5 -18z"/>
<path d="M1427 1078 c-7 -25 -3 -33 12 -23 13 8 15 45 2 45 -5 0 -11 -10 -14
-22z"/>
<path d="M1197 1079 c7 -7 15 -10 18 -7 3 3 -2 9 -12 12 -14 6 -15 5 -6 -5z"/>
<path d="M2270 1079 c0 -5 5 -7 10 -4 6 3 10 8 10 11 0 2 -4 4 -10 4 -5 0 -10
-5 -10 -11z"/>
<path d="M887 1047 c-9 -11 -17 -25 -17 -30 0 -5 -6 -7 -14 -4 -8 3 -19 0 -24
-6 -8 -9 -2 -12 20 -12 24 0 32 6 44 34 17 41 15 47 -9 18z"/>
<path d="M1386 1054 c-4 -9 -4 -19 -1 -22 2 -3 7 3 11 12 4 9 4 19 1 22 -2 3
-7 -3 -11 -12z"/>
<path d="M1873 1063 c-13 -2 -23 -9 -23 -14 0 -13 13 -11 36 6 10 8 17 14 14
13 -3 0 -15 -3 -27 -5z"/>
<path d="M1926 1058 c-3 -7 -7 -40 -10 -73 -3 -33 -17 -96 -31 -140 -29 -92
-28 -88 -15 -80 25 16 88 305 66 305 -4 0 -8 -6 -10 -12z"/>
<path d="M2356 1055 c-13 -36 -24 -50 -35 -47 -6 1 -11 1 -11 0 -2 -28 -122
-483 -128 -487 -5 -3 -5 -17 -1 -31 8 -28 9 -28 15 19 2 19 8 39 13 45 13 17
51 137 51 162 0 13 5 26 10 29 6 3 10 20 10 36 0 17 4 28 9 25 5 -4 7 4 3 16
-3 11 -1 19 4 16 5 -3 10 14 11 39 1 29 13 65 33 100 17 30 29 64 27 76 -3 21
-4 21 -11 2z"/>
<path d="M1256 985 c7 -111 8 -115 56 -162 82 -79 99 -93 138 -111 22 -10 38
-21 35 -24 -3 -3 1 -8 9 -11 8 -3 17 1 20 9 3 8 0 14 -8 14 -18 0 -78 45 -157
119 l-69 64 0 72 c0 46 -5 78 -14 91 -13 17 -14 10 -10 -61z"/>
<path d="M577 1031 c-4 -17 -3 -21 5 -13 5 5 8 16 6 23 -3 8 -7 3 -11 -10z"/>
<path d="M742 1025 c0 -16 2 -22 5 -12 2 9 2 23 0 30 -3 6 -5 -1 -5 -18z"/>
<path d="M1586 1032 c-3 -9 -9 -23 -12 -31 -10 -21 14 -4 26 19 6 11 6 21 1
24 -5 3 -11 -2 -15 -12z"/>
<path d="M2194 1031 c4 -6 3 -11 -2 -11 -19 0 -22 -33 -5 -52 14 -16 14 -18 1
-13 -13 5 -17 -5 -22 -57 -4 -35 -4 -72 0 -82 5 -14 4 -17 -4 -12 -8 5 -12 -4
-12 -28 0 -19 -3 -42 -6 -50 -5 -12 -2 -15 12 -9 13 5 15 3 9 -7 -5 -9 -4 -11
3 -6 7 4 12 16 12 27 0 11 -4 17 -10 14 -5 -3 -10 3 -10 14 0 11 4 22 9 25 5
3 8 -2 7 -11 0 -9 5 -18 12 -20 7 -3 12 1 11 8 -2 8 5 39 14 71 9 31 17 69 16
85 -1 20 -7 9 -23 -42 -16 -51 -24 -64 -29 -51 -9 22 10 92 35 128 20 28 25
63 7 53 -6 -4 -9 0 -7 10 2 10 -3 20 -11 23 -8 3 -11 0 -7 -7z"/>
<path d="M971 1013 c7 -10 15 -20 16 -22 2 -2 3 3 3 11 0 9 -7 19 -16 22 -15
6 -15 4 -3 -11z"/>
<path d="M1826 1015 c4 -8 8 -15 10 -15 2 0 4 7 4 15 0 8 -4 15 -10 15 -5 0
-7 -7 -4 -15z"/>
<path d="M2246 1014 c-9 -23 -2 -28 13 -10 7 8 8 17 3 20 -6 3 -13 -1 -16 -10z"/>
<path d="M1540 1003 c0 -13 5 -23 10 -23 13 0 13 11 0 30 -8 12 -10 11 -10 -7z"/>
<path d="M2383 998 c-29 -36 -44 -87 -54 -179 -5 -56 -8 -103 -6 -105 2 -2 12
42 22 99 10 56 26 122 37 146 19 45 19 62 1 39z"/>
<path d="M1771 955 l1 -50 10 38 c7 28 7 42 -1 50 -8 8 -11 -2 -10 -38z"/>
<path d="M1482 966 c-6 -13 -7 -27 -2 -32 4 -5 3 -40 -2 -77 -9 -62 -7 -89 8
-75 3 3 8 41 11 84 3 51 10 82 19 87 15 9 8 37 -10 37 -7 0 -18 -11 -24 -24z"/>
<path d="M835 970 c3 -5 1 -10 -5 -10 -6 0 -8 -5 -5 -10 4 -6 12 -5 21 4 18
19 18 26 -2 26 -8 0 -12 -4 -9 -10z"/>
<path d="M1652 955 c-7 -14 -8 -27 -2 -30 5 -3 12 6 16 20 9 35 0 41 -14 10z"/>
<path d="M1718 959 c0 -13 -2 -46 -3 -74 -4 -76 -14 -128 -27 -137 -7 -4 -10
-9 -7 -12 9 -9 24 9 42 49 14 31 17 57 13 113 -5 73 -15 108 -18 61z"/>
<path d="M1808 933 c-22 -62 -15 -67 11 -8 24 53 24 55 13 55 -4 0 -15 -21
-24 -47z"/>
<path d="M1847 903 c-21 -43 -44 -105 -53 -138 -8 -33 -26 -71 -39 -85 -13
-14 -25 -34 -27 -45 -1 -11 -7 -23 -13 -27 -6 -5 -5 -8 3 -8 6 0 12 -4 12 -9
0 -5 -10 -7 -22 -4 -22 5 -22 4 2 -16 14 -11 27 -21 30 -21 3 0 6 21 8 46 2
32 11 56 31 82 16 20 34 53 39 72 6 19 24 75 42 123 17 49 30 93 28 98 -2 6
-20 -25 -41 -68z"/>
<path d="M1308 938 c2 -10 10 -18 17 -18 8 0 16 -8 18 -17 3 -10 5 -2 6 17 1
30 -2 35 -22 35 -18 0 -23 -5 -19 -17z"/>
<path d="M1407 954 c-10 -11 -8 -44 2 -44 6 0 13 4 16 10 8 12 -9 43 -18 34z"/>
<path d="M1445 949 c-4 -6 -5 -12 -2 -15 2 -3 7 2 10 11 7 17 1 20 -8 4z"/>
<path d="M2105 883 c-11 -43 -19 -84 -18 -90 0 -7 -3 -13 -9 -13 -5 0 -6 -4
-3 -10 3 -5 -3 -31 -14 -57 -10 -26 -22 -64 -25 -83 -3 -19 -14 -50 -24 -69
-15 -29 -15 -35 -2 -39 10 -4 1 -12 -25 -24 -22 -10 -32 -16 -22 -14 9 3 17 1
17 -4 0 -5 8 -14 18 -19 14 -8 19 -6 19 5 0 7 -5 14 -10 14 -6 0 -2 9 8 20 10
11 15 23 12 26 -3 4 -1 16 5 28 7 11 13 26 14 31 9 41 25 98 42 143 12 29 24
79 28 110 4 31 10 66 14 78 5 11 5 26 1 32 -4 7 -16 -22 -26 -65z"/>
<path d="M812 935 c4 -4 3 -16 -3 -26 -7 -14 -7 -19 3 -17 7 2 14 -7 16 -20 4
-24 27 -25 27 -1 0 8 11 25 23 37 13 13 21 26 17 30 -3 3 -16 -7 -29 -23 -23
-28 -53 -28 -42 1 3 7 0 16 -7 20 -7 4 -9 4 -5 -1z"/>
<path d="M1968 878 c-23 -31 -54 -84 -116 -198 l-24 -45 24 25 c12 14 31 37
41 50 14 21 16 21 7 3 -13 -28 -13 -40 0 -27 5 5 11 23 13 40 2 17 23 63 46
103 45 77 50 103 9 49z"/>
<path d="M580 890 c0 -5 5 -10 10 -10 6 0 10 5 10 10 0 6 -4 10 -10 10 -5 0
-10 -4 -10 -10z"/>
<path d="M1421 875 c2 -17 0 -35 -4 -41 -4 -7 -1 -16 6 -22 9 -8 12 0 12 33 0
24 -4 47 -8 52 -5 4 -8 -6 -6 -22z"/>
<path d="M1351 864 c0 -11 3 -14 6 -6 3 7 2 16 -1 19 -3 4 -6 -2 -5 -13z"/>
<path d="M1237 848 c9 -10 21 -18 27 -17 6 0 6 3 -1 6 -7 2 -13 10 -13 17 0 7
-7 13 -15 13 -13 0 -13 -3 2 -19z"/>
<path d="M805 851 c-4 -7 1 -21 11 -32 10 -11 19 -27 20 -35 1 -9 10 -24 19
-34 13 -14 13 -19 3 -23 -10 -5 -9 -8 4 -17 12 -8 16 -21 13 -55 -3 -37 0 -45
16 -50 22 -7 24 -18 8 -46 -7 -15 -7 -24 2 -35 7 -9 8 -14 1 -14 -6 0 -12 5
-14 11 -2 5 -11 7 -21 4 -9 -4 -15 -11 -12 -15 3 -4 -2 -10 -10 -14 -8 -3 -15
-12 -15 -20 0 -10 -6 -13 -17 -9 -10 4 -14 2 -10 -4 5 -9 -42 -37 -63 -38 -3
0 -11 -4 -19 -9 -10 -7 -13 -5 -9 5 3 8 1 23 -3 34 -6 13 -8 -2 -7 -45 1 -36
-2 -99 -7 -140 -4 -41 -8 -102 -9 -135 -1 -33 -6 -61 -11 -62 -6 -1 -9 17 -7
40 2 31 0 38 -8 27 -5 -8 -10 -37 -10 -65 0 -38 3 -46 12 -37 19 19 29 14 22
-13 -5 -19 -2 -25 10 -25 11 0 16 10 17 33 1 17 3 41 4 52 2 11 6 84 10 163
l8 142 66 36 c36 20 83 45 104 55 42 22 44 29 21 64 -10 15 -12 25 -5 25 19 0
12 34 -9 48 -20 12 -28 62 -10 62 16 0 11 27 -6 34 -10 4 -14 12 -10 22 4 10
-5 31 -22 52 -16 21 -33 45 -39 56 -7 13 -12 15 -18 7z"/>
<path d="M940 850 c0 -5 5 -10 11 -10 5 0 7 5 4 10 -3 6 -8 10 -11 10 -2 0 -4
-4 -4 -10z"/>
<path d="M1995 849 c-4 -6 -5 -12 -2 -15 2 -3 7 2 10 11 7 17 1 20 -8 4z"/>
<path d="M898 831 c-21 -21 -23 -32 -5 -25 14 5 41 44 30 43 -5 0 -16 -8 -25
-18z"/>
<path d="M967 805 c-11 -15 -28 -25 -42 -25 -14 0 -25 -5 -25 -11 0 -6 14 -9
35 -6 39 5 52 -5 30 -23 -18 -15 -20 -34 -3 -24 8 5 9 2 5 -10 -4 -10 -3 -15
3 -11 6 3 10 2 10 -3 0 -6 -7 -12 -15 -16 -22 -8 -18 -21 8 -22 21 -2 22 2 19
60 -2 33 -3 73 -2 89 0 33 0 33 -23 2z"/>
<path d="M1295 810 c10 -11 20 -20 23 -20 3 0 -3 9 -13 20 -10 11 -20 20 -23
20 -3 0 3 -9 13 -20z"/>
<path d="M1602 800 c0 -14 2 -19 5 -12 2 6 2 18 0 25 -3 6 -5 1 -5 -13z"/>
<path d="M1651 804 c0 -11 3 -14 6 -6 3 7 2 16 -1 19 -3 4 -6 -2 -5 -13z"/>
<path d="M1425 780 c3 -5 8 -10 11 -10 2 0 4 5 4 10 0 6 -5 10 -11 10 -5 0 -7
-4 -4 -10z"/>
<path d="M1960 770 c-8 -5 -11 -12 -8 -16 10 -9 38 3 38 16 0 12 -10 13 -30 0z"/>
<path d="M1520 750 c0 -5 7 -10 15 -10 8 0 15 5 15 10 0 6 -7 10 -15 10 -8 0
-15 -4 -15 -10z"/>
<path d="M1475 740 c3 -5 8 -10 11 -10 2 0 4 5 4 10 0 6 -5 10 -11 10 -5 0 -7
-4 -4 -10z"/>
<path d="M1990 716 c-55 -40 -78 -66 -60 -66 7 0 26 13 41 30 16 16 31 30 34
30 14 -1 37 18 34 28 -2 6 -24 -3 -49 -22z"/>
<path d="M2196 715 c-3 -9 -6 -24 -5 -33 0 -9 5 -4 10 12 9 32 6 48 -5 21z"/>
<path d="M1667 696 c-3 -8 0 -17 7 -19 10 -4 12 1 9 14 -6 23 -9 24 -16 5z"/>
<path d="M840 685 c0 -8 2 -15 4 -15 2 0 6 7 10 15 3 8 1 15 -4 15 -6 0 -10
-7 -10 -15z"/>
<path d="M1075 680 c-3 -5 1 -10 9 -10 9 0 16 5 16 10 0 6 -4 10 -9 10 -6 0
-13 -4 -16 -10z"/>
<path d="M781 663 c0 -13 2 -14 6 -4 4 10 7 10 13 2 5 -9 10 -8 20 4 11 13 9
15 -14 15 -18 0 -26 -5 -25 -17z"/>
<path d="M1020 677 c0 -4 7 -21 15 -37 9 -17 13 -30 10 -30 -3 0 1 -12 9 -27
7 -16 14 -53 14 -83 1 -60 27 -299 44 -398 27 -165 18 32 -17 325 -6 56 -8
106 -4 110 7 7 -17 72 -32 83 -3 3 -13 19 -22 35 -9 17 -16 26 -17 22z"/>
<path d="M1520 672 c0 -10 149 -86 156 -79 6 5 -79 57 -94 57 -5 0 -15 7 -22
15 -13 16 -40 21 -40 7z"/>
<path d="M2275 653 c-4 -18 -14 -33 -21 -33 -8 0 -14 -10 -13 -22 1 -17 2 -19
6 -5 2 9 9 17 14 17 12 0 31 49 25 64 -2 6 -7 -4 -11 -21z"/>
<path d="M1795 650 c-10 -11 -16 -22 -13 -25 3 -3 13 6 22 20 20 30 16 32 -9
5z"/>
<path d="M1866 649 c-16 -16 -17 -19 -4 -19 9 0 19 7 22 16 9 24 4 24 -18 3z"/>
<path d="M1100 656 c0 -2 7 -7 16 -10 8 -3 12 -2 9 4 -6 10 -25 14 -25 6z"/>
<path d="M2155 652 c-46 -5 -55 -22 -13 -22 20 0 40 5 43 11 9 14 6 15 -30 11z"/>
<path d="M930 630 c0 -5 5 -10 11 -10 5 0 7 5 4 10 -3 6 -8 10 -11 10 -2 0 -4
-4 -4 -10z"/>
<path d="M966 614 c-4 -11 -2 -15 8 -11 7 3 18 1 24 -5 8 -8 9 -5 5 11 -6 25
-28 28 -37 5z"/>
<path d="M1115 620 c-4 -6 3 -10 14 -10 25 0 27 6 6 13 -8 4 -17 2 -20 -3z"/>
<path d="M1805 620 c-3 -5 -2 -10 4 -10 5 0 13 5 16 10 3 6 2 10 -4 10 -5 0
-13 -4 -16 -10z"/>
<path d="M1875 598 c27 -20 55 -29 55 -19 0 5 -8 11 -17 14 -10 2 -27 8 -38
12 -20 7 -20 7 0 -7z"/>
<path d="M1127 593 c-2 -5 -3 -21 -2 -37 3 -46 21 -42 20 4 0 37 -8 51 -18 33z"/>
<path d="M1986 584 c-4 -9 -4 -19 -1 -22 2 -3 7 3 11 12 4 9 4 19 1 22 -2 3
-7 -3 -11 -12z"/>
<path d="M391 564 c0 -11 3 -14 6 -6 3 7 2 16 -1 19 -3 4 -6 -2 -5 -13z"/>
<path d="M990 570 c0 -5 -9 -10 -20 -10 -11 0 -20 -4 -20 -9 0 -5 9 -7 20 -4
11 3 20 4 20 2 0 -2 -7 -41 -15 -87 -8 -46 -12 -96 -9 -111 3 -15 1 -45 -6
-67 -6 -21 -15 -68 -20 -104 -5 -36 -14 -83 -21 -106 -7 -24 -9 -49 -4 -60 9
-21 8 -22 20 49 3 21 10 35 16 32 5 -4 9 -3 8 2 -3 20 2 66 7 61 3 -3 9 -28
14 -55 l8 -48 1 52 c0 28 -3 55 -9 58 -23 14 -3 135 22 135 5 0 6 5 2 12 -11
18 -5 188 8 212 8 14 8 21 0 24 -6 2 -8 10 -5 18 3 8 0 14 -6 14 -6 0 -11 -4
-11 -10z"/>
<path d="M1180 562 c0 -10 -3 -22 -7 -25 -12 -13 -12 -58 0 -54 14 4 27 86 15
93 -4 3 -8 -3 -8 -14z"/>
<path d="M2081 544 c-12 -13 -19 -30 -15 -35 3 -6 15 4 26 21 24 40 19 48 -11
14z"/>
<path d="M1220 529 c0 -5 5 -7 10 -4 6 3 10 8 10 11 0 2 -4 4 -10 4 -5 0 -10
-5 -10 -11z"/>
<path d="M392 510 c0 -14 2 -19 5 -12 2 6 2 18 0 25 -3 6 -5 1 -5 -13z"/>
<path d="M1220 454 c0 -21 4 -33 10 -29 6 3 10 19 10 36 0 16 -4 29 -10 29 -5
0 -10 -16 -10 -36z"/>
<path d="M2046 475 c4 -8 7 -15 9 -15 2 0 5 7 9 15 3 9 0 15 -9 15 -9 0 -12
-6 -9 -15z"/>
<path d="M2095 460 c-3 -5 -1 -10 4 -10 6 0 11 5 11 10 0 6 -2 10 -4 10 -3 0
-8 -4 -11 -10z"/>
<path d="M2121 444 c0 -11 3 -14 6 -6 3 7 2 16 -1 19 -3 4 -6 -2 -5 -13z"/>
<path d="M2156 445 c-9 -26 -7 -32 5 -12 6 10 9 21 6 23 -2 3 -7 -2 -11 -11z"/>
<path d="M1256 394 c-17 -17 -22 -84 -6 -84 5 0 8 -6 5 -12 -6 -21 -16 -302
-10 -296 3 3 8 16 10 29 3 13 7 35 10 49 8 41 9 255 1 268 -10 17 3 54 16 46
7 -4 8 -2 4 4 -9 15 -12 15 -30 -4z"/>
<path d="M1170 384 c0 -5 -4 -61 -10 -124 -5 -63 -6 -149 -1 -190 6 -67 8 -55
15 118 4 106 5 196 2 199 -3 4 -6 2 -6 -3z"/>
<path d="M1790 380 c-13 -8 -12 -10 3 -10 9 0 17 5 17 10 0 12 -1 12 -20 0z"/>
<path d="M2255 370 c3 -5 8 -10 11 -10 2 0 4 5 4 10 0 6 -5 10 -11 10 -5 0 -7
-4 -4 -10z"/>
<path d="M2015 360 c-3 -5 -1 -10 4 -10 6 0 11 5 11 10 0 6 -2 10 -4 10 -3 0
-8 -4 -11 -10z"/>
<path d="M1375 330 c3 -5 8 -10 11 -10 2 0 4 5 4 10 0 6 -5 10 -11 10 -5 0 -7
-4 -4 -10z"/>
<path d="M2250 326 c0 -18 22 -56 32 -55 10 0 10 2 0 6 -6 2 -10 9 -6 14 3 5
-2 16 -10 25 -9 8 -16 13 -16 10z"/>
<path d="M1035 225 c5 -150 9 -178 28 -205 18 -26 23 -21 8 8 -5 9 -12 73 -15
141 -4 68 -11 131 -16 140 -5 10 -7 -20 -5 -84z"/>
<path d="M1356 294 c-12 -31 -4 -94 13 -94 3 0 6 25 6 55 0 55 -7 70 -19 39z"/>
<path d="M1760 285 c0 -8 2 -15 4 -15 2 0 6 7 10 15 3 8 1 15 -4 15 -6 0 -10
-7 -10 -15z"/>
<path d="M1818 293 c6 -2 18 -2 25 0 6 3 1 5 -13 5 -14 0 -19 -2 -12 -5z"/>
<path d="M671 274 c0 -11 3 -14 6 -6 3 7 2 16 -1 19 -3 4 -6 -2 -5 -13z"/>
<path d="M1865 279 c-4 -6 -5 -12 -2 -15 2 -3 7 2 10 11 7 17 1 20 -8 4z"/>
<path d="M2210 288 c0 -3 6 -18 14 -32 10 -20 15 -23 19 -12 3 8 -3 22 -14 32
-10 9 -19 15 -19 12z"/>
<path d="M996 271 c-4 -7 -5 -15 -2 -18 9 -9 19 4 14 18 -4 11 -6 11 -12 0z"/>
<path d="M1960 254 c0 -8 5 -12 10 -9 6 4 8 11 5 16 -9 14 -15 11 -15 -7z"/>
<path d="M1232 220 c0 -14 2 -19 5 -12 2 6 2 18 0 25 -3 6 -5 1 -5 -13z"/>
<path d="M2391 230 c1 -8 5 -26 9 -40 l8 -25 1 25 c0 14 -4 32 -9 40 -9 13
-10 13 -9 0z"/>
<path d="M1923 219 c3 -9 -1 -26 -9 -38 -15 -21 -9 -27 12 -13 12 8 12 48 -1
59 -4 5 -6 1 -2 -8z"/>
<path d="M2276 193 c2 -21 3 -49 3 -62 1 -39 12 -17 14 29 2 23 -1 44 -5 46
-5 3 -6 10 -3 15 4 5 2 9 -3 9 -5 0 -8 -17 -6 -37z"/>
<path d="M2195 208 c-3 -7 -1 -26 4 -43 9 -29 9 -29 10 13 1 41 -5 54 -14 30z"/>
<path d="M1865 190 c3 -5 8 -10 11 -10 2 0 4 5 4 10 0 6 -5 10 -11 10 -5 0 -7
-4 -4 -10z"/>
<path d="M1585 159 c-4 -6 -5 -12 -2 -15 2 -3 7 2 10 11 7 17 1 20 -8 4z"/>
<path d="M1319 115 c-6 -25 -15 -48 -20 -51 -5 -3 -9 -13 -9 -22 0 -30 31 11
50 67 13 41 14 51 4 51 -8 0 -19 -20 -25 -45z"/>
<path d="M1464 149 c-3 -5 11 -9 31 -9 20 0 34 4 31 9 -3 5 -17 9 -31 9 -14 0
-28 -4 -31 -9z"/>
<path d="M1412 138 c2 -6 10 -14 16 -16 7 -2 10 2 6 12 -7 18 -28 22 -22 4z"/>
<path d="M2043 115 c0 -22 2 -30 4 -17 2 12 2 30 0 40 -3 9 -5 -1 -4 -23z"/>
<path d="M1522 94 c-23 -24 -38 -44 -32 -44 6 0 18 9 27 20 10 11 21 20 26 20
15 0 40 31 31 39 -5 5 -28 -11 -52 -35z"/>
<path d="M2210 102 c0 -18 5 -32 10 -32 6 0 9 11 7 25 -5 37 -17 42 -17 7z"/>
<path d="M2240 120 c0 -5 5 -10 11 -10 5 0 7 5 4 10 -3 6 -8 10 -11 10 -2 0
-4 -4 -4 -10z"/>
<path d="M1385 92 c-4 -18 -12 -35 -16 -38 -14 -8 -10 -34 4 -34 24 0 77 31
71 41 -6 10 -31 -4 -46 -26 -14 -19 -21 5 -9 29 7 13 11 32 8 42 -3 14 -6 11
-12 -14z"/>
<path d="M1196 94 c-7 -19 -8 -79 -1 -72 6 6 17 88 11 88 -2 0 -7 -7 -10 -16z"/>
<path d="M2156 85 c-3 -8 -1 -15 4 -15 6 0 10 7 10 15 0 8 -2 15 -4 15 -2 0
-6 -7 -10 -15z"/>
<path d="M2380 79 c0 -5 5 -7 10 -4 6 3 10 8 10 11 0 2 -4 4 -10 4 -5 0 -10
-5 -10 -11z"/>
<path d="M1568 73 c-10 -2 -18 -9 -18 -14 0 -5 -6 -9 -14 -9 -14 0 -31 -29
-22 -37 2 -3 13 0 23 6 10 6 14 11 9 11 -6 0 5 11 24 25 33 24 33 27 -2 18z"/>
<path d="M2070 61 c5 -11 15 -23 21 -27 6 -3 3 5 -6 20 -20 30 -30 35 -15 7z"/>
<path d="M2180 71 c0 -5 5 -13 10 -16 6 -3 10 -2 10 4 0 5 -4 13 -10 16 -5 3
-10 2 -10 -4z"/>
<path d="M960 55 c0 -8 4 -15 10 -15 5 0 7 7 4 15 -4 8 -8 15 -10 15 -2 0 -4
-7 -4 -15z"/>
<path d="M2052 28 c2 -16 6 -24 11 -19 5 5 5 17 -2 28 -9 16 -10 15 -9 -9z"/>
<path d="M2231 34 c0 -11 3 -14 6 -6 3 7 2 16 -1 19 -3 4 -6 -2 -5 -13z"/>
<path d="M1885 30 c-3 -5 -1 -10 4 -10 6 0 11 5 11 10 0 6 -2 10 -4 10 -3 0
-8 -4 -11 -10z"/>
<path d="M2270 29 c0 -5 5 -7 10 -4 6 3 10 8 10 11 0 2 -4 4 -10 4 -5 0 -10
-5 -10 -11z"/>
<path d="M973 15 c0 -8 6 -15 13 -15 8 0 11 6 8 15 -8 19 -21 19 -21 0z"/>
<path d="M1583 23 c-15 -5 -17 -23 -4 -23 5 0 11 7 15 15 3 8 4 15 3 14 -1 0
-8 -3 -14 -6z"/>
<path d="M1453 3 c9 -2 23 -2 30 0 6 3 -1 5 -18 5 -16 0 -22 -2 -12 -5z"/>
</g>
</svg>
