<?xml version="1.0" standalone="no"?>
<!DOCTYPE svg PUBLIC "-//W3C//DTD SVG 20010904//EN"
 "http://www.w3.org/TR/2001/REC-SVG-20010904/DTD/svg10.dtd">
<svg version="1.0" xmlns="http://www.w3.org/2000/svg"
 width="300.000000pt" height="342.000000pt" viewBox="0 0 300.000000 342.000000"
 preserveAspectRatio="xMidYMid meet">
<metadata>
Created by potrace 1.10, written by Peter Selinger 2001-2011
</metadata>
<g transform="translate(0.000000,342.000000) scale(0.100000,-0.100000)"
fill="#000000" stroke="none">
<path d="M2080 3062 c0 -4 10 -12 23 -17 12 -6 26 -20 32 -32 14 -34 25 -28
12 6 -12 32 -67 67 -67 43z"/>
<path d="M1970 3038 c-14 -6 -43 -31 -65 -56 -28 -32 -34 -42 -17 -33 12 6 22
17 22 22 0 6 7 8 16 5 8 -3 12 -2 9 4 -7 12 33 53 45 45 5 -3 12 0 15 6 10 15
3 17 -25 7z"/>
<path d="M2804 2820 c-12 -5 -25 -14 -30 -21 -4 -7 -3 -10 3 -6 6 4 16 0 23
-8 17 -21 27 -19 34 7 7 29 -3 38 -30 28z"/>
<path d="M2688 2798 c-23 -36 -17 -169 8 -194 11 -11 27 -18 35 -16 8 3 1 -11
-16 -29 l-30 -34 33 30 c53 48 56 60 14 60 -30 0 -37 4 -45 29 -7 22 -6 35 7
57 10 16 13 29 8 29 -15 0 -20 45 -6 58 7 7 21 12 31 12 15 0 16 2 3 10 -22
14 -26 13 -42 -12z"/>
<path d="M585 2784 c-16 -8 -37 -21 -45 -29 -8 -7 -47 -29 -86 -50 -82 -42
-201 -151 -231 -210 -30 -61 -35 -92 -23 -152 10 -46 9 -57 -4 -72 -8 -9 -18
-37 -22 -61 -4 -25 -26 -85 -50 -135 -23 -49 -48 -103 -54 -120 -17 -45 -29
-115 -19 -115 5 0 9 -9 9 -20 0 -37 32 -100 61 -121 16 -11 26 -25 23 -31 -4
-7 -2 -8 4 -4 6 4 25 0 42 -9 17 -9 43 -15 58 -13 26 3 26 4 -15 30 -23 15
-47 37 -54 49 l-11 22 28 -20 c50 -35 131 -40 124 -7 -1 5 18 16 42 24 23 8
55 23 70 33 19 13 36 17 57 12 36 -8 44 -18 43 -56 -1 -35 10 -37 32 -5 14 23
14 28 -4 68 -29 67 -92 89 -157 55 -18 -9 -36 -17 -41 -17 -14 0 -86 73 -101
102 -18 35 -17 107 1 145 13 26 8 36 -13 28 -18 -7 -23 -31 -23 -121 -1 -59 3
-77 24 -107 14 -20 36 -42 49 -49 l23 -13 -23 -7 c-16 -5 -12 -6 11 -2 19 3
49 7 65 9 17 1 46 7 65 12 19 5 46 6 60 2 30 -8 29 -9 -34 -14 -26 -3 -62 -11
-79 -20 -16 -8 -46 -16 -66 -16 -35 -1 -35 -2 -7 -8 28 -6 35 -28 9 -25 -7 1
-11 -2 -8 -6 3 -4 -11 -11 -31 -15 -29 -5 -44 -1 -75 19 -21 15 -39 33 -39 41
0 7 -4 16 -9 19 -4 3 -7 -5 -6 -17 1 -12 3 -22 4 -22 1 0 4 -13 6 -28 2 -16 9
-35 16 -43 21 -25 5 -24 -29 2 -42 33 -62 74 -67 133 -4 71 13 147 51 227 19
39 40 89 48 110 8 22 18 38 23 37 5 -1 14 7 21 18 11 16 9 19 -8 19 -21 0 -25
7 -12 28 5 7 16 10 25 6 10 -3 17 -1 17 5 0 18 29 13 61 -11 25 -18 29 -28 27
-59 -1 -23 -6 -35 -13 -33 -16 7 -38 -23 -40 -52 -1 -31 23 -31 51 -1 25 26
39 138 17 130 -23 -9 -14 3 50 70 50 52 71 67 112 78 77 20 175 18 205 -5 l25
-18 -25 7 c-87 24 -228 8 -267 -30 -8 -8 -19 -18 -26 -22 -7 -5 -23 -21 -37
-37 -22 -26 -19 -25 19 7 97 81 190 103 292 68 35 -12 70 -25 78 -30 20 -13
51 -156 51 -237 0 -96 -57 -277 -114 -359 -36 -51 -181 -226 -258 -311 -98
-108 -148 -175 -191 -256 -38 -72 -82 -208 -66 -208 5 0 9 10 9 23 0 32 59
163 105 232 22 33 85 114 140 179 143 171 243 293 253 312 5 9 15 15 22 12 12
-4 -103 -165 -162 -228 -13 -14 -31 -36 -40 -49 -10 -14 -37 -45 -60 -69 -24
-25 -43 -49 -43 -53 0 -5 -9 -15 -20 -24 -11 -9 -13 -13 -5 -10 8 4 2 -5 -15
-20 -16 -14 -23 -24 -15 -20 12 5 12 4 -1 -7 -21 -17 -71 -98 -62 -98 5 0 3
-4 -3 -8 -22 -15 -65 -145 -66 -201 -1 -77 9 -115 49 -192 32 -62 83 -125 83
-102 0 5 -11 20 -25 33 -30 28 -33 45 -6 30 11 -5 26 -10 33 -10 7 0 2 6 -12
13 -52 27 -70 49 -58 70 8 15 17 18 44 14 20 -4 34 -2 34 5 0 6 -22 8 -55 6
-63 -4 -65 -1 -65 100 l0 64 32 -27 c26 -22 39 -26 70 -22 25 3 36 2 31 -5 -3
-7 -1 -8 6 -4 21 13 0 27 -33 21 -26 -5 -39 -1 -64 20 -31 26 -42 55 -21 55 6
0 17 7 25 15 14 13 13 15 -5 15 -12 0 -21 3 -21 6 0 13 83 164 90 164 4 0 13
-7 20 -15 7 -8 17 -15 23 -15 7 0 7 4 -1 12 -7 7 -12 18 -12 25 0 17 27 17 33
1 3 -8 6 -6 6 5 1 11 -6 17 -19 17 -11 0 -20 5 -20 11 0 6 9 9 20 6 12 -3 18
-1 14 5 -4 6 0 14 7 19 17 11 52 12 45 1 -2 -4 4 -9 15 -9 16 -2 18 1 9 12 -6
8 -27 15 -45 17 l-33 3 58 73 c32 40 62 73 67 73 4 0 9 -9 11 -21 4 -26 33
-26 63 0 21 17 22 19 6 20 -10 0 -15 -4 -12 -10 3 -5 1 -10 -4 -10 -6 0 -11
13 -11 30 0 18 -5 28 -12 26 -7 -1 -10 -1 -5 1 4 3 4 9 1 15 -4 6 2 8 16 3 15
-5 20 -4 16 4 -4 6 0 14 9 17 12 5 13 9 5 14 -8 5 8 34 47 89 51 73 59 79 67
61 12 -26 25 -25 67 3 29 19 34 29 34 61 0 37 -3 41 -44 63 -2 1 9 34 24 73
15 39 25 73 22 76 -3 3 -11 -12 -17 -33 -16 -49 -90 -196 -96 -191 -4 5 46
129 56 138 12 11 40 120 50 191 11 75 6 116 -25 217 -4 12 -3 22 2 22 6 0 15
-18 22 -40 7 -23 18 -40 27 -40 12 0 12 4 -2 25 -9 14 -12 25 -6 25 6 0 16 -9
22 -21 6 -11 17 -18 23 -16 14 4 29 -9 46 -42 7 -12 15 -20 18 -18 2 3 -1 15
-7 27 l-12 22 30 -22 c39 -29 47 -57 18 -63 -17 -3 -15 -5 7 -6 15 0 27 4 27
9 0 6 4 10 9 10 10 0 9 -39 -2 -57 -8 -13 20 -39 30 -29 4 4 1 11 -7 16 -8 6
-10 10 -5 10 6 0 10 14 9 31 -1 23 -10 38 -34 58 -55 43 -151 107 -213 142
-37 20 -54 36 -48 42 13 13 137 -59 247 -144 109 -83 171 -122 187 -116 7 3 1
9 -13 15 -14 6 -43 22 -65 37 -33 21 -36 25 -16 23 13 -2 26 2 28 9 3 7 -3 9
-16 6 -12 -3 -21 -1 -21 5 0 6 21 13 48 15 32 3 24 4 -23 4 -68 -1 -73 1 -157
55 -48 30 -85 58 -81 62 3 3 1 6 -5 6 -7 0 -12 7 -12 15 0 8 -4 15 -10 15 -5
0 -10 7 -10 15 0 8 -5 15 -11 15 -7 0 -4 -11 6 -26 12 -19 13 -25 3 -22 -7 2
-17 14 -23 26 -11 25 -25 29 -25 8 0 -11 -13 -8 -57 10 -32 13 -66 24 -75 24
-21 0 -24 16 -5 24 6 3 1 4 -13 3 -14 -1 -31 -6 -37 -10 -12 -8 -17 -2 -14 16
0 4 -4 7 -10 7 -6 0 -9 10 -7 23 2 13 9 21 19 19 9 -1 16 5 16 13 0 13 -3 13
-21 2 -24 -16 -39 -64 -23 -71 7 -2 3 -5 -8 -6 -88 -6 -144 -32 -204 -94 -19
-19 -38 -33 -42 -30 -4 2 -10 0 -14 -6 -3 -5 -1 -10 5 -10 6 0 8 -4 5 -10 -11
-17 -24 -11 -31 15 -3 14 -12 25 -20 25 -8 0 -14 9 -14 20 0 11 5 20 10 20 6
0 10 11 10 25 0 30 25 93 46 116 9 11 23 15 37 11 19 -5 20 -3 9 10 -14 17 -9
23 41 48 19 9 24 16 15 21 -7 4 -16 5 -22 2 -5 -3 -6 -1 -2 6 4 6 12 9 17 5 6
-3 37 10 69 30 32 20 63 36 68 36 6 0 23 11 39 24 16 13 45 27 66 31 31 6 42
3 68 -19 17 -14 27 -26 22 -26 -4 0 1 -8 12 -17 19 -15 19 -15 1 -9 -12 4 -23
1 -28 -6 -10 -16 -48 29 -41 49 6 16 -7 12 -107 -39 l-75 -37 45 6 c25 3 49
12 53 19 4 8 20 14 34 14 18 0 24 4 19 15 -5 13 -2 14 15 4 12 -6 18 -17 15
-25 -3 -8 -2 -13 2 -11 4 3 13 -1 20 -9 8 -9 9 -14 2 -14 -6 0 -9 -4 -5 -9 3
-6 -2 -14 -11 -19 -14 -8 -14 -10 0 -25 23 -22 20 -28 -9 -17 -15 6 -26 6 -30
0 -4 -6 4 -10 17 -10 38 0 68 -27 68 -61 0 -16 -5 -29 -12 -29 -6 0 -8 -3 -4
-7 4 -5 18 5 31 22 13 16 27 26 31 22 4 -3 1 -15 -7 -24 -13 -17 -12 -17 6 -2
16 13 24 14 42 4 13 -6 20 -15 16 -18 -3 -4 -1 -7 5 -7 24 0 21 20 -6 34 -16
8 -32 22 -35 31 -4 8 -12 15 -19 15 -7 0 -28 15 -47 32 l-35 31 32 28 c18 17
44 29 60 29 l27 1 -34 27 c-19 15 -57 46 -85 70 -54 46 -82 52 -131 26z m61
-11 c-31 -5 -106 -50 -106 -64 0 -5 -17 -16 -39 -25 -114 -45 -188 -107 -250
-207 -21 -35 -23 -45 -17 -115 5 -51 4 -74 -3 -67 -17 17 -22 113 -9 158 18
61 140 186 218 223 33 16 56 32 53 38 -3 6 -3 8 2 4 4 -4 30 9 59 28 36 24 61
34 86 33 32 -2 33 -2 6 -6z m189 -983 c3 -5 -1 -10 -9 -10 -9 0 -16 -8 -16
-17 0 -15 -2 -16 -10 -3 -8 13 -10 12 -10 -2 0 -22 8 -23 32 -1 23 20 32 12
24 -21 -8 -32 -45 -54 -57 -35 -7 11 -9 9 -9 -5 0 -15 -3 -17 -11 -9 -6 6 -8
19 -5 29 3 11 5 22 3 26 -3 8 44 58 54 58 4 0 11 -4 14 -10z"/>
<path d="M2873 2783 c4 -3 0 -14 -9 -24 -14 -16 -15 -21 -1 -48 14 -28 14 -31
-4 -36 -10 -4 -19 -10 -19 -15 0 -13 44 2 57 19 16 20 17 62 2 59 -6 -2 -14 3
-17 11 -3 9 0 11 8 6 9 -6 9 -3 1 14 -7 11 -15 21 -18 21 -3 0 -3 -3 0 -7z"/>
<path d="M1299 2765 c-4 -3 -35 -10 -69 -15 -35 -5 -67 -13 -73 -19 -6 -6 -4
-9 6 -7 9 1 20 5 23 9 4 4 23 7 42 7 19 0 52 5 74 12 33 10 45 9 76 -6 33 -16
35 -16 21 -1 -17 17 -89 32 -100 20z"/>
<path d="M2125 2745 c-33 -8 -98 -28 -145 -45 -47 -17 -132 -48 -190 -69 -58
-21 -130 -48 -160 -60 -30 -11 -74 -21 -97 -21 -24 0 -43 -4 -43 -10 0 -5 6
-7 14 -4 7 3 16 -2 19 -10 5 -12 12 -14 31 -6 19 7 30 5 50 -11 20 -16 25 -17
20 -5 -6 16 11 46 27 46 5 0 6 -7 3 -15 -4 -8 -10 -12 -15 -9 -6 3 -7 -5 -3
-20 5 -20 2 -26 -10 -26 -9 0 -16 -5 -16 -10 0 -7 8 -6 23 1 12 7 24 12 27 12
3 -1 7 1 10 4 3 4 -1 3 -7 -1 -18 -10 -16 22 2 40 8 9 19 13 25 9 6 -4 7 1 3
11 -5 13 -3 16 10 11 9 -3 17 -2 17 2 0 5 -6 12 -12 14 -12 5 27 11 59 10 7
-1 11 3 8 7 -3 5 4 6 16 3 26 -7 11 -23 -25 -27 -14 -1 -29 -6 -34 -11 -4 -4
11 -4 33 0 42 7 60 24 45 39 -14 14 -12 23 5 23 8 0 15 -6 15 -13 0 -10 27
-12 38 -4 1 2 5 3 10 4 39 9 52 19 42 31 -7 9 -6 16 7 26 16 13 17 12 4 -3
-12 -16 -11 -18 4 -18 10 0 27 7 37 17 11 9 18 11 18 5 0 -7 -4 -12 -10 -12
-5 0 -7 -6 -4 -14 3 -8 0 -17 -5 -21 -6 -3 -9 -10 -6 -15 7 -12 -55 -61 -67
-54 -6 4 -8 2 -5 -3 4 -6 -16 -23 -46 -38 -28 -14 -78 -41 -109 -60 -31 -18
-59 -31 -62 -28 -3 3 -17 -4 -32 -16 -22 -17 -101 -47 -112 -42 -1 1 -10 -5
-18 -14 -17 -16 -39 -11 -28 7 4 7 2 8 -5 4 -6 -4 -9 -12 -6 -17 6 -9 -2 -11
-57 -12 -15 -1 -24 -5 -22 -9 3 -4 -13 -8 -35 -8 -23 0 -41 5 -41 10 0 6 -5
10 -11 10 -5 0 -7 -4 -4 -10 3 -5 2 -10 -3 -10 -6 0 -13 8 -16 17 -5 12 -10
13 -18 5 -8 -8 -18 -6 -36 6 -21 14 -25 14 -18 2 4 -8 -2 -4 -13 9 -12 13 -21
20 -21 17 0 -4 -12 2 -27 11 -15 10 -24 12 -20 6 5 -7 4 -13 -2 -13 -6 0 -11
5 -11 10 0 6 -7 10 -15 10 -33 0 -11 -18 72 -60 94 -47 188 -64 204 -38 7 10
9 10 9 0 0 -17 34 -9 145 35 133 51 208 84 225 97 43 33 223 117 238 111 13
-5 9 -10 -20 -22 -43 -17 -51 -38 -12 -30 18 3 24 1 20 -9 -3 -8 -1 -14 5 -14
5 0 14 -10 19 -22 8 -21 9 -20 9 10 1 20 -3 31 -9 27 -6 -3 -10 4 -9 17 0 13
3 17 6 11 2 -7 9 -13 14 -13 6 0 7 5 4 10 -3 6 -1 10 6 10 8 0 10 -13 6 -40
l-5 -39 36 15 c37 16 86 34 109 40 8 2 10 10 6 20 -4 11 -3 15 5 10 7 -4 13 7
18 31 4 21 11 47 17 58 10 19 9 19 -17 2 -15 -10 -32 -15 -39 -11 -7 4 -9 4
-5 -1 7 -7 -63 -65 -78 -65 -4 0 -13 -8 -20 -17 -10 -13 -13 -14 -14 -4 0 8 8
20 18 27 15 12 12 13 -23 9 -52 -6 -75 7 -53 29 9 8 19 31 22 50 8 40 64 106
92 106 17 0 17 -1 -2 -15 -10 -8 -16 -15 -11 -15 4 0 -2 -18 -13 -40 -26 -51
-26 -70 3 -71 20 -1 20 -2 -5 -12 -16 -6 -28 -15 -28 -19 0 -5 14 -1 30 7 17
9 35 13 40 10 6 -3 10 -4 10 0 0 3 -13 13 -30 23 l-29 18 21 35 c12 19 22 39
23 44 0 6 10 11 23 11 12 1 26 5 30 9 4 5 -1 5 -10 2 -10 -4 -18 -2 -18 4 0 7
10 9 23 5 13 -3 39 -1 57 4 18 5 39 6 48 1 9 -5 29 -3 51 6 l36 15 -25 -26
c-13 -15 -30 -24 -37 -21 -49 20 -49 20 -33 4 33 -30 55 -37 74 -24 33 25 95
29 132 9 55 -30 79 -96 78 -224 0 -121 -13 -158 -89 -255 -39 -51 -53 -75 -42
-75 7 0 105 128 120 156 18 36 37 123 37 172 0 48 -33 171 -53 203 -50 75
-230 109 -392 74z m65 -181 c0 -3 -10 -14 -22 -25 -21 -17 -22 -20 -6 -32 14
-11 12 -13 -18 -13 -20 0 -36 6 -39 15 -6 15 10 31 31 31 7 0 14 7 18 15 5 14
36 22 36 9z m-95 -64 c3 -6 -1 -13 -9 -16 -9 -3 -13 -10 -10 -15 3 -5 -2 -9
-10 -9 -19 0 -20 5 -6 31 12 21 25 25 35 9z"/>
<path d="M874 2729 c0 -12 5 -18 13 -15 7 3 17 -3 22 -12 9 -15 10 -15 11 -1
0 9 -10 23 -23 32 -21 13 -23 13 -23 -4z"/>
<path d="M2210 2711 c0 -5 8 -12 17 -16 16 -6 15 -8 -7 -26 l-25 -20 30 13
c17 7 32 13 33 14 5 3 -36 44 -43 44 -3 0 -5 -4 -5 -9z"/>
<path d="M2120 2663 c-27 -34 -21 -48 21 -50 28 -1 30 0 9 5 -31 9 -36 29 -14
53 9 11 14 19 11 19 -3 0 -15 -12 -27 -27z"/>
<path d="M2266 2632 c-29 -58 -45 -132 -27 -132 6 0 9 -13 7 -30 -2 -16 1 -27
5 -24 5 3 9 -2 9 -10 0 -9 -5 -16 -11 -16 -5 0 -8 -4 -5 -9 7 -11 -69 -25 -84
-16 -11 7 40 55 59 55 6 0 11 9 11 20 0 26 -16 26 -23 -1 -3 -12 -10 -18 -16
-14 -6 3 -11 0 -11 -7 0 -8 -15 -14 -41 -16 -23 -1 -54 -9 -70 -18 -16 -8 -40
-19 -54 -24 -24 -9 -25 -8 -23 23 3 29 0 32 -27 34 -23 2 -26 1 -11 -6 14 -5
16 -10 8 -15 -7 -4 -12 -12 -12 -18 0 -6 9 -3 20 7 22 20 26 14 9 -16 -6 -12
-17 -18 -25 -15 -8 3 -14 1 -14 -5 0 -7 15 -9 40 -5 29 4 39 2 34 -6 -5 -8 1
-8 22 -2 45 13 147 11 151 -3 3 -9 -6 -13 -29 -13 -35 0 -154 -34 -172 -49
-20 -17 -263 -142 -346 -179 -74 -33 -211 -66 -275 -66 -73 0 -135 7 -135 15
0 10 -82 41 -88 34 -4 -3 -1 -10 6 -14 7 -4 12 -12 11 -17 -4 -23 3 -26 21 -9
17 15 23 16 33 5 10 -10 9 -12 -6 -7 -13 5 -17 2 -15 -11 2 -13 -4 -17 -26
-17 -28 0 -30 2 -31 44 -1 27 -7 46 -17 52 -13 7 -14 -1 -10 -66 6 -102 -9
-159 -82 -303 -11 -23 -54 -83 -93 -133 -40 -50 -73 -95 -73 -99 0 -4 -49 -68
-110 -141 -193 -235 -267 -422 -229 -582 6 -29 15 -54 18 -57 3 -3 14 -18 23
-35 22 -39 42 -47 28 -11 -6 17 -6 26 0 26 6 0 10 -5 10 -12 0 -6 2 -9 5 -6 9
8 -6 38 -16 32 -14 -8 -11 12 4 24 6 5 20 11 30 13 16 4 16 5 -3 17 -16 10
-20 10 -18 0 2 -8 -5 -12 -16 -10 -11 2 -15 -1 -11 -7 3 -6 1 -19 -4 -28 -9
-16 -10 -15 -11 7 0 14 -3 36 -7 49 -4 17 -3 22 5 17 8 -5 12 0 12 13 0 12 -5
21 -11 21 -6 0 -9 9 -6 20 3 13 0 20 -9 20 -17 0 -18 16 -2 26 7 4 8 3 4 -4
-4 -7 -2 -12 3 -12 10 0 15 20 12 47 -1 7 2 13 7 13 5 0 8 18 7 40 -1 23 4 45
12 51 7 7 13 22 13 35 0 12 5 26 10 29 6 4 8 10 6 14 -3 4 13 29 34 57 22 27
44 59 49 70 5 12 30 47 55 78 25 30 46 58 46 61 0 6 10 19 51 63 14 15 40 50
59 77 18 28 40 54 47 58 7 4 13 17 13 27 0 10 5 22 12 26 7 5 8 3 3 -6 -5 -9
-4 -11 3 -6 7 4 12 17 12 29 0 18 2 19 10 7 8 -12 10 -11 10 6 0 29 25 76 35
66 5 -4 5 -2 1 5 -3 6 2 16 11 22 10 5 18 15 19 23 1 22 28 78 37 78 4 0 6 4
2 10 -3 5 0 19 7 30 11 17 11 22 -2 30 -12 8 -12 10 -1 10 8 0 11 7 8 20 -3
13 0 20 9 20 8 0 14 7 14 16 0 8 4 12 10 9 5 -3 21 1 34 10 14 9 27 16 30 16
14 -2 55 -45 50 -53 -3 -4 0 -8 6 -8 7 0 9 7 6 16 -3 9 -6 20 -6 25 0 6 -4 7
-10 4 -5 -3 -10 -1 -10 5 0 7 7 9 16 6 9 -3 29 -6 45 -6 23 0 27 -3 22 -17 -6
-16 -5 -17 12 -3 16 13 18 13 12 0 -4 -8 -10 -23 -13 -32 -4 -10 -10 -18 -15
-18 -5 0 -9 -4 -9 -10 0 -8 10 -8 49 -1 2 1 -2 7 -8 15 -10 12 -8 19 8 35 12
12 28 21 36 21 8 0 35 7 61 16 25 8 62 16 82 17 21 1 42 8 48 16 11 14 26 19
68 25 10 1 23 10 28 20 8 14 12 15 26 4 9 -7 13 -8 10 -3 -9 14 18 48 31 40 6
-3 11 -13 11 -21 0 -14 2 -14 15 0 19 18 19 24 1 28 -8 2 2 11 22 21 l37 18
-25 -20 c-28 -23 -15 -28 14 -6 29 22 37 18 26 -10 -15 -40 -1 -29 17 12 14
35 16 36 29 19 7 -11 11 -23 8 -27 -3 -5 0 -9 5 -9 14 0 13 10 -3 39 -18 33
-11 49 20 45 15 -1 24 3 24 11 0 8 4 16 9 19 5 4 7 -3 4 -15 -5 -19 -4 -20 15
-10 11 6 29 23 41 38 l20 28 -5 -25 c-5 -23 -4 -23 12 5 10 17 19 25 21 18 6
-17 -25 -61 -47 -68 -11 -3 -22 -15 -25 -26 -4 -10 -11 -19 -17 -19 -5 0 -8 6
-5 13 3 8 -1 14 -9 14 -18 0 -18 -11 1 -27 8 -7 12 -16 9 -21 -3 -5 -1 -9 4
-9 5 0 15 12 21 28 12 28 61 71 61 53 0 -6 -10 -20 -23 -33 -13 -13 -31 -35
-39 -49 -17 -27 -53 -37 -43 -11 3 7 2 12 -2 10 -5 -2 -25 -12 -45 -21 -37
-17 -45 -27 -31 -40 3 -4 11 1 18 10 7 9 26 17 43 17 23 1 28 -2 20 -11 -7 -8
-7 -13 -1 -13 6 0 22 17 37 39 33 47 76 89 76 73 0 -6 -10 -21 -22 -33 -22
-21 -22 -21 -2 -11 12 6 29 29 37 50 8 21 22 44 31 51 17 14 16 17 20 -62 1
-10 8 -22 16 -28 13 -8 13 -10 0 -19 -21 -14 -32 -12 -25 3 4 6 0 3 -9 -7 -8
-10 -13 -23 -10 -27 3 -5 0 -9 -5 -9 -6 0 -11 -5 -11 -11 0 -6 14 1 31 15 17
14 36 26 42 26 7 0 1 -9 -13 -20 -14 -10 -21 -22 -17 -26 4 -4 7 -2 7 5 0 7 5
9 11 5 6 -3 15 0 20 7 6 10 9 4 9 -19 0 -23 4 -31 12 -26 8 5 9 2 5 -9 -3 -10
-2 -17 4 -17 21 0 -2 -19 -31 -25 -17 -4 -30 -11 -30 -16 0 -12 6 -11 41 7 55
28 51 9 -16 -78 l-66 -87 -47 3 c-26 2 -37 2 -26 -1 40 -8 35 -74 -5 -73 -13
1 -12 4 3 15 11 8 14 15 8 15 -7 0 -12 6 -12 14 0 25 -32 27 -66 4 -37 -25
-64 -66 -64 -97 0 -25 17 -27 67 -6 19 8 39 15 43 15 5 0 -32 -53 -80 -119
-77 -103 -92 -118 -113 -114 -19 4 -23 9 -19 30 4 22 2 24 -16 19 -15 -5 -20
-3 -18 8 2 18 16 34 16 20 0 -6 16 -10 36 -11 l36 -1 -21 22 c-22 24 -28 46
-11 46 6 0 10 -6 10 -13 0 -8 8 -21 18 -30 17 -16 20 -13 58 35 21 29 43 59
48 68 8 13 7 13 -6 2 -12 -9 -23 -10 -43 -2 -24 9 -27 14 -21 40 12 65 96 134
159 132 16 0 27 0 26 2 -46 31 -62 37 -56 24 3 -10 -6 -21 -30 -32 -25 -12
-34 -13 -31 -4 3 7 14 14 26 16 18 3 21 8 16 28 -5 20 -2 24 15 24 12 0 21 -4
21 -10 0 -14 61 -43 69 -33 78 90 95 127 40 84 -13 -10 -31 -16 -39 -14 -11 3
-10 0 3 -10 17 -14 17 -15 0 -22 -10 -5 -22 -7 -26 -6 -5 1 -6 -3 -2 -9 13
-20 -14 -9 -29 12 -22 31 -20 38 12 39 20 1 22 2 7 6 -35 9 -43 26 -10 21 17
-3 24 -3 18 -1 -7 3 -13 9 -13 14 0 6 -9 5 -21 -1 -11 -7 -19 -14 -16 -16 3
-3 -4 -15 -15 -27 -65 -72 -258 -360 -258 -386 0 -4 -9 -16 -20 -26 -11 -10
-17 -21 -15 -26 3 -4 -1 -13 -8 -21 -21 -21 -37 -55 -37 -78 0 -19 4 -21 28
-18 15 3 44 13 64 22 l37 16 -48 -73 c-26 -39 -56 -87 -66 -104 -22 -37 -31
-40 -56 -17 -34 31 -113 -13 -139 -77 -12 -28 -12 -33 5 -45 22 -17 54 -18 75
-3 11 8 7 9 -17 4 -33 -7 -45 6 -20 22 6 4 18 16 26 26 12 15 12 17 -3 11 -9
-3 -16 -10 -16 -15 0 -4 -9 -13 -19 -19 -16 -8 -19 -7 -16 8 2 9 4 18 5 20 2
1 3 6 4 12 0 5 11 17 24 26 22 15 24 15 43 -7 18 -21 19 -21 19 -3 0 11 -5 25
-12 32 -9 9 -8 12 4 12 24 0 39 -25 34 -57 -2 -15 -5 -35 -5 -43 -1 -13 -3
-13 -12 0 -9 13 -10 12 -5 -2 3 -10 -10 -50 -29 -90 -31 -69 -72 -175 -79
-207 -1 -8 -15 -19 -31 -24 -22 -8 -31 -6 -41 7 -7 10 -13 13 -16 6 -6 -18
-34 -1 -35 22 -4 50 56 106 70 65 2 -6 3 -4 2 6 -4 25 10 21 35 -10 12 -16 18
-21 14 -13 -27 57 -62 63 -105 21 -61 -61 -23 -131 62 -117 l42 7 -7 -32 c-3
-17 -6 -54 -6 -81 0 -41 -3 -49 -16 -44 -11 4 -10 -2 6 -24 20 -28 39 -43 24
-19 -11 18 -5 127 11 195 43 185 165 412 398 743 56 79 109 153 117 165 8 11
49 62 90 111 42 50 86 105 99 123 16 22 27 30 33 24 7 -7 -21 -48 -84 -124
-105 -127 -151 -187 -250 -331 -38 -54 -81 -115 -96 -135 -37 -49 -3 -28 39
24 19 23 84 113 146 200 62 88 144 196 182 242 76 89 98 122 82 122 -5 0 -10
8 -9 18 0 9 -12 44 -26 77 -14 33 -28 79 -32 103 -4 24 -12 42 -19 42 -14 0
-25 22 -25 52 0 11 -8 22 -20 25 -11 3 -20 9 -20 14 0 12 17 12 24 0 3 -5 15
-7 26 -4 11 3 18 9 15 13 -10 16 47 50 82 50 50 0 95 -29 86 -55 -3 -11 -6
-28 -5 -38 0 -10 -8 -23 -18 -29 -17 -11 -17 -14 11 -55 17 -24 37 -43 46 -43
9 0 13 3 10 7 -4 3 3 18 15 32 18 21 16 20 -11 -4 -32 -29 -33 -29 -21 -5 7
14 21 37 31 51 10 15 20 42 21 60 2 19 7 37 11 40 5 3 11 34 14 67 4 48 2 67
-11 87 -9 14 -14 31 -10 38 4 7 3 8 -2 4 -11 -11 -13 -58 -2 -51 24 15 -12
-140 -36 -158 -6 -4 -16 7 -24 23 -8 16 -20 29 -27 29 -11 0 -20 35 -30 111
-1 14 5 41 14 60 9 18 17 37 16 41 0 3 4 10 9 15 5 5 6 2 1 -6 -6 -10 -4 -12
4 -7 9 6 9 11 -1 24 -11 13 -10 15 5 9 10 -4 17 -2 17 6 0 8 4 6 10 -3 9 -14
14 -7 11 13 -3 16 24 1 34 -19 6 -11 18 -18 28 -16 16 3 23 -22 18 -65 -1 -7
3 -13 9 -13 6 0 9 -4 5 -9 -3 -5 0 -13 6 -17 21 -13 1 87 -25 126 -21 33 -27
35 -69 34 -25 -1 -50 -5 -56 -8 -13 -9 -41 -59 -48 -89 -2 -12 -7 -32 -10 -44
-3 -12 2 -43 11 -69 8 -25 13 -50 10 -55 -12 -19 -42 13 -53 55 -15 61 -14 92
9 156 10 30 17 56 15 58 -2 2 -15 -19 -29 -46z m155 -316 c14 8 11 -11 -7 -49
-18 -37 -54 -67 -54 -45 0 7 9 27 20 45 14 24 15 31 5 26 -9 -3 -15 1 -15 10
0 16 33 29 38 15 2 -5 8 -6 13 -2z m-388 -486 c-3 -12 -18 -27 -34 -36 -16 -8
-29 -17 -29 -20 0 -2 13 2 29 11 17 8 32 11 35 7 6 -11 -42 -39 -76 -46 -22
-4 -26 -1 -25 15 1 10 5 19 9 19 4 0 8 6 8 14 0 19 47 56 70 56 13 0 17 -6 13
-20z m-106 -135 c-6 -6 -16 -12 -22 -13 -5 0 -21 -4 -35 -7 -19 -5 -22 -4 -10
4 11 8 12 11 2 11 -7 0 -11 4 -7 9 3 6 23 9 45 9 30 0 36 -3 27 -13z m-137
-140 c10 -13 10 -19 -5 -35 -17 -19 -17 -20 -1 -20 9 0 14 5 11 10 -4 6 7 10
24 10 32 0 37 -6 23 -28 -5 -8 -16 -10 -27 -6 -13 5 -16 4 -11 -5 5 -7 -5 -17
-28 -26 -40 -17 -80 -20 -71 -5 3 5 12 7 19 4 7 -3 24 4 37 15 13 11 18 20 12
21 -7 0 -13 -4 -13 -9 0 -14 -32 -23 -44 -11 -7 7 -6 10 2 10 7 0 12 7 12 15
0 8 3 15 8 15 4 0 15 12 26 26 l18 26 -23 -13 c-22 -11 -23 -11 -10 4 17 21
25 21 41 2z"/>
<path d="M836 2644 c-3 -8 -12 -14 -19 -14 -20 0 -54 -40 -41 -48 5 -4 36 -25
68 -47 31 -22 75 -51 96 -65 137 -89 140 -90 146 -76 9 22 -5 38 -27 31 -10
-4 -19 -2 -19 3 0 6 -11 13 -25 16 -24 6 -27 26 -4 26 6 0 7 -4 4 -10 -3 -5
-2 -10 4 -10 5 0 9 9 8 20 -2 24 -10 25 -27 5 -14 -17 -31 -20 -27 -4 1 6 -5
14 -13 18 -8 4 -28 15 -45 23 -16 8 -29 20 -27 27 1 7 -3 11 -10 10 -25 -3
-38 1 -38 12 0 6 9 8 20 4 12 -4 20 -2 20 5 0 6 -4 9 -9 6 -4 -3 -16 3 -26 14
-10 12 -13 20 -7 20 7 0 12 -4 12 -9 0 -6 21 -13 48 -17 26 -3 68 -18 94 -31
25 -14 52 -22 58 -18 6 4 22 -3 35 -15 18 -17 25 -19 32 -8 16 26 53 11 52
-22 0 -10 -3 -8 -9 5 -9 20 -9 20 -10 0 -1 -12 -4 -15 -7 -7 -4 10 -8 9 -19
-5 -7 -10 -13 -22 -14 -28 0 -5 4 -4 9 4 5 7 20 14 35 14 20 0 26 4 26 22 0
14 7 25 21 28 13 3 19 1 16 -6 -3 -7 -11 -11 -18 -9 -10 2 -10 -1 2 -10 9 -7
14 -18 12 -25 -2 -6 1 -15 8 -19 8 -4 9 -3 5 4 -5 9 7 12 41 13 26 1 39 3 28
6 -11 2 -27 7 -35 10 -8 3 -18 5 -22 5 -5 -1 -8 5 -8 13 0 8 9 15 21 15 12 0
17 -4 13 -11 -4 -6 1 -9 12 -8 11 2 25 -1 33 -5 11 -7 13 -5 8 8 -5 14 -3 17
8 12 8 -3 15 -1 15 3 0 15 -29 21 -102 21 -63 0 -151 22 -261 65 -14 6 -16 3
-11 -11 4 -14 1 -13 -14 5 -12 15 -25 22 -36 18 -8 -3 -15 -2 -13 4 1 5 -12
16 -30 24 -27 11 -32 11 -37 -1z"/>
<path d="M623 2624 c15 -8 27 -19 27 -25 0 -6 -4 -8 -9 -4 -5 3 -16 -8 -24
-24 -13 -27 -13 -28 5 -23 11 3 17 10 14 18 -3 8 -2 13 2 12 11 -2 42 13 42
21 0 10 -55 41 -72 41 -7 -1 -1 -8 15 -16z"/>
<path d="M511 2626 c2 -2 20 -7 39 -9 19 -3 37 -6 40 -6 3 -1 -4 -8 -14 -16
-11 -8 -15 -15 -10 -15 6 0 19 6 29 14 18 13 18 14 -3 25 -19 10 -91 16 -81 7z"/>
<path d="M465 2595 c-24 -12 -25 -14 -5 -8 14 3 41 10 60 14 34 7 34 7 5 7
-16 1 -43 -5 -60 -13z"/>
<path d="M928 2545 c2 -14 11 -25 18 -25 8 0 14 -4 14 -10 0 -5 4 -10 8 -10 5
0 9 7 9 15 0 8 -4 12 -8 10 -11 -7 -32 23 -24 35 3 5 0 10 -8 10 -10 0 -13 -8
-9 -25z"/>
<path d="M2650 2545 c0 -9 -12 -18 -30 -21 -39 -8 -39 -23 0 -22 17 1 27 5 23
11 -4 6 0 8 10 4 12 -4 14 -2 10 10 -3 8 0 19 8 24 11 7 11 9 -3 9 -10 0 -18
-7 -18 -15z"/>
<path d="M1459 2546 c-2 -2 -26 -6 -54 -7 -40 -3 -52 -9 -62 -28 -17 -31 -17
-32 11 -21 13 5 26 7 28 5 2 -2 19 -7 38 -10 19 -3 40 -11 47 -17 19 -15 16
-2 -4 22 -10 11 -28 20 -42 20 -35 0 -18 12 26 19 21 4 33 10 27 13 -6 4 -13
6 -15 4z"/>
<path d="M549 2535 c-1 -3 -2 -8 -3 -12 -4 -21 -20 -34 -39 -32 -12 0 -33 1
-47 0 -20 -1 -22 -3 -10 -11 16 -10 17 -10 -26 -14 -6 -1 -23 -8 -38 -15 -19
-11 -29 -12 -37 -4 -13 13 -4 33 15 33 8 0 27 7 42 15 16 8 37 15 47 15 9 0
17 5 17 11 0 11 -65 6 -111 -7 -20 -6 -62 -131 -50 -151 6 -12 9 -12 19 0 7 8
13 26 14 41 1 14 8 26 15 26 7 0 10 -6 7 -14 -3 -8 25 2 68 25 40 21 85 39
101 39 24 0 27 3 25 30 -2 27 -6 38 -9 25z"/>
<path d="M698 2524 c27 -18 28 -32 5 -51 -16 -13 -16 -13 5 -3 27 13 29 46 3
60 -30 15 -38 12 -13 -6z"/>
<path d="M1488 2523 c-10 -2 -18 -11 -18 -19 0 -12 4 -13 23 -3 21 12 21 11 7
-6 -14 -17 -14 -18 8 -6 19 10 21 15 11 27 -6 8 -12 13 -13 13 0 -1 -9 -3 -18
-6z"/>
<path d="M1570 2508 c0 -11 -8 -18 -20 -18 -11 0 -20 -4 -20 -10 0 -5 10 -10
23 -10 18 0 19 -2 7 -11 -13 -9 -13 -10 0 -6 8 2 15 10 15 18 0 8 3 16 7 19 4
3 3 12 -2 20 -8 13 -10 12 -10 -2z"/>
<path d="M1764 2495 c-4 -8 -17 -15 -30 -15 -13 0 -24 -4 -24 -10 0 -5 -5 -10
-11 -10 -5 0 -7 6 -3 13 5 6 -12 -5 -36 -26 -34 -29 -52 -37 -72 -35 -15 3
-24 0 -21 -5 3 -5 -1 -13 -8 -18 -9 -6 -10 -9 -2 -9 6 0 15 5 18 10 4 6 11 8
16 5 10 -7 69 25 69 38 0 4 5 5 10 2 6 -4 10 -3 9 2 -3 20 2 27 11 13 9 -13
12 -13 21 3 6 9 22 17 37 17 21 0 28 5 28 20 0 24 -4 26 -12 5z"/>
<path d="M1915 2470 c-3 -5 -12 -7 -20 -4 -7 3 -18 -4 -25 -15 -6 -12 -17 -21
-25 -21 -8 0 -49 -18 -92 -39 -43 -22 -100 -47 -126 -55 -26 -9 -75 -30 -107
-47 -53 -27 -69 -31 -150 -31 -73 -1 -87 -3 -74 -13 10 -7 14 -17 10 -23 -4
-7 -3 -12 2 -12 16 0 22 13 12 25 -8 9 -1 12 27 11 21 -1 37 -5 35 -11 -2 -5
-11 -10 -21 -9 -16 0 -18 -4 -10 -23 7 -19 4 -25 -18 -37 -26 -13 -24 -14 46
-21 78 -8 101 -2 55 15 -45 16 -74 33 -74 42 0 4 5 8 10 8 6 0 10 -5 10 -10 0
-6 3 -9 8 -8 4 1 19 -4 33 -11 25 -12 29 -10 73 36 47 51 94 73 153 73 31 0
59 -22 49 -38 -3 -5 26 7 64 27 65 34 67 36 43 43 -28 8 -47 2 -38 -12 3 -5 1
-11 -5 -15 -5 -3 -10 2 -10 12 0 14 -5 12 -25 -12 -13 -16 -24 -25 -25 -19 0
5 6 16 13 23 7 8 7 11 1 8 -7 -4 -14 2 -17 13 -3 11 -1 18 4 14 5 -3 9 -1 9 4
0 10 75 10 86 0 4 -5 12 -8 17 -8 5 0 -1 9 -14 19 -13 11 -21 22 -18 26 4 3
13 -1 21 -8 13 -13 16 -12 26 4 17 27 15 37 -3 13 -8 -10 -14 -14 -15 -9 0 16
18 40 26 33 3 -4 21 4 39 17 17 14 47 28 65 32 29 5 31 8 15 14 -27 11 -33 10
-40 -1z m-224 -167 c12 -15 12 -16 -4 -10 -10 4 -25 7 -33 7 -8 0 -14 5 -14
10 0 16 36 11 51 -7z m-204 -77 c-7 -19 -28 -22 -24 -3 1 6 -4 11 -10 10 -20
-4 -15 15 5 20 23 5 36 -8 29 -27z m-49 -14 c16 -24 2 -30 -20 -9 -7 8 -20 11
-27 9 -12 -4 -12 -2 0 11 17 20 28 17 47 -11z"/>
<path d="M889 2468 c0 -2 -2 -13 -3 -25 -2 -18 2 -23 21 -23 14 0 21 4 18 10
-8 13 1 13 28 -1 18 -9 20 -9 9 2 -6 7 -24 13 -40 14 -15 0 -26 6 -24 13 2 10
-6 18 -9 10z"/>
<path d="M739 2431 c40 -16 46 -16 62 -3 25 22 15 28 -18 11 -20 -11 -27 -11
-30 -1 -3 6 -17 12 -31 11 -23 0 -21 -3 17 -18z"/>
<path d="M1090 2442 c0 -5 7 -13 16 -16 8 -3 12 -10 9 -16 -4 -6 5 -10 20 -10
14 0 34 -6 45 -12 15 -10 22 -10 31 -1 9 9 6 10 -11 6 -16 -4 -21 -3 -16 5 5
8 0 12 -12 12 -11 0 -25 7 -32 15 -7 9 -15 13 -18 10 -3 -3 -11 0 -19 6 -8 7
-13 8 -13 1z"/>
<path d="M2511 2440 c-15 -89 -33 -152 -46 -156 -7 -3 -15 -14 -18 -26 -5 -19
-5 -19 13 -3 31 28 61 112 57 158 -2 23 -5 35 -6 27z"/>
<path d="M1864 2396 c-32 -32 -43 -55 -26 -57 4 -1 18 -3 31 -4 23 -2 24 -2 6
11 -12 9 -14 14 -6 14 11 0 11 3 1 15 -10 12 -7 17 14 26 14 7 26 16 26 21 0
15 -12 8 -46 -26z"/>
<path d="M932 2412 c-8 -2 1 -11 20 -21 18 -9 37 -26 43 -38 5 -13 13 -23 16
-23 7 0 22 32 17 34 -2 1 -21 13 -43 27 -22 14 -46 24 -53 21z"/>
<path d="M919 2381 c11 -7 10 -10 -5 -14 -16 -4 -16 -5 3 -6 12 0 25 -5 28
-11 8 -13 35 -13 35 0 0 5 -13 16 -30 25 -31 16 -54 21 -31 6z"/>
<path d="M2243 2333 c-3 -7 -15 -13 -27 -13 -21 -1 -21 -1 -1 -18 12 -10 19
-26 17 -41 -3 -15 0 -21 7 -16 7 3 11 12 10 18 -1 7 -1 20 0 31 1 15 4 16 15
7 10 -9 16 -9 21 -1 5 8 10 8 20 0 10 -9 13 -7 11 6 -2 10 -8 20 -14 22 -7 2
-10 7 -7 12 3 4 -7 7 -21 6 -15 0 -29 -7 -31 -13z"/>
<path d="M950 2326 c0 -4 71 -45 112 -64 3 -2 9 6 13 17 3 12 11 21 17 21 5 0
7 -7 4 -16 -5 -14 -4 -15 9 -4 8 7 15 20 14 29 0 10 -2 12 -6 3 -2 -6 -9 -10
-14 -7 -5 3 -18 1 -29 -5 -12 -6 -20 -7 -20 -1 0 5 -15 12 -32 16 -18 4 -41 9
-50 11 -10 3 -18 3 -18 0z"/>
<path d="M1156 2308 c4 -5 0 -15 -7 -20 -11 -7 -9 -8 5 -4 10 4 24 1 32 -5 7
-6 22 -9 34 -7 16 2 10 8 -25 25 -25 12 -43 17 -39 11z"/>
<path d="M1785 2268 c-49 -27 -80 -46 -67 -43 43 12 21 -4 -53 -40 -41 -19
-75 -37 -75 -40 0 -7 49 13 113 47 42 23 54 34 45 40 -9 7 -6 8 10 5 15 -3 22
0 22 9 0 8 5 14 11 14 5 0 7 -4 4 -10 -9 -14 1 -12 35 5 17 9 30 23 30 33 0
11 3 13 8 5 5 -8 14 -6 32 8 21 17 22 19 3 10 -27 -14 -36 -14 -28 -1 3 6 5 9
3 9 -2 -1 -43 -24 -93 -51z"/>
<path d="M1565 2253 c-38 -20 -85 -63 -85 -79 0 -15 30 -23 55 -13 17 6 16 8
-8 8 -18 1 -27 6 -24 14 2 6 13 11 25 9 11 -2 24 2 28 9 4 8 3 9 -4 5 -7 -4
-17 -4 -23 0 -17 10 69 54 102 52 33 -3 35 -6 14 -36 -14 -19 -14 -21 -1 -16
8 3 19 19 25 35 l10 29 -42 0 c-23 -1 -55 -8 -72 -17z"/>
<path d="M1205 2251 c11 -5 23 -7 28 -4 4 2 7 0 7 -6 0 -5 -8 -12 -17 -15 -10
-3 -6 -4 9 -2 15 2 29 -2 31 -7 4 -12 27 -1 27 13 0 10 -56 30 -84 29 -21 0
-21 -1 -1 -8z"/>
<path d="M296 2241 c-3 -5 -15 -7 -25 -4 -14 3 -21 -2 -27 -19 -4 -12 -7 -27
-6 -31 3 -12 -35 -59 -40 -50 -3 5 -3 2 -1 -5 3 -13 -24 -61 -40 -73 -13 -9
-11 -119 1 -149 9 -21 11 -13 11 46 1 68 15 134 29 134 4 0 18 20 31 45 13 24
28 42 33 39 5 -3 7 -13 3 -22 -5 -13 -2 -13 14 2 11 10 17 24 14 32 -3 8 1 14
8 14 11 0 11 2 0 9 -12 8 -12 12 -2 25 8 9 11 16 8 16 -3 0 -8 -4 -11 -9z"/>
<path d="M1592 2217 c-18 -18 -32 -36 -32 -41 0 -4 7 -1 15 8 9 8 21 14 28 12
7 -1 8 -1 4 2 -5 2 2 15 14 28 12 13 18 24 13 24 -6 0 -24 -15 -42 -33z"/>
<path d="M1195 2200 c-28 -4 -35 -9 -24 -14 9 -4 32 0 50 8 37 16 34 17 -26 6z"/>
<path d="M1290 2198 c0 -5 -12 -8 -27 -9 -26 0 -27 -1 -6 -9 13 -6 33 -4 52 3
37 14 40 25 6 23 -14 0 -25 -4 -25 -8z"/>
<path d="M2333 2185 c20 -39 50 -66 113 -100 57 -30 125 -82 121 -93 -1 -4 6
-18 16 -32 9 -13 17 -20 17 -15 0 5 7 0 15 -11 30 -40 14 8 -20 60 -27 40 -48
58 -85 75 -28 13 -50 26 -50 31 0 5 -16 14 -35 20 -19 6 -51 30 -71 53 -31 36
-34 38 -21 12z"/>
<path d="M931 2150 c-2 -23 -3 -24 -11 -5 -8 19 -9 19 -9 -2 -1 -20 4 -23 35
-23 20 0 33 4 29 10 -3 5 -12 7 -20 4 -8 -4 -15 3 -18 18 -4 23 -4 23 -6 -2z"/>
<path d="M1170 2167 c0 -2 26 -15 58 -27 31 -12 68 -27 82 -32 l25 -11 -25 -7
c-14 -4 9 -6 50 -4 41 2 102 12 135 22 56 18 57 20 20 17 -22 -2 -42 -4 -45
-5 -7 -3 -30 -6 -58 -8 -13 -1 -21 -6 -18 -10 3 -5 -1 -9 -8 -9 -8 0 -12 6 -9
14 3 9 -3 13 -20 13 -21 0 -123 28 -173 47 -8 3 -14 3 -14 0z"/>
<path d="M2013 2093 c-18 -20 -33 -40 -33 -45 0 -4 -7 -8 -15 -8 -8 0 -15 -9
-15 -20 0 -14 -5 -18 -17 -13 -11 4 -14 3 -9 -5 4 -6 -5 -29 -20 -49 -14 -21
-24 -31 -21 -23 3 8 8 24 12 35 7 19 7 19 -8 -1 -9 -11 -17 -32 -19 -46 -2
-14 -9 -32 -16 -40 -6 -8 -9 -18 -5 -22 4 -4 0 -4 -10 0 -16 6 -23 -9 -18 -38
0 -5 -3 -8 -8 -8 -5 0 -12 -13 -16 -30 -4 -17 -13 -30 -22 -30 -9 0 -13 -6
-10 -14 3 -8 -1 -20 -10 -28 -14 -11 -15 -10 -8 11 5 17 4 21 -5 16 -7 -4 -9
-18 -5 -35 3 -16 2 -31 -4 -35 -10 -5 -15 6 -13 27 1 3 -5 9 -13 12 -16 6 -21
-9 -6 -18 17 -11 19 -45 3 -58 -13 -11 -15 -10 -9 5 4 12 3 16 -4 11 -6 -3 -9
-15 -6 -25 3 -12 -4 -26 -19 -38 -13 -11 -20 -21 -15 -23 5 -1 3 -12 -6 -23
-12 -16 -14 -16 -10 -3 8 22 -11 34 -26 19 -9 -9 -8 -11 6 -6 21 9 22 1 1 -19
-8 -9 -11 -16 -5 -16 6 0 11 -5 11 -11 0 -6 -7 -8 -16 -5 -8 3 -12 2 -9 -3 8
-14 -28 -80 -43 -81 -7 0 -11 -4 -8 -9 3 -5 -2 -15 -11 -22 -15 -13 -16 -11
-10 9 5 23 5 23 -14 6 -20 -18 -26 -29 -10 -20 5 3 11 -3 14 -14 3 -11 1 -18
-4 -14 -5 3 -9 -3 -9 -13 0 -15 -2 -16 -10 -3 -8 12 -10 10 -11 -10 -1 -14 -1
-29 0 -33 1 -5 -3 -5 -9 -2 -7 4 -14 -2 -17 -14 -3 -11 -9 -18 -14 -15 -5 3
-9 -1 -9 -9 0 -8 -9 -26 -21 -41 -12 -15 -17 -31 -13 -38 6 -9 3 -9 -9 1 -18
14 -20 11 -17 -31 1 -14 -3 -29 -9 -33 -6 -3 -11 -15 -11 -26 0 -10 -5 -19
-11 -19 -5 0 -7 -4 -4 -10 3 -5 -1 -10 -9 -10 -10 0 -13 -6 -9 -15 3 -9 -3
-23 -13 -31 -11 -9 -13 -12 -6 -9 12 6 12 3 1 -16 -7 -13 -12 -26 -12 -29 0
-3 -3 -14 -7 -25 -4 -12 -7 -46 -6 -78 1 -31 -2 -57 -6 -57 -5 0 -4 -8 1 -19
6 -10 12 -36 15 -57 2 -21 5 -40 7 -41 1 -2 2 -6 3 -10 1 -5 7 -18 14 -30 14
-25 4 -30 -17 -11 -11 10 -13 10 -7 1 4 -8 1 -13 -8 -13 -18 0 -21 16 -6 25
13 8 13 25 -1 25 -5 0 -8 -4 -4 -9 3 -5 1 -12 -5 -16 -10 -6 -28 30 -37 75 -5
30 -16 44 -12 15 10 -59 -47 -61 -90 -3 -17 23 -31 36 -31 29 0 -7 7 -20 16
-28 12 -12 12 -18 3 -23 -6 -4 -8 -13 -4 -20 6 -9 10 -9 16 1 7 11 10 9 15 -9
7 -24 20 -29 27 -9 3 9 9 9 27 -1 20 -12 22 -12 17 2 -3 8 -2 18 3 21 11 7 12
5 16 -42 2 -32 2 -32 -19 -13 -16 16 -29 18 -60 13 -29 -4 -38 -3 -33 5 5 8
-1 12 -14 12 -12 0 -18 -4 -15 -10 3 -5 1 -10 -4 -10 -6 0 -11 6 -11 14 0 8
-11 23 -23 33 -13 10 -26 25 -30 33 -4 12 -6 11 -6 -2 -1 -10 -8 -18 -16 -18
-8 0 -15 -7 -15 -15 0 -12 4 -13 19 -5 26 14 28 13 34 -10 4 -17 2 -18 -14 -9
-13 6 -19 6 -19 -1 0 -5 -7 -10 -15 -10 -8 0 -14 3 -14 8 1 4 1 15 0 26 -1 15
-4 16 -15 7 -12 -10 -17 -8 -26 9 -16 30 5 54 24 28 16 -21 22 -22 29 -5 3 8
0 14 -6 15 -7 0 -22 4 -35 7 -13 5 -22 3 -22 -4 0 -5 -7 -8 -16 -4 -14 5 -15
3 -5 -15 18 -33 13 -44 -10 -21 -11 11 -24 18 -27 14 -4 -4 1 -13 11 -20 18
-13 18 -14 -3 -25 -18 -10 -21 -9 -18 7 2 10 -3 18 -12 19 -8 0 -30 7 -48 15
-23 9 -31 18 -26 29 15 38 15 43 -1 21 -15 -19 -16 -27 -6 -43 8 -13 8 -24 1
-38 -5 -10 -10 -21 -10 -23 0 -2 39 -5 88 -6 118 -2 284 -23 421 -55 127 -29
134 -30 108 -15 -44 26 -69 151 -55 274 9 74 55 221 79 248 5 7 39 62 75 122
78 130 149 237 214 320 26 33 87 128 135 210 48 83 105 176 126 208 22 32 37
63 33 69 -4 6 -3 8 3 5 6 -4 20 8 32 26 11 17 28 42 37 55 26 36 2 25 -33 -15z"/>
<path d="M872 2094 c3 -11 2 -42 -2 -67 -4 -25 -3 -44 1 -42 4 3 12 -7 17 -22
6 -16 11 -22 11 -15 1 7 -4 22 -10 33 -8 17 -7 23 8 35 16 13 16 13 1 8 -14
-5 -18 -1 -18 16 0 20 2 21 18 9 15 -13 16 -12 3 3 -11 15 -11 18 0 22 40 13
42 14 19 15 -15 1 -32 7 -39 14 -11 10 -13 8 -9 -9z"/>
<path d="M1930 2099 c-12 -7 -12 -9 -1 -9 11 0 10 -5 -3 -25 -24 -37 -19 -42
9 -9 14 16 25 32 25 36 0 13 -16 17 -30 7z"/>
<path d="M1670 2078 c-11 -22 -10 -22 4 -4 16 19 17 19 20 -6 0 -7 9 -14 20
-16 24 -5 17 17 -11 35 -20 13 -23 12 -33 -9z"/>
<path d="M2389 2085 c5 -11 24 -36 41 -55 17 -19 27 -26 21 -15 -5 11 -24 36
-41 55 -17 19 -27 26 -21 15z"/>
<path d="M2451 2054 c19 -22 46 -61 58 -87 13 -27 25 -46 28 -43 3 2 -1 14 -7
26 -6 12 -9 24 -7 27 8 8 25 -29 32 -72 4 -22 14 -45 22 -52 9 -7 13 -19 9
-28 -4 -10 -2 -14 5 -9 19 12 3 80 -36 149 -20 36 -41 65 -47 65 -6 0 -5 -7 3
-17 13 -16 12 -17 -3 -4 -10 7 -16 17 -13 21 3 4 -14 20 -38 35 l-42 28 36
-39z"/>
<path d="M1751 2038 c-1 -10 -7 -18 -14 -18 -8 0 -14 -7 -14 -15 0 -8 4 -15 9
-15 4 0 8 5 8 10 0 6 6 10 13 9 6 -1 23 3 37 9 l25 11 -27 0 c-14 1 -29 7 -31
14 -3 7 -6 5 -6 -5z"/>
<path d="M191 1997 c-1 -44 20 -117 34 -117 3 0 0 10 -6 23 -7 12 -16 49 -19
82 l-7 60 -2 -48z"/>
<path d="M2317 1968 c17 -51 6 -133 -26 -197 -26 -50 -26 -59 -1 -36 11 10 18
20 15 23 -2 3 2 14 10 26 8 11 15 28 15 38 0 10 5 18 11 18 8 0 10 20 6 68 -6
72 -2 72 13 1 l9 -44 -3 54 c-3 42 -9 59 -26 73 -34 27 -39 22 -23 -24z"/>
<path d="M1060 1980 c0 -23 -20 -70 -30 -70 -4 0 -7 -11 -7 -24 0 -14 -13 -47
-29 -73 -16 -26 -35 -61 -44 -78 -22 -46 -67 -105 -74 -98 -3 3 -6 0 -6 -9 0
-8 -18 -39 -40 -68 -37 -49 -53 -78 -31 -54 17 18 127 159 159 204 48 68 133
290 111 290 -5 0 -9 -9 -9 -20z"/>
<path d="M1637 1994 c-3 -3 -1 -18 4 -32 7 -18 7 -28 0 -30 -6 -2 -11 -8 -11
-13 0 -6 5 -7 10 -4 6 3 10 2 10 -4 0 -5 -8 -15 -17 -21 -16 -9 -15 -10 5 -5
26 7 31 -15 7 -35 -8 -7 -15 -18 -15 -24 0 -6 10 1 23 15 12 15 31 32 42 38
13 7 14 11 5 10 -8 -1 -20 -1 -25 0 -17 2 -16 48 0 61 12 10 15 9 15 -4 0 -9
-5 -16 -11 -16 -5 0 -7 -5 -3 -11 4 -7 9 -7 13 -2 11 18 61 21 77 6 8 -8 14
-10 14 -3 0 6 -6 13 -14 16 -9 3 -12 12 -9 22 5 12 2 14 -12 8 -12 -4 -24 0
-38 14 -22 25 -36 19 -16 -7 7 -10 9 -15 5 -11 -5 4 -15 3 -22 -3 -8 -7 -14
-7 -19 1 -3 5 -1 10 4 10 6 0 11 4 11 10 0 5 -7 6 -17 3 -11 -4 -14 -3 -9 5 8
13 3 16 -7 6z"/>
<path d="M118 1951 c-2 -21 0 -49 3 -62 5 -15 7 -1 8 39 1 69 -5 83 -11 23z"/>
<path d="M1170 1977 c-16 -12 -20 -31 -9 -41 10 -10 39 28 31 41 -5 8 -11 8
-22 0z"/>
<path d="M1275 1958 c2 -10 -2 -18 -8 -18 -7 0 -6 -4 2 -9 8 -5 11 -16 8 -26
-4 -9 -3 -14 3 -10 6 3 10 2 10 -3 0 -16 -13 -22 -27 -11 -10 9 -13 8 -13 -5
0 -17 17 -21 36 -8 14 9 25 64 11 55 -6 -4 -8 0 -4 10 3 10 2 17 -3 17 -5 0
-10 6 -13 13 -2 6 -3 4 -2 -5z"/>
<path d="M1620 1952 c0 -7 -10 -12 -23 -12 -13 0 -34 -11 -47 -25 -13 -14 -18
-25 -12 -25 7 0 12 5 12 10 0 16 40 11 47 -6 4 -12 7 -13 14 -3 5 9 -1 18 -19
26 l-27 13 27 -3 c25 -4 47 17 33 31 -3 3 -5 0 -5 -6z"/>
<path d="M1814 1934 c3 -8 2 -12 -3 -9 -5 3 -12 1 -16 -5 -3 -5 3 -10 13 -10
11 0 23 7 26 16 9 22 8 24 -10 24 -10 0 -14 -5 -10 -16z"/>
<path d="M2465 1931 c-3 -11 -1 -37 4 -58 14 -48 14 -110 1 -118 -5 -3 -10 2
-10 12 -2 55 -11 128 -18 135 -10 10 -8 -99 2 -135 10 -33 -3 -68 -56 -152
-23 -37 -33 -61 -26 -64 19 -6 96 95 115 152 17 48 29 194 14 162 -10 -20 -10
-20 -10 0 -1 11 -4 31 -7 45 l-5 25 16 -25 16 -25 -7 25 c-9 36 -21 45 -29 21z"/>
<path d="M853 1883 l-22 -55 22 6 c12 3 29 6 37 6 9 1 6 5 -7 10 -13 5 -23 14
-23 20 0 14 13 13 28 -2 9 -9 12 -9 12 0 0 7 -4 12 -8 12 -4 0 -9 12 -10 27
-1 14 -3 28 -5 29 -1 2 -12 -22 -24 -53z"/>
<path d="M1150 1899 c-5 -13 -19 -36 -31 -50 -11 -14 -21 -40 -21 -57 -1 -17
-5 -29 -9 -26 -4 2 -10 0 -13 -5 -4 -5 2 -8 11 -7 17 3 37 52 27 68 -3 4 0 8
6 8 6 0 9 4 6 9 -8 13 21 34 39 27 12 -4 14 0 9 22 -9 37 -12 38 -24 11z"/>
<path d="M2393 1858 c0 -51 -6 -75 -31 -127 -17 -35 -39 -70 -49 -78 -10 -8
-11 -11 -3 -7 13 7 13 5 1 -9 -7 -9 -10 -17 -6 -17 5 0 1 -8 -8 -18 -14 -15
-15 -19 -2 -19 8 0 12 4 9 9 -3 5 10 15 30 23 54 23 60 39 72 203 4 51 3 87
-3 93 -7 7 -10 -10 -10 -53z"/>
<path d="M2514 1788 c0 -108 2 -126 13 -115 19 19 20 199 1 225 -11 17 -13 1
-14 -110z"/>
<path d="M1570 1883 c0 -7 -9 -13 -19 -13 -11 0 -23 -4 -26 -10 -4 -6 1 -7 12
-3 17 7 17 6 0 -20 -22 -35 -22 -41 3 -20 11 10 20 23 20 29 0 7 7 14 15 16
10 2 12 7 5 18 -6 10 -10 11 -10 3z"/>
<path d="M160 1876 c0 -2 7 -20 15 -39 18 -43 72 -87 106 -87 24 1 24 1 -3 16
-30 16 -38 30 -12 20 12 -5 11 0 -4 16 -12 13 -30 34 -41 48 -11 14 -20 20
-21 13 0 -6 12 -26 27 -43 23 -28 24 -32 7 -29 -11 2 -27 22 -39 47 -11 23
-23 42 -27 42 -5 0 -8 -2 -8 -4z"/>
<path d="M1202 1862 c-9 -3 -10 -8 -2 -17 7 -9 6 -16 -5 -25 -8 -7 -15 -17
-15 -23 0 -5 10 3 22 19 13 16 26 31 30 32 5 2 8 7 8 11 0 8 -18 10 -38 3z"/>
<path d="M122 1851 c-12 -7 -11 -18 4 -65 11 -34 21 -51 25 -44 4 7 3 18 -3
25 -6 7 -11 31 -12 53 0 22 -1 40 -1 40 0 0 -6 -4 -13 -9z"/>
<path d="M1578 1828 c-18 -18 -25 -29 -16 -25 10 3 20 2 23 -4 7 -11 25 -2 25
12 0 6 -5 7 -11 3 -6 -3 -3 5 6 20 23 35 13 33 -27 -6z"/>
<path d="M864 1824 c-12 -5 14 -73 29 -74 12 0 7 24 -9 45 -14 18 -13 21 8 27
20 5 20 6 3 6 -11 0 -25 -2 -31 -4z"/>
<path d="M2351 1785 c-2 -21 -63 -76 -79 -70 -8 3 -29 1 -47 -5 -22 -7 -40 -7
-59 0 -39 14 -54 1 -25 -21 30 -23 70 -24 110 -3 17 8 33 14 35 11 5 -5 -68
-84 -73 -79 -2 2 -19 -2 -39 -7 -23 -6 -45 -6 -61 0 -30 11 -33 11 -33 0 0 -5
12 -14 28 -20 20 -8 21 -10 4 -7 -12 2 -20 1 -17 -4 3 -4 20 -11 39 -14 36 -7
104 20 151 59 20 16 20 16 -4 11 l-23 -5 21 20 c11 11 21 24 21 30 0 6 14 28
31 49 17 21 29 44 26 52 -3 7 -6 9 -6 3z"/>
<path d="M1369 1747 c-1 -7 -1 -18 0 -24 1 -7 -3 -13 -9 -13 -5 0 -10 -5 -10
-11 0 -5 5 -7 10 -4 6 3 10 1 10 -5 0 -6 5 -8 10 -5 6 4 8 16 4 27 -3 12 -1
24 6 28 8 5 7 9 -4 13 -9 4 -17 1 -17 -6z"/>
<path d="M1418 1743 c-2 -34 -4 -38 -22 -66 -10 -15 -16 -30 -13 -33 3 -3 8 4
12 15 3 12 11 18 17 15 6 -4 8 -2 4 4 -3 6 -2 13 4 17 5 3 10 1 10 -4 0 -17
17 -13 24 5 4 12 2 15 -9 11 -19 -8 -31 11 -16 26 14 14 14 27 1 27 -5 0 -11
-8 -12 -17z"/>
<path d="M1206 1741 c-4 -5 1 -11 11 -13 15 -3 15 -5 -3 -22 -16 -17 -16 -19
-2 -14 9 4 18 2 21 -5 2 -6 6 -3 10 7 5 11 3 15 -5 10 -7 -5 -9 -2 -5 9 7 18
-18 44 -27 28z"/>
<path d="M1543 1733 c-24 -16 -33 -40 -10 -26 6 4 18 8 25 9 20 3 28 14 11 14
-11 0 -11 2 1 10 8 5 11 10 5 9 -5 0 -20 -7 -32 -16z"/>
<path d="M881 1728 c-1 -9 -13 -26 -28 -37 -20 -14 -23 -20 -12 -21 20 0 52
46 45 63 -2 7 -5 5 -5 -5z"/>
<path d="M1053 1730 c-29 -12 -30 -24 -2 -15 16 6 20 4 13 -6 -6 -12 -5 -12 9
0 32 26 21 37 -20 21z"/>
<path d="M1640 1709 c0 -5 -4 -8 -9 -4 -5 3 -12 1 -15 -4 -4 -5 -2 -12 4 -16
16 -10 12 -25 -7 -25 -13 0 -15 -2 -5 -8 17 -11 5 -42 -17 -43 -13 0 -13 -2 3
-8 17 -7 17 -8 2 -23 -28 -29 -17 -33 12 -5 21 21 27 34 24 56 -5 34 25 71 40
49 8 -10 9 -10 5 2 -2 8 -12 13 -22 12 -16 -3 -17 -1 -6 12 9 11 10 16 2 16
-6 0 -11 -5 -11 -11z"/>
<path d="M710 1632 c-42 -62 -42 -61 -20 -55 11 3 20 11 20 19 0 7 5 16 12 20
7 5 9 2 5 -8 -4 -13 0 -14 30 -8 38 9 55 20 31 20 -9 0 -18 7 -22 15 -6 18 -2
19 26 4 16 -8 19 -8 13 1 -4 7 -1 16 6 21 9 6 1 7 -21 3 -44 -9 -44 -8 -30
-34 10 -18 9 -21 -2 -18 -7 3 -15 17 -18 31 l-5 26 -25 -37z"/>
<path d="M1420 1650 c-12 -8 -12 -10 4 -16 13 -5 15 -9 5 -15 -8 -4 -20 -3
-29 4 -13 11 -13 10 0 -7 13 -18 13 -19 -1 -14 -9 4 -20 -2 -27 -13 -7 -10
-19 -19 -27 -19 -17 0 -18 -14 -5 -45 7 -17 9 -17 9 -2 1 28 3 31 22 45 11 7
24 10 29 7 6 -4 9 -1 8 6 -2 7 7 18 18 23 14 6 21 18 20 33 -1 25 -4 27 -26
13z"/>
<path d="M1084 1636 c-12 -5 -27 -18 -33 -28 -10 -16 -8 -16 21 2 26 15 35 17
47 7 14 -11 14 -10 1 8 -8 11 -14 20 -15 21 0 0 -10 -4 -21 -10z"/>
<path d="M694 1559 c3 -8 9 -22 12 -31 10 -29 23 -21 15 9 -4 15 -13 29 -20
31 -9 3 -11 -1 -7 -9z"/>
<path d="M1067 1530 c-32 -36 -33 -40 -7 -33 11 3 20 9 20 14 0 5 8 6 18 3 14
-5 14 -4 -2 6 -15 10 -16 14 -5 21 7 4 11 10 8 13 -3 4 -18 -7 -32 -24z"/>
<path d="M1379 1553 c-1 -16 -7 -38 -15 -58 -7 -17 -5 -16 17 4 18 17 20 25
10 28 -10 4 -10 7 -1 13 9 5 9 9 1 14 -6 4 -11 4 -12 -1z"/>
<path d="M663 1545 c4 -5 -1 -17 -10 -28 -17 -19 -17 -20 5 -8 19 10 22 9 22
-8 0 -11 -4 -23 -10 -26 -5 -3 -10 -12 -10 -18 0 -7 7 -3 16 8 18 24 15 77 -6
83 -8 3 -12 1 -7 -3z"/>
<path d="M885 1484 c-22 -26 -44 -54 -48 -63 -5 -9 3 -1 18 17 15 18 31 29 37
26 6 -4 8 -2 5 3 -4 6 0 13 7 16 8 3 17 1 19 -6 2 -7 4 3 3 20 -1 18 -1 33 -1
33 0 0 -18 -21 -40 -46z"/>
<path d="M1422 1506 c-10 -14 -21 -23 -24 -21 -3 3 -5 -2 -5 -10 0 -9 8 -13
21 -11 14 2 20 9 18 21 -2 10 2 21 9 26 8 4 11 11 7 14 -3 3 -15 -5 -26 -19z"/>
<path d="M1274 1508 c-4 -7 -3 -8 4 -4 7 4 12 3 12 -2 0 -14 35 -21 51 -11 10
6 11 9 2 9 -21 0 -27 2 -45 11 -11 6 -19 5 -24 -3z"/>
<path d="M1011 1480 c1 -19 3 -29 6 -22 4 9 8 10 18 2 9 -8 15 -8 20 0 3 5 -1
10 -10 10 -8 0 -20 10 -25 23 -8 19 -9 18 -9 -13z"/>
<path d="M973 1436 c3 -25 1 -46 -4 -46 -12 0 -32 -49 -31 -73 1 -11 -4 -15
-11 -11 -7 4 -8 3 -4 -2 5 -5 25 -9 45 -11 21 -1 31 2 23 6 -7 5 -12 12 -11
17 1 5 -4 10 -11 13 -8 2 -10 -2 -6 -13 4 -9 2 -16 -3 -16 -6 0 -10 11 -10 25
0 14 5 23 13 21 6 -1 9 -1 5 1 -4 2 -4 11 -1 19 4 12 8 13 14 3 4 -7 7 2 5 22
-1 19 3 40 9 48 8 12 7 13 -4 6 -11 -6 -13 -4 -8 8 3 9 2 19 -4 23 -6 3 -8
-11 -6 -40z"/>
<path d="M1356 1454 c-4 -9 -9 -14 -12 -11 -4 3 -11 1 -18 -4 -6 -5 -19 -15
-29 -22 -18 -12 -18 -14 -2 -27 15 -12 16 -12 13 5 -1 10 3 20 11 23 10 3 12
0 8 -12 -4 -9 -2 -16 3 -16 6 0 10 9 10 19 0 11 5 23 10 26 17 11 0 -48 -18
-62 -9 -7 -12 -13 -7 -13 5 0 4 -5 -3 -12 -20 -20 -14 -29 7 -10 10 9 18 19
18 22 -1 21 26 60 40 59 16 0 16 -1 -1 -8 -15 -6 -16 -9 -5 -13 8 -3 28 8 44
23 17 16 27 29 23 29 -4 0 -13 -6 -21 -14 -20 -21 -56 -10 -50 15 6 23 -12 26
-21 3z"/>
<path d="M1637 1437 c-9 -24 -1 -37 23 -37 14 0 17 5 12 22 -5 21 -6 21 -12 2
-7 -17 -8 -16 -11 6 -4 22 -5 23 -12 7z"/>
<path d="M2480 1416 c-47 -7 -104 -19 -125 -27 -22 -7 -43 -12 -47 -11 -8 2
-187 -89 -317 -161 -46 -26 -87 -44 -91 -42 -6 4 -20 -17 -20 -29 0 -2 34 14
75 35 41 20 75 35 75 32 0 -2 7 3 16 11 18 19 45 21 38 4 -6 -17 -124 -90
-124 -77 0 6 -5 7 -10 4 -6 -4 -7 -11 -4 -17 5 -7 1 -9 -9 -5 -9 3 -23 -1 -32
-9 -18 -19 -62 -9 -46 10 7 8 5 12 -8 12 -10 0 -18 -7 -17 -16 1 -9 -9 -16
-26 -18 -35 -4 -36 -25 -3 -40 21 -10 25 -9 25 4 0 9 -5 12 -12 8 -7 -4 -8 -3
-4 4 12 19 36 14 30 -5 -4 -14 -2 -14 8 2 13 20 53 26 77 11 6 -4 11 -1 11 6
0 8 10 14 22 15 12 1 26 9 30 18 5 8 14 15 20 15 7 0 7 -5 -1 -14 -9 -11 -9
-16 1 -22 7 -4 10 -4 6 1 -7 8 26 63 47 77 27 19 35 6 11 -17 -24 -22 -26 -28
-14 -42 11 -14 11 -16 -3 -11 -13 5 -16 2 -11 -14 4 -18 2 -20 -19 -15 -23 6
-23 6 -4 -9 19 -14 19 -16 2 -25 -9 -6 -15 -14 -12 -20 4 -5 -2 -9 -13 -9 -15
0 -18 -5 -14 -26 3 -16 1 -25 -5 -21 -5 3 -15 2 -23 -4 -12 -7 -11 -9 5 -9 17
-1 16 -4 -12 -29 -17 -16 -29 -31 -27 -34 2 -2 -5 -12 -16 -22 -11 -10 -20
-13 -20 -7 0 7 -4 12 -9 12 -5 0 -7 -8 -4 -18 3 -14 -4 -22 -27 -32 -17 -7
-27 -16 -22 -19 6 -3 -4 -22 -21 -41 -17 -19 -28 -27 -24 -18 8 22 -12 36 -24
17 -6 -9 -3 -18 6 -25 8 -6 11 -15 7 -20 -19 -22 98 79 133 115 21 23 44 41
50 41 6 0 17 16 24 35 7 19 17 33 22 30 5 -3 6 2 2 11 -5 13 -3 15 8 9 8 -4
11 -5 7 0 -7 7 44 110 85 170 12 18 45 58 72 90 28 32 62 72 76 89 21 23 30
28 40 20 10 -8 22 -8 43 1 17 7 24 14 16 17 -8 2 18 3 56 1 68 -3 69 -3 34 11
-46 19 -24 20 27 2 37 -13 43 -12 69 5 53 35 69 22 20 -16 -47 -36 -70 -43
-81 -25 -3 6 -14 10 -23 10 -13 0 -13 -2 4 -14 18 -14 18 -15 -6 -25 l-25 -10
25 -1 25 -2 -27 -11 c-16 -6 -28 -16 -28 -22 0 -6 -8 -11 -17 -12 -10 -1 -37
-5 -60 -9 -42 -6 -43 -6 -43 21 0 16 8 38 18 49 l17 21 -23 -19 c-17 -14 -22
-29 -20 -50 3 -28 6 -31 38 -31 19 1 46 4 59 9 19 7 11 -7 -39 -69 -41 -51
-68 -75 -79 -72 -12 3 -16 -4 -16 -30 0 -18 0 -33 1 -33 1 0 18 22 37 49 83
114 226 245 322 294 30 15 115 31 115 21 0 -3 -26 -17 -57 -31 -32 -14 -76
-39 -98 -54 -43 -28 -254 -237 -247 -243 2 -2 -6 -7 -17 -11 -21 -6 -33 -31
-36 -78 -3 -36 15 -21 19 15 6 59 87 108 196 121 16 1 24 8 21 17 -12 48 -12
101 -1 115 7 8 15 13 19 11 4 -3 22 9 40 25 22 19 45 29 65 29 22 0 27 3 17 9
-11 7 -10 11 7 20 23 12 53 15 37 3 -10 -7 -12 -17 -20 -97 -3 -32 -3 -35 4
-15 l9 25 1 -25 c1 -14 8 -36 16 -50 14 -25 14 -24 13 15 -2 54 7 90 37 153
14 29 23 57 21 61 -8 12 -205 10 -296 -3z m250 -78 c0 -2 -6 -20 -14 -41 -9
-28 -15 -34 -19 -23 -8 20 8 66 23 66 5 0 10 -1 10 -2z m-583 -55 c-4 -3 -1
-13 6 -21 10 -13 8 -14 -11 -8 -13 5 -22 3 -22 -3 0 -6 5 -11 12 -11 6 0 9 -3
6 -6 -3 -3 -16 1 -27 8 l-21 13 22 17 c22 17 49 25 35 11z"/>
<path d="M508 1365 l-37 -53 45 14 c61 18 67 23 53 40 -14 17 -30 9 -22 -11 3
-8 1 -15 -4 -15 -19 0 -23 14 -7 31 9 10 14 24 12 32 -2 9 -18 -6 -40 -38z"/>
<path d="M1467 1413 c-4 -3 -7 -14 -7 -22 0 -17 -38 -47 -53 -43 -5 1 -6 -2
-2 -8 3 -6 10 -8 15 -5 4 3 11 -1 13 -7 4 -9 6 -8 6 2 1 13 2 13 12 0 8 -12 9
-10 4 8 -4 15 -2 22 8 22 8 0 17 9 20 19 5 21 -6 45 -16 34z"/>
<path d="M1240 1405 c-1 -5 -2 -14 -1 -19 1 -6 -3 -20 -10 -33 -8 -16 -16 -20
-24 -13 -8 7 -12 5 -12 -5 0 -8 5 -15 11 -15 13 0 46 36 46 50 0 6 5 10 10 10
6 0 10 8 10 18 0 13 -2 14 -9 3 -7 -11 -9 -11 -14 0 -3 8 -6 10 -7 4z"/>
<path d="M1713 1393 c-19 -12 -31 -13 -63 -5 -24 6 -42 6 -46 1 -3 -5 -2 -9 3
-8 4 1 19 1 32 0 29 -1 20 -14 -11 -16 -12 -1 -27 -10 -32 -21 -6 -10 -17 -24
-25 -30 -8 -6 -11 -16 -7 -22 7 -11 -7 -17 -29 -12 -5 1 -7 -2 -3 -6 4 -4 2
-14 -4 -23 -11 -14 -10 -14 7 0 33 27 85 50 98 44 7 -4 2 2 -10 13 -22 20 -31
42 -15 42 4 -1 19 -16 33 -35 l26 -34 41 64 c42 67 43 75 5 48z m-23 -48 c0
-11 -5 -12 -24 -5 -13 5 -27 6 -32 2 -4 -4 -4 -1 0 6 10 17 56 15 56 -3z"/>
<path d="M1273 1353 c-4 -10 -1 -19 6 -21 8 -3 7 -8 -5 -16 -15 -11 -15 -13
-1 -13 19 0 31 24 17 32 -6 4 -10 11 -10 16 0 6 5 7 12 3 7 -4 8 -3 4 4 -10
16 -15 15 -23 -5z"/>
<path d="M585 1266 c-34 -50 -67 -104 -75 -121 -18 -37 -47 -76 -55 -75 -3 1
-11 -1 -18 -3 -6 -3 -1 -6 12 -6 18 -1 22 -4 14 -12 -12 -12 -57 6 -49 20 3 4
-9 5 -27 3 l-32 -5 42 -18 c48 -20 66 -58 41 -87 -16 -18 -21 -55 -6 -46 4 3
9 -1 10 -8 5 -44 1 -64 -12 -70 -11 -5 -9 -7 8 -7 12 -1 22 -6 22 -11 0 -7
-14 -9 -37 -5 l-38 6 32 -15 c18 -8 41 -29 52 -47 19 -30 19 -33 3 -45 -24
-19 -34 -17 -24 4 13 23 -1 58 -28 72 -32 17 -35 5 -6 -18 49 -38 23 -60 -36
-31 -25 13 -36 24 -32 34 8 19 -3 19 -21 1 -12 -12 -8 -17 30 -37 25 -13 45
-27 45 -31 0 -5 7 -8 15 -8 9 0 32 -7 53 -16 33 -13 35 -16 19 -26 -24 -13
-77 -1 -56 13 10 8 8 9 -8 4 -12 -3 -33 -1 -45 6 l-23 12 22 -24 c27 -29 17
-55 -16 -44 -28 9 -98 96 -128 161 -12 28 -26 77 -29 110 -9 83 -14 80 -14 -7
0 -80 19 -134 68 -199 15 -19 27 -42 27 -50 0 -8 9 -15 20 -16 11 -1 28 -5 38
-9 10 -4 66 0 126 10 107 18 108 18 88 38 -10 10 -33 49 -50 85 -29 61 -32 76
-32 167 0 82 4 107 21 140 12 22 19 46 16 54 -3 8 0 11 7 7 6 -4 9 -2 6 6 -3
7 8 35 25 61 16 26 30 52 30 57 0 6 3 10 8 10 4 0 22 18 40 40 22 26 30 45 25
54 -6 10 -25 -12 -68 -78z"/>
<path d="M1056 1332 c-7 -12 33 -44 49 -38 8 3 16 1 19 -5 2 -5 3 -4 2 3 -2 7
-11 13 -20 13 -10 0 -24 8 -31 18 -7 10 -16 14 -19 9z"/>
<path d="M2261 1307 c-11 -17 -39 -61 -63 -97 -130 -202 -159 -250 -154 -258
3 -5 -8 -22 -25 -38 -40 -38 -56 -66 -33 -57 12 4 15 3 10 -5 -5 -8 -1 -10 11
-5 24 9 34 24 27 46 -3 11 3 25 18 37 16 14 19 19 8 20 -13 0 -13 1 0 10 20
13 43 13 35 0 -3 -6 1 -7 9 -4 18 7 21 20 6 29 -31 19 20 112 74 136 17 8 15
8 -9 4 -28 -5 -29 -4 -11 10 23 18 32 19 41 5 3 -5 16 -10 27 -10 21 0 21 0 2
21 -10 11 -20 16 -22 10 -5 -15 -22 -3 -22 15 0 8 4 13 9 10 5 -3 11 1 15 9 3
8 16 15 28 16 22 1 22 1 -2 8 -14 4 -20 10 -14 13 15 10 55 -2 47 -15 -3 -6
-1 -7 5 -3 9 5 9 13 2 26 -14 27 -12 51 6 71 9 10 11 19 6 23 -6 3 -19 -9 -31
-27z"/>
<path d="M1170 1314 c0 -6 9 -19 20 -29 11 -10 20 -23 20 -30 0 -13 49 -39 58
-30 3 3 0 5 -6 5 -7 0 -12 5 -12 10 0 6 9 10 20 10 11 0 20 5 20 10 0 12 -2
12 -36 0 -21 -9 -29 -7 -39 7 -10 13 -10 20 -2 25 6 4 8 10 4 15 -5 4 -12 1
-16 -6 -7 -11 -11 -9 -20 5 -6 11 -11 14 -11 8z"/>
<path d="M729 1278 c-1 -7 -2 -20 -3 -28 0 -8 -16 -24 -34 -36 -18 -13 -28
-25 -22 -29 5 -3 10 -1 10 4 0 6 5 11 10 11 7 0 7 -7 0 -20 -6 -11 -16 -17
-22 -14 -7 4 -8 3 -4 -4 13 -21 27 -13 43 26 8 20 21 44 28 52 14 17 16 50 3
50 -4 0 -9 -6 -9 -12z"/>
<path d="M1076 1271 c-3 -5 -15 -7 -26 -4 -12 3 -20 0 -20 -7 0 -7 7 -10 15
-6 8 3 15 1 15 -4 0 -6 5 -10 10 -10 6 0 9 3 9 8 -3 19 2 23 16 12 12 -10 15
-10 15 4 0 17 -25 22 -34 7z"/>
<path d="M2858 1240 c-15 -20 -39 -36 -75 -47 -29 -9 -53 -20 -53 -24 0 -4 8
-5 19 -2 10 3 22 0 25 -6 13 -20 53 -12 71 15 9 14 19 23 22 20 3 -3 -2 -17
-11 -30 -14 -22 -14 -25 -1 -19 30 11 61 123 35 123 -5 0 -19 -14 -32 -30z"/>
<path d="M1122 1248 c-1 -7 -4 -31 -7 -53 l-4 -40 10 42 c8 33 13 41 27 36 16
-6 16 -6 0 10 -20 20 -24 21 -26 5z"/>
<path d="M806 1204 c-14 -15 -26 -30 -26 -35 0 -4 -8 -10 -18 -13 -21 -7 -25
-33 -6 -33 7 0 11 4 8 8 -2 4 6 15 18 23 12 9 18 16 13 16 -5 0 4 14 20 30 35
37 28 40 -9 4z"/>
<path d="M1345 1201 c-17 -10 -32 -30 -37 -49 -6 -23 -13 -30 -26 -26 -10 4
-13 2 -7 -3 6 -4 11 -17 13 -28 4 -24 32 -56 32 -37 0 7 -4 12 -10 12 -16 0
-11 50 5 57 9 3 15 13 14 22 -3 31 1 43 14 39 6 -3 21 3 31 13 24 23 11 23
-29 0z"/>
<path d="M1070 1164 c-13 -20 -33 -40 -45 -44 -16 -7 -16 -9 -3 -9 9 -1 23 5
30 12 7 8 19 12 25 10 7 -3 15 7 19 21 10 43 0 47 -26 10z"/>
<path d="M2535 1183 c4 -10 8 -25 9 -33 2 -12 20 -15 77 -16 41 -1 96 -7 122
-13 37 -9 53 -8 70 1 22 13 21 13 -8 16 -16 2 -36 8 -42 14 -10 8 -13 6 -13
-6 0 -15 -4 -15 -30 4 -16 12 -30 17 -30 12 0 -6 -13 -6 -36 1 -27 8 -40 8
-55 -1 -11 -7 -19 -8 -19 -2 0 5 -7 7 -15 4 -10 -4 -15 0 -15 15 0 12 -5 21
-11 21 -7 0 -8 -7 -4 -17z"/>
<path d="M363 1147 c-12 -19 -24 -44 -28 -56 -6 -19 -3 -20 27 -15 31 6 104
44 83 44 -5 -1 -19 -7 -29 -15 -24 -19 -56 -19 -56 -2 0 16 29 56 30 41 0 -7
7 -14 15 -18 12 -4 13 -2 6 12 -26 44 -28 44 -48 9z"/>
<path d="M1473 1165 c-9 -10 -9 -16 0 -25 9 -10 9 -12 -4 -7 -12 4 -25 -14
-51 -69 -33 -69 -34 -74 -14 -69 20 6 20 6 2 -9 -10 -9 -22 -14 -25 -11 -4 2
-13 -21 -20 -52 -11 -50 -11 -57 6 -75 18 -20 18 -21 -5 -13 -22 6 -23 4 -21
-39 2 -25 7 -52 11 -58 7 -10 8 -9 7 2 -4 40 2 60 19 61 11 1 9 4 -8 9 l-25 8
28 1 28 1 -22 29 c-19 26 -20 33 -9 65 20 60 94 98 127 65 7 -7 20 9 42 57 17
37 29 70 26 73 -9 8 -23 -18 -35 -61 -6 -21 -15 -38 -20 -38 -14 0 -25 23 -12
28 20 6 3 20 -18 15 -25 -7 -25 -19 0 -33 11 -6 20 -15 20 -21 0 -6 -9 -4 -21
4 -11 8 -28 13 -38 10 -11 -3 -21 2 -24 11 -4 9 -2 16 3 16 6 0 10 -4 10 -10
0 -5 4 -10 10 -10 5 0 7 7 4 15 -4 8 -2 15 4 15 5 0 8 14 6 30 -2 17 0 30 5
30 5 0 17 3 27 7 11 4 15 3 11 -4 -5 -7 0 -9 13 -6 21 6 21 6 1 19 -11 8 -21
23 -23 33 -2 15 -5 16 -15 6z"/>
<path d="M1704 1127 c-87 -172 -108 -220 -125 -286 -10 -41 -19 -93 -19 -115
0 -45 16 -112 29 -120 12 -8 104 42 127 70 14 15 20 33 17 47 -3 16 -2 18 5 8
6 -8 12 -9 16 -3 3 5 -1 13 -10 16 -25 9 -36 7 -31 -6 2 -7 -3 -19 -12 -26
-14 -11 -13 -12 9 -7 18 4 14 -1 -15 -18 -22 -14 -47 -31 -56 -40 -13 -12 -20
-12 -40 -1 l-24 12 29 8 c29 7 29 7 7 16 -13 4 -28 5 -34 1 -7 -4 -6 1 2 11 8
9 23 15 32 13 20 -5 43 15 32 27 -4 4 -2 11 6 15 10 7 9 10 -3 14 -10 4 -16 1
-16 -7 0 -15 -21 -26 -47 -26 -11 0 -6 10 16 31 25 23 30 35 25 52 -13 40 -13
66 0 61 9 -3 11 4 8 27 -4 25 -1 31 9 27 8 -3 19 0 26 7 9 10 7 17 -8 34 l-20
21 31 0 c17 0 29 -4 26 -8 -3 -5 1 -9 7 -9 9 0 12 10 9 29 -3 19 -8 26 -16 20
-6 -5 -19 -12 -30 -16 -15 -5 -15 -2 5 18 13 13 30 22 38 19 14 -4 14 -3 1 5
-10 8 -18 8 -27 0 -9 -7 -13 -7 -13 1 0 6 18 20 40 31 41 21 49 33 29 46 -8 4
-7 9 2 15 8 4 18 1 25 -9 12 -16 13 -16 19 1 4 9 13 17 21 17 8 0 14 5 14 10
0 6 -21 10 -47 10 -46 0 -49 -1 -69 -43z"/>
<path d="M923 1130 c1 -11 8 -20 17 -21 10 0 11 -2 3 -6 -7 -2 -13 -9 -13 -15
0 -6 7 -4 17 3 15 12 16 12 9 -6 -6 -16 -4 -17 5 -8 9 9 6 19 -14 42 -22 26
-26 28 -24 11z"/>
<path d="M1046 1103 c-4 -5 -19 -8 -33 -8 -15 0 -28 -7 -30 -15 -4 -13 -3 -13
6 0 5 8 13 11 17 7 4 -3 1 -13 -6 -22 -10 -12 -10 -15 4 -15 9 0 16 6 16 13 0
7 12 20 28 29 15 10 22 18 16 18 -6 0 -14 -3 -18 -7z"/>
<path d="M1493 1088 c-30 -14 -29 -23 1 -23 13 0 22 2 20 4 -2 2 1 10 7 18 13
15 3 16 -28 1z"/>
<path d="M808 1073 c0 -5 -1 -15 -2 -23 -1 -8 -7 -16 -14 -16 -6 -1 -15 -3
-19 -4 -5 -1 -11 -2 -15 -1 -5 0 -8 -5 -8 -11 0 -10 -2 -10 -8 0 -9 14 -42 6
-42 -10 0 -6 6 -5 15 2 18 15 20 -3 3 -22 -7 -7 -14 -20 -16 -28 -1 -10 3 -8
14 5 15 20 16 19 12 -5 -2 -14 -9 -24 -15 -23 -7 2 -10 -4 -6 -13 4 -12 8 -11
20 6 11 16 18 19 26 11 8 -8 5 -15 -9 -25 -10 -8 -16 -18 -11 -22 4 -4 7 -2 7
5 0 7 4 10 9 7 5 -3 14 7 21 23 9 22 16 27 32 23 11 -3 24 1 28 9 12 18 3 29
-16 22 -13 -5 -13 -7 -2 -14 10 -7 10 -9 -3 -9 -24 0 -30 11 -16 28 8 10 8 13
1 9 -7 -4 -14 0 -18 8 -6 18 10 30 18 13 5 -10 7 -10 12 -1 3 7 12 9 20 6 8
-3 14 0 14 7 0 6 -4 8 -10 5 -10 -6 -14 7 -11 33 2 13 -8 17 -11 5z m-33 -102
c-2 -9 -4 -20 -4 -25 -1 -6 -6 -5 -13 2 -8 8 -8 15 3 29 12 16 12 17 -2 6 -15
-12 -29 -8 -29 8 0 12 34 16 41 6 4 -5 5 -17 4 -26z"/>
<path d="M1715 1070 c-3 -5 1 -10 10 -10 9 0 13 -5 9 -11 -4 -8 -1 -8 12 -1
11 5 25 7 33 4 9 -3 11 0 6 7 -4 7 -14 10 -22 7 -9 -4 -21 -2 -28 4 -9 8 -15
8 -20 0z"/>
<path d="M343 1042 c16 -6 16 -10 5 -19 -7 -6 -20 -13 -28 -16 -13 -5 -12 -6
1 -6 9 -1 22 6 29 14 14 16 49 11 62 -9 6 -8 8 -8 8 0 0 18 -24 33 -61 39 -22
4 -28 3 -16 -3z"/>
<path d="M2461 994 c-42 -21 -71 -42 -71 -51 0 -12 7 -10 33 9 17 14 55 37 82
51 28 14 45 26 39 27 -6 0 -43 -16 -83 -36z"/>
<path d="M1044 995 c3 -8 1 -15 -4 -15 -6 0 -10 5 -10 12 0 6 -3 8 -7 4 -5 -4
0 -14 10 -21 15 -11 16 -17 7 -34 -7 -14 -7 -21 0 -21 5 0 10 5 10 10 0 6 11
10 24 10 22 0 23 -2 13 -24 -7 -14 -15 -20 -18 -14 -4 7 -9 6 -14 -2 -4 -6
-14 -9 -22 -6 -8 3 -11 1 -8 -4 3 -6 19 -10 34 -10 25 0 28 -3 23 -26 -3 -17
-1 -25 5 -21 6 4 9 25 8 48 -2 40 -2 41 11 18 l13 -24 1 24 c0 16 4 21 14 18
10 -4 13 -1 10 7 -3 8 -1 17 5 21 6 3 11 -1 11 -9 0 -10 9 -16 23 -16 16 0 18
-3 8 -9 -8 -5 -9 -11 -3 -15 5 -3 13 1 16 10 4 10 0 18 -13 21 -12 3 -17 12
-16 26 3 31 3 31 20 17 13 -11 14 -10 9 3 -3 8 -12 18 -20 21 -8 3 -13 2 -10
-3 3 -4 -4 -17 -15 -27 -17 -16 -22 -16 -30 -4 -7 11 -8 9 -7 -9 2 -13 -2 -26
-9 -28 -18 -6 -7 39 13 54 9 7 21 10 27 6 6 -3 7 -1 4 5 -10 15 -46 3 -58 -19
-5 -11 -17 -19 -27 -18 -14 0 -14 2 3 9 19 8 18 9 -4 9 -19 1 -21 4 -12 15 9
11 8 15 -5 20 -12 4 -15 2 -10 -9z"/>
<path d="M2212 945 c-17 -30 -27 -55 -22 -55 9 0 63 100 57 106 -2 2 -17 -21
-35 -51z"/>
<path d="M660 960 c-8 -5 -11 -10 -5 -10 5 0 3 -6 -3 -12 -10 -10 -15 -10 -22
2 -7 11 -9 6 -6 -17 2 -19 -1 -33 -7 -33 -6 0 -7 -3 -4 -7 9 -9 48 27 41 38
-3 5 2 9 10 9 8 0 18 5 22 12 4 7 3 8 -4 4 -7 -4 -12 -3 -12 3 0 5 6 12 13 14
6 3 8 6 2 6 -5 0 -17 -4 -25 -9z"/>
<path d="M2137 952 c-10 -10 -17 -24 -17 -30 0 -6 -11 -19 -25 -30 -13 -11
-21 -23 -17 -27 4 -4 -4 -4 -18 -1 -19 6 -21 5 -10 -3 23 -17 26 -15 75 49 25
33 42 60 37 60 -5 0 -16 -8 -25 -18z"/>
<path d="M2221 903 c-23 -32 -35 -42 -41 -34 -5 9 -10 10 -14 2 -4 -6 -2 -11
5 -11 7 0 2 -11 -11 -25 -13 -14 -29 -25 -37 -25 -7 0 -13 -6 -13 -13 0 -7 -9
-23 -20 -35 -11 -12 -20 -25 -20 -29 0 -4 32 24 71 62 71 70 137 155 121 155
-4 0 -23 -21 -41 -47z"/>
<path d="M576 914 c-3 -9 -4 -20 -1 -25 8 -13 33 13 28 28 -7 18 -20 16 -27
-3z"/>
<path d="M2323 901 c-18 -15 -33 -32 -33 -38 0 -6 -6 -14 -12 -16 -7 -3 -8 -6
-3 -6 13 -1 91 76 84 83 -2 2 -19 -8 -36 -23z"/>
<path d="M290 889 c0 -52 10 -61 51 -48 19 6 40 13 48 15 29 9 4 12 -36 4 -35
-6 -43 -4 -43 8 0 10 7 13 27 9 24 -4 25 -4 10 7 -9 7 -13 17 -9 21 4 5 1 5
-6 1 -7 -4 -19 -2 -27 4 -13 11 -15 7 -15 -21z"/>
<path d="M651 882 c-11 -11 -11 -13 0 -11 25 3 37 -1 42 -13 2 -7 3 -5 2 5 -2
9 3 17 11 17 16 0 18 -33 4 -60 -8 -16 -8 -18 5 -14 8 3 13 10 10 14 -3 4 2
10 10 14 8 3 15 15 15 26 0 12 -4 19 -9 15 -6 -3 -13 0 -18 7 -11 17 -56 17
-72 0z"/>
<path d="M1156 865 c-3 -8 -1 -15 3 -15 5 0 7 -10 5 -22 -2 -13 -2 -17 2 -10
3 6 18 12 32 13 16 0 21 3 12 6 -8 4 -22 15 -31 25 -14 16 -18 16 -23 3z"/>
<path d="M2250 818 c0 -9 -8 -24 -17 -34 -9 -9 -18 -25 -18 -36 -1 -11 -8 -24
-16 -29 -8 -5 -9 -9 -3 -9 28 0 78 87 63 111 -7 11 -9 11 -9 -3z"/>
<path d="M2010 809 c0 -15 -54 -33 -58 -19 -3 7 -8 7 -15 1 -7 -5 -16 -10 -22
-12 -27 -6 -55 -34 -55 -55 0 -13 4 -24 9 -24 5 0 7 8 4 18 -2 10 3 25 13 33
15 12 16 12 10 -9 -6 -18 -3 -22 12 -22 11 0 26 7 33 16 7 9 35 28 62 44 41
23 45 28 28 33 -12 3 -21 1 -21 -4z"/>
<path d="M1406 785 c4 -8 2 -15 -4 -15 -6 0 -13 6 -15 13 -4 9 -6 9 -6 0 -1
-7 13 -20 30 -28 17 -9 29 -19 26 -22 -3 -2 -15 1 -27 7 -12 7 -20 8 -17 2 4
-5 -5 -14 -19 -21 -14 -6 -22 -16 -19 -21 3 -6 1 -10 -4 -10 -6 0 -11 10 -12
23 0 12 -3 16 -6 10 -7 -18 25 -110 45 -130 10 -9 17 -20 17 -25 0 -5 37 -21
83 -37 45 -16 82 -27 82 -26 0 2 15 0 33 -4 18 -5 41 -4 52 0 20 8 18 8 -78
13 -10 1 -24 13 -31 26 -13 26 -17 27 -50 14 -14 -5 -17 -4 -12 4 5 8 -2 12
-21 12 -27 1 -27 1 -7 13 17 9 21 19 18 47 -7 67 -11 75 -33 78 -42 6 -69 -41
-38 -66 10 -8 13 -6 14 9 1 10 -2 19 -7 19 -5 0 -7 7 -3 16 5 13 9 12 29 -7
13 -12 21 -25 19 -30 -3 -4 1 -10 7 -12 10 -4 9 -8 -2 -16 -10 -7 -17 -6 -22
2 -6 9 -8 9 -8 0 0 -7 8 -17 18 -23 13 -8 11 -9 -13 -4 -47 9 -55 13 -55 25 0
8 5 7 18 -2 9 -7 6 -1 -7 13 -31 35 -23 75 17 84 15 3 33 7 40 10 17 5 15 34
-3 34 -8 0 -15 5 -15 11 0 6 6 9 13 6 8 -3 14 1 14 9 0 8 -10 14 -23 14 -17 0
-22 -4 -18 -15z"/>
<path d="M2022 754 c-52 -52 -152 -124 -173 -124 -11 0 -28 -8 -39 -18 -10 -9
-39 -23 -64 -31 -25 -7 -44 -17 -41 -21 3 -5 -4 -12 -16 -15 -11 -4 -19 -9
-16 -11 6 -6 185 79 227 107 72 49 160 124 160 137 0 15 2 16 -38 -24z"/>
<path d="M650 714 c0 -21 -4 -24 -20 -19 -16 5 -20 2 -20 -15 0 -12 -4 -18
-10 -15 -5 3 -8 0 -5 -7 4 -10 24 -12 78 -8 65 5 72 7 75 28 3 21 -9 27 -45
23 -7 -1 -18 7 -25 19 -17 27 -28 25 -28 -6z m65 -28 c10 4 15 0 15 -12 0 -14
-2 -16 -9 -6 -10 17 -22 17 -32 1 -6 -11 -9 -10 -15 4 -3 9 -10 14 -15 11 -5
-3 -7 -10 -4 -15 4 -5 -1 -9 -9 -9 -20 0 -21 16 -1 24 8 3 15 13 15 23 0 14 3
14 20 -5 11 -12 27 -19 35 -16z"/>
<path d="M1775 674 c-38 -29 -75 -54 -81 -54 -5 0 -19 -7 -30 -15 -17 -14 -17
-14 11 -4 17 7 45 17 63 24 18 6 33 15 33 18 -2 19 0 21 9 7 6 -10 10 -11 10
-2 0 6 8 12 19 12 10 0 32 7 47 16 l29 16 -28 -5 c-15 -2 -30 0 -33 4 -3 5 2
9 10 9 9 0 16 7 16 15 0 19 7 23 -75 -41z"/>
<path d="M2010 690 c-19 -16 -30 -30 -25 -30 14 0 83 59 70 60 -5 0 -26 -14
-45 -30z"/>
<path d="M1831 574 c-57 -30 -107 -56 -110 -59 -19 -20 170 72 204 99 29 22
21 19 -94 -40z"/>
<path d="M170 602 c0 -6 5 -14 10 -17 6 -4 8 -10 5 -15 -3 -4 2 -10 10 -14 22
-8 18 18 -5 39 -11 10 -20 13 -20 7z"/>
<path d="M790 590 c0 -12 40 -20 111 -20 55 0 246 -28 314 -46 16 -4 17 -3 5
5 -8 6 -25 11 -37 11 -12 0 -28 6 -35 13 -7 6 -18 13 -23 14 -6 0 -26 4 -45 7
-19 3 -75 8 -125 11 -49 4 -107 8 -127 10 -21 2 -38 0 -38 -5z"/>
<path d="M1675 590 c-11 -5 -35 -6 -52 -3 -40 6 -41 -2 -7 -42 14 -16 23 -25
20 -18 -4 6 2 14 11 16 14 4 13 5 -4 6 -26 1 -38 17 -22 27 8 4 9 3 5 -4 -5
-9 3 -11 28 -10 19 2 34 8 33 13 -1 6 4 9 11 7 8 -1 11 2 7 8 -3 5 -7 10 -8 9
-1 0 -11 -4 -22 -9z"/>
<path d="M484 579 c-8 -13 43 -19 158 -19 75 0 119 4 124 11 4 8 -8 10 -40 8
-25 -2 -46 -1 -46 4 0 4 -9 3 -19 -3 -23 -12 -53 -14 -34 -2 7 4 -22 7 -63 7
-42 0 -78 -3 -80 -6z"/>
<path d="M1250 536 c14 -8 54 -17 90 -20 36 -4 81 -9 100 -11 l35 -5 -30 10
c-16 6 -53 12 -80 15 -28 3 -66 10 -85 15 -48 14 -60 12 -30 -4z"/>
<path d="M450 486 c0 -8 -5 -16 -12 -18 -6 -2 6 -14 26 -26 37 -22 37 -22 31
-1 -7 20 -6 20 24 4 43 -22 39 -12 -6 16 -21 13 -44 27 -50 32 -9 5 -13 3 -13
-7z"/>
<path d="M290 455 c0 -17 44 -71 76 -94 45 -32 143 -71 180 -71 31 0 24 15
-11 24 -14 4 -53 19 -85 35 -32 16 -61 26 -64 24 -6 -7 -61 35 -62 48 -1 5 -2
13 -3 18 -1 9 -31 24 -31 16z"/>
<path d="M401 406 c11 -12 39 -19 95 -22 74 -5 77 -4 54 10 -29 18 -44 20 -35
6 3 -5 0 -10 -9 -10 -8 0 -16 4 -18 10 -1 5 -25 13 -53 16 -47 6 -49 5 -34
-10z"/>
<path d="M2031 370 c-18 -53 -67 -105 -129 -138 -64 -34 -102 -43 -67 -16 20
16 20 16 0 10 -25 -7 -74 -15 -143 -23 -29 -3 -55 -10 -59 -15 -11 -19 217 2
269 24 57 24 133 103 143 147 9 43 0 50 -14 11z"/>
<path d="M1530 266 c-9 -12 -6 -16 23 -21 19 -4 43 -5 54 -2 12 3 9 5 -10 6
-16 0 -26 5 -23 10 3 5 -1 12 -10 15 -21 8 -20 8 -34 -8z"/>
</g>
</svg>
