<svg width="325" height="258" xmlns="http://www.w3.org/2000/svg" preserveAspectRatio="xMidYMid meet" version="1.0">
 <metadata>Created by potrace 1.10, written by Peter Selinger 2001-2011</metadata>

 <g>
  <title>Layer 1</title>
  <g id="svg_1" fill="#000000" transform="translate(0.000000,258.000000) scale(0.050000,-0.050000)">
   <path id="svg_2" d="m453,5095c-6,-36 -20,-99 -30,-140c-17,-67 -15,-75 19,-75c29,0 38,14 38,60c0,56 39,90 41,35c0,-14 13,-8 30,14c16,21 30,30 30,20c1,-11 10,2 20,27c10,26 27,41 37,35c11,-6 25,6 31,27c9,26 27,37 52,32c21,-4 39,1 39,11c0,11 -66,19 -147,19l-148,0l-12,-65z"/>
   <path id="svg_3" d="m800,5141c0,-11 25,-19 55,-19c30,1 82,-4 115,-10c33,-7 75,-15 94,-18c19,-3 41,-12 49,-20c8,-8 33,-2 55,13c40,25 162,29 186,6c6,-7 30,-2 53,11c43,23 391,25 511,3c45,-8 63,-5 55,9c-7,11 -2,25 12,31c14,5 -247,11 -580,11c-374,1 -605,-5 -605,-17z"/>
   <path id="svg_4" d="m2336,5129c25,-18 55,-25 69,-15c14,8 31,16 38,16c71,1 19,30 -54,30c-94,0 -96,-1 -53,-31z"/>
   <path id="svg_5" d="m2623,4988c-111,-157 -433,-248 -588,-165c-33,18 -56,15 -109,-14c-79,-42 -94,-33 -66,41c12,31 16,60 11,66c-16,16 -165,-56 -202,-97c-18,-20 -45,-32 -60,-26c-81,31 -247,-36 -382,-156c-128,-113 -137,-118 -144,-74c-17,119 -96,32 -108,-118c-2,-30 -34,-109 -71,-175c-190,-337 -214,-691 -66,-967c14,-25 38,-88 53,-140c20,-68 59,-124 146,-209c85,-82 116,-126 109,-153c-13,-49 37,-75 176,-92c145,-19 162,-29 126,-78c-15,-21 -28,-27 -28,-13c0,65 -316,-143 -406,-268c-95,-131 -252,-238 -647,-441c-196,-101 -208,-109 -305,-214c-62,-66 -65,-75 -35,-105c21,-21 28,-53 22,-96c-8,-48 0,-39 31,39c36,89 50,104 106,112c101,16 124,-18 62,-91c-29,-34 -60,-83 -69,-108c-10,-25 -27,-46 -38,-46c-28,0 -85,-117 -70,-141c7,-12 3,-33 -10,-47c-13,-17 -15,-44 -5,-73c15,-39 19,-40 30,-12c10,26 26,31 68,20c190,-47 302,-10 247,83c-37,62 -39,127 -4,148c11,7 17,51 15,98c-3,49 6,94 21,106c13,12 20,33 14,47c-7,20 23,31 112,41c114,13 191,90 90,90c-42,0 -73,85 -37,106c14,8 21,28 15,45c-6,16 -2,29 9,29c11,0 25,-11 30,-25c6,-16 33,-2 77,40c72,68 97,79 97,44c0,-34 -86,-139 -114,-139c-14,0 -26,-10 -26,-21c0,-12 7,-17 16,-11c30,18 63,-20 70,-79c4,-32 17,-79 30,-103c13,-24 24,-56 24,-72c0,-40 66,-94 117,-94c59,0 54,37 -9,61c-41,15 -50,30 -41,63c7,26 -4,62 -28,92c-50,63 -52,164 -4,177c49,13 87,100 66,155c-12,30 -6,68 20,123c29,62 38,69 38,34c1,-53 39,-58 121,-15c31,16 72,24 89,18c63,-24 107,12 51,42c-27,14 -59,21 -70,15c-11,-6 -10,0 2,13c13,14 35,28 50,31c101,24 118,38 118,91c0,30 13,66 30,80c16,13 25,32 20,40c-6,9 26,11 70,5c44,-5 91,-1 105,9c41,32 99,48 84,24c-10,-15 0,-18 28,-9c27,9 43,5 43,-9c0,-12 -9,-17 -20,-10c-36,23 -19,-19 33,-80c28,-33 46,-45 40,-26c-11,35 12,65 33,43c18,-17 -63,-167 -96,-180c-151,-58 -133,-666 20,-667c11,0 32,-18 45,-40c22,-34 20,-40 -10,-40c-30,-1 -31,-3 -5,-20c47,-30 74,-24 86,20c6,22 4,40 -5,40c-27,0 -72,166 -47,175c14,4 19,33 12,73c-8,55 -1,73 44,108c46,37 87,131 95,219c1,14 15,25 31,25c19,0 25,14 18,40c-7,29 0,40 26,40c53,0 70,-61 20,-74c-93,-25 5,-189 106,-177c50,5 31,-65 -29,-109c-12,-9 -9,-209 4,-240c2,-5 3,-17 1,-25c-1,-8 5,-14 13,-13c80,13 118,-42 54,-77c-19,-11 -26,-31 -18,-51c14,-36 49,-47 49,-15c0,11 13,15 28,9c15,-6 34,-1 41,11c20,31 51,26 51,-9c0,-18 -19,-30 -47,-30c-26,0 -63,-18 -84,-41c-20,-22 -49,-36 -64,-30c-20,8 -24,0 -14,-31c10,-34 5,-40 -32,-35c-51,8 -76,-32 -31,-49c48,-19 133,31 120,71c-8,27 1,35 41,35c28,0 51,-9 51,-20c0,-11 13,-20 28,-20c15,0 33,-13 39,-28c20,-52 191,-155 247,-148c64,7 85,-35 26,-54c-24,-8 -39,-18 -34,-22c5,-5 32,0 61,11c51,19 53,17 53,-48c0,-119 43,-177 66,-89c7,26 20,36 35,28c19,-13 20,69 0,165c-1,3 -14,5 -30,5c-61,0 -168,96 -239,214c-41,68 -96,137 -123,155c-95,62 -204,418 -147,480c10,10 18,39 18,63c0,24 13,68 28,97l28,54l32,-46c28,-40 32,-41 32,-9c0,42 107,-26 195,-124c29,-32 45,-40 46,-22c0,20 8,18 28,-9c16,-20 23,-50 17,-67c-7,-17 11,-50 42,-80c71,-65 59,-73 -86,-56c-94,11 -123,22 -133,52c-6,21 -25,38 -40,38c-37,0 -37,-5 12,-92c23,-40 35,-78 28,-85c-6,-7 -21,3 -31,21c-10,19 -32,47 -47,63c-16,15 -35,52 -42,81c-7,28 -22,52 -33,52c-29,0 1,-107 36,-126c15,-9 28,-38 28,-64c0,-26 14,-56 32,-66c17,-10 31,-24 30,-31c-9,-66 3,-77 29,-28c17,30 46,56 65,57c94,4 127,15 192,65c40,31 66,65 60,81c-6,17 9,32 41,40c28,7 51,26 51,42c0,17 9,30 20,30c11,0 20,-13 20,-30c0,-16 17,-30 38,-30c20,0 48,-13 62,-30c14,-16 18,-30 9,-30c-9,0 5,-22 31,-50c26,-27 54,-50 63,-50c24,0 21,75 -3,90c-12,7 -15,23 -7,34c7,13 4,16 -8,9c-11,-7 -32,1 -45,17c-14,17 -37,30 -52,30c-16,0 -28,9 -28,20c0,11 10,20 21,20c12,0 16,9 9,19c-6,11 3,48 21,82c33,65 24,219 -13,219c-10,0 -18,17 -18,39c0,21 -10,45 -23,53c-16,10 -18,-13 -8,-81c10,-70 8,-91 -9,-81c-16,10 -22,-4 -19,-43c12,-140 -24,-165 -111,-79c-26,26 -53,43 -59,37c-6,-7 -11,8 -11,33c0,25 -31,74 -72,113l-73,68l52,20c53,20 36,137 -23,156c-30,10 -52,-75 -26,-101c25,-25 29,-55 7,-52c-60,10 -59,-11 3,-77c39,-41 61,-78 49,-82c-12,-5 -27,0 -34,11c-32,45 -151,113 -158,90c-5,-13 -19,-17 -32,-9c-13,8 -45,15 -73,15c-39,0 -54,14 -69,65c-11,36 -30,65 -43,65c-14,0 -29,11 -35,25c-5,14 -11,0 -11,-30c-1,-30 7,-55 17,-55c11,0 35,-29 53,-65c21,-41 23,-56 6,-40c-37,35 -61,31 -57,-10c7,-68 -1,-107 -20,-96c-10,7 -13,44 -7,83c8,47 3,77 -13,87c-33,21 -36,277 -4,336c22,41 19,47 -26,65c-58,22 -58,20 -31,89c10,28 33,51 50,51c35,0 40,31 8,51c-12,8 -15,20 -5,27c59,43 71,81 36,116c-27,27 -38,29 -44,10c-5,-15 -31,-35 -57,-45c-31,-12 -43,-28 -35,-48c6,-17 2,-31 -9,-31c-11,0 -16,-18 -10,-40c7,-27 1,-40 -20,-40c-17,0 -37,-19 -44,-41c-8,-23 -35,-51 -62,-63c-58,-27 -63,-56 -9,-56c21,0 44,-18 51,-40c7,-22 27,-40 43,-40c20,0 27,-11 20,-30c-7,-16 -4,-30 4,-30c28,0 61,-94 49,-140c-7,-26 -1,-51 15,-61c22,-13 22,-21 0,-47c-22,-27 -21,-32 7,-32c19,0 32,-17 32,-41c0,-23 -9,-36 -20,-29c-12,7 -20,-14 -20,-52c0,-58 -42,-116 -86,-117c-23,-1 -7,99 27,169c37,73 37,114 1,157c-38,46 -56,41 -71,-20c-9,-38 -19,-47 -35,-31c-22,22 -116,-34 -202,-120c-38,-38 -74,-47 -74,-19c0,9 18,33 40,53c22,20 40,53 40,72c0,24 10,33 30,25c17,-6 30,-3 30,7c0,9 29,35 65,56c108,63 144,110 85,110c-16,0 -30,9 -30,20c0,10 -25,14 -55,9c-42,-8 -71,4 -123,50c-65,58 -77,64 -140,69c-32,3 -72,92 -40,92c11,0 15,8 9,18c-6,11 4,23 24,28c22,6 14,10 -20,12c-31,1 -74,-9 -96,-23c-35,-21 -44,-20 -61,10c-11,19 -33,35 -49,35c-16,0 -29,18 -29,39c0,49 -41,141 -63,141c-22,0 4,127 31,145c16,11 16,19 0,30c-12,8 -27,29 -33,45c-16,47 -51,-56 -48,-145c3,-88 -5,-92 -63,-25c-24,28 -55,50 -69,51c-41,1 -98,139 -63,153c16,6 27,21 25,33c-6,38 28,142 50,157c26,17 -40,96 -80,96c-15,0 -27,14 -27,30c0,17 -14,30 -31,30c-17,0 -28,-7 -23,-15c5,-8 -12,-35 -37,-59c-44,-42 -45,-42 -55,-5c-6,22 -3,34 7,28c26,-16 58,58 39,92c-29,52 -33,305 -5,314c14,5 20,17 14,27c-6,10 2,24 19,30c24,9 25,17 6,38c-13,14 -30,22 -37,18c-23,-14 -32,41 -15,88c19,50 58,43 58,-10c0,-33 55,-85 90,-85c11,0 4,9 -15,21c-43,24 -44,46 -6,84c16,16 34,53 39,81c5,29 15,61 22,73c7,11 3,20 -8,20c-23,0 -9,48 33,114c23,36 37,40 76,26c39,-15 54,-9 86,31c53,67 123,66 123,-3c0,-68 48,-53 56,19c4,29 16,53 27,53c12,0 16,-20 9,-48c-8,-33 -2,-52 20,-60c53,-20 -112,-174 -170,-158c-32,8 -53,-1 -75,-32c-16,-23 -37,-38 -46,-32c-21,12 -41,-38 -41,-103c0,-27 -9,-66 -20,-86c-14,-28 -12,-40 10,-48c21,-8 30,2 30,33c0,26 28,66 69,99c79,63 91,66 91,25c0,-16 -8,-30 -18,-30c-28,0 -42,-86 -18,-115c16,-20 16,-33 -1,-50c-25,-25 -32,-96 -8,-93c8,2 22,1 30,-2c20,-7 51,-14 70,-17c35,-6 187,-163 176,-181c-7,-11 -25,-16 -40,-10c-43,17 -57,-29 -20,-66c31,-31 35,-31 52,0c46,83 223,-43 183,-131c-22,-49 -14,-95 17,-95c10,0 17,45 14,100c-2,55 2,106 9,113c8,8 14,3 14,-10c0,-13 22,-32 48,-42c39,-15 53,-42 72,-135c14,-64 29,-129 34,-146c6,-16 13,-60 15,-96c7,-97 44,-125 71,-53c14,36 28,49 37,34c17,-27 73,-23 73,5c0,11 -7,18 -15,15c-8,-3 -16,2 -16,10c-10,107 -26,164 -59,209c-56,76 -52,80 50,65c84,-13 90,-10 90,31c0,32 9,41 32,32c17,-7 40,-12 50,-12c29,0 21,-53 -20,-124c-67,-118 -30,-336 57,-336c11,0 21,14 21,31c0,17 9,26 20,19c12,-7 16,-21 9,-31c-28,-45 -15,-199 22,-268c33,-62 35,-75 10,-91c-28,-17 43,-60 100,-60c10,0 13,-13 6,-30c-8,-20 2,-31 31,-32c40,-3 62,-7 97,-18c48,-14 139,10 169,45c44,50 47,95 6,95c-16,0 -30,-9 -30,-19c0,-23 -105,-81 -144,-80c-14,0 -4,20 24,45c131,115 164,291 56,295c-57,2 -235,199 -237,262c-1,72 -56,105 -82,49c-16,-36 -29,-45 -39,-29c-8,14 -6,42 5,63c15,28 15,35 -1,25c-48,-30 -26,181 23,216l45,31l-43,36c-23,20 -49,55 -56,79c-22,75 -71,102 -71,39c0,-71 -26,-65 -82,17c-82,119 -179,149 -139,42c36,-94 27,-255 -14,-247c-22,4 -39,32 -47,82c-15,93 -130,234 -191,234c-18,0 -22,-18 -14,-60c8,-41 4,-60 -13,-60c-34,0 -160,136 -160,172c0,17 -15,59 -33,94l-33,63l-29,-44c-40,-61 -58,-57 -82,20c-40,126 -38,186 7,179c111,-18 120,-15 115,34c-10,85 184,182 365,182c68,0 134,49 87,64c-49,17 8,56 81,56c209,0 405,129 510,336c93,184 60,281 -45,132zm-843,-375c-1,-72 -115,-164 -122,-98c0,8 -4,31 -8,50c-3,19 2,35 12,35c10,0 18,13 18,28c0,16 11,33 25,37c43,15 75,-7 75,-52zm-48,-2726l-2,-232l-26,107c-29,125 -14,358 24,358c3,0 5,-105 4,-233zm1073,109c-4,-19 7,-31 27,-29c19,2 38,-8 42,-21c6,-16 -16,-23 -69,-21c-66,3 -77,10 -73,44c3,23 5,48 6,57c1,10 18,14 37,10c19,-4 33,-22 30,-40zm-2261,-133c-19,-12 -20,-30 -5,-70c24,-65 -177,-188 -245,-150c-71,40 116,235 226,236c33,0 41,-5 24,-16zm-155,-369c-5,-13 -31,-24 -57,-24c-53,0 -49,43 5,55c44,10 63,-1 52,-31zm-101,-216c37,-63 24,-97 -39,-98c-20,0 -109,73 -109,89c0,88 98,94 148,9z"/>
   <path id="svg_6" d="m504,4865c-11,-41 -21,-60 -22,-41c-1,21 -13,30 -29,24c-19,-7 -25,-40 -19,-114c7,-103 7,-103 -21,-44c-30,64 -72,27 -46,-40c7,-17 -6,-49 -29,-72l-41,-41l45,-38c24,-22 58,-39 76,-40c26,0 25,-5 -7,-30c-23,-17 -28,-29 -12,-29c16,0 22,-15 15,-40c-6,-22 -2,-40 9,-40c11,0 14,-9 7,-20c-7,-11 6,-20 29,-20c22,0 41,-9 41,-20c0,-11 18,-20 40,-20c22,0 40,11 40,25c1,19 5,18 18,-2c13,-21 19,-20 29,7c19,50 16,56 -21,41c-31,-12 -32,-10 -1,24c32,35 29,125 -5,125c-9,0 -21,40 -29,88c-11,77 -18,87 -57,78c-28,-6 -35,-3 -20,8c13,9 26,59 29,111c2,52 10,95 16,95c19,0 20,78 2,90c-10,5 -26,-24 -37,-65z"/>
   <path id="svg_7" d="m4320,4601c0,-32 -11,-65 -24,-73c-72,-45 -644,27 -751,94c-56,34 -77,11 -53,-57c43,-124 375,-311 615,-347c84,-13 153,-32 153,-43c0,-11 22,-14 52,-6c51,12 52,11 38,-68c-15,-91 -13,-92 116,-53c104,31 148,8 125,-64c-12,-39 123,-82 168,-55c21,13 154,-41 171,-69c30,-49 -12,-105 -72,-93c-47,10 -58,5 -58,-24c0,-58 -172,-208 -220,-193c-26,8 -40,30 -40,61c0,55 -42,65 -80,19c-92,-110 -199,-101 -200,16l0,57l-55,-40c-30,-21 -86,-89 -125,-150c-38,-61 -81,-112 -95,-112c-18,-1 -19,-12 -2,-50c13,-28 30,-45 38,-40c19,11 79,-103 79,-148c0,-54 64,-203 82,-191c10,5 16,40 13,77c-3,37 -11,64 -18,59c-22,-13 -38,53 -25,104c7,28 1,62 -15,82c-17,21 -18,28 -3,19c15,-9 38,6 58,37c24,37 50,50 96,49c57,-1 86,3 202,27c22,5 56,1 75,-9c22,-12 35,-11 35,2c0,12 25,21 55,22c65,0 122,44 175,134c21,36 51,65 65,65c15,0 48,23 73,50c26,28 57,50 70,50c13,0 32,-22 42,-50c20,-54 29,-56 90,-30c33,14 34,17 6,19c-60,2 -161,118 -151,172c5,26 2,44 -6,38c-36,-22 -75,19 -87,92c-10,64 -21,79 -57,81c-25,0 -34,6 -20,11c44,18 27,42 -35,51c-33,5 -60,2 -60,-7c0,-10 -19,-17 -42,-17c-30,0 -39,9 -30,31c6,17 -1,35 -18,42c-16,6 -35,41 -42,79c-14,74 -48,74 -48,-1c0,-52 -41,-77 -95,-57c-43,16 -126,78 -131,99c-2,8 -20,16 -40,18c-55,4 -87,44 -58,73c19,19 29,19 48,0c38,-38 96,-29 96,14c0,21 -11,43 -25,49c-23,9 33,21 70,15c9,-1 88,-7 177,-13c88,-6 176,-18 194,-28c19,-9 72,-33 119,-52c47,-19 85,-43 85,-53c0,-10 9,-13 20,-6c11,7 20,1 20,-14c0,-16 6,-18 15,-6c21,28 125,38 125,11c0,-11 24,-21 53,-21c59,0 110,-50 149,-146c31,-75 73,-122 126,-141c21,-8 32,-20 25,-26c-7,-7 2,-23 19,-36c28,-20 27,-29 -5,-86c-35,-60 -35,-66 -3,-98c32,-32 35,-32 45,-1c36,111 32,107 52,72c12,-22 7,-60 -16,-115c-33,-78 -65,-108 -65,-62c0,12 -14,7 -32,-10c-26,-26 -38,-28 -65,-8c-28,21 -29,21 -8,-3c14,-15 25,-44 25,-64c0,-45 18,-46 52,-1c25,33 27,33 27,0c1,-19 -32,-71 -71,-115c-58,-64 -68,-86 -49,-108c15,-19 16,-33 3,-41c-11,-7 -39,24 -61,67c-53,105 -52,132 3,94c45,-32 97,-13 95,35c0,13 -15,5 -32,-17c-27,-34 -30,-34 -20,-4c8,24 1,39 -22,46c-19,6 -51,19 -70,30c-29,15 -40,8 -55,-33c-26,-67 -25,-69 10,-69c22,0 29,-21 27,-78c-3,-71 -55,-206 -56,-146c-1,19 -11,20 -41,4c-34,-18 -40,-15 -40,19c0,28 13,41 40,41c27,0 40,13 40,41c0,34 -11,40 -55,35c-62,-7 -72,-192 -13,-251c37,-36 36,-65 -2,-65c-16,0 -31,-11 -33,-25c-1,-14 -4,-45 -7,-70c-2,-24 -15,-57 -27,-71c-12,-15 -17,-34 -9,-41c7,-7 -2,-13 -20,-13c-52,0 -82,75 -45,112c40,40 40,76 -1,60c-17,-7 -39,-12 -47,-12c-27,0 -44,-99 -24,-134c20,-35 -9,-126 -40,-126c-9,0 -17,-13 -17,-30c0,-16 9,-30 20,-30c11,0 20,12 20,27c0,14 25,38 55,52c30,14 71,34 90,43c60,31 113,23 70,-10c-19,-14 -35,-37 -35,-49c0,-13 -13,-23 -29,-23c-59,0 -56,-77 6,-143c50,-53 65,-60 90,-40c33,28 41,19 62,-66c11,-46 18,-52 32,-30c13,20 18,21 19,4c0,-14 18,-25 40,-25c26,0 44,-18 53,-55c17,-66 53,-105 98,-105c46,0 -1,-59 -48,-62c-21,-1 -24,-5 -8,-11c14,-6 25,-21 25,-34c0,-13 26,-47 57,-74c168,-147 221,-607 111,-947c-48,-145 -119,-261 -79,-127c60,200 74,401 41,599c-5,31 2,57 16,62c17,7 14,20 -11,46c-24,25 -35,28 -35,10c0,-39 -96,-145 -110,-122c-7,11 -7,20 0,20c7,0 -2,15 -20,33c-41,41 -90,6 -53,-39c12,-15 16,-35 8,-44c-8,-9 -5,-11 8,-3c13,7 28,-2 35,-19c9,-23 4,-29 -16,-22c-23,9 -27,-15 -23,-132c4,-79 2,-133 -3,-119c-22,60 -39,18 -24,-60c22,-116 22,-182 -1,-125c-12,31 -21,15 -42,-77c-14,-64 -38,-122 -53,-127c-29,-12 -36,-66 -8,-66c10,0 23,11 29,25c5,14 11,4 11,-21c3,-66 66,-312 84,-324c8,-6 19,-46 23,-90c7,-71 9,-68 12,26c2,62 11,101 22,95c11,-7 18,-37 17,-67c-1,-30 5,-95 13,-145c12,-73 9,-99 -18,-125c-30,-30 -30,-34 -2,-34c17,0 31,11 31,24c0,13 13,6 29,-15c29,-41 28,261 -1,361c-9,29 -6,34 10,19c31,-30 62,-230 59,-385c-2,-133 13,-173 44,-123c16,24 22,24 36,2c10,-15 42,-23 75,-20c99,12 91,163 -24,487c-51,143 -93,283 -93,310c0,68 106,342 127,329c10,-6 12,5 5,25c-8,20 -6,29 3,21c16,-15 74,129 107,267c19,81 -5,454 -39,603c-53,231 -356,581 -569,658c-82,30 -88,52 -17,69c38,10 64,40 93,106c23,50 96,164 163,252c192,251 206,276 229,414c38,216 12,496 -42,463c-13,-8 -15,-3 -6,11c9,15 -19,54 -74,102c-53,46 -107,120 -133,179c-24,56 -52,101 -63,101c-11,0 -30,23 -43,50c-23,52 -76,69 -76,25c-1,-63 -36,-85 -77,-47c-27,23 -55,31 -83,22c-31,-10 -77,7 -160,58c-111,69 -124,72 -300,72c-153,0 -192,7 -235,40c-79,62 -145,54 -145,-19zm1415,-885c3,-47 -72,-196 -99,-196c-29,0 -17,39 24,80c22,22 40,67 40,100c0,69 30,82 35,16zm-47,-233c18,-28 -11,-103 -40,-103c-28,0 -39,82 -15,107c19,18 43,16 55,-4zm-178,-323c-32,-33 -71,-60 -87,-60c-17,0 5,30 49,68c93,81 118,76 38,-8zm106,-1695c3,-67 -3,-152 -13,-189c-17,-57 -20,-44 -21,89c-1,85 -10,155 -21,155c-10,0 -17,17 -16,38c8,100 65,25 71,-93zm-56,-173c0,-81 -24,-50 -33,42c-6,56 -2,68 12,46c11,-16 21,-56 21,-88zm21,-157c-21,-87 -84,-215 -107,-215c-10,0 -14,11 -8,25c23,59 71,188 81,220c21,63 49,37 34,-30zm-61,-398c0,-41 -8,-53 -30,-44c-23,8 -30,-4 -30,-51c0,-66 32,-85 45,-27c8,33 10,32 25,-2c10,-24 6,-43 -11,-54c-40,-24 -79,17 -79,83c0,32 -9,58 -20,58c-11,0 -20,21 -20,47c0,38 10,46 60,46c52,0 60,-7 60,-56z"/>
   <path id="svg_8" d="m5,3610c1,-475 5,-575 18,-430c16,186 21,500 9,600c-8,62 6,103 30,89c10,-6 18,-2 18,10c0,11 -14,21 -31,21c-23,0 -26,9 -11,36c12,22 12,47 1,65c-11,16 -14,52 -8,80c6,28 2,73 -9,100c-13,33 -19,-150 -17,-571z"/>
   <path id="svg_9" d="m2588,3994c-81,-110 -115,-218 -99,-310c39,-223 38,-251 -7,-239c-45,12 -63,-50 -22,-75c12,-7 15,-23 9,-36c-7,-13 5,-2 27,24c29,36 41,41 49,20c7,-21 24,-14 68,27c33,30 70,55 83,55c13,0 24,10 24,23c0,13 6,18 13,10c8,-7 35,1 60,17c50,33 64,15 22,-27c-19,-19 -11,-19 40,-2c66,23 88,59 36,59c-15,0 -40,11 -55,25c-15,14 -45,35 -67,46c-99,55 -122,180 -75,412c17,85 -32,72 -106,-29z"/>
   <path id="svg_10" d="m3393,4040c-6,-16 -9,-48 -8,-70c6,-104 -7,-191 -25,-180c-17,11 -30,-45 -22,-95c1,-8 -56,-15 -127,-15c-143,0 -211,55 -211,169c0,31 -9,48 -20,41c-36,-22 -82,-158 -71,-205c8,-32 3,-45 -19,-45c-16,0 -30,-8 -30,-18c0,-10 20,-15 45,-12c244,37 262,37 249,3c-10,-25 -1,-33 37,-33c27,0 49,9 49,20c0,41 134,21 186,-28c29,-27 89,-54 138,-61c208,-32 201,-28 187,-105c-15,-78 -71,-209 -99,-229c-9,-7 -10,-24 -1,-38c15,-26 12,-25 -86,15c-47,19 -30,-126 18,-158c48,-32 34,-80 -54,-176c-37,-41 -87,-265 -51,-229c4,5 18,-6 31,-23c15,-21 64,-33 152,-38c71,-4 134,-8 140,-9c6,0 22,-33 36,-71c41,-112 82,-86 66,43c-6,54 -15,66 -42,57c-47,-15 -88,39 -90,117c-1,84 -52,83 -91,-2c-17,-37 -45,-64 -66,-65c-27,0 -31,8 -17,35c9,19 13,48 8,63c-6,15 -1,22 10,15c25,-16 45,31 45,105c0,158 92,334 162,311c21,-6 38,-2 38,10c0,11 -9,21 -20,21c-11,0 -20,14 -20,30c0,36 42,39 79,5c22,-20 25,-19 15,9c-6,18 -2,37 9,40c53,18 28,224 -43,366c-92,182 -120,189 -120,32c0,-68 -9,-122 -20,-122c-11,0 -20,11 -20,25c-1,65 -38,86 -70,40c-51,-72 -110,-21 -110,96c0,167 -116,451 -147,359z"/>
   <path id="svg_11" d="m1112,3976c-62,-71 -115,-320 -74,-345c15,-9 22,14 22,68c0,44 9,81 20,81c11,0 20,-15 20,-32c0,-25 6,-28 27,-11c27,23 31,91 7,116c-24,23 -15,47 16,47c17,0 31,-16 31,-35c2,-30 4,-29 19,5c12,27 18,30 19,10c1,-19 7,-22 16,-9c8,12 31,28 50,35c19,7 35,22 35,33c0,22 -70,18 -93,-5c-32,-32 -61,-12 -52,36c12,62 -14,64 -63,6z"/>
   <path id="svg_12" d="m3937,3839c26,-22 36,-39 21,-39c-19,0 -20,-6 -4,-22c15,-15 40,-12 86,12c80,41 59,68 -61,79l-89,9l47,-39z"/>
   <path id="svg_13" d="m6430,3385c20,-51 23,-165 5,-165c-9,0 -8,-16 1,-35c10,-19 16,-80 14,-135c-10,-240 -10,-241 -30,-210c-11,17 -20,20 -20,8c0,-30 -87,-23 -133,10c-20,15 -4,-4 37,-43c41,-38 68,-76 61,-83c-8,-8 -1,-22 14,-31c15,-10 30,-38 33,-64c2,-26 6,-47 8,-47c2,0 5,-27 8,-61c3,-33 13,-74 23,-90c21,-34 31,-240 13,-269c-21,-33 -22,-234 -2,-287c13,-32 12,-57 -1,-70c-12,-12 -21,-56 -21,-98c0,-47 -8,-72 -20,-65c-11,7 -20,-2 -20,-19c0,-20 18,-31 49,-31l50,0l1,910l0,910l-42,0c-32,0 -39,-8 -28,-35z"/>
   <path id="svg_14" d="m3045,3324c-28,-58 -21,-74 25,-57c18,7 26,23 19,35c-8,12 -3,29 10,37c19,12 18,18 -3,26c-16,6 -37,-11 -51,-41z"/>
   <path id="svg_15" d="m4950,3300c-7,-11 -2,-20 11,-20c15,0 20,-20 13,-55c-13,-67 33,-185 73,-185c42,0 56,54 22,88c-33,33 -39,61 -9,42c11,-7 20,-3 20,9c0,11 -9,21 -20,21c-11,0 -21,20 -22,45c-2,43 -3,43 -18,-5l-16,-50l-2,54c-2,58 -31,89 -52,56z"/>
   <path id="svg_16" d="m3953,3087c-7,-8 -13,-30 -13,-50c0,-37 -92,-112 -112,-91c-6,6 -2,28 10,50c16,31 14,46 -12,67c-29,24 -31,21 -22,-28c9,-47 5,-54 -25,-45c-24,8 -44,-2 -58,-29c-15,-27 -16,-41 -2,-41c12,0 21,-13 21,-30c0,-16 -10,-30 -21,-30c-12,0 -16,-9 -9,-20c7,-11 33,-20 59,-20c26,0 52,-13 58,-30c19,-48 92,-39 79,10c-10,39 -25,47 -86,43c-18,-1 -21,2 -6,9c13,6 19,22 14,36c-6,16 20,34 71,49c57,18 81,36 81,62c0,21 5,52 12,69c12,32 -13,44 -39,19z"/>
   <path id="svg_17" d="m5898,3042c16,-11 22,-32 15,-52c-10,-26 -6,-31 20,-22c19,8 41,2 50,-12c11,-17 16,-5 16,34c0,40 -5,51 -17,33c-13,-21 -19,-20 -29,5c-6,18 -28,32 -47,32c-29,-1 -30,-4 -8,-18z"/>
   <path id="svg_18" d="m1920,2993c0,-180 35,-262 87,-208c23,23 25,41 16,148c-5,67 -103,124 -103,60z"/>
   <path id="svg_19" d="m2884,2926c1,-85 15,-146 34,-146c26,0 15,186 -11,194c-14,5 -23,-15 -23,-48z"/>
   <path id="svg_20" d="m4320,2879c0,-45 -9,-99 -21,-120c-16,-31 -14,-39 10,-39c24,0 31,25 31,120c0,66 -4,120 -10,120c-5,0 -10,-37 -10,-81z"/>
   <path id="svg_21" d="m4021,2830c1,-126 -16,-263 -38,-304c-17,-33 -16,-47 7,-66c17,-14 30,-37 30,-52c0,-16 8,-28 19,-28c32,0 47,42 23,66c-26,26 -30,297 -5,325c9,11 5,41 -10,69l-27,50l1,-60z"/>
   <path id="svg_22" d="m4785,2776c-1,-22 -19,-52 -38,-66c-30,-22 -32,-33 -11,-78c22,-49 19,-55 -27,-73c-65,-24 -74,-24 -59,1c7,11 0,20 -16,20c-17,0 -28,-18 -26,-45c1,-31 -9,-44 -33,-42c-19,1 -30,-4 -25,-13c5,-9 -4,-27 -20,-40c-16,-13 -24,-33 -18,-43c6,-10 -3,-41 -20,-67c-18,-27 -31,-69 -30,-94c2,-38 5,-36 18,14c8,33 16,45 18,27c1,-19 7,-47 14,-64c11,-30 -21,-35 -63,-9c-13,9 -22,-12 -23,-55c-1,-49 7,-69 28,-69c24,0 26,-6 8,-28c-13,-15 -21,-35 -18,-45c3,-9 -3,-20 -14,-23c-11,-4 -25,14 -31,40c-6,25 -30,55 -54,65c-24,11 -47,42 -51,70c-6,41 -9,38 -13,-19c-5,-62 -8,-58 -25,40c-27,154 -22,442 8,490c7,11 0,43 -15,70c-27,49 -28,49 -28,6c-1,-24 -14,-51 -30,-60c-42,-24 -73,-680 -41,-881c10,-59 7,-85 -9,-85c-13,0 -42,-45 -65,-100c-23,-55 -51,-100 -64,-100c-12,0 -49,-43 -82,-95c-134,-213 -162,-280 -90,-215c30,28 45,30 67,12c33,-27 53,7 54,95c0,58 40,123 76,123c13,0 23,14 23,31c0,18 14,45 30,62c27,27 30,23 30,-32c0,-74 18,-76 68,-8c37,51 37,51 -7,37c-36,-11 -43,-7 -38,23c4,20 28,40 52,43c40,6 45,18 45,110c1,75 6,96 20,74c16,-24 19,-21 20,15c0,25 -9,45 -20,45c-11,0 -20,17 -20,39c0,21 -8,44 -18,50c-31,19 -18,154 14,142c15,-6 40,-11 56,-11c18,0 28,-22 28,-66c0,-36 10,-76 23,-89c47,-47 46,-343 -2,-408c-39,-52 -41,-97 -5,-97c18,0 84,161 92,223c14,115 39,219 55,229c22,14 22,-84 0,-128c-10,-19 -23,-74 -31,-124c-12,-83 -11,-86 14,-40c71,134 93,386 42,484c-39,76 -36,83 32,69c67,-13 73,-1 31,59c-58,83 -49,232 14,227c123,-10 184,24 125,70c-35,26 -36,33 -10,50c39,26 114,27 130,1c15,-24 190,-27 190,-4c0,28 -112,125 -126,111c-8,-8 -14,-3 -14,10c0,13 -13,23 -29,23c-17,0 -25,-12 -19,-28c17,-45 -32,-60 -62,-19c-29,41 -7,87 42,87c16,0 28,21 28,48c0,59 -51,84 -55,28z"/>
   <path id="svg_23" d="m2,2703c5,-92 38,-176 38,-94c0,17 14,31 30,31c23,0 27,-13 18,-50c-10,-41 -5,-50 27,-50c51,0 79,-34 90,-110c5,-35 10,-11 12,56c2,77 10,112 24,103c12,-7 17,-18 11,-24c-7,-6 0,-25 13,-42c20,-24 20,-28 0,-16c-14,9 -25,6 -25,-6c0,-11 9,-21 20,-21c28,0 25,-107 -4,-136c-17,-17 -17,-24 -1,-24c12,0 28,18 35,40c7,22 26,40 41,40c26,0 38,24 31,65c-5,34 43,12 52,-24c10,-39 11,-39 46,4c33,41 33,47 3,88c-29,38 -63,52 -199,79c-14,2 -48,19 -75,37c-36,24 -49,25 -49,6c-1,-17 -7,-16 -20,5c-11,17 -20,23 -20,14c0,-8 -13,-4 -28,10c-15,14 -19,31 -9,37c10,7 -1,29 -24,50l-41,37l4,-105z"/>
   <path id="svg_24" d="m2992,2768c-32,-82 -12,-230 37,-279c27,-27 40,-49 29,-49c-11,0 -15,-9 -7,-21c7,-11 29,-15 49,-9c26,8 41,-1 51,-32l14,-45l35,47c27,36 38,40 45,19c5,-16 5,-3 0,28c-8,50 -4,55 31,44c48,-15 81,26 42,51c-16,10 -48,18 -72,18c-47,0 -117,101 -90,131c8,8 -1,10 -19,4c-38,-14 -97,42 -97,92c0,42 -32,43 -48,1z"/>
   <path id="svg_25" d="m2493,2567c-24,-25 -13,-97 24,-153c35,-52 40,-54 70,-24c42,42 41,54 -7,110c-22,25 -40,54 -40,63c0,20 -28,22 -47,4z"/>
   <path id="svg_26" d="m2871,2481c-18,-28 29,-155 72,-193l43,-38l-14,58c-8,34 -6,63 6,71c13,7 -4,35 -38,65c-33,29 -64,46 -69,37z"/>
   <path id="svg_27" d="m3726,2405c-14,-30 -21,-98 -18,-150c4,-53 -2,-101 -14,-108c-11,-8 -14,-3 -6,10c9,14 1,23 -19,23c-22,0 -29,-11 -21,-31c6,-17 4,-26 -6,-20c-10,6 -46,-21 -79,-59c-62,-70 -158,-107 -101,-38c23,28 21,31 -15,25c-22,-4 -56,5 -74,20c-29,24 -33,23 -33,-10c-1,-31 -4,-32 -20,-7c-32,50 -23,92 28,119c63,33 148,213 116,245c-17,17 -27,10 -41,-27c-26,-68 -83,-115 -83,-68c0,18 -9,28 -20,21c-11,-7 -20,-30 -20,-51c0,-49 -33,-51 -47,-4c-6,19 -6,-32 0,-115c8,-111 21,-161 51,-193c41,-45 25,-167 -26,-198c-36,-22 3,-50 42,-29c129,69 173,-12 65,-120c-104,-103 -161,-104 -283,-5c-50,41 -97,73 -104,71c-6,-2 -8,18 -3,45c5,27 23,49 39,49c15,0 24,8 18,17c-6,9 -31,15 -56,13c-78,-7 -62,-150 25,-223c37,-32 94,-86 126,-122c61,-66 142,-91 121,-36c-19,48 12,78 41,40c23,-32 27,-32 68,3c25,21 55,38 68,38c12,0 25,23 28,50c23,215 31,240 79,240c82,0 201,60 225,112c29,63 29,89 1,83c-13,-3 -27,6 -32,20c-14,38 36,30 66,-10c26,-33 28,-32 40,10c7,25 28,45 47,45c50,0 64,-22 37,-55c-20,-23 -17,-35 11,-55c38,-28 34,-133 -8,-212c-24,-46 -17,-45 -106,-8c-81,34 -113,6 -113,-98c0,-50 -106,-152 -158,-152c-13,0 -18,-10 -10,-23c8,-14 5,-18 -7,-10c-11,7 -78,-9 -148,-35c-134,-50 -309,-48 -361,4c-13,13 -40,24 -59,24c-19,0 -68,32 -108,70c-79,75 -99,83 -120,49c-7,-12 -26,-17 -41,-11c-46,17 -88,-9 -88,-55c1,-36 4,-38 22,-13c16,24 18,21 9,-12c-7,-24 -1,-69 12,-100c23,-56 24,-56 32,-12c11,61 50,46 75,-28c11,-32 31,-70 45,-84c14,-15 25,-39 25,-53c0,-33 156,-178 238,-220c63,-33 82,-81 37,-97c-14,-5 -18,-16 -10,-24c8,-9 26,-6 40,6c14,11 61,24 105,28c76,6 120,62 55,69c-14,1 -33,3 -43,5c-22,2 20,122 42,122c16,0 20,-16 24,-88c2,-40 52,-72 52,-34c0,12 10,22 23,22c59,0 153,101 175,189c13,55 34,91 51,91c18,0 33,32 42,90c7,50 22,91 31,93c10,1 27,4 38,7c11,3 29,6 40,8c11,1 20,23 20,50c0,49 41,98 76,88c59,-17 198,281 146,313c-10,6 -16,27 -13,46c3,19 -3,40 -12,46c-10,7 -5,44 12,83c35,84 27,96 -62,96c-47,0 -67,9 -67,31c0,17 -8,26 -18,20c-50,-31 -76,12 -66,110c11,114 -29,139 -70,44zm-46,-415c0,-57 -75,-104 -131,-82c-27,10 -29,18 -8,43c13,16 29,25 35,20c6,-6 23,7 38,29c38,55 66,50 66,-10zm-825,-542c24,-24 27,-41 11,-65c-11,-18 -17,-55 -13,-83l6,-50l-29,50c-35,61 -38,87 -7,68c16,-10 19,-4 10,19c-7,18 -18,47 -25,63c-16,39 7,38 47,-2zm774,-33c-19,-62 -24,-64 -59,-35c-23,19 -25,32 -8,53c38,46 83,34 67,-18zm-120,-82c-7,-29 -21,-53 -30,-53c-30,0 -43,81 -18,112c35,42 64,5 48,-59zm-500,29c6,-10 5,-34 -2,-53c-14,-35 -67,9 -67,55c0,22 55,20 69,-2zm407,-20c5,-15 1,-22 -9,-16c-10,6 -31,-16 -46,-50l-27,-61l-34,45c-30,40 -35,41 -47,11c-15,-40 -53,-23 -53,24c0,17 5,26 12,20c17,-17 128,25 128,48c0,30 65,11 76,-21zm-262,2c26,-17 13,-104 -16,-104c-25,0 -62,78 -48,100c15,24 32,25 64,4zm397,-136c-8,-42 -23,-67 -37,-63c-29,10 -45,95 -18,95c11,0 25,20 33,45c20,67 38,6 22,-77zm-624,-13c19,-70 15,-82 -17,-55c-32,27 -41,100 -12,100c9,0 23,-20 29,-45zm139,-37c14,-54 -3,-98 -38,-98c-15,0 -28,4 -28,8c0,5 -5,25 -12,45c-10,31 -8,32 10,7c17,-24 21,-20 22,25c0,65 31,73 46,13zm337,7c2,-19 3,-47 2,-62c-2,-38 29,-1 40,47c8,38 9,39 25,2c31,-72 -61,-141 -110,-82c-24,29 -6,130 22,130c10,0 19,-16 21,-35zm-155,-38c8,-19 -2,-43 -23,-59c-25,-19 -27,-27 -8,-27c23,-1 23,-6 2,-33c-39,-46 -66,34 -35,102c26,58 47,63 64,17zm-89,-112c1,-8 -17,-15 -39,-15c-44,0 -46,6 -27,77l13,48l26,-48c15,-26 27,-54 27,-62z"/>
   <path id="svg_28" d="m4751,2369c-34,-25 -34,-29 -5,-29c23,0 34,-16 34,-49c0,-27 9,-54 20,-61c12,-7 19,-2 15,10c-3,13 15,32 40,41c34,14 45,11 45,-12c0,-16 14,-29 30,-29c17,0 30,14 30,30c0,35 36,32 77,-6c15,-14 33,-21 39,-14c19,18 -123,139 -156,134c-16,-3 -50,-16 -75,-28c-51,-26 -90,-4 -44,25c16,10 20,18 9,18c-11,0 -37,-13 -59,-30z"/>
   <path id="svg_29" d="m3569,2325c-7,-30 -16,-67 -20,-81c-12,-37 50,-54 81,-22c33,35 16,158 -22,158c-15,0 -33,-25 -39,-55z"/>
   <path id="svg_30" d="m1451,2249c-17,-18 -31,-44 -31,-59c0,-15 -6,-42 -13,-62c-10,-23 -6,-30 10,-20c14,9 23,2 23,-17c0,-17 8,-31 18,-31c10,0 33,-6 51,-12c18,-7 31,-5 28,5c-2,9 8,41 22,71c46,94 -40,193 -108,125z"/>
   <path id="svg_31" d="m5300,2199c0,-12 -7,-17 -15,-12c-57,35 -87,-46 -37,-100c29,-31 52,-72 52,-91c0,-18 9,-39 20,-46c11,-7 20,-34 20,-60c0,-25 7,-50 15,-53c9,-4 45,-51 80,-105c48,-74 65,-88 65,-57c0,24 -9,48 -20,55c-11,7 -20,41 -20,77c0,35 -13,83 -30,107c-16,23 -25,55 -20,70c6,15 -12,74 -40,131c-49,102 -70,127 -70,84z"/>
   <path id="svg_32" d="m1012,2008c-7,-17 -8,-39 -2,-48c15,-25 150,23 150,53c0,40 -133,35 -148,-5z"/>
   <path id="svg_33" d="m1180,1966c0,-156 -114,-260 -192,-176c-37,40 -48,44 -68,20c-24,-29 4,-110 38,-110c9,0 14,-22 11,-49c-4,-34 7,-53 33,-62c21,-6 38,-20 38,-30c0,-11 13,-19 30,-19c16,0 41,-18 55,-40c18,-30 46,-40 109,-40c95,0 106,10 85,80c-8,28 -16,38 -17,24c-1,-15 -11,-21 -22,-14c-11,7 -20,-2 -20,-19c0,-37 2,-37 -77,-9c-83,29 -81,73 2,60c8,-1 15,16 15,38c0,22 8,40 18,40c10,0 18,47 19,105c1,58 3,119 5,135c9,63 -3,100 -32,100c-16,0 -30,-15 -30,-34z"/>
   <path id="svg_34" d="m5085,1971c-19,-22 -18,-39 3,-80l27,-52l12,45c28,104 9,144 -42,87z"/>
   <path id="svg_35" d="m1380,1903c0,-23 -9,-46 -20,-53c-52,-32 -21,-93 45,-86c85,8 103,161 20,172c-34,5 -45,-3 -45,-33z"/>
   <path id="svg_36" d="m4634,1885c-5,-8 -14,-42 -20,-75c-7,-33 -8,-49 -2,-35c6,14 24,25 40,25c23,0 25,9 9,37c-11,21 -14,43 -7,50c7,7 7,13 1,13c-7,0 -16,-7 -21,-15z"/>
   <path id="svg_37" d="m1975,1798c-43,-25 -49,-138 -6,-138c15,0 33,-16 39,-35c6,-19 8,-6 5,30c-4,44 3,65 20,65c15,0 27,10 27,22c0,12 -14,17 -30,11c-25,-10 -27,-5 -10,27c23,44 9,50 -45,18z"/>
   <path id="svg_38" d="m3549,1732c-11,-27 -2,-47 33,-74c64,-49 74,-47 63,12c-5,28 -21,50 -36,50c-14,0 -30,11 -35,25c-6,16 -15,12 -25,-13z"/>
   <path id="svg_39" d="m5174,1747c-6,-10 -4,-31 6,-46c9,-15 12,-57 6,-92c-6,-35 -1,-81 11,-102c18,-31 22,-23 22,46c1,46 6,96 11,111c13,33 -39,110 -56,83z"/>
   <path id="svg_40" d="m1502,1654c-12,-12 -22,-30 -22,-40c0,-10 -20,-33 -43,-53c-66,-53 -36,-101 61,-101c119,0 142,15 142,93c0,40 -8,64 -19,57c-11,-6 -37,6 -58,27c-28,28 -45,33 -61,17z"/>
   <path id="svg_41" d="m544,1590c24,-54 56,-62 117,-30c62,33 25,80 -63,80c-75,0 -77,-1 -54,-50z"/>
   <path id="svg_42" d="m2033,1530c-7,-16 -29,-30 -50,-30c-54,0 -71,-58 -30,-103c41,-45 137,-52 120,-8c-6,17 -2,35 8,42c11,6 14,21 8,31c-8,13 -23,11 -41,-3c-17,-15 -28,-16 -28,-4c0,12 14,26 30,32c17,7 30,26 30,42c0,40 -32,40 -47,1z"/>
   <path id="svg_43" d="m4663,1525c-32,-62 -48,-165 -25,-165c12,0 22,18 22,40c0,22 11,40 25,40c27,0 77,91 59,109c-22,22 -63,10 -81,-24z"/>
   <path id="svg_44" d="m523,1392l-107,-106l64,-73c35,-40 57,-73 47,-73c-9,0 9,-24 40,-53c34,-31 62,-44 70,-32c7,11 30,24 51,28c49,9 67,57 22,57c-18,0 -30,11 -25,25c9,26 27,29 162,33l78,2l-12,105c-7,58 -12,107 -13,110c0,3 -15,5 -34,5c-48,0 -166,45 -166,64c0,44 -82,2 -177,-92zm177,-24c0,-15 -10,-28 -22,-28c-12,0 -18,-12 -12,-27c7,-19 -3,-24 -38,-18c-59,12 -64,45 -6,45c32,0 40,9 33,39c-7,27 -2,35 17,27c16,-5 28,-23 28,-38z"/>
   <path id="svg_45" d="m4817,1420c4,-44 14,-75 23,-70c9,5 21,-4 28,-21c6,-18 3,-26 -8,-19c-11,7 -20,3 -20,-9c0,-11 9,-21 20,-21c11,0 20,-10 20,-21c0,-12 -8,-17 -17,-11c-9,6 -27,-11 -40,-39c-17,-38 -16,-49 2,-49c16,-1 14,-8 -5,-20c-27,-17 -27,-19 0,-20c27,-1 27,-3 0,-20c-26,-17 -25,-19 5,-20c33,0 33,-2 0,-39c-19,-21 -44,-50 -56,-65c-30,-38 -89,-168 -89,-196c0,-13 -17,-48 -37,-77c-21,-29 -44,-74 -52,-99c-11,-34 -21,-41 -39,-25c-19,15 -43,-1 -94,-59c-37,-43 -82,-79 -100,-80c-23,0 -29,-15 -22,-60c5,-36 0,-60 -14,-60c-12,0 -22,14 -22,30c0,46 -32,36 -85,-28c-27,-32 -85,-76 -128,-99c-44,-22 -91,-54 -106,-72c-46,-55 -98,-38 -105,34c-8,80 -57,94 -114,32c-49,-52 -78,-35 -94,53c-8,46 3,66 61,114c59,49 71,72 71,136c0,76 26,119 49,82c6,-11 3,-25 -7,-31c-19,-11 -23,-91 -5,-91c5,0 19,14 31,30c12,17 51,33 87,35c65,5 102,51 75,95c-7,11 2,14 22,7c23,-9 31,-5 24,15c-12,33 -77,27 -106,-10c-34,-43 -78,-48 -135,-15c-67,38 -188,-65 -164,-139c6,-21 2,-38 -10,-38c-11,0 -21,9 -21,20c0,11 -13,20 -28,20c-15,0 -33,14 -39,30c-7,17 -30,30 -52,30c-49,0 -49,3 -10,-90c17,-41 27,-88 20,-103c-6,-16 3,-61 19,-101c17,-39 32,-115 34,-169l5,-97l70,2c43,2 55,7 31,12c-22,6 -49,19 -60,29c-13,13 1,15 40,5c33,-8 67,-24 75,-36c10,-16 14,-16 15,0c0,12 38,31 85,44c152,39 384,127 438,166c29,21 56,38 60,38c5,0 232,210 362,335c55,52 135,177 138,213c6,76 -6,141 -27,154c-14,9 -14,25 1,51c12,20 22,26 22,12c2,-60 34,-18 39,50c8,105 14,147 31,211c12,43 4,73 -37,135c-65,97 -65,97 -55,-1z"/>
   <path id="svg_46" d="m3726,1366c-3,-100 6,-103 33,-10c12,42 10,68 -6,81c-17,15 -24,-4 -27,-71z"/>
   <path id="svg_47" d="m984,1335c4,-25 18,-43 31,-40c14,3 25,-9 25,-26c0,-17 -8,-26 -18,-20c-49,30 -43,-132 7,-191c28,-34 51,-70 51,-80c0,-11 15,-17 34,-14c24,4 39,-12 48,-54c8,-37 14,13 16,127c2,173 -2,192 -53,264c-64,91 -153,112 -141,34z"/>
   <path id="svg_48" d="m1575,1341c-14,-53 75,-139 109,-105c13,13 15,24 5,24c-10,0 -7,8 8,18c22,14 22,24 0,59c-34,54 -109,57 -122,4z"/>
   <path id="svg_49" d="m5120,1339c0,-12 -7,-17 -17,-11c-9,6 -16,-2 -16,-18c0,-16 7,-24 15,-19c8,5 19,-15 24,-46c6,-39 9,-30 11,30c2,47 -1,85 -7,85c-5,0 -10,-10 -10,-21z"/>
   <path id="svg_50" d="m1375,1327c14,-6 25,-21 26,-34c1,-38 68,-107 120,-123c62,-19 119,-68 119,-103c0,-15 10,-27 22,-27c14,0 19,-21 12,-54c-16,-87 2,-110 58,-73c26,17 43,39 37,48c-5,9 6,26 26,37c28,16 29,21 5,23c-20,1 -17,7 10,19c57,24 110,24 110,-1c0,-13 -17,-16 -40,-9c-64,20 -46,-10 20,-33c33,-11 55,-29 49,-39c-6,-10 5,-23 25,-30c20,-6 59,-24 88,-39c29,-15 58,-22 65,-15c7,7 29,-5 48,-27c42,-47 105,-39 105,14c0,22 13,39 28,39c42,0 50,-46 14,-74c-29,-22 -29,-25 3,-25c19,-1 35,-9 35,-20c0,-10 14,-32 31,-50c29,-28 27,-31 -21,-31c-29,0 -47,8 -41,18c11,19 -38,46 -55,29c-50,-50 18,-87 159,-87c139,0 149,-3 167,-50c21,-56 60,-67 60,-18c0,17 18,36 40,42c25,7 39,27 38,53c0,24 -6,32 -11,19c-16,-38 -67,-6 -67,43c0,42 -91,107 -115,82c-6,-5 9,-17 33,-26l45,-17l-52,-28c-60,-32 -119,0 -77,42c16,16 15,31 -5,55c-15,18 -43,54 -63,79c-20,25 -50,48 -66,51c-17,2 -43,12 -58,22c-19,11 -24,10 -15,-5c8,-11 5,-27 -7,-34c-11,-7 -20,-30 -20,-51c0,-22 -8,-39 -19,-39c-29,0 -82,61 -70,82c52,84 24,174 -57,182c-49,5 -63,15 -58,42c6,33 4,34 -34,1c-44,-38 -38,-67 14,-68c42,0 104,-46 104,-76c0,-29 -93,-30 -111,-2c-7,11 -50,44 -96,73c-46,28 -89,61 -96,72c-7,10 -19,0 -26,-23c-8,-25 -30,-43 -52,-43c-22,0 -39,-9 -39,-20c0,-36 -57,-21 -69,18c-22,67 -82,121 -124,110c-23,-6 -51,3 -67,22c-24,29 -21,31 32,20l58,-13l-47,42c-26,22 -71,40 -100,39c-29,0 -42,-6 -28,-11z"/>
   <path id="svg_51" d="m1860,1300c12,-22 35,-40 51,-40c24,0 26,8 9,40c-12,22 -35,40 -51,40c-24,0 -26,-8 -9,-40z"/>
   <path id="svg_52" d="m2270,1241c-37,-15 -37,-18 -5,-31c41,-17 95,0 95,29c0,24 -34,25 -90,2z"/>
   <path id="svg_53" d="m1316,1145c-64,-132 -46,-296 42,-383c65,-64 82,-72 90,-45c56,193 -61,573 -132,428z"/>
   <path id="svg_54" d="m3672,1073c-9,-46 -29,-71 -74,-91c-47,-21 -59,-36 -51,-68c6,-22 2,-57 -8,-77c-16,-29 -14,-34 11,-24c16,6 30,18 30,27c0,9 17,12 38,6c49,-13 70,23 32,54c-26,22 -21,34 40,91c78,74 89,119 32,134c-30,8 -41,-3 -50,-52z"/>
   <path id="svg_55" d="m5061,1068c-41,-53 -44,-71 -31,-208c34,-375 -1,-656 -101,-809l-34,-51l89,0l89,0l21,233c14,143 32,238 47,248c14,8 19,30 12,49c-11,28 -4,31 52,19l65,-13l-50,47c-27,26 -57,45 -66,42c-9,-3 -14,19 -10,50c3,31 17,53 31,50c17,-3 25,26 25,95c0,77 -7,100 -31,100c-24,0 -26,8 -9,40c13,24 14,40 2,40c-10,0 -24,-11 -30,-25c-6,-14 -7,-6 -1,17c5,23 2,63 -7,88l-17,45l-46,-57z"/>
   <path id="svg_56" d="m185,1057c-39,-49 -69,-142 -86,-277c-17,-131 -33,-225 -49,-280c-5,-16 -2,-42 7,-56c33,-52 58,24 84,246c14,121 38,249 54,284c33,74 27,127 -10,83z"/>
   <path id="svg_57" d="m334,964c-16,-36 -36,-53 -59,-48c-55,11 -41,-30 16,-44c31,-8 45,-22 37,-36c-10,-15 -4,-19 17,-11c17,7 63,-3 101,-23c98,-50 183,13 104,78c-16,14 -30,41 -30,62c0,87 -150,105 -186,22z"/>
   <path id="svg_58" d="m844,996c-38,-38 -30,-151 12,-174c32,-17 36,-8 38,89c3,111 -7,128 -50,85z"/>
   <path id="svg_59" d="m2879,965c0,-8 -3,-62 -7,-119c-4,-58 1,-100 11,-94c10,6 12,19 6,29c-6,11 -1,19 11,19c25,0 9,-73 -26,-116c-14,-18 -13,-33 3,-49c36,-36 98,32 65,72c-18,22 -18,31 0,37c18,6 18,18 0,52c-19,37 -18,47 7,56c43,17 39,83 -8,107c-46,25 -61,26 -62,6z"/>
   <path id="svg_60" d="m4497,964c15,-10 20,-23 10,-28c-9,-5 -6,-7 7,-4c14,4 30,-3 37,-13c7,-11 5,-19 -5,-17c-88,15 -186,-4 -159,-32c17,-16 44,-30 62,-30c17,0 31,-16 32,-35c0,-31 3,-30 23,5c12,22 29,45 36,50c38,27 61,100 32,100c-16,0 -45,5 -65,12c-28,9 -30,7 -10,-8z"/>
   <path id="svg_61" d="m1070,921c-8,-13 -26,-19 -41,-13c-41,15 -48,-8 -51,-174c-2,-100 -11,-155 -28,-161c-14,-5 -31,-34 -38,-64c-8,-30 -36,-87 -63,-126c-27,-40 -49,-80 -49,-90c0,-46 -74,-170 -137,-228l-70,-65l73,0c122,0 361,294 381,468c11,104 53,143 54,51c2,-59 7,-50 40,61c21,72 37,162 36,200l-2,70l-13,-60c-14,-66 -42,-30 -42,57c-1,60 -30,105 -50,74z"/>
   <path id="svg_62" d="m4224,849c-24,-17 -53,-26 -64,-19c-24,15 -135,-48 -149,-84c-7,-19 14,-26 80,-26c49,0 89,-9 89,-19c0,-11 -15,-14 -32,-7c-28,10 -29,6 -10,-30c26,-48 86,-38 80,13c-9,71 26,147 63,137c30,-8 59,20 59,58c0,20 -75,5 -116,-23z"/>
   <path id="svg_63" d="m3442,833c-17,-21 -42,-29 -66,-22c-31,10 -36,4 -27,-34c7,-31 -3,-65 -30,-97l-42,-50l8,66c9,71 -15,102 -51,66c-27,-27 -101,-29 -84,-2c7,11 -1,20 -16,20c-16,0 -40,13 -54,30c-51,62 -81,-63 -43,-180c17,-52 103,-67 103,-17c0,49 34,10 51,-58c8,-35 5,-55 -9,-55c-12,0 -22,10 -22,22c0,16 -9,15 -30,-2c-16,-14 -30,-46 -30,-72c0,-55 -17,-60 -71,-19c-22,17 -65,30 -97,30c-33,1 -75,16 -96,34c-38,35 -200,52 -299,33l-52,-10l55,-53c30,-29 61,-74 69,-100c8,-26 32,-64 53,-85c21,-21 38,-55 38,-77c0,-50 26,-65 87,-50c65,16 83,91 42,171l-32,61l-38,-45c-22,-24 -40,-38 -41,-31c-2,7 -4,21 -5,31c-2,10 -10,25 -18,33c-24,24 26,69 76,69c25,0 49,-7 52,-15c9,-20 151,-85 185,-85c14,0 42,-18 63,-41c23,-25 56,-39 88,-35c52,6 85,-147 38,-176c-25,-15 28,-88 65,-88c61,0 83,384 26,470c-69,105 41,222 133,139c50,-45 108,-6 86,59c-8,23 -19,77 -26,120c-10,70 -14,75 -39,45zm-20,-139c-29,-29 -59,2 -47,49c11,41 12,41 38,6c17,-22 20,-44 9,-55z"/>
   <path id="svg_64" d="m800,772c0,-26 14,-53 30,-59c33,-13 35,-5 17,62c-16,60 -47,58 -47,-3z"/>
   <path id="svg_65" d="m3674,725c-13,-66 -4,-78 33,-47c29,23 23,102 -7,102c-8,0 -20,-25 -26,-55z"/>
   <path id="svg_66" d="m1940,720c0,-36 62,-145 75,-132c6,7 14,34 17,62c6,57 -24,69 -38,15c-7,-27 -10,-25 -12,9c-2,44 -42,88 -42,46z"/>
   <path id="svg_67" d="m1236,667c-20,-91 2,-207 36,-193c15,5 21,20 13,33c-8,13 -19,68 -25,123c-10,93 -12,96 -24,37z"/>
   <path id="svg_68" d="m769,678c-8,-13 -40,-17 -80,-9c-61,11 -65,9 -54,-33c11,-43 9,-44 -27,-17c-30,23 -33,23 -13,1c14,-15 25,-49 25,-74c0,-25 7,-47 15,-48c8,-1 38,-5 65,-9c61,-11 116,78 77,125c-18,21 -14,34 15,56c21,16 27,29 14,29c-13,1 -30,-9 -37,-21z"/>
   <path id="svg_69" d="m2054,674c-7,-19 -5,-34 5,-34c11,0 16,-16 12,-35c-4,-19 5,-46 19,-59c39,-35 59,30 23,72c-15,18 -32,45 -37,61c-7,23 -11,22 -22,-5z"/>
   <path id="svg_70" d="m2174,648c5,-14 1,-41 -10,-60c-39,-70 97,-211 139,-143c19,31 -18,76 -52,63c-14,-6 -31,3 -37,20c-8,20 -3,26 17,19c18,-7 29,1 29,20c0,26 10,28 53,12c29,-11 57,-16 63,-10c17,17 -39,71 -75,71c-19,0 -41,6 -48,14c-25,25 -89,20 -79,-6z"/>
   <path id="svg_71" d="m4840,605c0,-19 -23,-74 -50,-122c-28,-48 -50,-109 -50,-135c0,-26 -9,-48 -20,-48c-11,0 -20,-9 -20,-19c0,-11 14,-15 30,-8c22,8 30,-3 30,-41c0,-29 -9,-52 -19,-52c-11,0 -15,16 -9,35c9,29 6,28 -21,-5c-20,-24 -28,-58 -21,-85c8,-35 -1,-51 -40,-68c-27,-13 -50,-31 -50,-40c0,-30 59,-18 96,19c29,29 41,31 60,12c17,-19 17,-27 -2,-35c-19,-8 -19,-10 0,-11c36,-3 70,73 56,124c-10,34 -8,37 8,15c35,-51 51,32 26,138c-21,90 -15,166 15,211c23,33 23,150 1,150c-11,0 -20,-16 -20,-35z"/>
   <path id="svg_72" d="m1384,596c-46,-46 -24,-89 41,-78c8,1 15,-11 15,-26c0,-32 -54,-60 -105,-54c-21,3 -35,-9 -35,-27c0,-37 58,-66 77,-39c7,10 27,18 43,18c17,0 39,20 50,45c11,25 26,45 35,45c29,0 15,62 -25,105c-22,23 -40,32 -40,19c0,-13 -10,-24 -21,-24c-12,0 -16,9 -9,20c17,27 3,25 -26,-4z"/>
   <path id="svg_73" d="m4060,474c0,-82 29,-100 47,-29c7,27 0,57 -18,74c-25,26 -29,21 -29,-45z"/>
   <path id="svg_74" d="m2015,460c-13,-22 -39,-40 -56,-40c-18,0 -32,-13 -32,-30c0,-16 4,-26 9,-20c6,5 40,-9 76,-31c44,-27 92,-39 147,-35c83,6 113,40 47,53c-20,4 -52,21 -71,38c-28,25 -40,26 -65,5c-29,-24 -44,0 -16,27c21,22 25,73 4,73c-10,0 -29,-18 -43,-40z"/>
   <path id="svg_75" d="m676,389c-16,-35 -35,-49 -60,-42c-29,7 -36,-3 -36,-50c0,-33 -13,-63 -30,-70c-16,-6 -25,-19 -19,-29c7,-10 20,-13 30,-7c28,17 23,-2 -20,-80c-38,-66 -32,-104 11,-75c93,66 224,363 159,364c-12,0 -7,9 9,20c21,13 22,19 5,20c-14,0 -36,-23 -49,-51z"/>
   <path id="svg_76" d="m2433,425c-21,-34 11,-108 41,-96c16,6 38,11 49,11c11,0 17,20 13,45c-6,46 -82,75 -103,40z"/>
   <path id="svg_77" d="m303,385c-13,-23 -23,-64 -23,-90c0,-26 -9,-56 -21,-68c-11,-11 -28,-67 -37,-124l-16,-103l72,1c48,0 92,18 132,52c33,28 45,47 27,41c-45,-15 -93,43 -92,111c0,46 5,51 28,33c15,-13 34,-18 41,-11c7,7 2,13 -11,13c-13,0 -23,9 -23,20c0,11 10,18 23,15c12,-3 26,6 31,20c5,14 -5,25 -22,25c-18,0 -32,7 -32,16c0,56 -55,91 -77,49z"/>
   <path id="svg_78" d="m1070,380c-8,-27 -24,-56 -35,-63c-11,-7 -16,-25 -11,-40c6,-17 23,-2 44,39c19,37 31,77 26,90c-4,13 -15,2 -24,-26z"/>
   <path id="svg_79" d="m3917,366c-19,-23 -13,-38 29,-77c60,-56 85,-61 100,-21c32,83 -75,164 -129,98z"/>
   <path id="svg_80" d="m4602,247c-45,-98 -22,-100 54,-4c20,26 20,34 -3,43c-17,7 -37,-9 -51,-39z"/>
   <path id="svg_81" d="m1112,231c-18,-28 -28,-51 -22,-51c6,0 -19,-27 -55,-59c-51,-47 -57,-60 -29,-60c19,-1 44,19 55,44l20,45l-9,-45c-10,-56 28,-60 42,-5c18,69 44,43 35,-35c-8,-68 -7,-70 10,-19c10,31 27,67 38,80c11,13 20,33 20,43c0,11 14,24 30,30c24,9 25,17 7,41c-40,51 -105,47 -142,-9z"/>
   <path id="svg_82" d="m1863,173c4,-61 10,-68 41,-51c29,16 56,4 128,-55c84,-69 96,-73 151,-52c40,15 77,16 110,4c81,-31 117,-26 80,11c-17,16 -40,30 -52,30c-11,0 -21,21 -21,48c0,26 -12,57 -27,69c-37,31 -101,-19 -102,-80c-1,-26 -10,-48 -21,-50c-11,-2 -18,6 -15,16c4,11 -4,14 -16,6c-24,-15 -83,56 -100,121c-22,82 -161,67 -156,-17z"/>
   <path id="svg_83" d="m2973,211c-12,-31 20,-147 49,-179c19,-21 158,-28 158,-8c0,7 -18,19 -40,26c-22,7 -41,23 -42,36c-7,111 -96,200 -125,125z"/>
   <path id="svg_84" d="m1500,140c0,-11 -11,-20 -25,-21c-14,-1 -46,-28 -72,-60l-46,-59l80,0l80,0l-1,80c0,44 -4,80 -8,80c-5,0 -8,-9 -8,-20z"/>
   <path id="svg_85" d="m4443,103c-49,-43 -57,-103 -14,-103c18,0 25,12 18,29c-11,31 23,76 73,96c25,10 25,12 -2,13c-18,1 -51,-15 -75,-35z"/>
   <path id="svg_86" d="m1050,31l-60,-28l65,-1c45,-2 65,7 65,28c0,17 -2,30 -5,29c-3,0 -32,-13 -65,-28z"/>
  </g>
  <path id="svg_87" d="m318.5,71c2,130 -18,147 2,129c20,-18 40,-6 23,-17c-17,-11 -27,-242 -25,-112z" opacity="NaN" stroke="#000" fill="#fff"/>
  <path d="m11.5,126c0,0 0,0 0,1c0,0 0,1 0,1c0,0 1,0 1,0c0,0 0,0 1,0c0,0 0.48626,-0.82375 1,-3c0.45951,-1.9465 0.48626,-2.82375 1,-5c0.22975,-0.97325 0,-2 0,-2c0,0 0,0 0,0c0,1 0,3 0,5c0,2 0,4 0,8c0,2 0.31074,4.08025 1,7c0.51374,2.17625 1,3 1,4c0,1 0,1 0,1c-1,0 -1,-1 -1,-1c-1,-1 -1.61732,-2.07613 -2,-3c-0.5412,-1.30656 -1,-3 -1,-5c0,-2 0,-3 0,-5c0,-1 0,-2 0,-2c0,0 1,-1 1,-1c1,0 1.29289,-0.70711 2,0c0.70711,0.70711 0.77025,1.02675 1,2c0.51374,2.17625 1,4 1,6c0,2 0,4 0,5c0,1 0,2 0,2c0,1 -1,1 -1,1c-1,0 -2.4588,-0.69344 -3,-2c-0.38268,-0.92387 -1,-2 -1,-4c0,-2 0.61732,-3.07613 1,-4c0.5412,-1.30656 2,-2 3,-2c1,0 2,0 2,0c0,0 1,0 1,0c0,0 0,1 0,1c0,1 0,2 0,3c0,1 0.17625,2.48625 -2,3c-0.97325,0.22975 -3,0 -4,0c-1,0 -1.4588,0.30656 -2,-1c-0.76537,-1.84776 0,-4 0,-6c0,-2 0,-4 1,-5c1,-1 1,-1 2,-1c1,0 2,0 2,0c1,1 2.07612,1.61732 3,2c1.30656,0.5412 1.4588,2.69344 2,4c0.38268,0.92387 0,3 0,4c0,2 0,2 -1,3c-1,1 -2,1 -3,1c-1,0 -2.07612,0.38269 -3,0c-1.30656,-0.5412 -2.4588,-1.69344 -3,-3c-0.76537,-1.84776 0,-4 0,-6c0,-2 1,-3 2,-4c1,-1 2,-1 3,-1c1,0 2,0 2,0c1,1 1,1 1,2c0,1 0,3 0,5c0,1 0.76537,3.15224 0,5c-0.5412,1.30656 -1.69344,1.4588 -3,2c-0.92388,0.38269 -2,1 -3,1c0,0 -1.29289,-0.29289 -2,-1c-1.41421,-1.41422 -0.48626,-2.82375 -1,-5c-0.22975,-0.97325 1,-3 2,-4c1,-1 1.69344,-1.4588 3,-2c0.92388,-0.38268 1.61732,0.07612 2,1c0.5412,1.30656 1,2 1,4c0,2 0,3 0,4c0,1 -1,2 -1,2c-1,1 -1,1 -2,1c-1,0 -2,-1 -3,-2l-1,-2" id="svg_88" stroke="#ffffff" fill="none"/>
  <rect id="svg_89" height="188" width="77" y="-30" x="-63.5" stroke="#ffffff" fill="#fff"/>
  <rect id="svg_90" height="29" width="41" y="115" x="-11.5" stroke="#ffffff" fill="#fff"/>
  <rect id="svg_91" height="80" width="43" y="-26" x="-9.5" stroke="#ffffff" fill="#fff"/>
  <rect id="svg_92" height="16" width="136" y="-14" x="11.5" stroke="#ffffff" fill="#fff"/>
  <rect id="svg_93" height="24" width="59" y="-6" x="10.5" stroke="#ffffff" fill="#fff"/>
  <rect id="svg_94" height="19" width="50" y="-13" x="61.5" stroke="#ffffff" fill="#fff"/>
  <rect id="svg_95" height="195" width="55" y="17" x="293.5" stroke="#ffffff" fill="#fff"/>
 </g>
</svg>