<?xml version="1.0" standalone="no"?>
<!DOCTYPE svg PUBLIC "-//W3C//DTD SVG 20010904//EN"
 "http://www.w3.org/TR/2001/REC-SVG-20010904/DTD/svg10.dtd">
<svg version="1.0" xmlns="http://www.w3.org/2000/svg"
 width="201.000000pt" height="160.000000pt" viewBox="0 0 201.000000 160.000000"
 preserveAspectRatio="xMidYMid meet">
<metadata>
Created by potrace 1.10, written by Peter Selinger 2001-2011
</metadata>
<g transform="translate(0.000000,160.000000) scale(0.100000,-0.100000)"
fill="#000000" stroke="none">
<path d="M939 1534 c-6 -8 -20 -12 -29 -9 -11 3 -20 -1 -24 -10 -3 -9 -10 -14
-16 -10 -15 9 -49 -17 -88 -69 -75 -99 -82 -111 -77 -124 3 -7 -5 -26 -16 -42
-12 -15 -18 -33 -14 -39 4 -7 2 -17 -3 -24 -15 -17 -42 -98 -42 -124 0 -12 4
-25 10 -28 6 -4 1 -19 -13 -36 -21 -29 -21 -31 -4 -43 16 -12 16 -16 2 -42
-19 -36 -19 -58 -1 -92 10 -19 13 -51 9 -110 -2 -53 -1 -82 6 -78 5 3 11 1 13
-6 5 -15 28 -1 28 18 0 8 -4 13 -9 10 -5 -4 -7 28 -5 75 4 63 1 86 -11 105 -9
14 -13 29 -10 34 9 14 32 12 38 -2 3 -7 6 -8 6 -3 0 6 -3 16 -8 24 -8 12 -12
12 -25 2 -13 -11 -16 -11 -16 2 0 9 6 20 13 24 7 4 18 20 24 36 15 33 29 35
36 5 8 -28 2 -34 -18 -18 -12 10 -15 10 -15 -4 0 -9 11 -21 25 -26 29 -11 30
-18 10 -56 -13 -26 -13 -30 0 -40 17 -12 20 -34 5 -34 -5 0 -13 8 -19 17 -5
10 -13 15 -17 10 -9 -9 24 -47 41 -47 7 0 30 -16 51 -35 l39 -36 -29 3 c-22 2
-39 -6 -68 -32 -21 -20 -38 -40 -38 -45 0 -6 -7 -18 -15 -29 -13 -17 -15 -17
-37 -1 -20 15 -20 16 -3 11 14 -5 17 -4 9 4 -6 6 -25 14 -42 19 -34 10 -47 3
-79 -46 -22 -33 -133 -97 -146 -84 -15 15 -41 -3 -81 -58 -38 -51 -51 -95 -16
-53 28 33 76 45 105 26 37 -24 75 -80 75 -109 0 -33 26 -142 42 -172 8 -17 7
-26 -8 -47 -25 -33 -39 -33 -51 2 -35 95 -66 213 -70 263 -3 32 -10 56 -14 53
-19 -11 -8 -109 21 -196 17 -49 30 -93 30 -99 0 -5 9 -29 21 -54 11 -24 18
-48 15 -53 -3 -5 8 -9 24 -10 17 0 30 4 30 11 0 6 10 21 22 34 12 13 17 23 11
23 -6 0 -16 -7 -23 -15 -25 -30 -21 -6 4 28 14 19 26 38 26 44 0 5 11 19 25
31 l25 22 71 -55 c39 -30 92 -64 118 -76 48 -21 146 -31 146 -14 0 5 -10 8
-22 7 -40 -6 -135 28 -192 68 -103 72 -114 86 -87 109 19 16 108 -28 132 -65
32 -47 64 -56 157 -43 45 7 85 17 88 22 3 5 9 8 13 8 24 -3 29 0 19 10 -9 9
-9 16 0 30 9 15 8 22 -7 36 -18 17 -18 17 -13 -7 10 -45 -14 -63 -89 -67 -37
-1 -69 -5 -72 -8 -11 -11 -62 49 -62 73 0 28 24 81 48 108 39 43 61 77 56 86
-4 5 -10 5 -17 0 -17 -14 -56 -9 -67 8 -5 8 -10 10 -10 4 0 -35 -53 -18 -113
37 -9 9 -30 22 -45 30 -38 20 -110 68 -117 79 -3 5 4 11 14 15 11 3 23 15 26
26 8 24 35 25 35 2 0 -10 14 -26 31 -35 37 -22 62 -23 35 -3 -11 8 -15 15 -9
15 14 0 44 -35 36 -43 -3 -4 -15 -7 -25 -7 -10 0 -18 -6 -18 -14 0 -12 7 -13
32 -5 28 8 37 4 84 -32 29 -22 54 -45 56 -51 3 -7 43 -11 105 -12 89 -1 103
-3 107 -19 2 -11 -7 -32 -23 -50 -14 -18 -39 -51 -54 -74 -15 -24 -32 -43 -37
-43 -15 0 -12 9 10 37 11 14 20 32 20 39 0 8 4 14 9 14 5 0 19 14 31 30 l22
31 -28 -7 c-16 -4 -35 -14 -43 -21 -8 -8 -23 -12 -34 -9 -13 3 -26 -3 -38 -17
-25 -30 -24 -42 2 -18 17 16 25 18 40 8 21 -13 17 -44 -8 -64 -13 -10 -14 -15
-3 -28 16 -19 51 -13 92 16 16 12 40 19 56 18 32 -4 48 5 82 45 l25 29 -30
-20 c-29 -21 -135 -39 -135 -24 0 23 60 59 120 71 36 7 88 21 115 31 89 33
118 20 75 -34 -11 -14 -20 -34 -20 -45 0 -18 -65 -92 -81 -92 -3 0 -50 -50
-103 -110 -53 -61 -92 -110 -85 -110 6 0 26 17 45 38 19 20 44 47 55 58 21 23
59 38 59 24 0 -5 -18 -19 -40 -31 -22 -13 -40 -26 -40 -31 0 -12 6 -10 60 17
28 14 50 22 50 18 0 -4 6 1 13 12 13 17 15 16 28 -13 8 -18 17 -32 21 -32 5 0
8 -7 8 -16 0 -9 -3 -14 -7 -12 -5 2 -24 12 -44 22 -36 18 -37 18 -59 -2 -13
-12 -26 -20 -29 -17 -4 2 -7 -5 -7 -16 0 -26 6 -24 32 8 l22 28 36 -17 c20
-10 36 -22 36 -28 0 -20 29 -9 32 13 2 18 8 21 33 19 17 -2 32 -8 33 -13 2 -5
10 -9 18 -9 8 0 14 -3 14 -7 0 -5 30 -8 68 -9 37 0 57 1 45 3 -13 3 -23 5 -23
6 0 14 119 240 141 268 37 47 91 81 121 77 18 -2 23 -9 23 -33 0 -27 4 -30 33
-33 35 -4 44 -27 14 -36 -29 -9 -115 -95 -152 -151 -18 -27 -44 -62 -58 -78
-24 -25 -24 -27 -6 -27 11 0 26 6 32 12 10 10 17 10 35 -1 12 -8 19 -10 15 -6
-4 5 -2 15 5 23 10 13 8 14 -17 8 l-29 -7 18 28 c39 62 98 133 131 158 36 27
64 27 64 0 0 -8 9 -24 20 -35 24 -24 3 -28 -26 -4 -10 8 -13 13 -6 9 14 -7 17
11 2 20 -5 3 -17 -20 -26 -52 -9 -32 -26 -71 -38 -88 l-21 -30 25 16 c13 8 31
35 39 60 9 24 17 46 18 48 5 8 72 -55 72 -68 1 -10 -9 -5 -27 12 -27 26 -49
36 -37 18 3 -5 1 -12 -5 -16 -5 -3 -10 -11 -10 -17 0 -6 6 -6 15 2 11 9 19 10
26 3 8 -8 5 -13 -8 -17 -10 -3 -43 -22 -73 -41 -36 -23 -48 -35 -34 -35 11 0
30 7 42 16 12 8 27 12 34 8 7 -4 8 -3 4 5 -4 6 0 13 11 17 10 3 26 10 36 15
25 13 37 3 37 -32 0 -19 5 -29 14 -29 12 0 13 6 4 30 -5 17 -8 37 -4 45 7 20
-19 91 -48 129 -12 17 -26 43 -30 58 -3 15 -20 38 -36 50 -17 12 -30 30 -30
40 0 10 -16 28 -35 40 -19 13 -37 30 -40 39 -3 8 -18 29 -34 45 -15 16 -31 45
-35 65 -10 56 -30 68 -75 43 -22 -12 -43 -17 -52 -13 -8 4 -22 10 -32 13 -25
8 -32 34 -15 54 25 27 31 69 33 207 1 86 -3 143 -12 169 -7 21 -13 48 -13 60
0 19 -41 140 -61 178 -5 10 -9 25 -9 33 0 18 -62 101 -96 127 -13 11 -24 25
-24 31 -1 17 -83 77 -106 77 -11 0 -25 5 -32 12 -19 19 -177 21 -193 2z m51
-9 c0 -3 -9 -23 -19 -44 -11 -21 -17 -48 -14 -60 6 -24 -14 -29 -24 -5 -7 19
15 96 31 106 13 9 26 10 26 3z m37 -8 c-3 -9 7 -13 36 -12 26 0 42 -5 45 -14
2 -8 0 -11 -5 -8 -11 7 -47 -28 -57 -57 -5 -15 -10 -16 -18 -8 -9 9 -8 18 1
38 12 28 7 45 -8 28 -5 -5 -13 -23 -18 -41 -6 -25 -11 -30 -22 -23 -13 7 -13
13 -1 37 7 15 12 32 11 38 -1 5 6 15 15 22 22 16 27 16 21 0z m-108 -44 c-5
-14 -8 -35 -7 -46 2 -11 -3 -22 -9 -24 -9 -3 -13 6 -13 26 0 33 -1 34 -24 25
-11 -4 -13 -11 -7 -23 11 -20 -2 -50 -13 -32 -12 18 -25 12 -19 -8 6 -25 -32
-49 -41 -25 -3 8 -10 12 -16 9 -22 -14 -8 8 37 55 26 28 55 50 64 50 9 0 22 7
29 15 18 22 31 8 19 -22z m265 8 c16 -6 17 -9 5 -16 -11 -7 -8 -10 11 -15 14
-3 26 -13 28 -22 2 -12 -2 -15 -18 -11 -11 3 -28 -1 -38 -9 -9 -8 -25 -18 -36
-22 -16 -6 -15 -9 14 -39 21 -21 34 -28 37 -19 8 21 110 15 149 -9 36 -22 49
-47 15 -30 -11 6 -51 14 -90 17 -66 6 -71 6 -71 -13 0 -22 16 -76 32 -109 6
-12 9 -60 7 -108 -2 -47 -1 -86 4 -86 4 0 7 7 7 15 0 20 19 19 27 -1 4 -10 -4
-25 -21 -41 -14 -13 -24 -29 -20 -34 9 -15 -17 -71 -46 -97 -52 -47 -156 -102
-201 -107 -39 -4 -50 0 -83 26 -32 27 -96 120 -96 142 0 15 17 6 29 -15 11
-23 11 -23 5 2 -3 14 -9 52 -13 85 -12 90 -42 137 -96 151 -16 4 -33 12 -37
18 -12 18 -9 36 6 36 7 0 19 7 26 15 17 20 32 19 29 -2 -4 -44 2 -60 27 -72
15 -6 35 -9 45 -6 11 4 19 2 19 -4 0 -14 27 -14 35 -1 3 6 -6 15 -20 20 -14 5
-23 14 -20 20 3 5 -1 10 -9 10 -9 0 -16 7 -16 15 0 12 7 14 28 9 34 -9 72 -33
72 -47 0 -5 -8 -3 -18 6 -26 24 -39 21 -17 -3 15 -16 16 -22 5 -35 -9 -11 -22
-14 -37 -10 -22 5 -33 -12 -17 -28 9 -8 55 16 78 42 28 31 9 66 -50 92 -26 11
-49 17 -52 14 -3 -3 -6 -22 -8 -42 -3 -49 -2 -47 -18 -34 -11 10 -11 21 0 77
8 36 19 74 24 85 13 23 -2 26 -20 4 -7 -9 -19 -14 -25 -11 -7 2 -20 -5 -29
-16 -22 -25 -32 -17 -14 11 7 12 23 21 35 21 13 0 23 5 23 10 0 6 6 10 14 10
8 0 29 14 46 31 28 29 35 31 77 26 33 -3 51 -1 61 10 11 11 27 13 59 8 37 -5
43 -4 43 12 0 25 27 63 54 73 26 11 35 11 60 1z m115 -106 c14 -13 9 -15 -42
-17 -31 -1 -65 -2 -74 -2 -10 -1 -18 6 -18 14 0 31 104 36 134 5z m-525 -30
c3 -9 0 -15 -8 -15 -8 0 -23 -3 -33 -7 -17 -6 -17 -5 1 15 22 26 32 27 40 7z
m531 -69 c45 -19 89 -88 81 -127 -4 -21 -2 -29 9 -29 8 0 19 -9 25 -19 10 -21
4 -51 -11 -51 -5 0 -9 -7 -9 -15 0 -8 -7 -15 -15 -15 -19 0 -19 19 0 44 19 25
19 36 -1 36 -8 0 -12 -4 -9 -10 3 -5 -1 -10 -9 -10 -20 0 -31 19 -17 33 7 7 2
16 -21 30 -21 12 -34 15 -36 8 -6 -18 -32 -13 -32 7 0 10 -5 23 -12 30 -22 22
1 24 28 3 15 -11 36 -21 48 -21 16 0 12 6 -19 25 -22 13 -50 25 -63 25 -15 0
-22 5 -19 13 6 19 57 9 101 -19 21 -14 36 -20 34 -13 -8 23 -52 49 -97 57 -53
9 -68 32 -22 32 18 0 47 -6 66 -14z m-545 -34 c0 -23 -6 -30 -33 -40 -52 -19
-54 -15 -12 28 21 22 40 40 42 40 2 0 3 -13 3 -28z m640 -25 c0 -13 -29 12
-42 37 -10 19 -8 18 16 -3 14 -14 26 -29 26 -34z m27 -62 c9 -25 -4 -29 -17
-6 -7 15 -7 21 0 21 6 0 13 -7 17 -15z m-737 -46 c0 -5 7 -9 15 -9 17 0 19 -9
5 -30 -9 -13 -13 -11 -30 10 -23 30 -26 52 -5 44 8 -4 15 -10 15 -15z m590 1
c-14 -10 -27 -17 -29 -14 -6 5 31 33 44 33 6 1 -1 -8 -15 -19z m50 -30 c25
-25 26 -78 0 -108 -21 -26 -70 -53 -81 -46 -11 7 1 34 15 34 21 0 38 38 26 61
-6 11 -15 17 -20 14 -19 -12 -19 14 1 39 25 31 33 32 59 6z m-567 -2 c9 -8 23
-44 32 -86 18 -86 18 -85 6 -78 -4 3 -16 33 -25 66 -10 34 -24 64 -32 67 -15
5 -20 43 -6 43 5 0 16 -6 25 -12z m687 -23 c0 -8 -4 -15 -10 -15 -5 0 -10 7
-10 15 0 8 5 15 10 15 6 0 10 -7 10 -15z m-706 -47 c9 -17 16 -42 16 -55 0
-12 4 -23 9 -23 11 0 35 -69 27 -77 -3 -3 -8 2 -12 11 -10 26 -22 19 -26 -15
-3 -31 -3 -31 -21 -12 -17 19 -16 21 3 46 16 20 18 30 11 44 -10 17 -41 108
-41 119 0 13 20 -9 34 -38z m-60 26 c23 -9 20 -17 -14 -37 -33 -20 -35 -19
-18 18 13 28 11 27 32 19z m770 -37 c6 -9 7 -20 3 -24 -5 -4 -12 -1 -16 6 -7
11 -13 9 -31 -9 -24 -24 -20 -41 5 -20 8 7 15 8 15 3 0 -5 -11 -16 -25 -23
-37 -20 -56 1 -29 32 10 12 26 29 34 39 18 20 30 19 44 -4z m-88 -25 c-18 -16
-18 -16 -6 6 6 13 14 21 18 18 3 -4 -2 -14 -12 -24z m99 -62 c5 -52 -15 -80
-37 -53 -11 15 -11 16 5 10 11 -4 17 -2 17 7 0 22 -12 26 -34 11 -26 -19 -36
-19 -36 -2 0 8 11 19 25 25 13 6 30 20 37 31 16 26 18 22 23 -29z m-115 30 c0
-5 -5 -10 -10 -10 -6 0 -1 -13 11 -29 16 -22 20 -37 15 -58 -20 -77 -96 -86
-125 -14 -16 38 -3 63 44 85 19 9 35 21 35 26 0 6 7 10 15 10 8 0 15 -4 15
-10z m70 -101 c0 -6 -9 -18 -20 -27 -19 -17 -19 -17 5 -47 13 -16 27 -26 31
-22 4 3 1 13 -5 21 -16 20 -10 61 9 61 12 0 15 -13 13 -60 -2 -80 -16 -115
-46 -115 -29 0 -85 55 -65 63 7 3 2 5 -12 4 -14 -1 -24 3 -23 9 1 7 -6 10 -17
7 -20 -5 -42 11 -53 40 -8 21 -3 21 28 1 35 -23 114 9 115 47 0 9 3 19 7 22
10 11 33 8 33 -4z m-613 -19 c10 -16 10 -18 -1 -14 -8 3 -16 -3 -19 -15 -6
-25 -25 -28 -34 -6 -5 14 22 55 36 55 3 0 12 -9 18 -20z m414 3 c6 -80 1 -98
-37 -131 -21 -18 -61 -39 -89 -46 -131 -36 -136 -29 -31 49 70 52 95 75 81 75
-13 0 -135 -92 -154 -116 -21 -27 -34 -29 -79 -13 -31 11 -45 37 -42 77 1 12
-4 22 -10 22 -7 0 -10 -7 -6 -15 3 -8 1 -15 -4 -15 -5 0 -15 7 -24 15 -8 8
-19 15 -25 15 -16 0 -13 26 4 40 20 16 40 3 24 -16 -16 -20 -3 -30 17 -13 14
12 21 8 55 -29 42 -44 52 -51 43 -29 -4 10 7 14 40 15 33 2 61 12 101 37 30
19 60 34 66 33 7 -2 22 11 33 29 24 36 35 41 37 16z m70 -115 c23 -13 51 -35
62 -50 11 -14 25 -24 32 -22 16 6 62 -55 48 -65 -87 -60 -114 -80 -146 -108
-20 -18 -45 -33 -55 -33 -10 0 -23 -5 -29 -11 -5 -5 -31 -16 -57 -24 -47 -14
-47 -14 -41 8 4 12 3 17 -2 11 -12 -18 -58 -22 -58 -5 0 8 9 15 20 17 55 9
335 160 335 182 0 16 -15 15 -30 -2 -6 -8 -18 -12 -26 -9 -11 4 -201 -93 -301
-153 -25 -16 -43 -18 -43 -6 0 8 151 93 303 170 31 16 45 28 38 35 -6 6 -21 0
-43 -16 -18 -14 -68 -41 -111 -61 -44 -20 -111 -57 -150 -83 -68 -45 -75 -48
-132 -45 -53 3 -63 7 -88 35 -17 19 -26 25 -23 14 5 -17 4 -17 -22 1 -15 11
-40 34 -56 50 -24 26 -28 36 -22 66 8 42 48 83 91 95 38 10 46 5 39 -24 -6
-26 30 -85 53 -85 7 0 13 -4 13 -10 0 -5 20 -10 45 -10 51 0 55 -7 19 -33 -22
-16 -27 -17 -37 -5 -24 29 -104 88 -120 88 -25 0 -32 22 -12 37 18 13 18 13
-1 13 -20 -1 -61 -27 -53 -34 2 -2 27 -16 56 -31 54 -27 116 -79 125 -104 3
-12 14 -8 44 17 38 30 63 38 187 62 32 7 84 25 115 42 67 35 66 34 57 47 -4 8
-11 6 -22 -4 -9 -9 -23 -13 -34 -10 -10 4 -19 2 -19 -4 0 -12 -59 -45 -67 -37
-3 3 18 20 46 37 28 18 51 38 51 45 0 8 -29 -7 -67 -35 -85 -61 -128 -74 -232
-70 -76 4 -85 7 -107 32 -24 28 -32 67 -15 67 5 0 11 -10 13 -21 6 -39 63 -61
149 -56 88 4 149 30 200 82 19 19 35 35 36 35 0 0 20 -10 44 -22z m-1 -154
c-78 -45 -122 -66 -115 -55 7 12 134 80 150 80 6 1 -10 -11 -35 -25z m95 -64
c-38 -38 -73 -70 -77 -70 -15 0 -8 27 12 45 11 10 20 14 20 9 0 -5 4 -4 8 3 8
12 94 83 102 83 2 0 -27 -31 -65 -70z m115 60 c0 -5 -9 -14 -21 -20 -12 -7
-18 -18 -15 -26 3 -8 -1 -14 -8 -14 -7 0 -21 -9 -31 -20 -22 -24 -9 -26 33 -4
18 9 32 23 32 34 0 25 38 47 80 46 56 -2 49 -27 -17 -58 -32 -15 -76 -37 -97
-50 -28 -15 -41 -18 -44 -10 -2 7 -8 9 -14 6 -7 -4 -6 -9 2 -14 8 -5 1 -15
-20 -30 l-33 -23 18 29 17 29 -21 -24 c-12 -13 -21 -29 -21 -36 0 -7 -7 -18
-15 -25 -8 -7 -15 -17 -15 -22 0 -6 20 6 45 26 57 47 170 116 190 116 8 0 15
3 15 8 0 4 16 12 35 18 28 9 35 8 35 -2 0 -8 5 -14 10 -14 24 0 7 -16 -35 -33
-24 -11 -72 -45 -105 -77 -51 -49 -70 -79 -121 -184 -33 -69 -66 -126 -73
-126 -24 0 -64 50 -68 84 -3 31 12 81 70 221 9 22 52 77 96 123 76 78 96 94
96 72z m-990 -25 c7 -8 19 -15 26 -15 8 0 24 -11 36 -25 12 -14 28 -23 34 -21
7 3 18 -2 24 -10 7 -8 18 -14 25 -14 6 0 20 -9 30 -20 17 -19 17 -19 -31 -1
-27 10 -57 22 -66 26 -10 4 -18 3 -18 -3 0 -15 111 -53 190 -65 8 -1 19 -8 23
-14 4 -7 16 -13 25 -12 10 0 12 3 5 6 -21 8 -15 18 12 19 l25 2 -35 -48 c-19
-26 -35 -53 -35 -59 0 -6 -3 -11 -8 -11 -22 0 -121 44 -209 94 -56 31 -104 56
-108 56 -4 0 -30 13 -56 30 -29 18 -55 27 -65 23 -12 -4 -15 -2 -12 8 3 8 18
14 34 14 16 0 32 4 36 10 4 5 15 2 26 -8 22 -20 110 -52 119 -43 3 3 -7 10
-23 16 -50 18 -93 44 -88 52 3 4 14 4 24 -2 28 -15 49 -12 28 4 -10 7 -18 16
-18 20 0 12 38 6 50 -9z m1153 -120 c-5 -16 -3 -18 8 -8 8 7 20 8 28 4 9 -6
-1 -16 -32 -34 -25 -15 -59 -44 -76 -66 -33 -41 -131 -236 -131 -260 0 -10 -8
-12 -31 -7 -17 3 -43 6 -56 6 -22 0 -24 3 -18 32 14 68 94 212 144 262 57 56
116 93 148 92 18 -1 21 -5 16 -21z m-1148 -47 c97 -58 115 -71 115 -82 0 -7
-26 -38 -57 -69 l-57 -57 -18 58 c-10 31 -20 78 -21 104 -2 27 -7 49 -13 49
-13 1 -34 20 -34 30 0 11 34 -2 85 -33z m205 -104 c39 -16 50 -29 31 -36 -5
-1 3 -22 19 -45 32 -47 16 -49 -19 -3 -12 17 -40 39 -64 51 -52 26 -50 25 -42
38 9 15 28 14 75 -5z m260 12 c0 -3 -4 -8 -10 -11 -5 -3 -10 -1 -10 4 0 6 5
11 10 11 6 0 10 -2 10 -4z m231 -80 c-25 -27 -27 -38 -5 -29 11 4 15 2 13 -6
-3 -7 -8 -12 -12 -12 -4 1 -23 1 -43 1 l-36 0 49 44 c48 44 75 45 34 2z m-734
-162 c-9 -10 -38 16 -31 28 4 6 13 4 22 -6 9 -8 13 -19 9 -22z"/>
<path d="M1104 1423 c-19 -20 -34 -39 -34 -42 0 -4 15 -14 33 -24 l32 -17 -23
19 -23 20 41 41 c27 27 35 40 24 40 -9 0 -32 -17 -50 -37z"/>
<path d="M840 1323 c0 -12 -4 -25 -10 -28 -5 -3 -10 -14 -10 -23 0 -11 8 -4
21 17 14 24 17 37 10 44 -8 8 -11 5 -11 -10z"/>
<path d="M946 1325 c-3 -8 -15 -14 -27 -12 -12 1 -24 -4 -27 -12 -3 -9 0 -11
9 -7 8 4 5 0 -5 -8 -14 -12 -16 -16 -5 -16 21 1 98 70 78 70 -9 0 -19 -7 -23
-15z"/>
<path d="M1096 1321 c-4 -7 -5 -15 -2 -18 9 -9 19 4 14 18 -4 11 -6 11 -12 0z"/>
<path d="M841 1259 c-6 -18 -11 -34 -11 -35 0 -8 30 -4 31 4 7 68 -2 83 -20
31z"/>
<path d="M1045 1283 c11 -3 26 -10 33 -15 9 -8 12 -6 12 6 0 12 -9 16 -32 15
-22 -1 -26 -3 -13 -6z"/>
<path d="M1105 1270 c-3 -5 -1 -10 4 -10 6 0 11 5 11 10 0 6 -2 10 -4 10 -3 0
-8 -4 -11 -10z"/>
<path d="M1036 1261 c-4 -5 3 -7 14 -4 23 6 26 13 6 13 -8 0 -17 -4 -20 -9z"/>
<path d="M1157 1238 c10 -18 23 -46 30 -61 12 -27 11 -28 -8 -22 -14 5 -25 2
-30 -6 -6 -11 -11 -11 -21 -1 -17 17 -70 15 -94 -3 -22 -17 -3 -21 24 -4 24
15 76 -5 68 -26 -8 -22 12 -18 24 5 14 27 27 25 34 -5 9 -36 23 -31 21 8 -4
62 -35 147 -56 147 -5 0 -2 -15 8 -32z"/>
<path d="M985 1250 c-3 -6 1 -7 9 -4 18 7 21 14 7 14 -6 0 -13 -4 -16 -10z"/>
<path d="M1053 1198 c-24 -5 -43 -13 -43 -19 0 -5 -9 -9 -20 -9 -11 0 -20 -4
-20 -10 0 -5 9 -10 20 -10 11 0 20 4 20 9 0 14 103 33 136 26 28 -6 28 -6 10
9 -22 18 -41 18 -103 4z"/>
<path d="M900 1196 c0 -2 7 -9 15 -16 13 -11 14 -10 9 4 -5 14 -24 23 -24 12z"/>
<path d="M983 1113 c9 -9 19 -14 23 -11 10 10 -6 28 -24 28 -15 0 -15 -1 1
-17z"/>
<path d="M1036 1115 c-11 -8 -16 -18 -13 -22 4 -4 13 -1 19 5 15 15 28 16 28
2 0 -5 -7 -10 -15 -10 -20 0 -19 -16 1 -24 32 -12 71 -6 90 15 l19 21 -39 -16
c-43 -18 -60 -13 -30 8 22 16 19 22 -16 30 -15 4 -33 0 -44 -9z"/>
<path d="M912 1078 c-7 -7 -12 -18 -12 -25 0 -8 -7 -25 -16 -39 -9 -13 -14
-28 -10 -32 11 -10 44 38 49 73 6 36 4 38 -11 23z"/>
<path d="M980 1081 c0 -5 7 -16 15 -25 8 -8 15 -17 15 -20 0 -3 -7 -6 -15 -6
-8 0 -15 -5 -15 -10 0 -6 12 -9 27 -8 23 3 29 -2 38 -30 9 -26 55 -76 55 -59
0 11 -31 62 -66 112 -37 52 -54 66 -54 46z"/>
<path d="M1175 1049 c-4 -5 -19 -15 -33 -21 -18 -7 -22 -12 -13 -15 7 -3 25 6
39 21 15 14 24 26 20 26 -4 0 -10 -5 -13 -11z"/>
<path d="M912 992 c-22 -23 -22 -25 -6 -43 9 -10 24 -19 33 -19 9 0 24 -9 34
-20 23 -27 22 -33 -3 -20 -11 6 -26 8 -32 4 -7 -5 -8 -3 -3 6 6 10 3 11 -16 6
-13 -4 -30 -8 -36 -8 -8 -1 -13 -15 -13 -35 0 -20 -4 -32 -10 -28 -6 3 -7 -1
-4 -9 7 -19 21 -21 26 -4 3 8 9 4 17 -10 13 -24 37 -31 28 -8 -5 11 0 13 21 7
41 -12 60 -6 92 31 33 37 37 48 16 48 -7 0 -30 7 -50 15 -32 14 -35 18 -26 35
6 11 20 20 30 20 11 0 20 7 20 15 0 19 -17 19 -54 0 -15 -8 -32 -15 -37 -15
-15 0 -10 18 5 22 12 2 12 6 3 18 -10 13 -15 12 -35 -8z m93 -123 l50 1 -30
-20 c-35 -23 -56 -25 -102 -8 -45 16 -46 44 0 33 17 -5 55 -7 82 -6z"/>
<path d="M1197 962 c-10 -10 -17 -23 -17 -29 0 -6 -13 -25 -29 -42 -16 -17
-26 -31 -22 -31 11 0 45 40 70 83 25 40 24 47 -2 19z"/>
<path d="M850 943 c0 -15 18 -35 23 -27 3 5 -1 15 -9 22 -8 7 -14 9 -14 5z"/>
<path d="M1020 932 c0 -5 12 -14 27 -21 28 -13 28 -13 9 8 -20 22 -36 27 -36
13z"/>
<path d="M1128 922 c-16 -9 -28 -23 -27 -32 0 -10 2 -11 6 -2 2 6 10 12 16 12
7 0 18 9 25 20 15 24 14 24 -20 2z"/>
<path d="M1090 840 c-13 -8 -13 -10 2 -10 9 0 20 5 23 10 8 13 -5 13 -25 0z"/>
<path d="M1042 818 c-19 -19 -14 -29 8 -16 20 13 27 28 12 28 -4 0 -13 -5 -20
-12z"/>
<path d="M1066 785 c-11 -8 -15 -15 -9 -15 6 0 16 7 23 15 16 19 11 19 -14 0z"/>
<path d="M910 769 c0 -15 22 -22 30 -9 5 9 9 9 14 1 4 -6 19 -11 34 -10 l27 0
-25 10 c-33 13 -80 18 -80 8z"/>
<path d="M1292 1068 c-16 -16 -15 -28 1 -28 7 0 18 -12 24 -27 l11 -28 1 31
c1 40 -19 70 -37 52z"/>
<path d="M1279 884 c-27 -33 24 -70 55 -39 12 12 13 21 6 36 -13 23 -43 25
-61 3z m41 -9 c0 -8 -4 -15 -9 -15 -13 0 -22 16 -14 24 11 11 23 6 23 -9z"/>
<path d="M1265 819 c10 -15 43 -30 49 -21 3 4 -8 13 -25 19 -16 6 -27 7 -24 2z"/>
<path d="M1346 762 c-7 -12 22 -45 33 -37 17 10 13 25 -6 25 -15 0 -16 2 -3
10 13 8 13 10 -2 10 -9 0 -19 -3 -22 -8z"/>
<path d="M1388 699 c-10 -5 -18 -14 -18 -19 0 -17 15 -11 28 10 14 23 13 23
-10 9z"/>
<path d="M1170 735 c0 -14 4 -25 9 -25 5 0 8 11 7 25 -1 33 -16 33 -16 0z"/>
<path d="M710 591 c0 -6 5 -13 10 -16 6 -3 10 1 10 9 0 9 -4 16 -10 16 -5 0
-10 -4 -10 -9z"/>
<path d="M750 584 c0 -5 32 -45 102 -128 5 -6 8 -6 8 1 0 5 -19 31 -41 57 -23
26 -39 49 -37 51 7 7 66 -53 85 -87 25 -41 48 -38 27 5 -20 38 -57 72 -103 92
-37 17 -41 18 -41 9z"/>
<path d="M759 526 c26 -28 31 -31 31 -17 0 5 -12 17 -27 26 l-28 18 24 -27z"/>
<path d="M1035 534 c-31 -9 -62 -26 -84 -49 l-36 -35 27 0 c15 0 30 5 34 11 3
6 34 29 68 50 66 42 66 43 -9 23z m-26 -27 c-2 -1 -15 -11 -29 -22 l-25 -20
19 23 c11 12 24 22 29 22 6 0 8 -1 6 -3z"/>
<path d="M1170 434 l-25 -15 25 7 c28 7 35 12 29 18 -2 2 -15 -2 -29 -10z"/>
<path d="M1575 450 c-3 -5 -2 -10 4 -10 5 0 13 5 16 10 3 6 2 10 -4 10 -5 0
-13 -4 -16 -10z"/>
<path d="M1443 381 c-111 -75 -150 -116 -168 -175 -9 -30 -10 -44 -3 -40 7 5
9 -4 4 -29 -6 -30 -3 -38 15 -47 17 -10 23 -9 30 1 6 10 3 15 -9 17 -9 2 -21
8 -26 13 -15 14 23 23 39 9 12 -10 15 -10 15 3 0 17 56 128 90 179 12 18 46
54 74 80 28 26 46 48 39 48 -6 0 -51 -27 -100 -59z m-13 -48 c0 -5 -14 -22
-30 -40 -17 -18 -30 -37 -30 -42 0 -6 -4 -11 -9 -11 -5 0 -7 -8 -4 -18 6 -24
-23 -50 -39 -34 -8 8 -8 15 2 27 7 8 8 15 3 15 -5 0 -15 -12 -22 -26 -6 -15
-14 -25 -16 -22 -2 2 5 23 16 46 19 39 50 68 104 99 26 14 25 14 25 6z m-102
-171 c2 -7 -2 -10 -12 -6 -9 3 -16 11 -16 16 0 13 23 5 28 -10z"/>
<path d="M410 461 c0 -9 30 -24 36 -18 2 1 -6 8 -16 15 -11 7 -20 8 -20 3z"/>
<path d="M495 421 c3 -5 22 -15 43 -22 20 -7 56 -23 79 -36 23 -12 46 -23 52
-23 6 0 27 -11 47 -25 47 -32 68 -32 29 1 -37 30 -169 94 -195 94 -10 0 -22 5
-25 10 -3 6 -13 10 -21 10 -8 0 -13 -4 -9 -9z"/>
<path d="M1617 388 c-7 -25 -3 -33 12 -23 13 8 15 45 2 45 -5 0 -11 -10 -14
-22z"/>
<path d="M1575 370 c-3 -11 -11 -20 -17 -20 -5 0 -7 -7 -4 -16 3 -8 -1 -26
-10 -40 -9 -13 -14 -24 -11 -24 11 0 58 68 62 89 5 27 -12 37 -20 11z"/>
<path d="M1513 321 c-13 -11 -39 -43 -58 -72 -26 -40 -32 -56 -23 -66 8 -10
14 -10 24 -2 8 6 14 16 14 21 0 6 -7 5 -15 -2 -8 -7 -15 -9 -15 -4 1 12 27 46
34 44 4 -1 10 0 14 3 4 2 1 2 -5 1 -23 -6 -14 16 22 53 31 32 40 44 33 43 -2
-1 -13 -9 -25 -19z"/>
<path d="M1505 270 c-3 -5 -1 -10 4 -10 6 0 11 5 11 10 0 6 -2 10 -4 10 -3 0
-8 -4 -11 -10z"/>
<path d="M1484 183 c-15 -32 -29 -59 -30 -61 -1 -1 -13 2 -27 7 -20 8 -27 7
-31 -5 -8 -22 -9 -22 20 -16 21 4 25 1 22 -14 -4 -20 -10 -21 -42 -8 -14 5
-17 3 -14 -7 6 -17 47 -24 61 -10 12 12 78 163 73 168 -2 2 -16 -22 -32 -54z"/>
<path d="M1410 160 c0 -5 5 -10 11 -10 5 0 7 5 4 10 -3 6 -8 10 -11 10 -2 0
-4 -4 -4 -10z"/>
<path d="M502 320 c0 -14 2 -19 5 -12 2 6 2 18 0 25 -3 6 -5 1 -5 -13z"/>
<path d="M569 255 c-17 -24 -29 -33 -41 -29 -10 3 -18 1 -18 -5 0 -34 56 -10
80 34 21 39 6 39 -21 0z"/>
<path d="M511 264 c0 -11 3 -14 6 -6 3 7 2 16 -1 19 -3 4 -6 -2 -5 -13z"/>
<path d="M615 540 c3 -5 8 -10 11 -10 2 0 4 5 4 10 0 6 -5 10 -11 10 -5 0 -7
-4 -4 -10z"/>
<path d="M271 379 c-23 -19 -24 -21 -7 -37 17 -16 18 -16 12 5 -5 15 -1 26 16
37 12 9 18 16 13 16 -6 -1 -21 -10 -34 -21z"/>
<path d="M1230 362 c-50 -30 -187 -168 -177 -178 4 -4 32 18 64 49 69 66 155
137 165 137 5 0 8 5 8 10 0 15 -11 12 -60 -18z"/>
<path d="M390 354 c0 -8 5 -12 10 -9 6 3 10 10 10 16 0 5 -4 9 -10 9 -5 0 -10
-7 -10 -16z"/>
<path d="M898 363 c7 -3 16 -2 19 1 4 3 -2 6 -13 5 -11 0 -14 -3 -6 -6z"/>
<path d="M230 325 c0 -39 136 -325 155 -325 7 0 -12 47 -46 118 -33 64 -67
141 -76 170 -16 49 -33 69 -33 37z"/>
<path d="M1709 338 c0 -2 -2 -19 -3 -38 -1 -19 -6 -51 -10 -70 -6 -33 -6 -34
9 -16 14 18 23 126 10 126 -3 0 -5 -1 -6 -2z"/>
<path d="M1655 303 c-18 -14 -18 -15 -1 -9 16 5 18 2 13 -26 -3 -18 -8 -44
-11 -58 -4 -17 -1 -14 9 9 9 18 15 48 13 67 -3 31 -4 32 -23 17z"/>
<path d="M400 293 c0 -12 5 -25 10 -28 13 -8 13 15 0 35 -8 12 -10 11 -10 -7z"/>
<path d="M1230 300 c-9 -6 -10 -10 -3 -10 6 0 15 5 18 10 8 12 4 12 -15 0z"/>
<path d="M196 274 c-9 -22 -7 -26 5 -18 7 4 10 1 7 -7 -3 -8 -10 -13 -15 -12
-10 2 -42 -94 -47 -139 -2 -13 -8 -33 -14 -45 -21 -39 -15 -53 21 -52 23 1 26
3 10 6 -13 2 -23 10 -23 17 0 25 13 25 42 1 48 -40 61 -29 16 13 -32 30 -40
43 -34 58 8 18 8 18 16 -1 4 -12 16 -27 25 -35 17 -14 17 -13 1 17 -9 18 -21
45 -26 60 l-10 28 17 -22 c10 -12 29 -41 43 -64 31 -52 58 -79 81 -79 12 0 3
14 -29 50 -58 64 -106 146 -89 153 7 2 18 16 26 30 12 22 12 28 -2 41 -14 14
-16 14 -21 0z"/>
<path d="M310 275 c-16 -19 -7 -51 25 -94 27 -38 35 -26 9 14 -9 14 -13 25 -8
25 4 0 0 6 -10 13 -15 11 -17 17 -7 35 13 25 9 29 -9 7z"/>
<path d="M1077 169 c-65 -61 -122 -121 -128 -133 -6 -11 15 4 47 34 32 30 51
46 43 35 -33 -42 -30 -48 5 -10 19 22 35 43 36 47 0 9 44 54 86 88 34 28 50
50 36 50 -5 0 -61 -50 -125 -111z"/>
<path d="M815 255 c-3 -8 -7 -22 -10 -31 -3 -8 2 -28 10 -45 16 -30 32 -40 21
-13 -3 8 -1 24 4 35 7 13 7 19 0 19 -5 0 -10 -4 -10 -10 0 -5 -4 -10 -9 -10
-14 0 0 41 15 47 19 7 18 23 -1 23 -9 0 -18 -7 -20 -15z"/>
<path d="M1740 259 c0 -5 5 -7 10 -4 6 3 10 8 10 11 0 2 -4 4 -10 4 -5 0 -10
-5 -10 -11z"/>
<path d="M1591 231 c-24 -33 -28 -56 -5 -26 20 26 36 55 30 55 -3 0 -14 -13
-25 -29z"/>
<path d="M1630 225 c-7 -9 -8 -15 -2 -15 5 0 12 7 16 15 3 8 4 15 2 15 -2 0
-9 -7 -16 -15z"/>
<path d="M860 211 c0 -5 -3 -16 -6 -24 -3 -8 2 -17 11 -21 10 -4 14 -2 9 5 -4
6 -1 15 6 19 7 4 9 13 6 19 -9 13 -26 15 -26 2z"/>
<path d="M434 196 c-3 -8 -1 -23 5 -33 9 -15 10 -13 11 15 0 34 -7 42 -16 18z"/>
<path d="M630 192 c0 -4 10 -13 23 -21 22 -14 22 -14 3 8 -20 22 -26 25 -26
13z"/>
<path d="M235 179 c-4 -6 -5 -13 -2 -16 7 -7 27 6 27 18 0 12 -17 12 -25 -2z"/>
<path d="M960 175 c-8 -9 -8 -15 -2 -15 12 0 26 19 19 26 -2 2 -10 -2 -17 -11z"/>
<path d="M1760 190 c-1 -3 -4 -18 -6 -34 -1 -16 -13 -39 -25 -52 -12 -13 -20
-27 -16 -30 3 -4 -4 -15 -16 -25 -12 -10 -18 -18 -13 -19 5 0 3 -7 -4 -15 -7
-8 -9 -15 -4 -15 12 0 56 56 78 98 10 19 15 47 13 65 -2 18 -5 30 -7 27z"/>
<path d="M910 170 c0 -5 4 -10 9 -10 6 0 13 5 16 10 3 6 -1 10 -9 10 -9 0 -16
-4 -16 -10z"/>
<path d="M1544 143 c-9 -21 -21 -46 -26 -56 -8 -16 -6 -18 11 -12 22 7 38 -12
23 -27 -8 -8 -15 -8 -26 1 -10 9 -16 9 -21 1 -4 -6 1 -17 11 -25 17 -12 22
-11 42 7 12 12 22 26 22 32 0 6 16 31 35 55 19 24 35 48 35 54 0 15 -61 -1
-77 -21 -13 -16 -14 -15 -8 6 10 35 -4 26 -21 -15z m51 -18 c-26 -34 -50 -42
-50 -17 0 10 67 62 74 56 1 -1 -9 -19 -24 -39z"/>
<path d="M615 116 c39 -36 118 -86 85 -54 -8 8 -40 32 -70 52 l-55 38 40 -36z"/>
<path d="M694 141 c10 -16 94 -63 105 -59 6 1 -17 18 -51 37 -33 18 -57 28
-54 22z"/>
<path d="M455 119 c-11 -17 1 -21 15 -4 8 9 8 15 2 15 -6 0 -14 -5 -17 -11z"/>
<path d="M860 80 l-45 -7 55 -1 c30 0 64 3 75 8 17 7 15 8 -10 8 -16 -1 -50
-4 -75 -8z"/>
<path d="M1080 20 c-8 -5 -12 -11 -9 -14 2 -3 11 -1 19 4 8 5 12 11 9 14 -2 3
-11 1 -19 -4z"/>
<path d="M1167 23 c-13 -13 -7 -18 26 -20 30 -2 31 -1 13 12 -22 17 -30 18
-39 8z"/>
<path d="M1835 10 c-3 -5 -1 -10 4 -10 6 0 11 5 11 10 0 6 -2 10 -4 10 -3 0
-8 -4 -11 -10z"/>
<path d="M878 3 c7 -3 16 -2 19 1 4 3 -2 6 -13 5 -11 0 -14 -3 -6 -6z"/>
<path d="M918 3 c7 -3 16 -2 19 1 4 3 -2 6 -13 5 -11 0 -14 -3 -6 -6z"/>
</g>
</svg>
