<?xml version="1.0" standalone="no"?>
<!DOCTYPE svg PUBLIC "-//W3C//DTD SVG 20010904//EN"
 "http://www.w3.org/TR/2001/REC-SVG-20010904/DTD/svg10.dtd">
<svg version="1.0" xmlns="http://www.w3.org/2000/svg"
 width="900.000000pt" height="1134.000000pt" viewBox="0 0 900.000000 1134.000000"
 preserveAspectRatio="xMidYMid meet">
<metadata>
Created by potrace 1.10, written by Peter Selinger 2001-2011
</metadata>
<g transform="translate(0.000000,1134.000000) scale(0.100000,-0.100000)"
fill="#000000" stroke="none">
<path d="M3680 11279 c0 -12 -6 -30 -14 -38 -21 -24 -25 -85 -5 -89 19 -3 47
56 51 108 2 26 -1 35 -14 38 -13 2 -18 -3 -18 -19z"/>
<path d="M4940 11055 c-9 -11 -8 -24 8 -57 12 -26 22 -76 26 -127 4 -47 12
-91 18 -98 17 -21 2 -44 -25 -38 -15 4 -30 1 -40 -9 -8 -9 -28 -16 -44 -15
l-28 1 33 9 c61 18 33 59 -40 59 -45 0 -47 -1 -36 -20 17 -26 3 -37 -21 -16
-14 12 -21 14 -26 6 -4 -7 -18 -10 -31 -7 -18 3 -24 0 -24 -14 0 -20 -51 -54
-97 -64 -38 -8 -38 -8 -47 -55 -5 -28 -5 -31 4 -17 13 21 49 22 56 2 13 -33
-14 -44 -99 -42 -64 2 -89 -1 -112 -15 -16 -10 -37 -18 -45 -18 -21 0 -120
-88 -120 -106 0 -23 20 -16 68 23 36 30 57 39 101 44 31 3 57 5 59 4 4 -4 -87
-65 -97 -65 -4 0 -18 -11 -31 -25 -13 -14 -31 -25 -41 -25 -9 0 -22 -7 -29
-15 -7 -8 -17 -15 -23 -15 -6 0 -19 -8 -29 -17 -16 -14 -24 -15 -52 -5 -18 7
-41 12 -52 11 -14 0 -12 -3 9 -11 22 -8 26 -13 16 -24 -15 -18 -38 -18 -45 1
-9 23 -30 18 -52 -12 -19 -26 -21 -26 -153 -30 -323 -8 -333 -9 -391 -39 -71
-38 -134 -80 -184 -124 -58 -50 -147 -94 -174 -85 -23 7 -104 -18 -131 -41 -8
-8 -33 -14 -53 -14 -21 0 -50 -6 -64 -14 -15 -8 -47 -24 -72 -35 -34 -16 -50
-31 -65 -62 -13 -28 -38 -54 -76 -80 -151 -102 -309 -346 -301 -463 1 -22 -51
-132 -76 -159 -9 -11 -52 -36 -95 -58 -43 -21 -109 -60 -145 -86 -71 -50 -222
-199 -222 -218 0 -21 -46 -55 -76 -55 -16 -1 -40 -7 -54 -15 -14 -8 -33 -14
-42 -15 -9 0 -45 -17 -79 -37 -34 -21 -82 -49 -108 -63 -66 -35 -83 -50 -116
-95 -16 -22 -45 -56 -64 -76 -82 -81 -151 -163 -151 -178 0 -9 -9 -32 -20 -51
-11 -19 -29 -55 -41 -80 -11 -25 -27 -58 -36 -75 -8 -16 -19 -46 -24 -65 -22
-95 -37 -139 -58 -179 -18 -36 -21 -49 -12 -63 18 -29 13 -88 -15 -173 -15
-44 -30 -107 -35 -140 -13 -93 -32 -165 -62 -226 -15 -31 -27 -67 -27 -82 0
-15 -11 -34 -27 -49 -40 -33 -93 -103 -93 -122 0 -9 7 -16 15 -16 8 0 15 7 15
15 0 9 7 18 15 21 8 3 17 14 20 25 4 11 11 17 16 14 18 -12 9 -53 -18 -83 -19
-19 -40 -66 -62 -138 -19 -60 -38 -116 -43 -124 -4 -8 -13 -26 -18 -40 -6 -14
-26 -52 -45 -85 -37 -67 -64 -120 -89 -180 -10 -22 -31 -66 -47 -98 -16 -31
-29 -65 -29 -75 0 -9 -7 -26 -15 -36 -11 -15 -15 -49 -15 -134 0 -99 3 -119
21 -149 20 -31 21 -43 14 -141 -4 -64 -12 -116 -21 -129 -9 -14 -14 -49 -14
-95 l0 -73 48 -40 c48 -42 146 -105 161 -105 4 0 19 -13 32 -29 31 -37 94 -65
108 -47 14 16 -1 37 -41 55 -21 11 -44 35 -64 71 -27 46 -53 81 -107 138 -10
11 12 73 33 93 34 33 58 33 79 -2 18 -30 85 -69 120 -69 9 0 25 -7 35 -15 11
-8 29 -15 41 -15 12 0 26 -5 33 -12 18 -18 77 -35 93 -27 26 13 109 29 147 29
21 0 58 -9 82 -21 34 -17 48 -19 67 -10 13 6 40 11 59 11 55 0 124 41 124 74
0 20 -30 21 -56 1 -26 -20 -94 -20 -94 0 0 8 6 15 14 15 8 0 35 20 59 45 48
48 77 55 111 30 11 -8 36 -15 56 -15 31 0 45 9 105 70 38 39 74 70 80 70 21 0
65 51 65 75 0 31 -17 32 -49 1 -15 -13 -45 -34 -69 -47 -41 -22 -44 -22 -71
-6 -16 9 -41 17 -55 17 -14 0 -26 5 -26 10 0 6 -15 10 -32 10 -39 0 -41 1
-119 70 -69 62 -88 96 -105 190 -6 36 -22 94 -35 128 l-24 64 45 39 c25 21 54
41 65 45 21 5 198 -77 213 -100 4 -6 7 -41 7 -77 0 -62 2 -68 37 -108 65 -71
48 -151 -37 -167 -26 -5 -41 -2 -54 10 -10 9 -25 16 -34 16 -25 0 -21 -29 6
-41 12 -5 38 -19 57 -29 41 -22 85 -25 117 -7 23 13 63 79 63 105 0 18 39 92
48 92 11 0 42 138 42 184 0 21 -8 52 -17 69 -21 38 -159 223 -172 231 -4 3
-20 29 -35 59 -15 29 -47 75 -71 102 -31 35 -45 59 -45 79 0 16 -5 45 -12 63
-10 29 -9 38 7 66 10 17 24 37 31 42 6 6 20 26 30 45 36 67 134 189 194 241
33 28 60 58 60 65 0 19 124 198 169 245 9 9 39 42 66 74 28 31 65 73 83 93 18
19 35 46 38 59 4 12 9 23 13 23 7 0 43 79 57 125 6 18 21 35 39 44 17 8 55 31
86 51 64 42 104 58 174 70 66 10 104 24 199 72 107 54 107 53 95 -127 -5 -77
-13 -199 -17 -270 l-8 -130 -68 -103 c-44 -66 -74 -102 -86 -102 -11 0 -26
-16 -38 -38 -11 -22 -32 -52 -46 -67 -15 -16 -29 -39 -32 -52 -4 -13 -10 -23
-15 -23 -5 0 -12 -8 -16 -17 -3 -10 -19 -34 -35 -54 -24 -32 -28 -46 -28 -102
0 -50 -5 -74 -25 -110 -14 -25 -28 -69 -32 -99 -3 -29 -9 -58 -14 -63 -13 -17
-37 -97 -44 -148 -4 -26 -12 -50 -17 -53 -5 -3 -13 -16 -19 -27 -5 -12 -13
-29 -17 -37 -28 -49 -35 -70 -43 -124 -17 -115 -56 -299 -72 -336 -4 -8 -11
-40 -16 -70 -12 -70 -30 -136 -47 -177 -8 -17 -14 -48 -14 -70 0 -21 -5 -56
-10 -78 -5 -22 -12 -92 -15 -155 -3 -63 -10 -146 -15 -185 -16 -108 -16 -346
-1 -483 11 -98 12 -146 3 -235 -14 -134 -28 -432 -25 -537 3 -98 9 -120 33
-120 14 0 22 -11 30 -40 6 -22 12 -40 13 -40 1 0 2 98 2 218 0 150 4 226 12
243 7 14 15 106 20 221 9 213 17 245 52 199 10 -13 19 -35 19 -48 0 -30 9 -40
24 -25 7 7 20 12 29 12 17 0 18 -12 13 -145 -3 -94 -10 -157 -19 -180 -8 -19
-15 -61 -15 -94 0 -33 -5 -72 -11 -88 -6 -15 -13 -57 -15 -93 -2 -36 -9 -87
-15 -115 -13 -56 -37 -198 -46 -263 -5 -42 10 -100 31 -114 25 -17 34 5 34 91
0 49 6 108 12 132 27 102 43 155 51 169 5 8 13 25 19 38 5 12 15 22 22 22 10
0 12 -39 10 -177 -3 -150 -1 -182 14 -215 9 -21 23 -38 31 -38 11 0 12 16 8
83 -7 88 -27 279 -45 416 -9 71 -9 89 4 116 9 18 16 40 16 48 0 8 7 28 15 43
8 16 15 36 15 45 0 8 4 19 8 25 5 5 15 28 22 51 12 39 11 45 -5 63 -16 17 -16
25 -5 64 14 50 9 76 -15 76 -9 0 -15 9 -15 25 0 15 -7 28 -17 32 -22 8 -76 62
-92 91 -9 17 -17 20 -40 16 -45 -9 -71 23 -71 89 0 28 -6 63 -13 77 -23 44
-25 68 -12 132 7 35 19 144 25 243 7 99 16 185 21 191 5 6 6 33 3 60 -6 44 -4
52 20 74 18 18 26 35 26 61 0 20 7 42 15 49 8 7 15 20 15 29 0 9 9 43 20 75
11 33 20 68 20 79 0 12 9 39 19 61 11 23 26 57 35 76 9 19 20 42 25 50 6 8 17
36 26 61 9 25 37 70 62 98 25 29 42 55 38 59 -10 10 -105 -98 -105 -120 0 -11
-16 -35 -35 -55 -19 -20 -35 -42 -35 -50 0 -7 -4 -13 -10 -13 -5 0 -10 -8 -10
-17 0 -10 -16 -49 -35 -88 -19 -38 -35 -78 -35 -87 0 -9 -4 -20 -10 -23 -21
-13 -9 57 30 175 22 67 40 131 40 143 1 12 7 33 15 47 8 14 14 50 15 81 0 46
4 61 25 81 31 31 55 87 55 130 0 18 9 52 19 75 15 33 25 42 48 45 24 2 28 8
28 32 0 25 -5 31 -32 38 -44 11 -44 11 17 153 5 11 11 45 13 75 5 54 22 95 96
225 16 28 26 54 24 58 -3 5 0 19 7 31 11 21 14 22 47 11 21 -7 42 -24 50 -39
29 -55 83 -20 83 53 0 16 7 34 16 42 27 22 47 70 35 82 -16 16 -13 47 4 47 8
0 15 -4 15 -8 0 -5 6 -16 13 -26 11 -15 17 -17 35 -7 26 14 28 42 6 76 -12 19
-15 42 -10 117 3 51 8 112 12 136 5 29 3 42 -5 42 -18 0 -33 51 -26 87 8 43
21 42 29 -3 7 -32 29 -54 43 -41 3 3 8 27 11 52 4 38 1 50 -17 69 -21 22 -21
24 -4 54 17 29 17 31 -2 51 -18 20 -18 23 -2 57 9 19 17 37 17 39 0 8 -49 5
-54 -3 -2 -4 -23 -6 -46 -4 -35 4 -40 7 -35 23 6 17 1 19 -38 19 -24 0 -70 -9
-102 -20 -32 -11 -72 -20 -89 -20 -17 0 -39 -7 -50 -15 -10 -8 -44 -20 -75
-26 -39 -9 -75 -27 -120 -61 -36 -27 -74 -50 -85 -53 -12 -2 -38 -7 -59 -10
-21 -3 -41 -13 -44 -21 -3 -8 -18 -14 -34 -14 -23 0 -34 -8 -54 -40 -14 -23
-25 -54 -25 -75 0 -24 -5 -35 -15 -35 -17 0 -20 -16 -5 -25 15 -9 1 -27 -16
-21 -8 3 -11 0 -7 -9 3 -8 -9 -34 -26 -57 -17 -23 -31 -50 -31 -60 0 -10 -12
-31 -27 -48 -25 -28 -30 -30 -47 -17 -18 13 -17 16 13 70 25 45 30 65 26 91
-4 20 -1 47 9 71 21 49 22 231 2 258 -11 14 -13 42 -10 108 4 73 1 95 -13 119
-28 48 -57 39 -41 -13 8 -28 21 -246 20 -332 -3 -147 -11 -244 -21 -264 -7
-13 -22 -55 -32 -95 -17 -62 -40 -116 -107 -251 -22 -46 -83 -134 -118 -171
-40 -41 -123 -160 -135 -191 -5 -13 -17 -23 -28 -23 -49 0 -107 -203 -70 -247
35 -43 59 -83 59 -99 0 -8 20 -40 45 -68 25 -29 45 -56 45 -58 0 -8 88 -103
147 -159 12 -11 25 -35 28 -52 4 -18 14 -46 22 -64 18 -39 14 -98 -7 -98 -8 0
-20 16 -27 36 -27 82 -42 109 -62 109 -24 0 -36 16 -36 48 0 34 -89 81 -175
91 l-55 6 -3 40 c-6 94 -26 115 -35 38 -4 -41 -11 -53 -49 -86 -55 -47 -71
-52 -110 -33 -17 9 -35 16 -40 16 -13 0 -9 -62 6 -79 32 -38 57 -105 87 -231
37 -157 56 -199 110 -249 34 -31 39 -41 34 -64 -10 -38 -37 -34 -63 11 -37 64
-246 267 -267 258 -25 -9 -23 -261 1 -309 16 -29 15 -32 -5 -48 l-21 -18 25
-27 c32 -34 33 -72 2 -79 -22 -6 -129 34 -140 52 -3 5 5 31 18 58 50 102 3
189 -118 219 -15 3 -27 10 -27 15 0 17 -55 71 -72 71 -9 0 -20 9 -23 20 -9 30
-27 24 -23 -7 2 -20 8 -27 20 -25 9 1 26 -10 37 -24 17 -22 21 -41 21 -104 0
-48 6 -88 14 -105 23 -43 7 -62 -44 -55 -40 5 -81 89 -82 170 0 22 -6 44 -13
48 -24 14 -32 48 -27 111 4 51 8 64 23 68 23 6 24 30 3 71 -8 18 -13 36 -9 42
10 16 52 12 59 -6 11 -28 26 -3 20 34 -4 30 3 52 35 117 24 45 41 94 41 113 0
18 7 49 15 69 8 19 15 46 15 60 0 13 7 37 15 53 12 23 22 30 45 30 17 0 30 4
30 9 0 4 -11 6 -25 3 -20 -3 -25 0 -25 16 0 27 37 90 61 103 11 5 19 15 19 22
0 16 99 206 123 236 12 16 31 47 53 90 19 36 6 45 -19 15 -56 -67 -77 -80 -77
-48 0 24 61 165 74 170 7 3 11 34 12 82 0 56 8 100 28 160 19 57 25 92 21 115
-4 20 0 56 9 88 11 34 13 55 6 57 -17 6 -11 44 15 97 13 28 25 66 25 86 0 20
7 42 15 49 8 7 15 21 15 31 0 12 7 19 20 19 15 0 20 -7 20 -29 0 -16 -6 -31
-15 -35 -20 -7 -19 -50 1 -70 24 -25 34 -19 34 19 0 20 11 58 25 85 16 32 21
51 14 56 -14 8 -2 56 18 71 8 6 13 16 10 21 -3 4 3 23 14 40 10 18 19 39 19
47 0 8 25 33 55 55 82 61 133 118 137 154 5 46 81 91 154 90 50 -1 55 1 81 35
34 45 53 60 75 61 12 0 16 -5 11 -17 -4 -10 -11 -21 -17 -25 -6 -4 -7 -11 -2
-15 5 -4 11 -2 13 5 3 6 11 12 19 12 22 0 94 24 94 31 0 4 -8 10 -17 14 -15 5
-11 10 20 26 24 13 37 26 37 40 0 29 28 79 44 79 7 0 19 7 26 15 7 8 16 13 20
10 4 -3 19 4 33 15 14 11 32 20 40 20 8 0 20 7 27 15 7 8 22 15 33 15 13 0 56
36 113 95 51 52 96 95 99 95 4 0 18 9 32 20 l26 20 -32 0 c-19 0 -31 5 -31 13
0 13 49 55 80 69 13 6 12 7 -2 7 -26 1 -30 18 -13 50 8 17 15 40 15 52 0 13 9
32 19 43 10 12 26 43 35 69 9 26 23 59 32 73 10 14 17 36 18 50 1 19 12 31 51
52 27 15 69 51 93 81 24 29 57 65 73 79 l30 25 65 -69 c51 -55 64 -75 64 -101
0 -29 19 -52 146 -180 157 -159 247 -265 268 -314 15 -35 110 -136 136 -144
21 -7 34 -63 25 -106 -4 -18 -2 -36 5 -45 7 -8 12 -40 12 -72 0 -31 6 -70 14
-86 20 -41 19 -231 -1 -279 -8 -20 -15 -51 -15 -69 -1 -18 -7 -50 -14 -70 -13
-35 -12 -38 6 -38 13 0 18 6 17 23 -3 36 0 57 10 57 17 0 23 -42 10 -67 -11
-20 -10 -28 4 -53 15 -25 18 -60 18 -265 0 -129 -2 -239 -6 -245 -3 -5 -6 -77
-6 -160 0 -168 -11 -195 -34 -83 -6 29 -30 61 -39 52 -6 -6 -7 -119 -2 -329 6
-232 8 -251 27 -281 12 -17 13 -28 6 -40 -8 -13 -5 -23 11 -44 24 -30 22 -32
28 40 1 17 7 68 13 115 8 55 10 133 5 225 -9 167 -10 136 20 370 29 224 33
347 11 365 -23 19 -29 78 -15 149 26 126 33 282 13 288 -6 2 -14 -5 -18 -16
-11 -36 -25 -23 -25 23 0 27 5 46 13 49 25 9 41 91 28 141 -6 25 -11 66 -11
93 0 26 -7 61 -15 77 -9 17 -15 55 -15 95 0 119 -50 240 -145 356 -23 28 -50
62 -61 76 -33 45 -130 163 -163 198 -19 21 -37 31 -46 27 -9 -3 -18 1 -21 9
-4 8 -12 15 -19 15 -15 0 -45 32 -45 49 0 6 -17 29 -37 50 -55 54 -103 109
-103 117 0 3 -11 29 -25 57 -30 59 -29 91 3 95 12 2 22 10 22 17 0 23 52 57
76 51 13 -4 26 -2 29 4 10 16 45 12 45 -5 0 -17 31 -20 58 -6 69 35 111 34
142 -3 14 -18 40 -21 40 -5 0 6 -7 17 -16 26 -25 25 -13 55 31 77 23 12 55 31
72 44 17 12 36 22 42 22 6 0 25 13 43 29 18 15 43 32 56 35 18 6 21 11 12 21
-7 9 -8 15 -1 19 6 4 31 -14 57 -39 26 -25 51 -45 56 -45 4 0 8 11 8 24 0 16
7 27 19 31 11 3 21 16 23 28 2 16 13 24 40 31 47 12 79 -8 104 -63 24 -51 46
-50 55 2 7 46 13 51 64 65 22 6 49 14 61 17 19 6 22 2 28 -45 4 -28 13 -65 20
-83 29 -68 36 -106 36 -185 0 -45 4 -82 8 -82 10 0 32 -143 32 -210 1 -25 7
-72 15 -105 8 -33 15 -96 15 -140 0 -44 5 -96 11 -115 5 -19 14 -71 19 -115 5
-44 14 -116 19 -160 6 -44 10 -147 10 -230 1 -145 21 -357 42 -440 6 -22 13
-51 16 -65 2 -14 11 -39 19 -57 8 -17 14 -42 14 -55 0 -13 5 -39 11 -58 23
-73 41 -157 48 -220 5 -40 23 -101 48 -160 22 -52 47 -115 54 -140 8 -25 29
-67 47 -95 19 -27 50 -81 69 -120 20 -38 41 -73 48 -77 12 -7 59 -73 137 -191
37 -57 51 -78 63 -91 30 -34 75 -106 81 -131 4 -15 15 -30 25 -32 22 -6 32
-30 20 -50 -7 -14 -10 -13 -21 7 l-12 23 -20 -24 c-24 -30 -48 -86 -48 -110 0
-10 -13 -32 -30 -49 -34 -34 -37 -45 -15 -54 17 -6 20 -42 5 -51 -12 -8 -13
-52 -1 -59 5 -3 14 1 21 9 7 8 17 15 23 15 24 0 57 52 57 91 0 32 4 41 23 48
12 5 31 26 41 47 11 22 25 51 33 66 7 14 13 33 13 41 0 8 7 20 15 27 8 7 15
25 15 40 0 15 7 33 15 40 8 7 15 22 15 34 0 11 8 42 18 68 15 42 31 57 128
130 61 46 136 108 168 138 32 30 64 57 71 60 33 12 95 75 95 96 0 12 7 27 15
34 14 12 12 30 -4 30 -4 0 -37 -20 -74 -44 -82 -54 -115 -63 -156 -42 -16 9
-39 16 -49 16 -11 0 -25 7 -32 15 -7 8 -19 15 -27 15 -17 0 -30 10 -100 83
-31 31 -60 57 -65 57 -19 0 -5 -30 27 -59 19 -17 35 -37 35 -46 0 -8 4 -15 9
-15 16 0 146 -92 149 -106 5 -20 -84 -104 -110 -104 -24 0 -65 -42 -147 -153
-41 -54 -43 -60 -43 -125 1 -105 -9 -122 -47 -81 -15 17 -18 26 -10 41 8 14 6
20 -8 25 -23 9 -52 44 -53 63 0 9 -13 31 -28 50 -32 39 -80 106 -147 207 -25
37 -59 87 -76 111 -67 90 -117 191 -133 269 -8 38 -24 85 -35 104 -13 22 -21
51 -21 81 0 26 -11 91 -24 145 -13 54 -29 125 -36 158 -6 33 -18 75 -26 93 -8
18 -14 42 -14 53 0 11 -5 30 -11 41 -27 51 -66 420 -74 696 -3 99 -10 182 -16
194 -6 12 -13 80 -14 152 -2 87 -8 145 -19 174 -10 29 -14 65 -11 115 3 52 -2
90 -16 136 -11 35 -19 92 -19 130 0 47 -7 85 -24 127 -32 82 -39 159 -16 179
25 22 146 55 159 42 7 -7 22 -1 47 19 20 16 50 38 68 50 19 13 33 32 36 50 6
33 60 74 99 74 14 0 35 7 45 15 11 8 29 15 41 15 11 0 29 9 38 21 13 15 25 19
43 15 24 -6 33 7 14 19 -20 12 -9 37 34 80 43 44 76 58 76 33 -1 -17 -52 -73
-75 -82 -14 -5 -16 -9 -7 -18 9 -9 16 -7 30 8 10 10 39 35 65 54 25 19 47 40
47 47 0 6 13 14 29 18 20 4 33 15 39 34 9 24 15 28 39 24 50 -8 74 -26 94 -71
l20 -43 32 19 c29 17 35 17 55 4 12 -8 22 -25 22 -37 0 -24 17 -35 55 -35 29
0 43 18 21 26 -20 8 -21 34 -1 34 8 0 15 -7 15 -15 0 -21 18 -19 54 8 17 12
44 28 59 35 27 11 27 13 11 37 -19 29 -24 30 -50 10 -32 -24 -54 -18 -70 20
-12 31 -17 34 -34 25 -10 -6 -23 -16 -27 -24 -10 -17 -49 -37 -57 -29 -10 11
-7 43 8 66 17 26 19 92 3 106 -7 5 -36 13 -66 17 -59 10 -68 19 -46 48 12 16
19 18 37 9 28 -12 138 -63 198 -91 25 -11 65 -25 89 -31 24 -5 55 -21 70 -35
15 -14 42 -29 61 -32 35 -7 79 -33 80 -46 0 -4 -10 -8 -22 -10 -36 -5 -31 -23
16 -69 30 -29 46 -53 46 -69 0 -14 8 -37 18 -52 23 -35 42 -20 42 33 0 36 -40
132 -60 144 -6 3 -10 18 -10 33 0 15 -9 38 -20 52 -11 14 -20 28 -20 33 0 13
105 8 125 -7 31 -21 128 -53 148 -49 9 3 17 0 17 -6 0 -6 8 -11 18 -11 14 0
12 4 -8 20 -14 11 -29 20 -35 20 -5 0 -31 10 -57 22 -40 19 -47 27 -43 46 4
17 1 22 -14 22 -10 0 -21 7 -25 15 -3 8 -12 15 -20 15 -9 0 -20 9 -26 20 -6
11 -21 20 -33 20 -13 0 -28 5 -34 11 -14 14 -260 22 -268 9 -3 -6 1 -13 9 -16
22 -9 20 -34 -3 -34 -10 0 -24 7 -31 15 -7 8 -25 15 -40 15 -15 0 -33 7 -40
15 -7 8 -21 15 -32 15 -11 0 -32 6 -46 14 -36 18 -91 37 -124 43 -15 3 -33 11
-39 19 -6 8 -19 14 -28 14 -9 0 -25 6 -36 13 -34 23 -53 26 -65 12z m582 -192
c18 -10 35 -21 38 -24 3 -3 19 -12 35 -20 29 -14 49 -59 26 -59 -6 0 -11 5
-11 10 0 6 -6 10 -13 10 -8 0 -24 9 -37 20 -13 11 -31 20 -42 20 -10 0 -18 5
-18 10 0 6 -12 15 -27 21 -22 8 -24 12 -13 19 20 13 23 13 62 -7z m-400 -63
c7 -11 21 -20 30 -20 21 0 23 -11 6 -28 -8 -8 -5 -21 15 -51 31 -47 32 -51 12
-51 -8 0 -27 14 -42 31 -16 18 -34 38 -40 45 -15 15 -33 59 -33 80 0 21 38 17
52 -6z m-282 -107 c0 -11 -66 -63 -79 -63 -18 0 -12 30 7 37 9 4 23 13 30 20
14 14 42 18 42 6z m-100 -79 c0 -17 -26 -19 -36 -3 -7 12 15 31 28 23 4 -3 8
-12 8 -20z m-20 -83 c-16 -31 -26 -39 -57 -44 -53 -9 -65 8 -28 38 17 13 36
24 43 25 7 0 20 7 29 15 25 26 34 6 13 -34z m-2423 -1516 c-62 -70 -101 -106
-123 -111 -13 -3 -24 -10 -24 -14 0 -4 -12 -10 -27 -13 -16 -3 -36 -9 -45 -12
-31 -12 -21 19 17 53 19 18 65 48 102 68 37 20 72 40 78 45 5 5 17 9 27 9 15
0 15 -3 -5 -25z m-166 -1088 c-1 -12 -15 -9 -19 4 -3 6 1 10 8 8 6 -3 11 -8
11 -12z m570 -560 c-6 -6 -11 -21 -11 -34 0 -14 -6 -23 -15 -23 -19 0 -20 39
0 46 8 3 17 16 21 27 5 14 9 17 12 9 2 -8 -1 -19 -7 -25z m-1831 -381 c0 -14
-5 -28 -11 -32 -17 -10 -32 12 -24 35 9 29 35 27 35 -3z m-10 -101 c0 -14 -4
-25 -9 -25 -5 0 -13 -9 -16 -20 -9 -27 -35 -26 -35 2 0 21 35 68 52 68 4 0 8
-11 8 -25z m210 -1004 c5 -11 10 -27 10 -35 0 -17 37 -72 97 -143 77 -90 114
-123 138 -123 18 0 25 -5 25 -20 0 -18 -7 -20 -63 -20 -52 0 -67 4 -83 21 -10
11 -40 37 -67 56 -58 43 -83 89 -98 182 -9 56 -9 74 1 86 17 20 27 19 40 -4z
m-330 -70 c0 -6 12 -16 27 -23 36 -17 88 -148 65 -162 -30 -18 -140 134 -127
175 6 19 35 27 35 10z m646 -128 c-11 -11 -19 6 -11 24 8 17 8 17 12 0 3 -10
2 -21 -1 -24z"/>
<path d="M5773 11033 c-29 -2 -53 -8 -53 -13 0 -4 -14 -13 -31 -19 -45 -15
-25 -34 62 -60 44 -14 69 -27 69 -36 0 -8 5 -15 10 -15 6 0 15 -11 20 -25 7
-18 30 -35 74 -55 36 -17 68 -35 72 -41 3 -6 25 -19 48 -29 22 -10 59 -36 81
-59 27 -27 49 -41 67 -41 15 0 33 -6 40 -14 8 -7 25 -17 38 -21 40 -12 62 -36
49 -51 -9 -11 -6 -19 12 -34 31 -25 62 -34 99 -26 36 7 130 -38 130 -63 1 -23
46 -75 58 -67 18 11 23 -10 27 -104 3 -76 1 -92 -16 -113 -27 -35 -29 -70 -5
-75 11 -2 25 4 33 14 10 14 13 15 13 3 0 -37 -23 -49 -78 -43 -42 6 -55 12
-65 31 -6 14 -25 32 -42 40 -66 35 -65 34 -65 13 0 -27 -21 -25 -53 4 -30 28
-60 84 -77 146 -7 25 -33 71 -58 103 -34 45 -43 63 -38 83 7 28 -20 84 -41 84
-7 0 -13 4 -13 9 0 5 -10 13 -22 17 -13 4 -25 10 -28 13 -8 11 -80 51 -91 51
-25 0 -4 -30 34 -48 24 -11 67 -43 95 -71 51 -48 52 -50 32 -64 -20 -14 -20
-15 -2 -38 11 -13 27 -51 37 -84 10 -33 25 -68 33 -78 12 -14 13 -22 4 -42
-18 -40 -57 -32 -152 30 -46 30 -86 55 -90 55 -3 0 -23 9 -45 20 -25 13 -59
20 -95 20 -67 0 -102 9 -97 24 2 6 17 13 33 16 40 7 37 31 -7 54 l-37 20 -32
-27 c-17 -15 -37 -27 -44 -27 -7 0 -21 -9 -31 -20 -22 -24 -63 -26 -130 -5
-33 10 -54 11 -67 4 -40 -21 -7 -51 54 -48 24 1 57 -5 75 -14 27 -14 32 -24
38 -67 6 -41 10 -50 27 -50 17 0 19 5 15 38 -3 20 -9 49 -12 65 -7 24 -4 29
29 42 46 19 55 19 55 -2 -1 -27 12 -95 21 -118 4 -11 13 -34 20 -52 7 -18 28
-48 46 -68 28 -28 42 -35 74 -35 21 0 42 5 45 11 9 13 -33 59 -54 59 -17 0
-101 106 -101 128 0 28 56 11 105 -32 69 -61 132 -80 265 -79 103 1 106 1 165
-34 33 -20 74 -49 90 -64 21 -19 35 -25 44 -20 16 10 68 -5 94 -27 15 -13 24
-14 48 -5 28 11 33 9 68 -23 21 -19 43 -34 48 -34 6 0 16 -7 23 -15 20 -24 65
-17 129 21 69 41 86 58 77 79 -8 21 -38 19 -95 -6 -33 -14 -64 -19 -101 -17
-69 4 -77 24 -13 34 26 3 54 12 62 18 8 6 28 15 45 21 41 13 47 48 12 80 l-26
24 0 -24 c0 -61 -35 -76 -46 -20 -7 39 -23 45 -44 15 -8 -11 -18 -20 -23 -20
-4 0 -1 10 7 22 19 27 20 65 2 141 -12 51 -12 59 1 64 32 12 137 -74 149 -123
8 -32 23 -30 58 6 16 17 34 30 39 30 5 0 26 14 47 30 21 17 42 30 48 30 5 0
15 7 22 16 8 8 39 28 71 44 53 26 65 28 131 23 43 -3 85 0 101 6 27 10 27 12
13 33 -13 18 -26 22 -85 24 -43 2 -82 10 -103 20 -43 23 -287 29 -303 7 -7 -9
-47 -15 -125 -20 l-115 -6 -38 44 c-59 69 -99 109 -108 109 -16 0 -9 -28 8
-34 13 -5 14 -9 4 -19 -10 -9 -14 -8 -22 6 -6 9 -21 17 -34 17 -15 0 -25 6
-25 14 0 24 -19 29 -47 11 -25 -17 -25 -17 -84 45 -45 46 -64 60 -78 55 -12
-4 -23 0 -28 9 -10 18 -119 76 -143 76 -10 0 -33 11 -53 24 -19 13 -52 32 -72
42 -20 9 -39 23 -42 31 -3 7 -11 13 -19 13 -7 0 -17 7 -22 15 -5 9 -29 18 -60
22 -29 3 -52 9 -52 13 0 8 60 20 105 20 28 0 162 -60 175 -79 3 -4 26 -18 53
-30 26 -13 47 -27 47 -32 0 -5 9 -9 20 -9 11 0 23 -7 26 -15 7 -16 24 -21 24
-6 0 7 -73 82 -124 126 -6 6 -41 25 -77 42 -69 33 -128 43 -216 36z m1322
-582 c17 -7 15 -9 -17 -20 -19 -6 -59 -34 -87 -61 -29 -28 -56 -50 -62 -50
-13 0 -12 97 1 105 16 10 102 32 125 33 11 0 29 -3 40 -7z m-342 -49 c10 -10
14 -22 10 -25 -11 -12 -23 -8 -23 8 0 8 -4 15 -10 15 -5 0 -10 5 -10 10 0 16
15 12 33 -8z m-765 -180 c2 -12 -1 -22 -6 -22 -15 0 -34 28 -27 40 10 17 30 6
33 -18z"/>
<path d="M6767 11002 c-11 -12 -16 -44 -19 -112 -3 -86 -1 -95 16 -98 10 -2
22 2 27 9 9 16 9 208 -1 214 -4 3 -14 -3 -23 -13z"/>
<path d="M3957 10723 c-2 -4 -2 -24 1 -43 l6 -35 7 35 c7 32 -2 62 -14 43z"/>
<path d="M5781 10695 c12 -19 25 -35 29 -35 5 0 11 -8 14 -17 3 -10 26 -26 51
-37 25 -10 50 -27 56 -37 5 -10 16 -19 24 -19 31 0 7 50 -30 64 -19 7 -19 8
-2 17 21 12 22 25 1 33 -10 4 -25 -1 -35 -10 -12 -10 -25 -14 -36 -9 -15 6
-14 9 10 17 15 5 27 13 27 17 0 8 -99 51 -117 51 -8 0 -5 -13 8 -35z"/>
<path d="M6360 10719 c1 -19 25 -49 39 -49 17 0 13 13 -14 39 -16 14 -25 18
-25 10z"/>
<path d="M8114 10715 c-8 -21 3 -48 19 -43 19 7 22 58 2 58 -8 0 -18 -7 -21
-15z"/>
<path d="M5572 10658 c-8 -8 -9 -15 -1 -25 19 -22 37 -15 31 12 -5 28 -12 31
-30 13z"/>
<path d="M4478 10619 c-10 -10 -18 -23 -18 -29 0 -15 20 -12 26 4 3 8 14 16
25 19 10 3 19 10 19 16 0 17 -33 11 -52 -10z"/>
<path d="M5158 10541 c-7 -10 -29 -28 -48 -38 -19 -11 -34 -24 -33 -29 4 -16
54 -16 71 -1 17 15 35 20 60 18 9 -1 11 -11 7 -35 -5 -23 -1 -46 10 -70 20
-41 22 -42 51 -18 18 15 20 25 15 58 -4 24 -9 34 -14 27 -15 -23 -24 -14 -30
29 -9 63 -61 99 -89 59z"/>
<path d="M5480 10531 c0 -6 5 -11 11 -11 6 0 9 -6 6 -12 -2 -7 -11 -12 -19
-10 -9 1 -21 -4 -27 -12 -17 -20 10 -28 49 -15 26 9 36 7 74 -15 43 -25 76
-33 89 -20 6 6 -20 29 -81 72 -38 27 -102 41 -102 23z"/>
<path d="M4992 10440 c-18 -4 -41 -15 -51 -24 -10 -9 -47 -20 -84 -24 -37 -5
-70 -11 -74 -15 -9 -10 18 -57 32 -57 7 0 18 -6 24 -13 8 -11 3 -19 -22 -38
-19 -13 -48 -41 -66 -61 l-33 -38 38 0 c49 0 133 47 168 93 31 41 32 47 6 47
-11 0 -20 4 -20 8 0 10 70 82 80 82 4 0 19 11 34 25 28 26 23 28 -32 15z"/>
<path d="M6305 10421 c-5 -9 24 -31 39 -31 13 0 5 28 -10 34 -20 8 -22 8 -29
-3z"/>
<path d="M6365 10358 c17 -56 38 -85 80 -110 81 -49 68 22 -17 91 -57 46 -72
51 -63 19z"/>
<path d="M5082 10318 c5 -15 28 -18 29 -3 0 6 -7 12 -17 13 -10 3 -15 -1 -12
-10z"/>
<path d="M5127 10243 c-12 -11 -8 -23 8 -23 8 0 15 7 15 15 0 16 -12 20 -23 8z"/>
<path d="M4461 10216 c-7 -9 -8 -17 -2 -20 13 -9 43 4 38 17 -5 17 -23 19 -36
3z"/>
<path d="M4515 10210 c3 -5 13 -10 21 -10 8 0 14 5 14 10 0 6 -9 10 -21 10
-11 0 -17 -4 -14 -10z"/>
<path d="M5255 10199 c-7 -22 5 -43 12 -21 8 22 33 13 33 -13 0 -33 18 -32 32
3 18 41 16 44 -29 48 -35 3 -43 1 -48 -17z"/>
<path d="M5038 10178 c-7 -7 -26 -20 -41 -28 -52 -26 -77 -115 -33 -115 21 0
32 16 40 56 3 15 22 37 46 54 38 26 44 45 15 45 -7 0 -20 -6 -27 -12z"/>
<path d="M5650 10182 c0 -5 7 -17 15 -28 14 -19 14 -19 15 2 0 12 -7 24 -15
28 -8 3 -15 2 -15 -2z"/>
<path d="M5148 10169 c-10 -5 -18 -19 -18 -29 0 -30 17 -24 29 10 5 17 9 30 8
30 -1 0 -10 -5 -19 -11z"/>
<path d="M4345 10130 c-7 -12 2 -30 16 -30 5 0 9 9 9 20 0 21 -15 27 -25 10z"/>
<path d="M5186 10101 c-9 -14 4 -41 19 -41 7 0 18 7 26 16 10 13 10 17 -2 25
-18 11 -36 11 -43 0z"/>
<path d="M4563 10085 c-3 -9 -3 -19 1 -22 8 -9 37 18 30 28 -8 14 -24 11 -31
-6z"/>
<path d="M5095 10091 c-6 -11 9 -23 19 -14 9 9 7 23 -3 23 -6 0 -12 -4 -16 -9z"/>
<path d="M6077 10094 c-4 -4 -4 -10 -1 -15 6 -10 34 0 34 12 0 10 -24 12 -33
3z"/>
<path d="M5413 10070 c-12 -10 -24 -28 -28 -39 -7 -25 10 -61 30 -61 8 0 31
-11 51 -25 45 -31 74 -33 74 -5 0 25 5 25 44 1 27 -17 37 -18 76 -9 25 6 77
12 117 15 45 3 76 10 84 19 6 8 26 14 44 14 59 0 91 11 128 45 21 19 37 36 37
39 0 9 -35 7 -46 -3 -40 -39 -129 -60 -274 -66 -59 -3 -130 13 -155 35 -11 10
-25 16 -31 13 -6 -2 -17 3 -24 12 -7 8 -27 15 -46 15 -18 0 -36 5 -39 10 -9
15 -19 12 -42 -10z"/>
<path d="M6220 10060 c0 -5 7 -10 15 -10 14 0 75 -80 75 -99 0 -6 6 -11 14
-11 8 0 18 -9 21 -20 3 -11 10 -20 15 -20 5 0 12 -9 15 -20 3 -11 13 -20 21
-20 8 0 28 -7 44 -15 28 -14 30 -20 30 -69 0 -46 3 -56 25 -70 24 -16 26 -16
37 9 17 39 37 31 36 -14 0 -21 -3 -43 -7 -48 -22 -34 -106 -43 -155 -18 -15 8
-34 15 -41 15 -16 0 -66 47 -83 79 -8 14 -18 52 -22 83 -5 33 -18 70 -29 84
l-21 27 7 -48 c6 -44 5 -47 -14 -41 -28 9 -129 -36 -154 -68 -20 -26 -72 -56
-96 -56 -7 0 -16 -7 -19 -15 -13 -32 -160 -58 -244 -42 -50 9 -91 27 -63 27
16 0 43 29 43 46 0 22 -24 16 -35 -8 -14 -32 -47 -29 -63 4 -19 41 -43 50 -71
29 -21 -16 -22 -19 -7 -34 27 -27 18 -37 -34 -37 -48 0 -50 -1 -50 -29 0 -37
22 -45 53 -20 37 28 117 26 145 -4 12 -13 22 -30 22 -38 0 -16 34 -49 50 -49
6 0 10 5 10 10 0 6 10 10 23 10 15 0 26 -9 35 -30 8 -16 21 -30 31 -30 17 0
51 -33 51 -49 0 -5 -6 -11 -12 -14 -10 -3 -8 -14 7 -43 11 -21 25 -43 32 -47
16 -10 40 -62 48 -106 l7 -35 15 28 c9 16 19 24 24 19 10 -10 1 -53 -12 -53
-12 0 -11 -77 1 -85 6 -3 10 -23 10 -43 0 -19 10 -71 23 -115 27 -94 75 -163
135 -194 24 -12 50 -27 59 -35 9 -7 26 -11 39 -10 28 4 34 -22 7 -32 -12 -5
-13 -10 -5 -18 8 -8 15 -8 26 1 7 6 18 11 22 10 18 -4 84 32 131 71 85 71 99
87 109 121 11 38 49 53 60 24 9 -22 -14 -62 -37 -68 -11 -3 -19 -13 -19 -22 0
-27 -48 -89 -82 -105 -18 -8 -37 -24 -43 -35 -6 -12 -18 -19 -27 -17 -22 4
-22 3 -2 -36 18 -36 28 -40 43 -14 10 16 12 16 26 -2 17 -23 20 -102 4 -112
-6 -3 -9 -17 -6 -30 2 -14 -1 -24 -7 -24 -7 0 -29 -32 -50 -71 -29 -55 -36
-78 -30 -98 4 -14 6 -55 5 -90 -2 -44 0 -61 8 -57 6 4 11 23 11 42 0 20 5 45
12 57 6 12 14 36 18 52 5 25 11 30 35 30 28 0 30 -2 29 -40 -5 -168 -9 -222
-18 -233 -7 -9 -4 -15 12 -19 11 -3 25 -18 31 -34 8 -25 15 -29 45 -29 20 0
36 3 36 7 0 3 -12 22 -26 40 -18 24 -23 38 -16 45 7 7 7 16 0 28 -8 12 -8 48
1 124 l11 107 -40 53 c-35 47 -51 86 -34 86 3 0 20 -11 39 -26 18 -14 35 -21
37 -17 3 4 5 31 6 59 2 42 -4 59 -28 95 -43 64 -40 83 10 54 52 -30 63 -10 34
61 -27 65 0 164 46 164 15 0 20 7 20 24 0 14 -4 27 -9 30 -4 3 -11 27 -15 53
-8 58 -27 117 -41 123 -5 3 -14 -13 -21 -35 l-11 -40 -9 70 c-11 86 -8 124 11
145 8 9 15 22 15 29 0 7 15 32 32 55 18 22 36 46 40 51 5 6 28 35 53 66 43 53
57 89 35 89 -19 0 -10 28 14 44 22 14 24 22 21 70 -4 71 -12 94 -36 101 -19 6
-19 7 5 26 13 10 29 19 34 19 16 0 22 40 10 66 -6 13 -15 24 -20 24 -4 0 -8 6
-8 14 0 16 -75 96 -90 96 -5 0 -10 7 -10 15 0 8 -7 15 -15 15 -21 0 -19 -15 4
-31 11 -8 23 -31 27 -51 6 -35 5 -38 -18 -38 -25 0 -58 27 -58 47 0 12 -54 25
-73 17 -8 -3 -20 2 -27 11 -7 8 -24 15 -39 15 -20 0 -36 13 -66 50 -46 59
-125 103 -125 70z m348 -232 c6 -7 8 -25 5 -40 -4 -23 -11 -28 -34 -28 -39 0
-44 14 -18 50 25 33 32 36 47 18z m102 -43 c0 -8 -4 -15 -10 -15 -5 0 -10 7
-10 15 0 8 5 15 10 15 6 0 10 -7 10 -15z m-449 -68 c14 -27 40 -57 58 -68 17
-10 34 -26 37 -34 4 -8 14 -15 24 -15 11 0 21 -4 24 -9 6 -8 34 -14 129 -26
80 -11 85 -13 98 -52 7 -21 14 -45 15 -53 1 -8 5 -29 9 -47 6 -27 3 -34 -21
-49 -15 -10 -48 -40 -74 -66 -31 -31 -56 -48 -72 -48 -37 0 -59 -48 -64 -138
-3 -48 -9 -81 -19 -92 -8 -9 -15 -28 -15 -43 0 -30 -15 -44 -24 -21 -10 25 -7
47 9 77 10 20 12 34 5 47 -6 10 -8 25 -5 33 3 7 1 26 -5 42 -9 25 -7 32 16 56
21 22 27 40 31 92 3 36 2 82 -1 102 -7 35 -9 36 -44 33 -34 -3 -37 -1 -40 25
-4 33 35 78 64 76 44 -4 75 1 68 12 -4 7 -24 9 -51 6 -32 -3 -46 -1 -50 9 -9
24 -21 15 -27 -21 -4 -19 -11 -35 -16 -35 -4 0 -18 -17 -31 -37 -12 -21 -38
-55 -58 -76 -31 -33 -34 -39 -19 -48 10 -5 16 -22 16 -43 0 -36 17 -76 32 -76
19 0 31 -39 18 -59 -10 -16 -9 -36 1 -97 l13 -76 -30 -37 c-25 -30 -35 -36
-66 -34 -33 2 -36 0 -36 -23 0 -18 4 -25 14 -21 10 4 12 0 8 -15 -5 -19 -2
-20 24 -14 16 4 47 9 69 10 67 3 165 88 149 130 -3 8 2 26 11 39 10 15 15 40
13 63 -2 28 1 39 12 41 20 5 37 -38 44 -115 6 -70 0 -90 -47 -138 -17 -18 -32
-39 -33 -48 -3 -21 -39 -50 -82 -66 -29 -10 -43 -9 -101 10 -55 18 -75 30
-105 66 -20 24 -34 49 -31 55 4 5 1 16 -5 24 -7 8 -10 30 -8 49 3 29 0 37 -19
45 -18 8 -23 19 -23 48 0 21 -7 47 -16 58 -11 15 -13 34 -9 80 6 49 4 64 -9
74 -9 7 -16 23 -16 35 0 12 -7 31 -15 42 -8 10 -15 26 -15 34 0 9 -25 40 -55
70 -30 30 -55 58 -55 62 0 14 74 8 94 -7 11 -8 27 -15 37 -15 9 0 22 -7 29
-15 7 -8 21 -15 32 -15 10 0 21 -7 24 -15 4 -8 15 -15 25 -15 17 0 19 8 19 59
0 33 5 63 10 66 6 3 10 28 10 55 0 57 13 96 43 128 30 32 48 24 78 -31z m-178
-14 c8 -8 -36 -49 -62 -58 -10 -3 -35 -21 -56 -40 -39 -38 -83 -52 -52 -17 10
10 17 25 17 33 0 8 27 27 60 42 33 16 62 33 65 38 7 11 19 12 28 2z m605 -90
c-3 -55 -21 -65 -26 -15 -4 39 3 62 18 62 7 0 10 -18 8 -47z m-778 -199 c0
-31 -23 -28 -28 4 -2 15 2 22 12 22 11 0 16 -9 16 -26z m420 -60 c0 -37 5 -52
25 -70 29 -26 32 -42 10 -50 -26 -11 -65 5 -65 26 0 10 -4 22 -10 25 -14 9
-12 33 7 77 22 51 33 48 33 -8z"/>
<path d="M6152 9571 c-23 -34 -42 -73 -42 -87 0 -14 -4 -34 -10 -44 -7 -13 -5
-21 7 -31 13 -11 17 -11 21 -1 2 7 9 18 16 25 7 6 27 42 45 80 21 42 43 73 59
81 24 13 25 15 9 22 -10 3 -23 2 -29 -4 -8 -8 -14 -7 -23 4 -9 13 -18 6 -53
-45z"/>
<path d="M6440 9520 c0 -5 7 -10 15 -10 8 0 15 5 15 10 0 6 -7 10 -15 10 -8 0
-15 -4 -15 -10z"/>
<path d="M6503 9463 c-7 -22 -43 -63 -55 -63 -4 0 -8 7 -8 16 0 9 -6 14 -12
12 -19 -7 -24 -138 -5 -138 17 0 42 28 51 58 4 12 12 22 17 22 5 0 9 7 9 15 0
8 12 25 26 39 17 15 25 30 21 40 -8 21 -36 20 -44 -1z"/>
<path d="M5990 9417 c0 -7 6 -21 13 -32 7 -11 19 -40 27 -65 7 -25 18 -51 24
-59 7 -9 6 -17 -7 -26 -19 -13 -23 -35 -7 -35 6 0 15 -10 20 -22 6 -13 14 -30
19 -38 5 -8 14 -27 20 -42 6 -16 15 -28 21 -28 15 0 12 37 -5 71 -9 16 -15 49
-14 72 1 23 -3 67 -10 97 -8 43 -18 62 -48 88 -39 34 -53 40 -53 19z"/>
<path d="M6270 8830 c0 -5 6 -10 13 -10 6 0 22 -3 35 -6 16 -5 22 -2 22 10 0
12 -9 16 -35 16 -19 0 -35 -4 -35 -10z"/>
<path d="M5257 10012 c-20 -22 -22 -48 -5 -58 14 -9 38 23 38 53 0 28 -11 29
-33 5z"/>
<path d="M5004 9999 c-3 -6 -16 -8 -28 -5 -20 5 -21 2 -18 -44 3 -35 8 -50 18
-50 8 0 18 8 21 18 4 9 15 28 25 41 10 13 18 30 18 37 0 17 -26 19 -36 3z"/>
<path d="M6115 9989 c-47 -24 -105 -86 -105 -112 0 -23 -56 -77 -78 -77 -19 0
-82 -41 -82 -54 0 -4 17 -5 38 -1 20 5 47 8 59 9 21 1 103 81 103 101 0 6 20
30 44 54 39 38 49 43 80 39 39 -4 45 6 26 43 -14 24 -35 24 -85 -2z"/>
<path d="M3725 9949 c-4 -5 0 -18 9 -28 9 -10 16 -29 16 -44 0 -14 5 -29 10
-32 13 -8 13 -50 1 -73 -5 -9 -15 -32 -21 -49 -15 -40 -30 -43 -31 -5 0 15
-18 54 -40 87 -21 33 -44 71 -50 85 -7 16 -13 20 -16 12 -3 -7 2 -28 11 -46 9
-19 16 -38 16 -44 0 -10 44 -95 66 -126 8 -11 14 -28 14 -38 0 -10 7 -18 15
-18 10 0 15 -10 15 -27 0 -14 6 -34 13 -42 26 -31 73 -185 81 -266 2 -27 12
-63 20 -80 9 -16 16 -36 16 -43 0 -7 11 -28 25 -46 14 -18 25 -40 25 -49 0
-10 5 -17 11 -17 15 0 4 87 -12 106 -6 8 -12 35 -14 61 -4 92 -25 210 -50 273
-14 35 -25 79 -25 97 0 19 -7 48 -16 65 -9 18 -18 63 -21 102 -2 38 -8 76 -14
83 -6 7 -9 22 -6 34 5 19 -21 79 -35 79 -4 0 -10 -5 -13 -11z"/>
<path d="M4826 9953 c-11 -11 -6 -23 9 -23 8 0 15 4 15 9 0 13 -16 22 -24 14z"/>
<path d="M5287 9922 c-18 -19 -22 -59 -9 -77 4 -5 22 -11 40 -12 24 -2 34 3
38 15 3 9 10 25 15 34 5 10 9 27 9 38 0 17 -7 20 -38 20 -25 0 -45 -7 -55 -18z"/>
<path d="M3860 9897 c0 -13 5 -28 11 -34 5 -5 18 -25 27 -44 9 -19 25 -35 34
-37 13 -3 9 12 -20 67 -39 74 -52 87 -52 48z"/>
<path d="M5071 9894 c10 -13 10 -17 -2 -25 -19 -12 -33 -11 -47 3 -34 34 -34
-45 1 -111 14 -28 29 -71 32 -95 7 -45 18 -61 58 -81 55 -28 125 -273 111
-386 -4 -30 -2 -49 5 -53 6 -4 11 -33 11 -64 0 -40 7 -72 25 -107 13 -27 25
-60 25 -73 0 -13 11 -51 24 -85 13 -34 28 -93 32 -132 8 -63 11 -70 33 -73 22
-3 23 -1 19 35 -3 21 -2 50 3 64 8 31 -6 103 -46 234 -28 90 -37 140 -54 290
-4 44 -13 91 -18 105 -14 36 -6 53 18 39 24 -12 86 -104 94 -140 3 -14 16 -38
28 -53 21 -25 25 -27 50 -15 15 7 27 16 27 21 0 13 26 9 39 -6 7 -8 20 -12 30
-9 15 4 33 -16 80 -86 33 -50 61 -95 61 -99 0 -5 13 -26 30 -48 16 -21 30 -49
30 -61 0 -31 10 -53 25 -53 18 0 45 -34 45 -57 0 -11 7 -26 16 -33 30 -26 36
-48 18 -75 -9 -14 -24 -25 -33 -25 -12 0 -20 -13 -27 -42 -8 -36 -14 -45 -42
-54 -18 -5 -46 -22 -62 -36 -16 -14 -42 -29 -57 -33 -57 -14 -209 -98 -257
-142 -44 -41 -51 -44 -74 -33 -14 6 -29 7 -34 2 -4 -4 -10 -42 -12 -84 -2 -56
-9 -85 -25 -111 -11 -19 -21 -42 -21 -50 0 -9 -9 -21 -20 -27 -11 -6 -20 -20
-20 -31 0 -11 -4 -17 -10 -14 -6 4 -10 -8 -10 -30 0 -30 -3 -35 -18 -31 -14 5
-25 -8 -50 -56 -17 -34 -30 -63 -28 -66 2 -2 14 2 26 8 12 7 31 9 42 7 12 -4
21 1 25 11 8 20 70 111 90 130 7 7 13 20 13 28 0 8 11 37 25 64 14 27 25 60
25 73 0 14 7 30 15 37 8 7 15 20 15 28 0 13 -3 12 -14 -4 -14 -18 -16 -18 -32
-2 -14 14 -15 20 -4 32 7 9 18 16 26 16 7 0 20 7 29 16 8 9 22 13 31 10 9 -4
39 14 78 47 65 54 198 140 297 192 88 47 169 104 169 120 0 23 15 18 50 -15
18 -16 34 -30 36 -30 2 0 12 9 22 21 19 19 20 59 2 59 -5 0 -15 6 -22 13 -7 7
-25 20 -40 30 -23 14 -27 23 -25 55 2 28 -1 36 -13 33 -38 -9 -45 -5 -48 27
-3 26 -8 32 -27 32 -20 0 -24 6 -31 53 -4 28 -6 62 -5 75 3 26 -15 29 -47 6
-13 -9 -25 -14 -27 -12 -2 2 -5 32 -6 68 -2 73 -22 155 -43 179 -7 9 -16 28
-20 44 -9 37 -19 34 -35 -9 -7 -19 -19 -38 -27 -41 -24 -9 -54 27 -54 65 0 28
-9 43 -50 83 -59 58 -72 61 -59 17 13 -46 12 -48 -16 -34 -44 23 -87 76 -81
99 9 36 -11 58 -51 55 l-36 -3 -13 62 c-17 85 -30 106 -57 96 -12 -4 -34 -7
-49 -8 -14 0 -30 -3 -34 -7 -19 -19 -32 -5 -37 43 -4 28 -11 57 -17 64 -13 16
1 56 29 84 11 11 24 29 30 40 9 17 7 22 -21 35 -40 20 -54 20 -37 0z"/>
<path d="M6120 9880 c0 -5 9 -10 20 -10 11 0 20 5 20 10 0 6 -9 10 -20 10 -11
0 -20 -4 -20 -10z"/>
<path d="M4650 9826 c0 -22 3 -27 11 -19 8 8 8 16 0 30 -9 16 -10 14 -11 -11z"/>
<path d="M6775 9763 c2 -49 8 -110 14 -136 13 -55 8 -83 -25 -152 -24 -48 -41
-71 -125 -163 -37 -42 -50 -67 -29 -60 20 6 99 73 100 84 0 6 11 21 25 34 43
40 95 126 95 157 1 72 34 61 35 -12 0 -22 5 -41 10 -42 15 -4 13 183 -3 199
-6 6 -12 26 -12 43 0 30 -62 135 -80 135 -5 0 -7 -39 -5 -87z"/>
<path d="M3361 9829 c-1 -21 37 -99 49 -99 11 0 -5 48 -24 70 -8 8 -16 22 -19
30 -5 13 -6 13 -6 -1z"/>
<path d="M4488 9828 c-8 -7 -23 -27 -33 -44 -17 -30 -17 -31 8 -70 14 -21 33
-46 43 -55 24 -21 54 -61 54 -71 0 -11 -28 -10 -35 2 -11 17 -43 11 -50 -10
-3 -11 -12 -20 -19 -20 -18 0 -88 57 -106 86 -8 13 -20 24 -27 24 -16 0 -17
-26 -2 -36 6 -3 8 -17 4 -31 -4 -19 0 -31 19 -48 26 -24 102 -42 130 -32 8 3
37 -4 65 -15 37 -16 54 -31 68 -57 10 -20 21 -37 26 -39 13 -6 7 -30 -8 -34
-10 -2 11 -30 61 -83 42 -44 105 -114 140 -156 34 -41 81 -88 102 -103 31 -21
47 -43 72 -104 100 -240 151 -327 212 -370 18 -13 22 -12 41 7 17 17 19 25 11
48 -6 18 -16 27 -27 25 -14 -2 -16 3 -11 28 4 19 2 30 -5 30 -6 0 -11 -4 -11
-10 0 -5 -3 -10 -8 -10 -4 0 -17 39 -30 87 -12 47 -29 94 -37 103 -8 9 -15 25
-15 35 0 28 -37 80 -65 93 -17 8 -35 32 -51 66 -24 54 -42 70 -67 60 -16 -6
-57 31 -57 52 0 9 -27 43 -60 76 -33 34 -60 69 -60 78 0 10 -7 23 -15 30 -8 7
-15 18 -15 26 0 7 -7 17 -16 22 -27 15 -12 44 28 56 28 8 49 27 87 78 28 37
51 71 51 77 0 5 6 12 13 15 8 3 6 9 -7 20 -18 14 -21 14 -34 -5 -11 -17 -21
-20 -47 -15 -29 6 -37 2 -67 -34 -36 -41 -62 -49 -98 -30 -26 14 -70 94 -70
129 0 16 -4 32 -9 35 -4 3 -11 22 -14 42 -6 35 -22 64 -36 64 -4 0 -14 -6 -23
-12z m62 -122 c0 -8 -4 -17 -9 -21 -12 -7 -24 12 -16 25 9 15 25 12 25 -4z"/>
<path d="M4884 9778 c4 -13 12 -45 19 -71 8 -27 20 -52 27 -57 10 -6 15 -37
17 -112 4 -172 10 -242 22 -271 16 -40 37 -29 33 16 -4 43 6 66 19 46 5 -8 9
-27 9 -42 0 -22 4 -28 18 -25 24 5 29 71 7 105 -14 20 -16 38 -10 89 6 59 5
63 -18 79 -14 9 -27 26 -30 38 -7 32 -41 117 -60 152 -9 17 -21 40 -26 53 -6
12 -16 22 -22 22 -7 0 -9 -9 -5 -22z"/>
<path d="M5150 9771 c0 -34 15 -49 24 -25 11 28 6 54 -9 54 -10 0 -15 -10 -15
-29z"/>
<path d="M1965 9751 c-3 -5 -19 -12 -35 -16 -33 -7 -37 -17 -16 -34 11 -10 21
-9 44 3 27 14 31 14 43 0 10 -13 14 -13 20 -1 14 24 -1 57 -27 57 -12 0 -25
-4 -29 -9z"/>
<path d="M3926 9703 c-12 -12 -6 -95 8 -121 16 -29 44 -181 51 -272 7 -90 33
-232 44 -243 6 -6 11 -21 11 -33 0 -13 5 -26 10 -29 6 -3 10 2 10 12 0 40 -29
240 -38 263 -5 14 -12 55 -16 92 -3 36 -13 79 -21 95 -8 15 -13 39 -10 53 3
14 -1 42 -10 63 -8 20 -15 54 -15 76 0 38 -10 57 -24 44z"/>
<path d="M3994 9696 c-7 -18 -4 -32 20 -116 9 -30 21 -77 27 -105 6 -27 15
-64 20 -81 5 -17 9 -44 9 -61 0 -17 9 -59 19 -94 32 -108 35 -151 36 -594 2
-678 3 -705 19 -705 19 0 23 14 25 89 1 36 4 68 7 72 13 21 -11 963 -27 1029
-5 25 -14 70 -20 100 -11 68 -38 161 -52 178 -6 8 -6 17 2 26 14 17 4 119 -15
158 -8 15 -14 38 -14 51 0 13 -11 34 -25 47 -22 20 -25 21 -31 6z"/>
<path d="M3560 9671 c0 -12 5 -21 10 -21 6 0 10 6 10 14 0 8 -4 18 -10 21 -5
3 -10 -3 -10 -14z"/>
<path d="M2022 9668 c6 -18 28 -21 28 -4 0 9 -7 16 -16 16 -9 0 -14 -5 -12
-12z"/>
<path d="M3450 9669 c0 -13 30 -68 48 -87 6 -7 12 -20 12 -28 0 -13 10 -36 32
-74 4 -8 15 -28 22 -45 l14 -30 15 35 14 35 7 -50 c4 -27 12 -75 17 -105 6
-30 15 -93 20 -139 5 -47 21 -124 34 -172 14 -48 25 -110 25 -136 0 -26 5 -64
11 -83 6 -19 14 -60 19 -90 10 -66 28 -133 46 -177 8 -17 14 -36 14 -43 0 -6
6 -10 13 -8 6 3 14 22 16 44 4 52 -19 263 -30 270 -5 3 -9 14 -9 26 0 11 -8
33 -17 49 -13 22 -15 33 -6 51 21 41 24 65 13 94 -6 16 -13 65 -15 109 -1 45
-10 103 -18 130 -9 28 -24 77 -33 110 -9 33 -30 79 -45 103 -16 24 -29 46 -29
51 0 4 -9 26 -20 49 -11 22 -20 46 -20 52 0 5 -5 10 -10 10 -12 0 -3 -69 11
-84 11 -13 12 -46 1 -46 -12 0 -42 34 -42 48 0 7 -5 12 -10 12 -6 0 -21 24
-34 54 -22 50 -66 94 -66 65z"/>
<path d="M1885 9650 c-8 -13 3 -30 20 -30 7 0 15 -3 17 -7 6 -14 69 -43 91
-42 18 0 17 3 -10 16 -18 9 -33 20 -33 25 0 4 -7 8 -15 8 -8 0 -19 9 -25 20
-11 21 -35 27 -45 10z"/>
<path d="M2060 9630 c0 -5 4 -10 9 -10 5 0 12 -16 15 -35 8 -40 42 -61 83 -50
19 4 22 9 13 24 -5 10 -21 22 -35 25 -14 4 -25 11 -25 16 0 6 -7 10 -15 10 -9
0 -18 7 -21 15 -7 17 -24 20 -24 5z"/>
<path d="M2832 9598 c-34 -17 -21 -33 24 -29 48 4 53 7 28 26 -22 17 -22 17
-52 3z"/>
<path d="M3315 9540 c-3 -5 5 -25 19 -43 15 -19 26 -39 26 -45 0 -11 32 -86
66 -157 8 -17 28 -39 44 -50 19 -13 30 -30 32 -49 2 -16 9 -31 16 -34 17 -5
15 30 -3 54 -8 10 -15 28 -15 39 -1 19 -34 89 -110 233 -31 59 -59 79 -75 52z"/>
<path d="M5530 9540 c0 -5 7 -10 15 -10 8 0 15 5 15 10 0 6 -7 10 -15 10 -8 0
-15 -4 -15 -10z"/>
<path d="M1679 9479 c-20 -11 -53 -34 -74 -52 l-39 -34 22 -28 c22 -28 22 -28
3 -46 -22 -21 -20 -76 5 -116 13 -20 12 -25 -8 -45 -13 -12 -32 -40 -43 -63
-11 -22 -31 -45 -44 -52 -26 -12 -55 -68 -47 -89 3 -7 22 -16 43 -19 49 -8 83
-22 83 -34 0 -6 14 -30 30 -54 17 -25 30 -50 30 -57 0 -29 25 0 28 33 3 32 -3
42 -52 94 -31 32 -56 64 -56 71 0 7 14 26 30 44 17 17 30 42 30 55 0 13 7 37
15 54 12 22 14 45 9 93 -5 48 -3 71 9 92 9 16 18 41 21 56 5 21 16 30 55 43
l50 16 80 -47 c45 -26 97 -64 116 -85 42 -47 55 -49 55 -7 0 26 -11 41 -57 85
-32 29 -61 53 -65 53 -4 0 -29 14 -55 30 -55 35 -117 38 -174 9z"/>
<path d="M2756 9464 c-46 -48 -33 -64 22 -28 46 30 49 36 28 53 -11 10 -21 4
-50 -25z"/>
<path d="M4306 9422 c-7 -11 55 -87 101 -123 21 -17 61 -55 89 -85 55 -59 80
-67 90 -29 15 59 -251 284 -280 237z"/>
<path d="M2775 9390 c-3 -5 -14 -10 -24 -10 -10 0 -24 -6 -30 -14 -7 -8 -28
-22 -47 -31 -19 -9 -38 -24 -41 -33 -3 -9 -11 -30 -18 -47 -16 -34 -12 -45 17
-45 16 0 19 5 14 24 -6 25 7 36 44 36 35 0 110 81 110 120 0 13 -17 13 -25 0z"/>
<path d="M2868 9340 c-55 -51 -32 -65 38 -21 26 17 56 31 66 31 25 0 22 16 -4
24 -43 11 -58 6 -100 -34z"/>
<path d="M8847 9354 c-14 -14 -7 -35 11 -32 9 2 17 10 17 17 0 16 -18 25 -28
15z"/>
<path d="M2130 9330 c-19 -11 -40 -20 -47 -20 -8 0 -13 -12 -13 -29 0 -17 -4
-32 -10 -36 -5 -3 -7 -12 -3 -20 3 -9 -2 -26 -11 -40 -18 -27 -21 -61 -6 -70
6 -4 10 8 10 29 0 19 4 37 9 40 4 3 11 19 14 34 4 19 14 32 29 36 35 9 76 7
83 -4 3 -5 15 -10 26 -10 24 0 26 35 3 48 -23 13 -9 32 22 32 16 0 24 5 22 13
-7 20 -89 19 -128 -3z"/>
<path d="M5062 9216 c1 -10 8 -17 13 -17 15 1 12 24 -3 29 -9 3 -13 -2 -10
-12z"/>
<path d="M2782 9179 c2 -6 8 -10 13 -10 5 0 11 4 13 10 2 6 -4 11 -13 11 -9 0
-15 -5 -13 -11z"/>
<path d="M2690 9138 c-25 -5 -49 -14 -54 -19 -6 -5 -18 -9 -27 -9 -22 0 -77
-46 -67 -55 4 -4 32 -4 63 0 50 6 56 9 53 28 -2 18 3 23 26 25 16 2 33 -1 38
-6 12 -12 52 24 43 38 -7 12 -14 11 -75 -2z"/>
<path d="M6610 9125 c0 -11 53 -55 65 -55 18 0 65 -72 65 -99 0 -12 5 -31 10
-42 6 -10 13 -71 16 -135 6 -126 10 -138 86 -218 16 -17 28 -37 28 -47 0 -9 7
-22 16 -30 17 -14 15 -60 -4 -114 -6 -16 -16 -50 -23 -75 -7 -25 -21 -61 -31
-80 -10 -19 -18 -42 -18 -51 0 -9 -7 -22 -15 -29 -19 -16 -19 -96 -1 -129 13
-23 14 -20 18 37 3 38 11 68 21 80 9 10 17 28 17 41 0 12 7 24 15 27 8 3 17
22 21 42 4 21 9 42 13 47 19 32 40 117 41 162 0 62 -22 104 -80 153 -22 18
-40 40 -40 48 0 9 -7 23 -16 33 -11 13 -13 22 -6 35 6 12 7 27 0 43 -6 17 -5
32 3 47 7 14 8 30 3 41 -8 17 -11 36 -16 96 -2 15 -8 31 -15 35 -6 4 -13 25
-15 47 -3 39 -4 40 -41 40 -22 0 -37 5 -37 12 0 6 -14 19 -32 27 -32 17 -48
20 -48 11z"/>
<path d="M4660 9096 c0 -17 16 -42 50 -76 81 -81 95 -63 27 35 -47 67 -77 83
-77 41z"/>
<path d="M8304 9066 c-3 -8 -4 -27 -2 -43 2 -22 9 -29 31 -31 16 -2 35 2 43 9
17 14 18 51 2 67 -17 17 -67 15 -74 -2z"/>
<path d="M5636 9025 c-3 -8 -1 -28 5 -43 l11 -27 9 23 c6 15 5 31 -1 43 -13
23 -16 24 -24 4z"/>
<path d="M3937 8934 c-11 -22 -12 -46 -7 -95 4 -37 10 -71 13 -76 3 -5 8 -37
11 -72 9 -119 66 -210 66 -106 0 47 -16 128 -31 158 -6 10 -6 25 0 35 10 20
-11 158 -27 174 -7 7 -15 1 -25 -18z"/>
<path d="M8270 8906 c0 -17 5 -26 16 -26 10 0 14 7 12 22 -5 32 -28 35 -28 4z"/>
<path d="M3045 8900 c-7 -12 2 -30 16 -30 5 0 26 -18 46 -40 21 -22 45 -40 55
-40 21 0 108 -60 108 -75 0 -13 36 -45 51 -45 19 0 0 72 -28 109 -25 33 -25
34 -8 47 10 8 22 14 27 14 22 0 3 17 -32 28 -51 16 -60 15 -80 -3 -15 -14 -22
-13 -63 5 -25 11 -49 25 -52 30 -8 13 -32 13 -40 0z"/>
<path d="M4852 8861 c4 -13 18 -16 19 -4 0 4 -5 9 -11 12 -7 2 -11 -2 -8 -8z"/>
<path d="M7464 8837 c-7 -20 -2 -47 11 -50 14 -3 19 43 6 56 -7 7 -12 6 -17
-6z"/>
<path d="M2820 8830 c0 -5 7 -10 15 -10 8 0 15 5 15 10 0 6 -7 10 -15 10 -8 0
-15 -4 -15 -10z"/>
<path d="M8060 8780 c-41 -39 -45 -60 -11 -60 25 0 85 65 78 84 -9 24 -22 20
-67 -24z"/>
<path d="M4463 8773 c-12 -2 -27 -11 -33 -18 -10 -12 -9 -16 5 -21 24 -10 69
8 73 29 3 17 -2 18 -45 10z"/>
<path d="M1527 8714 c-9 -10 2 -24 19 -24 8 0 14 7 14 15 0 15 -21 21 -33 9z"/>
<path d="M2149 8666 c-51 -38 -109 -103 -109 -124 0 -13 -38 -72 -54 -83 -5
-4 -10 -25 -12 -48 -1 -22 -5 -45 -9 -51 -11 -19 18 -194 34 -207 9 -6 18 -10
22 -8 6 4 3 86 -7 170 -3 28 -5 66 -4 85 0 42 26 100 44 100 13 0 71 57 77 76
2 7 28 31 57 54 29 23 51 47 49 53 -7 23 -43 16 -88 -17z"/>
<path d="M4942 8688 c3 -7 13 -15 24 -17 16 -3 17 -1 5 13 -16 19 -34 21 -29
4z"/>
<path d="M5589 8687 c15 -19 41 -23 41 -7 0 6 -4 10 -9 10 -5 0 -18 3 -28 7
-16 6 -16 5 -4 -10z"/>
<path d="M7012 8673 c2 -10 10 -18 18 -18 8 0 16 8 18 18 2 12 -3 17 -18 17
-15 0 -20 -5 -18 -17z"/>
<path d="M6131 8667 c-15 -18 34 -66 50 -50 8 8 8 13 0 17 -6 4 -11 16 -11 27
0 22 -22 25 -39 6z"/>
<path d="M3355 8633 c4 -21 8 -38 8 -38 1 0 12 -6 24 -12 33 -19 53 -16 53 7
0 13 -12 25 -35 34 -19 8 -35 22 -35 30 0 9 -5 16 -11 16 -8 0 -9 -12 -4 -37z"/>
<path d="M5557 8659 c-9 -5 -33 -35 -52 -65 -29 -44 -39 -54 -55 -49 -24 8
-26 -11 -5 -39 13 -17 19 -18 56 -7 49 15 99 49 99 68 0 7 5 13 10 13 6 0 10
5 10 12 0 9 -3 9 -12 0 -14 -14 -48 -16 -48 -3 0 4 9 20 20 34 33 41 21 61
-23 36z"/>
<path d="M8302 8619 c2 -6 8 -10 13 -10 5 0 11 4 13 10 2 6 -4 11 -13 11 -9 0
-15 -5 -13 -11z"/>
<path d="M6265 8605 c-11 -8 -29 -22 -40 -30 -48 -37 -98 -65 -104 -59 -3 4 0
9 7 11 6 3 12 13 12 24 0 27 -30 24 -60 -6 -48 -46 -53 -55 -40 -70 12 -15 -3
-31 -20 -20 -5 3 -18 0 -28 -6 -14 -9 -27 -9 -52 -1 -18 7 -36 9 -42 6 -5 -3
-15 0 -23 6 -11 9 -26 4 -70 -26 -48 -32 -54 -39 -40 -47 12 -7 28 -5 52 7 42
20 71 20 132 0 35 -11 53 -12 72 -5 24 11 30 14 104 60 65 41 195 151 195 167
0 10 -36 2 -55 -11z m-155 -120 c0 -16 -9 -19 -34 -9 -25 9 -19 24 9 24 16 0
25 -6 25 -15z"/>
<path d="M3470 8585 c0 -12 33 -55 41 -55 13 0 11 34 -3 48 -12 12 -38 17 -38
7z"/>
<path d="M3896 8550 c-5 -31 -2 -49 9 -66 8 -13 15 -40 15 -61 0 -38 22 -110
55 -188 10 -22 19 -62 21 -89 4 -45 25 -86 44 -86 13 0 -1 135 -16 151 -8 8
-14 24 -14 35 0 11 -7 29 -15 41 -9 12 -24 55 -35 95 -10 40 -28 104 -38 142
l-19 69 -7 -43z"/>
<path d="M3299 8511 c-16 -14 -29 -29 -29 -33 0 -4 -23 -30 -51 -59 -38 -37
-48 -53 -39 -59 16 -10 70 8 76 25 3 7 25 27 50 44 24 18 47 43 50 56 4 18 14
25 37 27 53 5 42 24 -14 24 -41 0 -57 -5 -80 -25z"/>
<path d="M4800 8503 c-73 -34 -131 -73 -124 -84 8 -13 79 -11 109 3 14 6 35
27 46 45 15 24 27 33 42 31 14 -2 23 3 25 15 5 25 -32 22 -98 -10z"/>
<path d="M5120 8503 c0 -19 83 -136 100 -141 6 -2 10 14 10 35 0 31 -8 47 -39
81 -41 44 -71 54 -71 25z"/>
<path d="M6236 8455 c-31 -30 -56 -59 -56 -64 0 -5 13 -19 28 -30 l28 -20 24
52 c12 29 29 65 37 81 16 35 16 36 4 36 -5 0 -35 -25 -65 -55z"/>
<path d="M8663 8474 c-7 -19 2 -28 22 -21 19 8 19 23 0 31 -9 3 -18 -1 -22
-10z"/>
<path d="M3760 8450 c0 -3 -3 -85 -5 -182 -3 -97 -7 -209 -10 -249 -8 -108 8
-135 52 -86 29 31 36 70 18 103 -8 16 -15 34 -15 40 0 7 -6 14 -14 17 -15 6
-20 133 -5 143 5 3 9 0 9 -5 0 -6 6 -11 14 -11 21 0 28 69 11 104 -8 16 -15
41 -15 56 0 22 -38 88 -40 70z"/>
<path d="M6615 8400 c-6 -38 1 -114 13 -134 16 -27 28 81 16 143 -9 43 -21 39
-29 -9z"/>
<path d="M5660 8406 c0 -22 17 -28 41 -15 17 9 19 13 8 20 -22 14 -49 11 -49
-5z"/>
<path d="M8390 8255 c-7 -8 -28 -15 -47 -15 -19 0 -47 -7 -63 -15 -33 -17
-100 -81 -100 -94 0 -14 -59 -61 -76 -61 -8 0 -14 2 -14 5 0 13 27 51 45 64
11 9 33 28 49 43 22 22 26 32 17 42 -9 11 -21 12 -53 4 -29 -6 -58 -5 -92 3
-27 7 -75 12 -106 13 -53 1 -58 -1 -93 -39 -20 -22 -37 -45 -37 -52 0 -7 -13
-22 -30 -34 -16 -12 -34 -34 -39 -48 -6 -14 -22 -46 -36 -71 -28 -50 -32 -92
-10 -110 12 -10 17 -7 26 16 34 83 44 101 67 127 19 20 35 27 63 27 21 0 41
-4 44 -10 8 -13 125 -13 125 -1 0 5 -10 13 -21 16 -19 6 -20 9 -6 22 9 9 23
13 35 9 31 -10 24 -76 -11 -108 -15 -14 -27 -30 -27 -37 0 -18 25 -13 45 9 35
39 48 26 60 -60 6 -42 -3 -75 -34 -130 -10 -19 -31 -77 -38 -108 -4 -15 3 -35
18 -55 28 -38 31 -129 5 -155 -14 -14 -16 -13 -26 12 -5 15 -10 35 -10 44 0
21 -25 103 -40 134 -7 13 -31 42 -54 64 -69 70 -90 102 -76 119 19 22 -15 20
-48 -4 -15 -10 -38 -22 -50 -26 -13 -4 -43 -20 -67 -36 -24 -16 -47 -29 -51
-29 -5 0 -31 -23 -59 -51 l-50 -51 -6 -102 c-7 -127 -25 -170 -107 -251 -24
-23 -51 -57 -61 -76 -19 -34 -19 -34 -92 -34 -59 0 -74 -3 -77 -15 -1 -9 -31
-30 -66 -46 -59 -29 -65 -30 -91 -16 -21 10 -33 12 -45 4 -10 -6 -23 -6 -32
-1 -23 13 -117 -65 -118 -98 0 -7 11 -24 25 -39 l25 -27 11 32 c6 17 19 36 30
41 15 9 19 5 28 -22 36 -123 68 -188 92 -188 32 0 32 25 0 76 -16 27 -31 67
-33 89 l-3 40 70 -3 c55 -3 73 -7 84 -22 11 -16 17 -18 35 -9 32 17 76 61 76
76 0 8 7 16 15 19 8 3 17 14 20 25 7 21 35 26 36 7 0 -7 0 -48 -1 -91 -2 -92
19 -143 87 -211 24 -24 43 -49 43 -54 0 -15 -53 -30 -142 -42 -85 -10 -89 -10
-165 27 -61 30 -88 27 -53 -5 28 -26 95 -62 115 -62 39 0 16 -22 -65 -64 -86
-44 -124 -55 -132 -38 -1 4 -25 18 -52 32 -27 14 -57 29 -66 34 -28 16 -110
140 -110 168 0 6 -6 19 -14 27 -7 9 -16 46 -18 82 -5 65 -4 68 28 105 19 21
34 44 34 51 0 7 -16 21 -35 30 -33 16 -36 15 -55 -2 -11 -10 -20 -24 -20 -32
0 -8 -16 -30 -36 -48 -20 -19 -33 -39 -29 -45 5 -8 11 -8 21 1 8 6 25 8 39 5
24 -6 25 -10 25 -79 0 -63 5 -81 35 -141 20 -38 41 -76 48 -86 14 -19 99 -95
141 -126 25 -18 27 -24 17 -42 -6 -11 -21 -24 -33 -28 -13 -4 -41 -20 -63 -36
-67 -49 -138 -93 -175 -108 -19 -7 -55 -27 -78 -43 -40 -27 -139 -58 -186 -58
-10 0 -27 9 -38 20 -12 14 -31 21 -54 21 -19 0 -51 7 -71 15 -19 8 -42 15 -50
15 -8 0 -28 9 -43 20 -26 18 -30 19 -64 5 -34 -15 -37 -14 -104 21 l-69 35 -2
62 c-1 35 -5 76 -9 92 -5 17 -8 80 -7 140 1 61 -4 142 -10 180 -11 67 -57 175
-73 175 -4 0 -21 26 -37 58 -22 43 -30 74 -33 129 -4 63 -1 77 24 123 16 29
53 73 82 99 91 78 246 241 266 280 10 20 31 52 45 71 42 54 71 109 71 133 0
16 3 18 12 9 19 -19 68 16 68 50 0 15 -4 30 -10 33 -5 3 -10 15 -10 26 0 16 5
19 20 14 26 -8 25 3 -4 39 -27 33 -46 27 -46 -13 0 -15 -7 -36 -15 -47 -8 -10
-15 -29 -15 -40 0 -12 -7 -27 -15 -34 -8 -7 -15 -20 -15 -30 0 -9 -10 -25 -21
-36 -12 -10 -40 -44 -62 -74 -22 -30 -46 -62 -53 -70 -8 -8 -40 -47 -73 -86
-33 -39 -86 -93 -118 -120 -32 -27 -75 -65 -96 -84 -45 -41 -75 -59 -99 -60
-45 -1 -33 -200 18 -303 8 -16 14 -33 14 -39 0 -6 13 -27 29 -47 15 -20 35
-49 43 -66 36 -71 54 -344 35 -528 l-8 -77 33 -30 c18 -17 38 -30 46 -30 7 0
24 -7 37 -16 18 -12 37 -14 77 -9 43 5 57 4 67 -9 7 -8 29 -18 50 -22 20 -4
44 -11 54 -16 9 -5 45 -13 80 -17 34 -5 76 -13 92 -19 144 -49 186 -53 225
-22 43 35 247 171 280 186 8 4 47 32 86 61 38 29 92 65 120 79 73 40 96 53
129 74 17 11 53 31 80 45 28 14 57 30 65 34 8 5 33 17 55 26 22 10 53 24 68
31 16 8 38 14 50 14 18 0 109 38 178 76 15 7 65 16 113 19 69 4 94 10 126 30
22 14 64 34 93 46 72 28 114 46 168 75 26 13 60 24 75 24 16 1 40 7 54 15 14
8 41 14 61 15 19 0 44 7 55 15 10 8 35 15 55 15 20 0 56 11 80 25 24 14 51 28
59 31 39 18 59 58 60 120 0 46 -4 63 -15 68 -10 3 -15 19 -15 48 0 38 6 48 51
94 37 37 53 63 60 95 l10 44 -73 68 c-40 37 -89 78 -108 91 -19 13 -48 38 -65
55 -49 53 -119 78 -205 76 l-74 -3 -53 -58 c-30 -33 -59 -66 -66 -74 -25 -28
-45 -132 -37 -185 l7 -50 2 42 c1 30 6 45 20 52 10 6 21 21 25 33 3 13 24 43
46 66 35 38 45 43 68 37 15 -4 53 -9 85 -10 42 -3 69 -10 95 -28 20 -14 48
-28 60 -32 22 -6 23 -5 17 17 -4 12 -23 37 -41 55 -37 35 -41 43 -20 43 25 0
132 -114 167 -177 27 -49 31 -65 22 -74 -10 -10 -14 -7 -22 12 -11 31 -70 89
-89 89 -12 0 -13 -9 -8 -47 4 -27 9 -74 11 -105 3 -32 13 -75 24 -97 l20 -39
-22 -43 c-12 -23 -31 -48 -42 -53 -11 -6 -24 -17 -28 -23 -4 -7 -15 -13 -23
-13 -8 0 -18 -10 -23 -23 -7 -17 -37 -34 -128 -70 -65 -26 -122 -47 -127 -47
-5 0 -14 7 -21 17 -11 15 -15 14 -47 -10 -26 -20 -47 -27 -79 -27 -25 0 -53
-6 -64 -13 -11 -7 -58 -26 -105 -42 -47 -15 -90 -32 -97 -37 -6 -5 -33 -11
-60 -14 -70 -6 -81 -12 -85 -42 -4 -36 -61 -56 -137 -48 -63 8 -68 10 -52 29
8 11 6 18 -9 32 -11 10 -20 24 -20 32 0 7 -4 13 -10 13 -5 0 -10 -10 -10 -22
0 -16 -3 -19 -11 -11 -11 11 -14 206 -3 249 4 13 17 30 29 37 13 7 50 45 84
85 65 78 78 113 67 185 -7 48 16 156 36 169 21 13 37 9 48 -11 11 -21 17 -25
137 -85 46 -24 95 -41 120 -42 52 -4 81 -24 109 -78 44 -84 56 -53 48 126 -6
122 -5 127 20 167 14 22 26 47 26 55 0 8 31 46 70 86 69 71 70 72 125 73 50 1
55 3 55 24 0 12 -13 42 -30 66 -16 25 -30 50 -30 57 0 7 -9 28 -21 46 -25 41
-22 64 9 75 19 7 30 2 66 -31 33 -30 52 -40 77 -40 28 0 41 -8 77 -49 45 -53
54 -92 27 -127 -22 -29 -18 -52 13 -71 15 -10 31 -24 35 -31 5 -7 29 -36 53
-64 25 -27 50 -61 55 -75 12 -32 29 -20 29 20 1 41 35 240 43 254 3 5 -10 37
-31 69 -57 91 -59 95 -89 152 -39 74 -52 83 -135 93 -106 12 -134 11 -148 -6z
m232 -134 c5 -16 4 -21 -4 -19 -6 2 -15 14 -20 27 -5 16 -4 21 4 19 6 -2 15
-14 20 -27z m-368 -71 c19 -49 19 -50 3 -50 -20 0 -69 59 -63 76 11 29 43 15
60 -26z m100 -299 c7 -10 -33 -23 -46 -15 -5 3 -6 10 -3 15 8 12 42 12 49 0z
m-614 -85 c0 -22 -29 -41 -42 -28 -9 9 -7 17 7 32 18 20 35 18 35 -4z m151
-33 c81 -66 94 -123 28 -123 -25 0 -43 11 -86 53 -29 30 -53 63 -53 74 0 16
25 38 48 42 2 1 30 -20 63 -46z"/>
<path d="M6630 8231 c0 -11 5 -23 10 -26 6 -3 10 3 10 14 0 11 -4 23 -10 26
-5 3 -10 -3 -10 -14z"/>
<path d="M2990 8222 c0 -5 -10 -14 -22 -19 -20 -9 -21 -12 -6 -18 9 -4 25 1
37 12 25 21 27 33 6 33 -8 0 -15 -4 -15 -8z"/>
<path d="M4250 8155 c0 -14 5 -25 10 -25 6 0 10 11 10 25 0 14 -4 25 -10 25
-5 0 -10 -11 -10 -25z"/>
<path d="M6566 8171 c-3 -4 -6 -43 -8 -84 -1 -60 2 -81 15 -95 9 -10 17 -32
17 -49 0 -17 7 -36 15 -43 8 -7 15 -24 15 -39 0 -36 15 -59 24 -36 10 28 7 79
-9 131 -8 27 -15 74 -15 104 0 37 -7 66 -20 88 -21 34 -26 37 -34 23z"/>
<path d="M3352 8133 c-15 -26 -16 -53 -2 -53 14 0 22 24 18 52 l-3 23 -13 -22z"/>
<path d="M3535 8089 c-4 -12 -2 -26 4 -32 8 -8 11 -2 11 21 0 37 -6 41 -15 11z"/>
<path d="M4285 8053 c4 -10 11 -52 17 -93 17 -138 19 -147 28 -125 9 24 -7
166 -20 179 -6 6 -10 20 -10 33 0 13 -5 23 -11 23 -7 0 -8 -7 -4 -17z"/>
<path d="M3507 8024 c-3 -3 -3 -12 0 -20 3 -7 0 -28 -7 -46 -6 -18 -16 -58
-20 -88 -5 -30 -15 -75 -23 -100 -8 -25 -23 -72 -32 -105 -32 -119 -39 -136
-57 -146 -14 -7 -18 -22 -18 -58 0 -27 -7 -62 -15 -77 -8 -16 -15 -36 -15 -45
0 -9 -7 -22 -15 -29 -8 -7 -15 -18 -15 -25 0 -7 -9 -24 -20 -38 -13 -16 -16
-28 -10 -32 18 -11 11 -45 -15 -71 -29 -29 -31 -34 -10 -34 8 0 15 6 15 14 0
8 7 16 15 20 8 3 15 14 15 25 0 10 6 21 14 24 7 3 17 18 20 34 4 15 18 39 30
53 29 31 53 106 61 190 4 36 10 74 15 85 10 21 41 118 65 200 18 64 44 194 43
220 -1 11 2 28 7 38 5 12 3 17 -7 17 -8 0 -17 -3 -21 -6z"/>
<path d="M3650 7991 c0 -17 5 -31 10 -31 6 0 10 11 10 24 0 14 -4 28 -10 31
-6 4 -10 -7 -10 -24z"/>
<path d="M6842 7993 c-10 -4 -10 -8 -1 -19 6 -8 16 -14 21 -14 11 0 58 -50 58
-61 0 -5 20 -18 44 -30 25 -11 47 -27 50 -35 3 -8 12 -14 21 -14 9 0 24 -19
35 -45 20 -47 69 -115 83 -115 14 0 7 68 -9 81 -9 7 -26 34 -38 59 -14 30 -28
46 -43 48 -13 2 -31 14 -41 26 -32 41 -135 126 -151 125 -9 0 -22 -3 -29 -6z"/>
<path d="M5656 7944 c-9 -22 3 -32 14 -14 12 19 12 30 1 30 -5 0 -12 -7 -15
-16z"/>
<path d="M6693 7885 c0 -33 2 -45 4 -27 2 18 2 45 0 60 -2 15 -4 0 -4 -33z"/>
<path d="M6485 7887 c-20 -15 -19 -28 10 -197 10 -57 17 -157 18 -250 2 -146
1 -157 -21 -192 -24 -38 -51 -51 -137 -64 -22 -4 -47 -12 -55 -19 -8 -6 -23
-15 -32 -18 -19 -7 -24 -32 -9 -41 4 -3 17 1 27 9 22 17 107 20 135 4 16 -8
25 -7 38 5 10 9 25 16 34 16 9 0 24 11 33 25 9 14 25 25 35 25 25 0 24 13 -2
25 -12 6 -22 15 -23 20 -2 15 67 35 81 23 7 -5 17 -7 23 -3 17 10 2 67 -22 86
-19 15 -20 21 -11 90 6 41 9 115 8 164 -3 82 -8 100 -49 195 -25 58 -46 106
-46 107 0 7 -18 2 -35 -10z"/>
<path d="M4113 7858 c9 -61 39 -173 48 -182 5 -6 9 -20 9 -33 0 -13 4 -23 9
-23 11 0 2 147 -10 172 -5 9 -9 25 -9 35 -1 18 -32 63 -45 63 -4 0 -5 -15 -2
-32z"/>
<path d="M3366 7801 c-24 -74 -26 -111 -6 -111 15 0 23 22 26 76 2 29 8 62 13
73 13 24 14 41 2 41 -4 0 -20 -36 -35 -79z"/>
<path d="M2426 7854 c-4 -9 -4 -19 -2 -21 9 -10 46 9 46 23 0 19 -36 18 -44
-2z"/>
<path d="M1165 7793 c-3 -27 -10 -63 -16 -81 -6 -19 -8 -49 -4 -68 5 -30 3
-36 -17 -44 l-23 -9 22 0 c13 -1 28 -10 35 -21 7 -11 16 -20 20 -20 12 0 9 68
-4 89 -9 15 -7 30 11 74 20 50 21 60 10 91 -7 20 -16 36 -20 36 -4 0 -10 -21
-14 -47z"/>
<path d="M4340 7781 c0 -11 5 -23 10 -26 6 -3 10 3 10 14 0 11 -4 23 -10 26
-5 3 -10 -3 -10 -14z"/>
<path d="M6680 7764 c0 -14 4 -23 10 -19 6 3 10 15 10 26 0 10 -4 19 -10 19
-5 0 -10 -12 -10 -26z"/>
<path d="M2925 7727 c-10 -45 -12 -118 -3 -123 4 -3 8 -17 8 -31 0 -15 3 -23
7 -19 11 11 16 193 5 200 -5 3 -13 -9 -17 -27z"/>
<path d="M3756 7718 c-9 -29 1 -53 33 -82 18 -17 21 -17 21 -3 0 9 -9 21 -19
27 -13 6 -21 23 -23 48 -4 35 -4 36 -12 10z"/>
<path d="M5922 7700 c-17 -28 -15 -32 8 -20 11 6 20 17 20 25 0 21 -13 19 -28
-5z"/>
<path d="M4996 7689 c-27 -4 -81 -10 -120 -13 -208 -16 -276 -23 -283 -29 -18
-19 25 -30 135 -35 98 -4 126 -2 152 12 18 9 57 16 87 16 40 0 53 4 53 15 0 7
8 18 17 24 27 15 13 18 -41 10z"/>
<path d="M4367 7633 c-6 -59 2 -109 41 -243 16 -58 33 -125 36 -149 4 -25 20
-73 36 -107 17 -34 30 -67 30 -73 0 -6 4 -11 9 -11 12 0 24 37 17 49 -3 4 -12
48 -21 97 -26 150 -35 198 -45 219 -4 11 -13 35 -19 53 -6 18 -19 45 -30 60
-11 16 -23 54 -27 90 -3 34 -10 62 -14 62 -4 0 -10 -21 -13 -47z"/>
<path d="M7017 7674 c-16 -16 -6 -35 16 -32 12 2 22 10 22 18 0 16 -26 25 -38
14z"/>
<path d="M2275 7630 c-8 -13 9 -20 24 -11 10 6 9 10 -3 14 -8 3 -18 2 -21 -3z"/>
<path d="M3302 7590 c-27 -37 -28 -60 -2 -60 12 0 20 7 20 16 0 9 7 22 17 29
9 7 14 19 10 29 -9 23 -20 20 -45 -14z"/>
<path d="M2130 7589 c0 -11 5 -17 10 -14 6 3 10 13 10 21 0 8 -4 14 -10 14 -5
0 -10 -9 -10 -21z"/>
<path d="M7135 7599 c-4 -6 -4 -13 -1 -16 8 -8 36 5 36 17 0 13 -27 13 -35 -1z"/>
<path d="M4010 7491 c0 -28 5 -53 10 -56 6 -4 10 15 10 49 0 31 -4 56 -10 56
-5 0 -10 -22 -10 -49z"/>
<path d="M2067 7514 c-8 -8 1 -24 14 -24 5 0 9 7 9 15 0 15 -12 20 -23 9z"/>
<path d="M8298 7508 c-9 -7 -29 -35 -43 -63 -14 -27 -30 -57 -35 -65 -5 -8
-11 -23 -14 -32 -7 -24 -22 -23 -29 3 -10 36 -27 10 -27 -40 0 -26 3 -51 7
-54 8 -9 53 32 53 47 0 13 98 66 121 66 19 0 44 -27 53 -58 4 -12 16 -27 27
-32 10 -6 19 -17 19 -25 0 -17 38 -45 62 -45 28 0 22 37 -9 57 -40 26 -63 56
-52 68 17 17 9 25 -16 19 -25 -6 -25 -5 -25 58 0 36 -5 71 -12 81 -18 22 -60
30 -80 15z m66 -44 c9 -24 -2 -52 -24 -59 -42 -13 -54 22 -18 55 26 24 34 25
42 4z"/>
<path d="M3800 7466 c0 -14 5 -26 10 -26 6 0 10 9 10 19 0 11 -4 23 -10 26 -6
4 -10 -5 -10 -19z"/>
<path d="M8457 7460 c8 -29 25 -37 21 -9 -1 12 -8 24 -15 26 -7 3 -9 -3 -6
-17z"/>
<path d="M7087 7421 c-21 -35 -21 -41 -4 -41 21 0 50 37 44 55 -9 22 -21 18
-40 -14z"/>
<path d="M4856 7411 c-21 -23 -11 -31 36 -31 32 0 39 3 36 17 -5 25 -53 35
-72 14z"/>
<path d="M7947 7394 c-4 -12 -16 -29 -27 -39 -25 -23 -25 -35 -1 -35 27 0 43
24 39 62 -3 28 -4 30 -11 12z"/>
<path d="M4970 7331 c11 -22 29 -35 36 -28 9 8 -20 47 -34 47 -9 0 -10 -5 -2
-19z"/>
<path d="M6963 7303 c-38 -42 -39 -43 -14 -43 23 0 71 44 71 65 0 25 -23 16
-57 -22z"/>
<path d="M7816 7276 c-4 -15 -15 -25 -33 -29 -18 -4 -42 -24 -66 -56 -58 -75
-107 -121 -154 -143 -29 -13 -43 -25 -43 -38 0 -30 31 -25 76 13 21 18 58 47
82 64 46 33 92 88 92 109 0 7 22 25 50 41 46 26 48 29 33 45 -21 24 -30 23
-37 -6z"/>
<path d="M4265 7269 c-8 -22 39 -109 54 -100 9 6 8 11 -4 21 -8 7 -15 20 -15
29 -1 9 -7 27 -15 41 -11 21 -15 22 -20 9z"/>
<path d="M7950 7240 c0 -33 3 -40 20 -40 13 0 22 -9 27 -30 10 -38 27 -39 31
-3 5 36 -37 113 -60 113 -14 0 -18 -8 -18 -40z"/>
<path d="M8306 7222 c-3 -5 -3 -26 1 -46 7 -42 23 -31 23 16 0 27 -14 45 -24
30z"/>
<path d="M3772 7199 c-8 -20 -6 -25 12 -30 28 -8 29 -6 12 26 l-15 29 -9 -25z"/>
<path d="M3105 7185 c-5 -2 -23 -6 -39 -10 -18 -4 -25 -10 -20 -15 12 -12 100
2 97 15 -2 11 -22 16 -38 10z"/>
<path d="M6687 7184 c-14 -14 6 -24 49 -24 44 0 58 12 28 24 -21 8 -69 8 -77
0z"/>
<path d="M2650 7160 c-22 -17 -23 -19 -7 -25 23 -9 47 1 47 19 0 24 -14 26
-40 6z"/>
<path d="M2127 7155 c-8 -18 11 -31 25 -17 11 11 3 32 -12 32 -4 0 -10 -7 -13
-15z"/>
<path d="M2867 7153 c-13 -12 -7 -23 13 -23 11 0 20 7 20 15 0 15 -21 21 -33
8z"/>
<path d="M6817 7152 c-9 -2 -15 -8 -12 -13 8 -12 45 -12 45 0 0 13 -12 18 -33
13z"/>
<path d="M3125 7120 c-8 -13 35 -13 55 0 11 7 7 10 -17 10 -17 0 -35 -4 -38
-10z"/>
<path d="M3815 7108 c3 -13 10 -38 15 -56 10 -40 15 -46 29 -37 18 10 13 55
-10 86 -24 35 -44 38 -34 7z"/>
<path d="M6575 7091 c-33 -16 -69 -32 -79 -35 -15 -5 -17 -9 -8 -18 7 -7 12
-20 12 -30 0 -10 1 -18 3 -18 1 0 18 4 36 10 24 7 39 6 47 -1 10 -8 17 -7 27
3 8 7 33 29 55 48 23 19 42 43 42 53 0 27 -65 21 -135 -12z"/>
<path d="M4420 7049 c0 -15 42 -88 67 -116 23 -26 38 -17 26 14 -26 65 -93
139 -93 102z"/>
<path d="M4604 7027 c-16 -32 -15 -34 17 -82 32 -47 34 -48 40 -25 18 66 2
140 -30 140 -6 0 -18 -15 -27 -33z"/>
<path d="M6420 7015 c-7 -8 -24 -15 -39 -15 -29 0 -54 -30 -45 -55 4 -9 -1
-21 -11 -29 -14 -10 -15 -15 -5 -21 8 -5 16 -2 22 9 5 9 16 16 24 16 8 0 17 8
21 18 9 26 35 53 61 63 13 5 20 13 17 19 -9 15 -31 12 -45 -5z"/>
<path d="M3860 6962 c0 -11 9 -29 20 -42 11 -13 20 -27 20 -32 0 -10 50 -31
57 -24 8 7 -29 70 -54 94 -29 27 -43 28 -43 4z"/>
<path d="M3210 6941 c0 -12 26 -21 63 -21 18 0 44 -7 60 -15 33 -17 110 -24
117 -10 3 6 -17 15 -44 22 -27 7 -54 17 -60 23 -12 12 -136 14 -136 1z"/>
<path d="M4787 6898 c-3 -24 -4 -44 -2 -47 3 -2 16 4 30 13 27 18 32 45 13 64
-22 22 -35 12 -41 -30z"/>
<path d="M2572 6893 c3 -29 16 -37 37 -24 10 7 11 13 2 30 -17 31 -43 27 -39
-6z"/>
<path d="M4090 6894 c0 -20 17 -52 47 -88 14 -17 29 -40 34 -53 5 -13 13 -23
19 -23 13 0 45 -32 53 -53 3 -9 11 -17 17 -17 15 0 12 36 -5 50 -8 7 -15 18
-15 24 0 10 -35 53 -96 117 -13 14 -24 33 -24 42 0 10 -7 17 -15 17 -8 0 -15
-7 -15 -16z"/>
<path d="M4506 6892 c-5 -9 22 -91 34 -102 3 -3 19 -31 35 -63 33 -65 84 -127
103 -127 17 0 15 27 -3 34 -8 3 -20 17 -25 31 -5 14 -13 24 -17 23 -12 -4 -15
5 -8 25 8 19 9 15 -43 112 -36 65 -62 89 -76 67z"/>
<path d="M6589 6867 c-17 -13 -69 -118 -69 -140 0 -8 -9 -26 -20 -39 -16 -21
-19 -37 -16 -94 2 -38 4 -87 5 -109 1 -22 6 -47 11 -55 19 -29 28 10 28 114 0
100 19 191 47 226 7 8 17 29 23 45 5 17 13 38 17 48 8 20 -3 22 -26 4z"/>
<path d="M3677 6815 c-21 -50 -16 -131 8 -121 7 2 24 -2 38 -9 14 -7 28 -11
31 -7 11 11 6 62 -6 62 -27 0 -40 19 -46 69 l-7 51 -18 -45z"/>
<path d="M3780 6813 c0 -18 6 -33 15 -37 10 -4 15 -20 15 -51 0 -43 1 -45 30
-45 34 0 39 14 10 30 -15 8 -18 17 -13 40 4 24 0 36 -26 62 l-31 32 0 -31z"/>
<path d="M6201 6802 c-57 -81 -84 -216 -57 -292 9 -28 13 -60 9 -87 -4 -29 -2
-43 6 -43 6 0 12 16 12 35 1 19 3 47 4 63 1 15 5 65 9 112 7 91 12 117 29 139
11 13 37 79 37 94 0 18 -30 5 -49 -21z"/>
<path d="M8153 6823 c-18 -6 -16 -33 1 -33 19 0 31 19 20 30 -5 4 -15 5 -21 3z"/>
<path d="M2535 6765 c-5 -2 -23 -6 -38 -10 -24 -5 -27 -8 -17 -20 20 -24 47
-27 87 -10 36 16 37 17 19 31 -19 14 -31 16 -51 9z"/>
<path d="M7250 6750 c0 -5 9 -10 20 -10 11 0 20 5 20 10 0 6 -9 10 -20 10 -11
0 -20 -4 -20 -10z"/>
<path d="M8486 6723 c-12 -12 -6 -43 9 -43 8 0 15 9 15 19 0 21 -13 34 -24 24z"/>
<path d="M7050 6634 c0 -31 23 -28 28 4 2 15 -2 22 -12 22 -11 0 -16 -9 -16
-26z"/>
<path d="M3573 6642 c-23 -3 -33 -22 -12 -22 6 0 19 -10 30 -22 l18 -23 1 32
c0 36 -5 41 -37 35z"/>
<path d="M2935 6610 c3 -5 15 -10 26 -10 11 0 17 5 14 10 -3 6 -15 10 -26 10
-11 0 -17 -4 -14 -10z"/>
<path d="M5196 6611 c-6 -10 32 -47 39 -39 9 8 -5 36 -20 42 -8 3 -17 1 -19
-3z"/>
<path d="M898 6555 c-3 -22 -9 -48 -13 -57 -5 -13 -2 -18 9 -18 9 0 22 -12 28
-27 7 -16 13 -29 14 -31 1 -2 14 4 28 13 31 21 36 65 8 65 -24 0 -59 39 -64
70 -3 20 -5 16 -10 -15z"/>
<path d="M1102 6548 c5 -15 28 -18 29 -3 0 6 -7 12 -17 13 -10 3 -15 -1 -12
-10z"/>
<path d="M8221 6441 c-19 -12 -6 -41 17 -41 23 0 46 25 37 40 -8 12 -35 13
-54 1z"/>
<path d="M4535 6418 c17 -5 39 -14 51 -19 11 -6 40 -9 65 -7 l44 3 -50 8 c-27
5 -58 12 -67 18 -10 5 -30 9 -45 8 l-28 -1 30 -10z"/>
<path d="M5036 6411 c-4 -6 -3 -18 2 -27 8 -14 10 -14 15 -2 7 19 -8 44 -17
29z"/>
<path d="M4924 6395 c-22 -17 -58 -19 -83 -5 -13 6 -24 5 -37 -5 -19 -13 -19
-14 1 -28 16 -13 18 -20 10 -43 -8 -22 -18 -30 -45 -35 -19 -3 -45 -11 -57
-17 -12 -7 -32 -13 -45 -13 -20 -1 -21 -2 -3 -6 11 -3 25 -9 32 -15 7 -6 18
-6 30 1 10 5 45 9 77 9 31 0 62 4 69 11 6 6 21 11 34 11 12 0 27 9 33 20 6 11
17 20 25 20 16 0 55 30 55 42 0 5 -11 8 -25 8 -27 0 -34 17 -10 26 8 4 15 12
15 20 0 19 -51 18 -76 -1z"/>
<path d="M5515 6400 c-4 -6 -3 -16 3 -22 6 -6 12 -6 17 2 4 6 3 16 -3 22 -6 6
-12 6 -17 -2z"/>
<path d="M3680 6382 c0 -16 73 -82 91 -82 10 0 31 -16 46 -35 27 -33 53 -46
53 -26 0 27 -21 61 -38 61 -10 0 -27 9 -37 20 -17 19 -97 70 -109 70 -3 0 -6
-4 -6 -8z"/>
<path d="M928 6374 c-5 -4 -8 -14 -8 -21 0 -8 -10 -27 -21 -43 -20 -27 -21
-60 -1 -60 15 0 44 75 40 104 -2 16 -6 24 -10 20z"/>
<path d="M1832 6344 c2 -13 23 -26 68 -41 l65 -21 3 -57 c2 -39 -2 -64 -12
-80 -15 -22 -14 -25 15 -54 41 -42 66 -41 65 2 -1 19 -9 38 -19 46 -16 11 -18
22 -12 67 6 48 4 57 -20 89 -15 19 -35 35 -44 35 -9 0 -21 4 -26 9 -6 5 -27
13 -48 17 -35 6 -39 4 -35 -12z"/>
<path d="M2810 6325 c0 -8 4 -15 9 -15 5 0 14 7 21 15 10 13 9 15 -9 15 -12 0
-21 -6 -21 -15z"/>
<path d="M840 6300 c0 -11 -7 -23 -15 -26 -21 -8 -19 -22 10 -60 14 -18 25
-38 25 -45 0 -7 10 -9 30 -6 21 5 32 2 40 -11 9 -14 10 -12 5 12 -8 39 -36 75
-57 76 -14 0 -18 9 -18 40 0 22 -4 40 -10 40 -5 0 -10 -9 -10 -20z"/>
<path d="M5165 6299 c-12 -19 5 -23 22 -6 16 16 16 17 1 17 -9 0 -20 -5 -23
-11z"/>
<path d="M3150 6190 c-8 -5 -11 -12 -7 -16 4 -4 13 -2 19 4 15 15 7 24 -12 12z"/>
<path d="M4948 6187 c-7 -7 -35 -21 -62 -31 -53 -20 -90 -50 -83 -69 2 -7 20
-14 39 -17 42 -6 81 -48 76 -82 -4 -29 -34 -36 -42 -10 -5 14 -13 18 -39 14
-31 -4 -67 -27 -67 -43 0 -4 24 -20 53 -36 51 -28 52 -29 58 -83 13 -112 60
-311 74 -310 6 0 11 71 12 173 1 94 3 246 5 335 2 90 0 166 -4 168 -3 2 -12
-2 -20 -9z"/>
<path d="M5250 6173 c0 -12 5 -25 10 -28 13 -8 13 15 0 35 -8 12 -10 11 -10
-7z"/>
<path d="M5490 6157 c0 -27 13 -36 26 -16 3 6 -1 18 -10 27 -15 15 -16 14 -16
-11z"/>
<path d="M3480 6160 c0 -5 9 -10 21 -10 11 0 17 5 14 10 -3 6 -13 10 -21 10
-8 0 -14 -4 -14 -10z"/>
<path d="M5510 6096 c0 -19 4 -24 15 -19 18 6 16 34 -2 41 -8 2 -13 -6 -13
-22z"/>
<path d="M8967 6104 c-9 -10 2 -24 19 -24 8 0 14 7 14 15 0 15 -21 21 -33 9z"/>
<path d="M4040 6062 c0 -18 18 -37 79 -80 53 -38 48 -16 -10 43 -58 59 -69 65
-69 37z"/>
<path d="M5720 6065 c0 -9 5 -15 11 -13 6 2 11 8 11 13 0 5 -5 11 -11 13 -6 2
-11 -4 -11 -13z"/>
<path d="M7308 6059 c-28 -14 -38 -26 -38 -43 0 -39 29 -40 79 -4 15 10 21 24
19 39 -4 30 -16 32 -60 8z"/>
<path d="M2550 6051 c0 -10 -7 -21 -15 -25 -13 -5 -22 -36 -11 -36 18 0 36 15
36 30 0 11 5 22 10 25 15 9 12 25 -5 25 -8 0 -15 -9 -15 -19z"/>
<path d="M3040 6048 l-25 -23 34 -3 c44 -4 61 3 61 28 0 28 -39 27 -70 -2z"/>
<path d="M5036 6053 c-11 -11 -6 -69 9 -114 22 -61 31 -272 15 -324 -15 -47
-23 -452 -9 -461 5 -3 9 -20 9 -37 0 -18 5 -48 11 -67 29 -93 72 -326 64 -348
-5 -12 0 -22 68 -132 20 -34 37 -69 37 -78 0 -10 7 -28 16 -41 24 -33 23 -264
0 -290 -9 -10 -16 -29 -16 -43 0 -14 -7 -39 -15 -54 -8 -16 -15 -36 -15 -45 0
-9 -7 -30 -15 -45 -8 -16 -15 -39 -15 -51 0 -12 -4 -25 -10 -28 -5 -3 -10 -15
-10 -25 0 -34 -105 -235 -136 -261 -8 -6 -14 -18 -14 -25 0 -7 -19 -46 -42
-87 -24 -40 -54 -95 -67 -123 -13 -27 -28 -57 -32 -66 -5 -10 -9 -24 -9 -32 0
-8 -7 -16 -15 -20 -8 -3 -15 -14 -15 -24 0 -11 -7 -25 -15 -32 -8 -7 -15 -16
-15 -21 0 -5 -11 -27 -25 -50 -14 -22 -25 -45 -24 -52 3 -28 -3 -38 -41 -57
-22 -11 -47 -33 -57 -48 -51 -84 -81 -122 -101 -132 -23 -10 -24 -10 -17 32 8
48 8 47 6 67 -1 10 -8 8 -26 -9 -14 -13 -25 -27 -25 -32 0 -4 -17 -25 -38 -46
-43 -43 -85 -111 -150 -241 -24 -47 -52 -95 -62 -106 -32 -36 -58 -99 -53
-128 3 -16 0 -63 -7 -105 -11 -73 -22 -107 -57 -178 -8 -17 -13 -44 -11 -60 2
-23 8 -29 27 -29 35 0 71 70 64 124 -3 23 -1 41 6 45 6 4 11 20 11 36 0 16 8
43 17 62 9 18 22 45 30 60 7 14 13 31 13 37 0 7 5 17 11 24 11 13 50 85 100
187 17 36 51 95 76 133 44 66 45 67 88 67 24 0 48 6 52 13 4 6 28 22 53 35 25
12 52 27 60 31 8 5 31 17 51 27 21 9 57 35 80 57 24 21 64 48 89 59 96 42 111
48 124 48 8 0 19 7 26 15 7 8 19 15 28 15 8 0 23 6 31 14 9 8 48 19 86 25 123
19 213 45 237 69 7 7 17 12 23 12 7 0 32 14 56 32 24 18 52 33 61 33 23 2 87
53 99 79 6 13 6 36 1 61 l-9 40 -26 -56 c-14 -31 -40 -68 -57 -82 -35 -30 -39
-31 -59 -18 -17 11 -7 42 26 81 15 18 27 47 30 73 2 23 9 53 14 67 5 14 13 63
18 110 8 76 7 88 -10 116 -10 17 -19 44 -19 59 0 20 -4 26 -15 21 -21 -8 -65
40 -65 69 0 33 6 31 43 -7 26 -28 32 -30 35 -15 2 10 -2 25 -9 34 -8 8 -14 36
-15 62 -1 25 -7 69 -13 96 -5 28 -10 73 -10 102 -1 28 -5 55 -11 58 -5 3 -10
3 -10 -2 -8 -146 -8 -192 1 -215 6 -14 9 -34 7 -43 -2 -13 -10 -10 -36 15 -34
31 -62 39 -62 19 0 -7 11 -22 24 -34 19 -17 26 -38 32 -84 4 -38 14 -72 27
-87 19 -25 19 -27 3 -54 -21 -37 -13 -133 16 -173 14 -20 18 -36 13 -58 -8
-34 -32 -49 -46 -28 -6 9 -9 -5 -9 -41 0 -30 -7 -63 -14 -72 -14 -19 -86 -48
-117 -48 -11 0 -27 -4 -37 -9 -48 -25 -131 -61 -163 -70 -20 -7 -47 -23 -59
-36 -15 -16 -35 -25 -53 -25 -16 0 -42 -11 -59 -25 -37 -31 -50 -32 -46 -2 2
14 -2 22 -12 22 -10 0 -16 -12 -18 -32 -3 -31 -6 -33 -37 -30 -31 2 -34 4 -28
27 3 14 11 30 18 35 14 12 26 58 25 96 0 19 6 28 20 32 15 4 20 13 20 41 0 22
5 36 13 36 6 0 21 15 32 33 11 17 30 48 42 67 12 19 36 62 53 95 16 33 50 98
75 144 25 46 45 93 45 106 0 12 9 34 20 48 11 14 20 30 20 36 0 6 9 20 20 31
11 11 20 29 20 41 0 11 6 27 14 35 19 18 32 159 17 178 -8 10 -7 20 4 42 30
60 -10 332 -59 398 -30 41 -77 153 -71 169 3 7 -4 30 -15 52 -11 21 -20 52
-20 69 0 16 -11 79 -25 140 -44 188 -44 190 -34 202 5 7 23 17 39 24 34 14 39
35 11 49 -28 15 -30 29 -20 125 8 78 31 146 50 146 8 0 79 -106 79 -118 0 -5
11 -26 25 -47 14 -20 32 -54 39 -75 7 -20 27 -55 46 -78 28 -36 32 -47 27 -82
-3 -22 0 -55 5 -73 13 -40 66 -172 93 -232 25 -54 43 -99 56 -140 7 -22 18
-47 24 -55 24 -31 40 -88 67 -230 20 -111 19 -107 29 -87 8 14 8 129 -1 307
-2 27 14 117 33 189 8 30 28 60 60 93 l49 50 54 -6 c30 -3 80 -9 112 -12 60
-6 92 -25 92 -55 0 -26 93 -117 126 -124 44 -10 76 -30 109 -70 25 -31 30 -46
30 -92 0 -52 -3 -58 -40 -92 -44 -40 -75 -83 -75 -104 0 -21 39 -105 51 -113
7 -4 9 -21 6 -41 -6 -36 0 -63 13 -63 12 0 50 82 50 107 0 12 6 23 13 26 6 3
-4 4 -23 3 -29 -1 -36 3 -38 21 -3 23 17 61 55 102 58 64 69 202 25 291 -29
58 -19 51 -187 132 -22 11 -52 37 -67 57 -14 20 -47 48 -73 61 -26 14 -56 31
-68 37 -12 7 -32 13 -45 13 -14 0 -39 16 -63 41 -45 47 -65 45 -29 -3 22 -30
22 -32 5 -45 -11 -7 -21 -13 -24 -13 -3 0 -32 25 -64 55 -31 30 -62 55 -67 55
-6 0 -10 11 -10 25 0 14 -4 25 -10 25 -5 0 -10 -9 -10 -19 0 -11 5 -23 10 -26
6 -3 10 -13 10 -21 0 -16 9 -29 53 -76 34 -37 34 -48 2 -48 -14 0 -25 -6 -25
-13 0 -8 -12 -24 -26 -38 -23 -21 -62 -92 -76 -138 -6 -19 -64 81 -101 174
-16 39 -33 74 -38 80 -5 5 -9 19 -9 31 0 13 -4 26 -10 29 -5 3 -10 16 -10 28
0 12 -6 34 -14 48 -7 14 -16 39 -20 55 -4 16 -13 43 -21 59 -7 17 -21 48 -30
70 -9 22 -25 56 -36 75 -11 19 -32 60 -47 90 -15 30 -29 57 -32 60 -3 3 -24
43 -48 90 -60 119 -122 233 -133 245 -5 5 -9 19 -9 31 0 24 -13 38 -24 27z
m264 -1970 c0 -20 -3 -24 -11 -16 -7 7 -9 19 -6 27 10 24 17 19 17 -11z m330
-464 c0 -37 -4 -49 -15 -49 -11 0 -15 12 -15 48 0 27 3 52 6 55 15 14 24 -7
24 -54z"/>
<path d="M4728 6044 c-8 -7 3 -54 13 -54 12 0 12 47 0 54 -4 3 -10 3 -13 0z"/>
<path d="M3408 6011 c-25 -14 -55 -34 -65 -44 -11 -9 -34 -17 -51 -17 -41 0
-112 -39 -112 -61 0 -19 39 -30 60 -17 16 10 24 10 42 -1 19 -12 23 -11 37 7
23 28 86 55 111 47 27 -9 60 20 60 52 0 18 5 23 24 23 13 0 26 -5 28 -11 2 -6
15 -9 28 -7 25 4 25 4 -7 21 -44 24 -72 21 -95 -8 -19 -25 -48 -34 -48 -15 0
6 5 10 10 10 6 0 10 7 10 15 0 8 7 15 15 15 8 0 15 5 15 10 0 14 -9 11 -62
-19z"/>
<path d="M3567 6033 c-4 -3 10 -12 30 -19 43 -15 57 -9 29 12 -21 15 -48 18
-59 7z"/>
<path d="M3705 6010 c3 -5 17 -10 30 -10 13 0 27 5 30 10 4 6 -8 10 -30 10
-22 0 -34 -4 -30 -10z"/>
<path d="M6390 6006 c0 -8 5 -18 10 -21 16 -10 11 -37 -11 -61 -14 -15 -22
-39 -24 -71 -2 -26 -7 -60 -11 -75 -5 -24 -3 -28 14 -28 23 0 43 -47 39 -94
-3 -37 20 -46 29 -12 3 14 10 26 15 26 14 0 30 -50 23 -72 -6 -21 36 -64 47
-47 8 14 5 132 -5 147 -4 7 -22 19 -41 26 -21 9 -39 27 -51 51 -15 32 -15 43
-5 91 9 38 20 59 37 70 34 23 30 39 -16 63 -48 25 -50 25 -50 7z"/>
<path d="M2900 5970 c-64 -61 -91 -80 -116 -80 -17 0 -25 -9 -34 -36 -13 -40
-10 -48 17 -40 24 8 106 84 128 118 11 18 29 30 50 34 30 5 33 8 22 25 -16 26
-19 25 -67 -21z"/>
<path d="M7558 5959 c-20 -11 -24 -54 -7 -64 34 -22 84 30 59 60 -14 17 -28
18 -52 4z"/>
<path d="M6052 5948 c6 -18 28 -21 28 -4 0 9 -7 16 -16 16 -9 0 -14 -5 -12
-12z"/>
<path d="M8450 5945 c0 -8 7 -15 15 -15 8 0 15 7 15 15 0 8 -7 15 -15 15 -8 0
-15 -7 -15 -15z"/>
<path d="M3780 5921 c-8 -4 -40 -14 -70 -21 -30 -7 -59 -16 -65 -20 -5 -3 -32
-15 -60 -25 -128 -47 -295 -168 -295 -213 0 -5 -7 -15 -15 -22 -8 -7 -15 -21
-15 -31 0 -11 -4 -19 -10 -19 -5 0 -13 -12 -16 -27 -4 -16 -12 -34 -17 -42
-12 -14 -28 -42 -47 -76 -6 -11 -19 -33 -30 -50 -11 -16 -25 -40 -31 -52 -7
-13 -16 -23 -21 -23 -4 0 -8 -6 -8 -13 0 -7 -16 -29 -36 -48 -45 -43 -73 -98
-114 -224 -17 -55 -36 -104 -41 -109 -5 -6 -9 -21 -9 -34 0 -17 5 -23 17 -20
24 4 96 137 89 163 -7 26 24 90 101 203 35 51 63 96 63 101 0 5 7 11 15 15 8
3 15 15 15 26 0 11 4 20 9 20 5 0 13 9 16 20 4 11 18 33 32 48 14 15 33 43 43
62 10 19 35 51 56 70 20 19 32 36 25 38 -6 2 -11 9 -11 17 0 14 77 85 93 85 6
0 19 7 29 16 14 14 20 14 33 4 17 -14 50 -6 40 10 -3 5 3 10 14 10 11 0 24 6
28 13 8 12 102 47 128 47 7 0 26 7 41 15 16 8 36 15 44 15 8 0 36 11 61 25 39
20 52 23 80 15 53 -16 94 -12 114 10 17 19 17 19 -11 20 -16 1 -78 3 -139 6
-60 2 -117 0 -125 -5z"/>
<path d="M4156 5908 c-7 -28 32 -87 83 -127 64 -50 96 -49 62 2 -22 34 -124
147 -132 147 -4 0 -9 -10 -13 -22z"/>
<path d="M5905 5920 c-8 -13 15 -24 27 -12 6 6 4 11 -6 15 -8 3 -18 2 -21 -3z"/>
<path d="M5180 5901 c0 -5 6 -16 13 -23 14 -14 110 -150 139 -196 9 -15 22
-43 28 -62 7 -19 24 -62 40 -95 15 -33 42 -96 59 -140 18 -44 37 -87 42 -95 5
-8 12 -22 15 -30 3 -8 12 -27 20 -42 8 -14 14 -34 14 -45 0 -10 7 -27 15 -37
8 -11 15 -31 15 -45 0 -14 4 -31 8 -37 10 -16 52 -28 52 -15 0 15 -43 105 -52
109 -5 2 -8 19 -8 37 0 19 -5 37 -11 41 -8 5 -6 10 5 16 20 11 21 45 1 64 -8
9 -15 24 -15 35 0 11 -15 35 -34 53 -34 35 -51 82 -33 93 12 7 117 -103 117
-122 0 -7 12 -22 28 -33 22 -17 25 -23 15 -33 -15 -15 -17 -49 -3 -49 6 0 10
11 10 25 0 28 12 32 30 10 15 -19 30 -19 30 -2 0 22 -67 110 -95 124 -13 8
-28 25 -31 39 -4 13 -19 31 -35 40 -16 8 -40 31 -53 52 -13 20 -31 43 -40 51
-9 7 -16 18 -16 23 0 5 -7 16 -15 25 -9 8 -13 18 -10 21 3 3 25 -15 48 -41 36
-40 47 -47 80 -47 48 0 47 14 -3 34 -22 9 -40 22 -40 29 0 7 -18 29 -41 48
-23 19 -50 42 -62 52 -11 9 -24 17 -29 17 -16 0 -108 64 -108 75 0 5 -13 19
-29 30 -17 11 -32 27 -34 37 -5 18 -27 25 -27 9z"/>
<path d="M2417 5848 c-18 -47 -22 -134 -7 -158 12 -19 15 -10 31 98 14 98 2
128 -24 60z"/>
<path d="M7274 5855 c-7 -18 14 -47 27 -39 5 3 9 16 9 30 0 27 -27 34 -36 9z"/>
<path d="M5472 5849 c2 -6 8 -10 13 -10 5 0 11 4 13 10 2 6 -4 11 -13 11 -9 0
-15 -5 -13 -11z"/>
<path d="M3201 5836 c-8 -9 -11 -19 -7 -23 9 -9 29 13 24 27 -2 8 -8 7 -17 -4z"/>
<path d="M3930 5800 c0 -5 7 -10 15 -10 8 0 15 5 15 10 0 6 -7 10 -15 10 -8 0
-15 -4 -15 -10z"/>
<path d="M6712 5788 c5 -32 28 -35 28 -4 0 17 -5 26 -16 26 -10 0 -14 -7 -12
-22z"/>
<path d="M208 5767 c-7 -8 -26 -17 -41 -21 -16 -4 -27 -12 -25 -18 7 -20 23
-19 44 1 12 10 29 21 39 22 23 5 32 29 12 29 -9 0 -22 -6 -29 -13z"/>
<path d="M3685 5740 c-3 -5 3 -10 14 -10 12 0 21 5 21 10 0 6 -6 10 -14 10 -8
0 -18 -4 -21 -10z"/>
<path d="M5647 5743 c-13 -3 -16 -10 -11 -26 3 -12 8 -24 10 -26 8 -8 34 23
34 40 0 19 -2 20 -33 12z"/>
<path d="M912 5678 c6 -18 28 -21 28 -4 0 9 -7 16 -16 16 -9 0 -14 -5 -12 -12z"/>
<path d="M5952 5648 c7 -19 38 -22 38 -4 0 10 -9 16 -21 16 -12 0 -19 -5 -17
-12z"/>
<path d="M3790 5610 c0 -6 7 -13 15 -16 8 -4 15 -14 15 -23 1 -18 83 -111 98
-111 6 0 22 -13 35 -30 14 -16 30 -30 36 -30 6 0 15 -9 21 -20 11 -20 35 -25
64 -14 14 5 14 8 1 27 -8 12 -25 22 -37 22 -15 0 -24 7 -26 20 -2 11 -27 36
-55 55 -29 19 -65 56 -82 82 -24 37 -36 47 -57 47 -16 1 -28 -4 -28 -9z"/>
<path d="M4796 5603 c-4 -9 -2 -21 4 -27 12 -12 15 -8 24 22 9 27 -18 32 -28
5z"/>
<path d="M2407 5563 c-11 -10 -8 -51 3 -58 6 -4 10 8 10 29 0 37 -2 41 -13 29z"/>
<path d="M4083 5555 c-3 -9 -3 -18 0 -21 9 -9 48 16 42 27 -9 14 -35 11 -42
-6z"/>
<path d="M2277 5554 c-12 -20 -20 -241 -8 -248 12 -8 18 27 24 134 5 77 -3
134 -16 114z"/>
<path d="M4820 5521 c0 -28 -5 -44 -15 -47 -21 -8 -19 -62 4 -100 24 -39 15
-54 -29 -53 -19 1 -39 0 -45 -2 -13 -5 -102 81 -123 119 -22 40 -85 82 -122
82 -17 0 -30 4 -30 9 0 5 -7 11 -15 15 -9 3 -15 0 -15 -9 0 -8 6 -15 14 -15 8
0 16 -4 18 -10 3 -11 152 -173 243 -265 72 -72 94 -102 166 -219 53 -87 67
-111 123 -211 36 -63 45 -75 62 -75 21 0 17 24 -16 102 -17 39 -37 99 -44 132
-8 34 -22 86 -31 116 -9 30 -21 78 -25 105 -18 117 -33 181 -46 202 -8 12 -14
30 -14 40 0 29 -34 116 -48 121 -8 2 -12 -9 -12 -37z"/>
<path d="M5630 5550 c0 -5 4 -10 9 -10 19 0 175 -143 213 -195 46 -63 190
-215 205 -215 7 0 28 -16 47 -35 35 -34 56 -44 56 -26 0 6 -4 12 -9 15 -4 3
-11 20 -15 37 -9 45 -58 118 -79 119 -10 0 -26 14 -35 32 -19 36 -26 43 -112
118 -112 97 -193 150 -232 150 -9 0 -20 5 -23 10 -3 6 -10 10 -16 10 -5 0 -9
-4 -9 -10z"/>
<path d="M6387 5544 c-14 -14 -7 -25 13 -22 12 2 21 8 21 13 0 12 -24 18 -34
9z"/>
<path d="M6323 5518 c-4 -7 -9 -26 -10 -43 -1 -16 -9 -63 -18 -103 -16 -70
-15 -102 3 -102 4 0 16 16 25 35 9 18 28 42 42 51 30 20 32 52 5 87 -11 14
-20 37 -20 50 0 30 -15 43 -27 25z"/>
<path d="M3565 5461 c-7 -13 5 -91 15 -91 4 0 10 -9 13 -20 3 -11 12 -20 21
-20 9 0 16 -4 16 -10 0 -5 9 -10 20 -10 15 0 20 7 20 25 0 18 -5 25 -20 25
-13 0 -20 7 -20 19 0 53 -46 112 -65 82z"/>
<path d="M3660 5454 c0 -14 3 -14 15 -4 8 7 15 14 15 16 0 2 -7 4 -15 4 -8 0
-15 -7 -15 -16z"/>
<path d="M4370 5452 c0 -4 12 -19 26 -33 l26 -24 -4 30 c-2 22 -9 31 -25 33
-13 2 -23 -1 -23 -6z"/>
<path d="M7021 5451 c-23 -15 -5 -43 26 -39 20 2 28 9 28 23 0 22 -31 31 -54
16z"/>
<path d="M7461 5426 c-28 -34 16 -61 74 -45 44 12 45 34 4 48 -42 15 -64 14
-78 -3z"/>
<path d="M3766 5401 c-3 -5 1 -14 9 -21 13 -10 15 -9 15 9 0 21 -14 28 -24 12z"/>
<path d="M4430 5384 c0 -9 93 -128 107 -137 7 -4 32 -33 56 -65 25 -31 55 -68
69 -82 52 -54 99 -120 93 -130 -3 -5 -15 -10 -26 -10 -15 0 -17 -3 -9 -17 5
-10 16 -35 24 -55 8 -21 19 -38 24 -38 5 0 27 -25 47 -55 40 -58 50 -63 79
-42 21 15 14 39 -16 52 -14 6 -26 24 -31 47 -7 28 -16 39 -38 47 -32 11 -38
26 -14 35 8 3 15 12 15 19 0 27 -81 134 -172 228 -51 53 -115 121 -142 152
-45 51 -66 68 -66 51z"/>
<path d="M2856 5308 c-10 -38 -7 -41 13 -17 11 13 17 27 14 31 -8 15 -21 8
-27 -14z"/>
<path d="M6955 5314 c-33 -34 11 -103 67 -104 35 0 43 14 27 53 -25 65 -61 84
-94 51z"/>
<path d="M3770 5310 c36 -12 62 -12 55 0 -3 6 -23 10 -43 9 -33 -1 -34 -2 -12
-9z"/>
<path d="M7492 5279 c2 -6 8 -10 13 -10 5 0 11 4 13 10 2 6 -4 11 -13 11 -9 0
-15 -5 -13 -11z"/>
<path d="M2254 5267 c-8 -21 2 -35 16 -21 5 5 6 15 0 24 -8 12 -10 12 -16 -3z"/>
<path d="M4029 5215 c-27 -39 -36 -42 -55 -17 -12 16 -13 15 -22 -8 -12 -31 1
-60 27 -60 10 0 25 -8 35 -18 23 -26 89 -44 130 -36 32 6 35 4 38 -22 3 -25 8
-30 43 -35 22 -4 41 -6 42 -5 1 0 -8 21 -20 46 -21 43 -24 45 -70 48 -34 2
-50 8 -54 20 -4 9 -15 29 -25 44 -10 15 -15 33 -12 43 6 15 -9 34 -27 35 -4 0
-17 -16 -30 -35z"/>
<path d="M6627 5233 c-4 -3 -7 -15 -7 -26 0 -18 5 -19 47 -13 51 7 69 18 59
35 -8 12 -88 15 -99 4z"/>
<path d="M5782 5219 c2 -7 10 -15 17 -17 8 -3 12 1 9 9 -2 7 -10 15 -17 17 -8
3 -12 -1 -9 -9z"/>
<path d="M8840 5205 c-16 -19 -3 -57 18 -53 22 4 28 53 8 61 -8 3 -20 0 -26
-8z"/>
<path d="M2250 5195 c0 -8 5 -15 10 -15 6 0 10 7 10 15 0 8 -4 15 -10 15 -5 0
-10 -7 -10 -15z"/>
<path d="M2400 5167 c0 -23 4 -36 10 -32 13 8 13 35 0 55 -7 11 -10 5 -10 -23z"/>
<path d="M6387 5169 c-22 -13 -13 -29 17 -29 13 0 30 -9 37 -21 14 -20 14 -20
37 10 13 17 20 36 17 41 -8 13 -85 12 -108 -1z"/>
<path d="M3514 5115 c4 -14 2 -25 -4 -25 -5 0 -10 -4 -10 -10 0 -15 26 -12 39
4 9 11 9 19 -1 35 -18 29 -32 26 -24 -4z"/>
<path d="M6329 5043 c95 -94 101 -101 123 -173 18 -60 23 -95 21 -175 -1 -89
0 -98 13 -81 8 11 14 29 14 41 0 12 5 26 11 32 6 6 13 37 16 69 4 52 1 68 -28
131 -19 40 -38 73 -43 73 -5 0 -34 26 -65 58 -65 66 -134 122 -150 122 -6 0
33 -44 88 -97z"/>
<path d="M3647 5113 c-2 -5 2 -23 9 -40 10 -24 20 -33 37 -32 l22 0 -22 16
c-13 9 -23 26 -23 39 0 23 -14 33 -23 17z"/>
<path d="M6472 5078 c3 -7 18 -15 33 -18 21 -4 31 -12 35 -30 3 -14 14 -26 25
-28 11 -2 24 -8 30 -13 13 -13 49 -11 63 3 9 9 4 18 -20 40 -17 15 -39 28 -48
28 -9 0 -20 4 -25 9 -6 5 -30 11 -53 15 -33 5 -43 3 -40 -6z"/>
<path d="M6888 5074 c-16 -8 -28 -21 -28 -28 0 -25 55 -35 90 -16 17 9 18 14
8 35 -13 28 -31 31 -70 9z"/>
<path d="M2240 5015 c0 -8 5 -15 10 -15 6 0 10 7 10 15 0 8 -4 15 -10 15 -5 0
-10 -7 -10 -15z"/>
<path d="M3720 5023 c0 -13 53 -63 67 -63 21 0 15 38 -9 54 -23 16 -58 22 -58
9z"/>
<path d="M3901 5003 c-1 -12 -9 -26 -18 -32 -16 -9 -15 -13 14 -40 33 -30 70
-47 80 -38 3 3 -9 21 -26 39 -17 18 -35 47 -40 63 -7 24 -9 26 -10 8z"/>
<path d="M4317 4983 c-4 -3 -7 -19 -7 -33 0 -20 12 -38 41 -64 23 -20 45 -36
49 -36 3 0 13 -11 20 -25 22 -41 50 -27 50 24 0 14 -6 17 -25 13 -19 -3 -25 0
-25 13 0 16 -77 115 -90 115 -4 0 -10 -3 -13 -7z"/>
<path d="M6690 4975 c0 -8 5 -15 11 -15 5 0 7 -5 4 -10 -7 -11 47 -70 64 -70
6 0 11 2 11 4 0 6 -24 49 -44 79 -20 29 -46 36 -46 12z"/>
<path d="M2377 4887 c-5 -32 -6 -61 -3 -65 13 -12 17 8 14 64 l-3 59 -8 -58z"/>
<path d="M5340 4876 c0 -7 7 -19 15 -26 8 -7 15 -18 15 -24 0 -7 11 -22 23
-35 13 -12 34 -44 47 -71 13 -28 27 -50 32 -50 4 0 8 -6 8 -12 1 -7 12 -26 25
-43 22 -27 25 -28 25 -9 0 12 -11 33 -25 48 -14 15 -25 36 -25 46 0 11 -18 59
-40 106 -34 74 -42 85 -55 74 -10 -9 -15 -9 -15 -1 0 6 -7 11 -15 11 -8 0 -15
-6 -15 -14z"/>
<path d="M7038 4854 c-24 -12 -27 -19 -22 -47 7 -43 25 -77 39 -77 7 0 22 9
35 20 13 11 26 20 29 20 3 0 12 9 19 20 11 17 10 26 -5 50 -20 34 -51 39 -95
14z"/>
<path d="M2846 4818 c-19 -72 -23 -104 -16 -112 13 -13 15 -10 38 49 20 53 19
75 -4 75 -8 0 -16 -6 -18 -12z"/>
<path d="M7977 4793 c-15 -14 -6 -33 16 -33 30 0 40 10 26 27 -12 14 -32 17
-42 6z"/>
<path d="M2925 4779 c-9 -13 13 -30 35 -26 8 1 15 9 15 17 0 18 -40 26 -50 9z"/>
<path d="M4440 4737 c0 -13 10 -33 23 -45 l24 -22 18 20 c27 30 7 70 -35 70
-25 0 -30 -4 -30 -23z"/>
<path d="M2970 4720 c0 -6 8 -14 18 -17 9 -4 31 -17 49 -31 18 -13 38 -22 45
-19 9 3 6 7 -7 13 -11 4 -32 20 -47 36 -27 28 -58 37 -58 18z"/>
<path d="M6582 4688 c-30 -30 3 -90 39 -68 7 5 22 7 32 4 33 -10 19 33 -19 55
-41 25 -37 24 -52 9z"/>
<path d="M7175 4690 c-8 -12 20 -24 35 -15 6 3 8 11 5 16 -8 12 -32 12 -40 -1z"/>
<path d="M5356 4682 c-3 -5 4 -32 14 -61 11 -28 20 -70 20 -93 0 -32 25 -105
47 -137 6 -9 43 38 43 54 0 43 -112 257 -124 237z"/>
<path d="M5036 4584 c71 -70 105 -89 76 -44 -7 11 -12 35 -12 53 0 32 -3 35
-51 50 -94 31 -96 23 -13 -59z"/>
<path d="M3110 4630 c0 -5 9 -10 21 -10 11 0 17 5 14 10 -3 6 -13 10 -21 10
-8 0 -14 -4 -14 -10z"/>
<path d="M4833 4621 l-23 -19 42 -14 c46 -14 60 -34 31 -45 -10 -4 -31 -15
-48 -25 l-30 -19 73 3 c70 3 73 2 103 -30 31 -33 59 -42 59 -19 0 17 -55 67
-73 67 -9 0 -19 10 -22 23 -7 21 -73 97 -85 97 -3 -1 -15 -9 -27 -19z"/>
<path d="M3206 4621 c-16 -3 -31 -11 -33 -16 -4 -12 84 -55 113 -55 11 0 31
-11 43 -24 l22 -24 -73 -22 c-40 -12 -90 -28 -111 -36 -30 -11 -41 -12 -57 -2
-17 11 -22 9 -35 -10 -9 -12 -23 -22 -31 -22 -8 0 -14 -5 -14 -11 0 -6 -9 -18
-20 -27 -11 -10 -23 -35 -28 -57 -5 -24 -14 -40 -22 -41 -34 -2 -40 -5 -40
-16 0 -7 -13 -28 -29 -47 -28 -34 -51 -36 -51 -4 0 8 -7 29 -16 46 -29 55 -31
62 -39 105 -4 23 -11 44 -16 48 -13 8 -11 -118 2 -171 8 -33 8 -53 0 -76 -9
-25 -8 -36 2 -48 31 -38 38 -76 36 -198 -2 -143 8 -169 40 -102 12 23 21 49
21 56 0 7 14 39 30 70 17 31 30 66 30 78 0 12 7 28 15 35 8 7 15 19 15 27 0
26 39 90 87 144 27 30 64 73 82 97 41 53 77 64 101 32 17 -23 18 -23 24 -3 7
21 70 53 103 53 9 0 24 7 33 15 20 18 366 27 378 9 4 -6 22 -19 39 -28 39 -20
111 -92 124 -124 9 -22 1 -49 -23 -76 -5 -6 -23 -33 -41 -60 -36 -55 -124
-122 -175 -132 -18 -3 -35 -10 -38 -15 -3 -5 -22 -9 -43 -9 -21 0 -82 -7 -137
-15 -54 -8 -118 -15 -142 -15 -41 0 -48 -5 -118 -75 -41 -42 -74 -80 -74 -85
0 -6 -13 -29 -30 -52 -16 -22 -30 -45 -30 -50 0 -5 -11 -24 -25 -42 -22 -29
-53 -83 -91 -156 -7 -14 -16 -38 -20 -54 l-7 -29 26 19 c15 10 27 24 27 30 0
25 75 95 126 118 37 17 54 31 54 43 0 10 20 36 45 56 25 21 45 43 45 48 0 11
40 48 52 49 4 0 12 -8 17 -18 12 -22 -6 -91 -30 -114 -9 -9 -22 -30 -29 -47
-10 -25 -10 -34 0 -46 22 -27 44 -14 46 27 2 31 13 47 56 88 29 27 59 50 68
50 8 0 29 9 45 20 31 21 80 26 104 11 12 -7 10 -14 -8 -36 -11 -15 -21 -33
-21 -40 0 -7 -6 -15 -14 -18 -18 -7 -25 -37 -15 -64 5 -15 20 -23 51 -28 111
-17 108 -15 108 -44 0 -19 -15 -41 -50 -76 -27 -27 -50 -53 -50 -58 0 -5 -13
-25 -30 -44 -16 -18 -30 -39 -30 -44 0 -6 -13 -28 -30 -49 -16 -21 -30 -45
-30 -53 0 -8 -7 -20 -15 -27 -8 -7 -15 -19 -15 -27 0 -8 -6 -27 -14 -41 -24
-48 -46 -102 -46 -116 0 -8 -7 -27 -15 -42 -8 -16 -15 -37 -15 -47 0 -44 -89
-165 -187 -257 -107 -99 -122 -112 -204 -173 -70 -53 -80 -57 -125 -55 -79 3
-144 -12 -229 -52 -177 -84 -256 -208 -195 -308 30 -49 50 -67 100 -92 25 -13
77 -45 117 -71 39 -27 90 -56 112 -65 23 -9 41 -20 41 -25 0 -12 81 -50 91
-43 17 10 9 24 -22 40 -44 22 -22 34 66 34 40 0 90 7 117 17 45 16 52 16 138
-2 67 -13 94 -15 102 -7 9 9 7 16 -6 30 -12 14 -37 21 -94 26 -43 3 -91 10
-107 15 -17 4 -58 5 -93 0 -87 -12 -132 -1 -155 39 -29 49 -47 132 -40 177 12
76 57 140 90 128 22 -8 79 35 148 112 37 42 88 90 114 107 71 49 301 291 301
317 0 7 12 35 26 64 27 53 64 146 90 227 8 25 24 62 36 82 44 71 158 237 168
243 5 3 30 43 55 89 52 95 71 117 81 92 3 -9 3 -31 0 -49 -4 -17 -11 -60 -16
-94 -5 -35 -13 -71 -18 -80 -5 -10 -13 -70 -16 -132 -4 -63 -11 -134 -16 -157
-5 -23 -14 -111 -20 -196 -5 -84 -14 -168 -19 -186 -10 -35 -70 -163 -80 -172
-3 -3 -17 -21 -31 -40 -32 -46 -39 -55 -76 -93 -85 -88 -166 -205 -220 -316
-21 -44 -24 -59 -17 -90 11 -46 26 -44 37 6 19 89 32 126 44 130 6 3 12 13 12
23 0 11 5 22 11 26 6 3 33 40 60 82 28 42 67 92 88 111 21 20 51 54 68 76 44
57 123 212 123 239 0 13 6 36 14 52 8 16 20 58 26 94 6 36 18 87 27 114 14 45
17 95 11 221 -2 31 9 168 18 240 2 22 6 56 8 75 1 19 5 42 8 50 3 8 11 33 18
55 7 22 24 60 39 85 30 51 65 140 87 219 8 30 33 82 55 115 37 56 40 65 34
110 -4 35 -13 54 -30 68 -27 21 -55 72 -55 100 0 10 -22 42 -50 71 -27 29 -50
57 -50 63 0 14 -50 50 -103 75 -23 11 -53 26 -67 34 -38 21 -134 39 -166 30
-65 -16 -111 -16 -148 -1 -21 9 -46 16 -55 16 -14 0 -60 20 -153 67 -14 7 -28
12 -30 12 -1 -1 -16 -4 -32 -8z m841 -460 c25 -31 49 -57 54 -59 26 -10 -11
-98 -57 -134 -11 -9 -31 -48 -44 -85 -12 -37 -29 -77 -36 -88 -8 -11 -14 -27
-14 -37 0 -30 -59 -116 -103 -150 -23 -18 -44 -35 -47 -39 -3 -3 -22 -12 -42
-20 -44 -15 -54 -9 -76 48 -13 35 -15 57 -9 108 1 14 -4 20 -18 20 -11 0 -39
21 -63 47 -24 26 -52 50 -63 53 -44 14 -17 33 76 55 121 28 198 65 257 122 56
55 83 106 93 174 6 45 9 51 26 47 11 -3 41 -31 66 -62z m-587 -304 c0 -19 -40
-53 -71 -60 -28 -7 -73 17 -66 36 9 27 137 50 137 24z m-695 -1569 c-33 -62
-57 -148 -56 -198 0 -26 14 -118 26 -182 4 -21 5 -38 1 -38 -4 0 -21 17 -39
37 -18 21 -60 64 -94 96 -93 88 -101 141 -31 203 31 28 207 144 218 144 5 0
-6 -28 -25 -62z"/>
<path d="M4719 4561 c-13 -11 -20 -23 -16 -28 5 -4 14 0 21 10 7 9 20 17 29
17 9 0 19 5 22 10 11 18 -32 11 -56 -9z"/>
<path d="M5544 4547 c-3 -8 2 -32 10 -52 9 -21 21 -72 26 -114 14 -111 24
-152 35 -151 20 1 9 133 -18 211 -15 41 -27 83 -27 92 0 21 -19 32 -26 14z"/>
<path d="M2687 4527 c-21 -21 -47 -98 -47 -139 0 -22 -5 -28 -21 -28 -18 0
-20 5 -18 44 2 30 -2 49 -14 60 -9 10 -17 28 -17 41 0 13 -4 27 -10 30 -17 11
-11 -77 9 -132 11 -31 15 -56 10 -64 -13 -21 -11 -97 5 -132 21 -49 46 -268
46 -404 0 -69 4 -124 10 -128 5 -3 19 -1 31 6 l22 11 -7 282 c-10 405 -8 506
10 534 20 31 14 43 -9 19z"/>
<path d="M4462 4468 c2 -13 8 -23 13 -23 6 0 11 10 13 23 2 15 -2 22 -13 22
-11 0 -15 -7 -13 -22z"/>
<path d="M4685 4396 c-16 -12 -19 -26 -17 -112 2 -82 6 -101 22 -119 13 -13
20 -35 20 -59 0 -22 4 -35 10 -31 6 3 10 21 10 40 0 19 5 37 10 40 16 10 12
85 -5 91 -9 4 -20 15 -26 26 -13 24 -2 61 17 54 18 -7 18 6 0 49 -17 40 -16
39 -41 21z"/>
<path d="M4977 4403 c-14 -13 -6 -43 13 -53 15 -8 19 -17 14 -35 -4 -16 -2
-25 6 -25 8 0 10 10 6 30 -3 17 -9 44 -12 60 -6 30 -14 36 -27 23z"/>
<path d="M5471 4384 c-6 -15 -9 -29 -7 -32 10 -9 36 20 36 39 0 27 -15 23 -29
-7z"/>
<path d="M2404 4376 c-8 -22 17 -386 29 -416 6 -14 11 -60 37 -338 6 -57 17
-116 25 -132 9 -17 15 -56 15 -92 0 -70 25 -148 48 -148 16 0 16 -4 -7 215 -6
50 -13 227 -17 395 -6 260 -9 311 -24 345 -10 22 -25 63 -33 92 -9 28 -20 61
-27 72 -12 24 -38 28 -46 7z"/>
<path d="M5371 4375 c-1 -14 27 -175 35 -205 9 -31 54 -100 65 -100 5 0 9 -7
9 -15 0 -8 7 -15 16 -15 14 0 15 9 10 68 -6 50 -18 90 -53 160 -24 50 -51 92
-58 92 -7 0 -16 6 -18 13 -3 6 -6 8 -6 2z"/>
<path d="M3491 4275 c-26 -39 -24 -66 9 -107 23 -30 91 -68 120 -68 24 0 24 3
4 41 -11 22 -20 28 -34 24 -15 -5 -23 2 -36 32 -9 21 -16 47 -15 58 1 11 -4
28 -11 38 -12 15 -15 14 -37 -18z"/>
<path d="M5090 4286 c0 -14 -5 -28 -11 -31 -7 -5 -8 -25 -4 -56 8 -54 8 -53
-30 -39 -19 7 -33 6 -53 -4 l-27 -14 32 -18 c35 -21 43 -46 38 -133 -3 -47 -8
-59 -37 -86 -18 -18 -51 -54 -73 -80 -22 -26 -48 -55 -57 -64 -25 -22 -22 -40
7 -51 14 -5 25 -13 25 -17 0 -5 -18 -39 -40 -77 -36 -62 -52 -116 -32 -116 4
0 22 13 40 28 58 49 102 192 77 253 -3 10 -2 20 3 23 17 10 43 -6 53 -32 9
-24 11 -24 26 -9 26 25 70 167 62 197 -9 33 0 69 25 103 28 39 34 143 11 202
-18 49 -35 59 -35 21z"/>
<path d="M3205 4275 c-9 -27 -15 -40 -35 -70 -11 -16 -23 -37 -27 -45 -17 -39
-66 -88 -103 -105 -48 -21 -47 -39 1 -43 37 -3 58 11 102 70 43 57 87 147 87
178 0 31 -17 41 -25 15z"/>
<path d="M117 4263 c-4 -3 -7 -13 -7 -21 0 -12 3 -12 15 -2 8 7 15 16 15 21 0
11 -14 12 -23 2z"/>
<path d="M6167 4221 c-3 -14 3 -23 24 -31 15 -7 31 -20 34 -30 3 -11 17 -20
33 -22 25 -3 27 -6 24 -40 -2 -28 1 -38 12 -38 8 0 18 4 21 10 8 13 -5 80 -16
80 -13 0 -109 73 -109 82 0 16 -18 7 -23 -11z"/>
<path d="M6597 4193 c-13 -12 -7 -24 16 -32 29 -11 52 5 36 25 -12 15 -41 19
-52 7z"/>
<path d="M2730 4165 c0 -16 6 -25 16 -25 11 0 14 5 10 16 -3 9 -6 20 -6 25 0
5 -4 9 -10 9 -5 0 -10 -11 -10 -25z"/>
<path d="M5760 4181 c0 -6 17 -11 39 -11 25 0 41 -5 44 -14 3 -8 23 -18 44
-22 21 -4 44 -11 50 -16 7 -6 39 -11 71 -13 33 -2 78 -8 101 -15 49 -13 111
-4 111 16 0 17 -17 18 -23 2 -3 -10 -9 -10 -26 0 -12 7 -26 10 -31 7 -6 -4
-16 -3 -22 2 -7 4 -51 16 -98 25 -47 9 -105 22 -130 28 -79 19 -130 24 -130
11z"/>
<path d="M4799 4128 c-1 -1 -2 -20 -3 -41 -2 -29 2 -41 16 -48 18 -10 19 -7
16 37 -2 27 -8 49 -15 52 -7 2 -13 2 -14 0z"/>
<path d="M3650 4090 c0 -5 9 -10 20 -10 11 0 20 5 20 10 0 6 -9 10 -20 10 -11
0 -20 -4 -20 -10z"/>
<path d="M7345 4090 c-4 -6 -3 -16 3 -22 6 -6 12 -6 17 2 4 6 3 16 -3 22 -6 6
-12 6 -17 -2z"/>
<path d="M4710 4019 c0 -26 35 -85 55 -93 11 -4 15 2 15 18 0 14 3 31 6 39 3
10 -5 18 -25 25 -17 6 -31 16 -31 21 0 6 -4 11 -10 11 -5 0 -10 -10 -10 -21z"/>
<path d="M1658 4019 c-21 -12 -24 -49 -5 -49 11 0 37 39 37 55 0 8 -14 5 -32
-6z"/>
<path d="M5810 3875 c0 -8 7 -15 15 -15 8 0 15 7 15 15 0 8 -7 15 -15 15 -8 0
-15 -7 -15 -15z"/>
<path d="M6136 3854 c-4 -10 -2 -22 3 -27 14 -14 43 0 39 20 -4 24 -34 28 -42
7z"/>
<path d="M4610 3847 c0 -14 31 -47 43 -47 16 0 4 26 -18 43 -19 14 -25 15 -25
4z"/>
<path d="M7340 3810 c0 -11 7 -20 15 -20 8 0 15 9 15 20 0 11 -7 20 -15 20 -8
0 -15 -9 -15 -20z"/>
<path d="M7760 3553 c0 -10 11 -23 25 -30 21 -9 25 -9 25 6 0 20 -19 41 -37
41 -7 0 -13 -8 -13 -17z"/>
<path d="M6913 3523 c-9 -3 -9 -13 1 -41 17 -48 36 -53 36 -9 0 36 -16 58 -37
50z"/>
<path d="M2967 3363 c-11 -11 -8 -73 4 -73 24 0 49 22 49 44 0 28 -35 47 -53
29z"/>
<path d="M3293 3353 c-16 -6 -17 -25 -1 -41 17 -17 53 15 37 35 -12 14 -16 15
-36 6z"/>
<path d="M6976 3341 c-9 -14 5 -42 18 -38 15 5 14 39 -1 44 -6 2 -14 0 -17 -6z"/>
<path d="M4636 3239 c-23 -46 -20 -55 9 -28 26 25 31 44 16 54 -5 3 -17 -9
-25 -26z"/>
<path d="M4590 3148 c0 -19 2 -20 10 -8 13 19 13 30 0 30 -5 0 -10 -10 -10
-22z"/>
<path d="M2957 3003 c-12 -12 -7 -41 7 -46 19 -8 38 16 30 37 -6 16 -25 21
-37 9z"/>
<path d="M6470 2795 c0 -8 7 -15 15 -15 8 0 15 7 15 15 0 8 -7 15 -15 15 -8 0
-15 -7 -15 -15z"/>
<path d="M5455 2678 c-765 -25 -995 -50 -995 -108 0 -24 18 -34 106 -59 175
-50 210 -62 244 -85 21 -13 46 -26 56 -28 33 -5 18 52 -22 85 -54 45 -46 63
34 76 102 16 374 24 812 25 338 0 408 -2 485 -17 50 -10 111 -21 136 -26 25
-4 62 -17 83 -29 20 -12 43 -22 51 -22 17 0 28 -31 15 -44 -14 -14 -12 -26 5
-26 8 0 23 -5 34 -11 22 -15 91 -3 91 15 0 7 8 20 18 29 16 14 23 15 51 4 30
-11 34 -10 50 12 14 18 23 22 37 16 24 -11 134 -13 134 -3 0 10 -19 20 -44 24
-12 2 -88 22 -171 44 -82 22 -172 44 -198 50 -26 5 -94 21 -151 35 -111 27
-157 33 -311 40 -197 9 -353 10 -550 3z"/>
<path d="M1340 2405 c0 -8 7 -15 15 -15 8 0 15 7 15 15 0 8 -7 15 -15 15 -8 0
-15 -7 -15 -15z"/>
<path d="M7746 2412 c-8 -14 21 -87 36 -87 7 0 13 8 12 18 -3 74 -4 77 -23 77
-11 0 -22 -4 -25 -8z"/>
<path d="M6375 2350 c-10 -11 -24 -20 -31 -20 -7 0 -29 -13 -47 -30 -19 -16
-42 -30 -51 -30 -9 0 -31 -7 -48 -16 -18 -9 -40 -13 -55 -9 -14 3 -30 2 -36
-3 -7 -6 -84 -13 -172 -16 -169 -7 -270 -18 -282 -30 -18 -17 50 -44 91 -37 4
1 31 -4 60 -12 151 -40 493 -1 551 63 15 17 16 22 4 37 -15 18 -17 18 51 -3
18 -6 20 -2 20 54 0 45 -4 61 -16 66 -21 8 -18 9 -39 -14z"/>
<path d="M7676 2352 c-3 -6 -1 -14 5 -17 15 -10 25 3 12 16 -7 7 -13 7 -17 1z"/>
<path d="M4323 2323 c-37 -14 17 -72 92 -97 28 -10 118 -28 200 -40 151 -22
245 -23 245 -3 0 6 7 19 17 29 15 17 14 18 -33 18 -27 1 -67 5 -89 9 -22 5
-67 14 -100 21 -63 12 -135 33 -198 56 -36 14 -109 18 -134 7z"/>
<path d="M4485 2125 l-50 -24 35 0 c19 -1 51 4 70 9 50 15 117 15 135 0 20
-17 25 -11 14 18 -8 20 -15 22 -81 22 -56 -1 -85 -6 -123 -25z"/>
<path d="M3197 2123 c-12 -11 -8 -23 8 -23 8 0 15 7 15 15 0 16 -12 20 -23 8z"/>
<path d="M6407 2113 c-4 -3 -7 -15 -7 -25 0 -26 24 -17 28 10 3 21 -8 29 -21
15z"/>
<path d="M4320 2080 c0 -19 46 -33 76 -23 50 17 40 33 -20 33 -32 0 -56 -4
-56 -10z"/>
<path d="M4765 2048 c-26 -23 -26 -23 -9 -65 19 -47 29 -53 39 -23 5 17 15 20
60 20 29 0 60 -3 69 -6 22 -8 10 -24 -19 -24 -24 0 -105 -47 -105 -61 0 -4 -7
-14 -15 -23 -11 -11 -28 -14 -63 -9 -32 3 -60 0 -86 -11 -22 -9 -48 -13 -59
-10 -16 5 -19 3 -14 -10 5 -11 -4 -21 -30 -35 -36 -18 -36 -19 -15 -30 12 -6
22 -15 22 -19 0 -4 -19 -27 -41 -52 -57 -63 -82 -115 -75 -154 20 -96 257
-344 398 -414 27 -13 52 -31 55 -38 3 -9 22 -14 53 -14 66 0 80 -7 80 -41 0
-17 8 -34 21 -43 24 -16 18 -36 -11 -36 -17 0 -50 -48 -50 -74 0 -6 -9 -22
-19 -34 -14 -19 -29 -25 -73 -28 -58 -4 -79 8 -90 51 -3 11 -9 27 -13 37 -4
11 0 18 14 23 29 9 18 23 -13 18 -33 -7 -51 -29 -51 -66 0 -19 -7 -33 -20 -40
-11 -6 -33 -20 -48 -30 -28 -18 -77 -17 -77 2 0 10 -50 77 -80 106 -11 12 -20
30 -20 42 0 12 -10 33 -22 47 -30 32 -151 96 -183 96 -28 0 -43 -18 -21 -26 8
-3 18 -14 21 -24 7 -21 112 -86 132 -82 16 3 27 -53 24 -118 -4 -65 -8 -75
-27 -59 -10 8 -12 23 -8 49 4 23 2 40 -5 44 -7 5 -11 -7 -11 -35 0 -41 -1 -41
-29 -36 -28 6 -30 4 -33 -26 -2 -24 -8 -33 -25 -35 -34 -5 -44 45 -15 69 27
21 27 28 5 45 -28 21 -50 16 -76 -17 -14 -18 -41 -37 -62 -44 -32 -12 -37 -11
-41 3 -3 10 -11 31 -18 47 -9 20 -10 38 -4 54 11 31 -1 44 -38 39 -28 -3 -29
-5 -34 -68 -4 -57 -7 -65 -24 -62 -10 2 -33 -4 -51 -14 -31 -16 -33 -16 -64 7
-28 21 -42 24 -101 21 -60 -2 -71 0 -80 18 -6 11 -8 30 -5 43 4 16 0 29 -14
41 -12 11 -21 32 -21 47 0 15 -4 30 -9 33 -15 10 -32 -95 -25 -151 7 -61 -2
-66 -60 -32 -54 32 -62 104 -12 127 25 11 39 54 29 92 -4 13 0 26 8 31 11 7 9
10 -9 15 -22 6 -23 11 -18 53 4 25 9 78 12 117 l6 71 -51 74 c-52 77 -74 135
-85 227 -4 30 -11 61 -15 70 -5 10 -14 40 -20 67 -15 64 -71 116 -71 65 0 -11
5 -20 10 -20 6 0 5 -8 -2 -19 -9 -16 -9 -25 0 -43 11 -21 15 -80 13 -187 -1
-48 30 -108 85 -167 71 -75 89 -143 60 -224 -9 -25 -19 -92 -22 -150 -7 -104
-15 -140 -34 -140 -6 0 -36 19 -67 43 -51 39 -65 44 -115 45 -58 2 -58 2 -58
-27 0 -50 41 -87 110 -100 33 -7 75 -9 95 -5 32 6 36 3 55 -29 11 -19 38 -47
60 -62 34 -24 47 -27 92 -23 29 3 61 9 70 12 23 10 58 -71 58 -134 0 -39 4
-50 24 -63 22 -15 25 -15 39 1 9 9 18 31 22 47 9 43 36 107 53 128 20 23 64
22 151 -7 58 -19 79 -22 97 -14 34 16 46 7 90 -64 50 -82 128 -155 148 -139
13 11 26 72 32 155 2 22 7 42 11 46 4 4 37 12 74 19 75 14 113 4 126 -34 4
-13 40 -57 79 -98 40 -41 75 -84 79 -96 8 -25 18 -27 39 -5 13 12 16 40 16
134 0 98 3 119 16 124 29 11 48 6 79 -23 16 -15 49 -39 73 -51 41 -23 43 -23
77 -7 67 32 97 24 169 -46 43 -41 66 -70 66 -85 0 -14 8 -26 23 -31 30 -12 37
-6 37 36 0 39 -75 202 -109 236 -6 6 -11 19 -11 29 0 10 -8 22 -17 25 -10 4
-32 17 -49 30 -33 24 -54 30 -54 13 0 -5 -9 -10 -20 -10 -11 0 -20 5 -20 11 0
6 9 13 20 16 26 7 25 23 -5 84 -14 28 -23 58 -20 68 7 23 -21 47 -115 101
-145 84 -186 115 -327 254 -97 96 -143 148 -143 163 0 14 13 29 38 44 44 28
55 40 87 101 26 49 48 63 87 53 15 -4 48 7 98 31 82 40 142 46 223 22 61 -18
337 -15 471 6 60 9 113 19 119 23 5 3 70 7 145 9 76 3 182 8 236 13 86 7 102
12 118 31 26 33 10 46 -67 54 -35 4 -118 18 -182 32 -125 27 -253 45 -266 37
-4 -2 -7 -10 -6 -16 6 -51 -25 -63 -226 -86 -44 -6 -116 -10 -161 -10 -70 -1
-84 2 -114 24 -19 14 -44 25 -56 25 -13 0 -29 7 -37 15 -17 17 -105 65 -119
65 -6 0 -21 9 -35 20 -33 26 -46 25 -78 -2z m-940 -1268 c0 -13 -6 -25 -12
-27 -16 -6 -27 21 -19 43 9 23 31 11 31 -16z m950 -14 c14 -40 10 -96 -6 -96
-5 0 -9 11 -9 25 0 14 -9 33 -20 42 -11 10 -20 30 -20 46 0 23 4 28 21 25 14
-2 25 -16 34 -42z"/>
<path d="M3090 2020 c0 -5 9 -10 21 -10 11 0 17 5 14 10 -3 6 -13 10 -21 10
-8 0 -14 -4 -14 -10z"/>
<path d="M4096 1900 c-8 -22 -13 -47 -10 -55 5 -13 2 -15 -18 -10 -16 4 -29 1
-36 -8 -10 -12 -8 -18 12 -31 31 -19 60 -78 52 -103 -6 -18 -62 -36 -164 -53
-18 -3 -32 -9 -32 -15 0 -6 42 -10 104 -10 96 0 105 -2 129 -25 15 -14 27 -29
27 -35 0 -5 18 -37 40 -70 22 -33 51 -83 65 -111 15 -30 40 -62 60 -75 20 -13
56 -54 81 -91 25 -38 51 -68 59 -68 7 0 23 -14 35 -30 23 -32 93 -74 113 -67
6 2 21 -8 33 -22 19 -22 24 -23 38 -12 28 24 19 57 -15 53 -10 -2 -315 313
-377 388 -30 35 -71 79 -92 97 -36 31 -39 38 -45 106 -7 72 -18 106 -39 119
-8 5 -7 11 2 20 6 6 12 28 12 48 0 20 5 41 11 47 8 8 7 17 -3 32 -18 29 -24
27 -42 -19z"/>
<path d="M1580 1770 c0 -5 -6 -10 -14 -10 -22 0 -30 -19 -11 -26 9 -4 24 1 35
11 24 22 26 35 5 35 -8 0 -15 -4 -15 -10z"/>
<path d="M4290 1752 c0 -9 14 -12 52 -10 72 4 75 26 3 24 -38 -1 -55 -5 -55
-14z"/>
<path d="M2923 1705 c30 -28 49 -26 31 3 -6 9 -22 18 -35 20 -24 3 -24 3 4
-23z"/>
<path d="M2790 1596 c-41 -7 -88 -20 -105 -29 -16 -9 -73 -25 -125 -37 -52
-11 -105 -22 -117 -25 -16 -4 -23 -13 -23 -30 0 -34 15 -38 205 -60 88 -9 171
-22 184 -27 77 -29 171 -47 196 -38 45 17 29 38 -62 83 -106 51 -114 70 -53
112 22 15 40 32 40 37 0 8 -44 29 -58 27 -4 -1 -41 -7 -82 -13z"/>
<path d="M3735 1535 c-31 -32 -48 -76 -27 -75 15 1 92 79 92 94 0 26 -27 18
-65 -19z"/>
<path d="M7252 1486 c1 -10 8 -17 13 -17 15 1 12 24 -3 29 -9 3 -13 -2 -10
-12z"/>
<path d="M3076 1333 c-3 -3 -1 -13 6 -20 9 -12 6 -19 -17 -37 -24 -19 -26 -25
-14 -32 16 -9 49 -54 49 -65 0 -16 -41 -16 -49 -1 -8 13 -12 14 -22 5 -10 -10
-9 -14 4 -19 9 -3 21 -21 27 -40 l11 -34 58 7 c39 4 61 2 65 -6 11 -18 34 -13
41 9 8 24 -7 45 -47 70 -26 16 -88 118 -88 145 0 16 -15 27 -24 18z"/>
<path d="M2643 1113 c-13 -8 -23 -21 -23 -28 0 -8 -6 -15 -12 -18 -10 -3 -10
-7 -1 -17 14 -16 49 6 68 43 20 38 6 47 -32 20z"/>
<path d="M3836 1122 c-7 -12 3 -42 14 -42 18 0 22 22 7 37 -9 9 -17 11 -21 5z"/>
<path d="M4070 1082 c0 -14 41 -53 53 -49 22 7 17 25 -8 31 -14 4 -25 11 -25
16 0 6 -4 10 -10 10 -5 0 -10 -4 -10 -8z"/>
<path d="M4800 1030 c0 -5 12 -10 26 -10 14 0 23 4 19 10 -3 6 -15 10 -26 10
-10 0 -19 -4 -19 -10z"/>
<path d="M4918 994 c-7 -7 21 -64 31 -64 14 0 41 36 41 53 0 13 -9 17 -33 17
-19 0 -36 -3 -39 -6z"/>
<path d="M3905 930 c-11 -18 26 -23 43 -6 15 15 14 16 -10 16 -15 0 -30 -5
-33 -10z"/>
<path d="M4560 930 c0 -5 9 -10 19 -10 11 0 23 5 26 10 4 6 -5 10 -19 10 -14
0 -26 -4 -26 -10z"/>
<path d="M4137 436 c-6 -16 2 -28 14 -20 12 7 11 34 0 34 -5 0 -11 -6 -14 -14z"/>
<path d="M2653 163 c-7 -2 -13 -14 -13 -25 0 -14 6 -19 23 -16 14 2 22 10 22
22 0 21 -12 28 -32 19z"/>
</g>
</svg>
