<?xml version="1.0" standalone="no"?>
<!DOCTYPE svg PUBLIC "-//W3C//DTD SVG 20010904//EN"
 "http://www.w3.org/TR/2001/REC-SVG-20010904/DTD/svg10.dtd">
<svg version="1.0" xmlns="http://www.w3.org/2000/svg"
 width="300.000000pt" height="260.000000pt" viewBox="0 0 300.000000 260.000000"
 preserveAspectRatio="xMidYMid meet">
<metadata>
Created by potrace 1.10, written by Peter Selinger 2001-2011
</metadata>
<g transform="translate(0.000000,260.000000) scale(0.100000,-0.100000)"
fill="#000000" stroke="none">
<path d="M2462 2311 c-1 -20 0 -23 8 -11 9 14 15 7 11 -14 -1 -5 4 -5 11 1 7
6 19 12 26 14 8 3 -1 12 -20 21 l-34 16 -2 -27z"/>
<path d="M1025 2314 c-8 -9 -15 -21 -15 -29 0 -8 -7 -11 -20 -8 -22 6 -26 -8
-10 -37 7 -12 7 -28 0 -44 -6 -17 -6 -26 0 -26 13 0 24 45 17 70 -5 21 7 27
18 10 4 -6 24 -9 46 -6 44 5 47 1 18 -34 -20 -24 -20 -24 -9 -2 18 36 4 38
-15 2 -9 -18 -15 -34 -12 -36 9 -10 34 8 52 38 15 26 16 33 4 42 -21 17 -56
61 -41 52 6 -4 12 -3 12 2 0 18 -29 21 -45 6z"/>
<path d="M906 2312 c-8 -13 76 -24 89 -11 5 6 3 9 -7 9 -8 0 -29 3 -46 6 -16
3 -32 2 -36 -4z"/>
<path d="M2040 2305 c-11 -13 -10 -14 4 -9 21 8 20 2 -2 -24 -10 -11 -30 -24
-45 -27 -20 -5 -23 -10 -15 -19 13 -14 61 -9 52 5 -3 5 0 9 6 9 6 0 9 3 6 8
-2 4 1 14 7 23 15 19 57 32 53 15 -2 -6 -1 -8 1 -3 3 4 9 5 14 1 14 -8 11 3
-7 20 -20 20 -58 21 -74 1z"/>
<path d="M1080 2300 c0 -5 20 -10 44 -10 25 0 48 5 51 10 4 6 -13 10 -44 10
-28 0 -51 -4 -51 -10z"/>
<path d="M1550 2280 c-28 -24 -31 -25 -24 -5 4 8 2 15 -4 15 -14 0 -33 -26
-25 -33 3 -4 1 -7 -6 -7 -9 0 -9 -5 -1 -20 6 -11 16 -20 23 -19 9 0 9 2 0 6
-7 2 -13 9 -13 14 0 4 7 6 15 3 8 -4 15 -1 15 6 0 6 5 8 10 5 6 -4 9 -2 8 4
-2 5 6 16 17 24 11 9 17 18 14 21 -3 3 -16 -3 -29 -14z"/>
<path d="M2145 2280 c-3 -5 1 -10 9 -10 9 0 16 -8 16 -17 0 -15 2 -16 10 -3 9
13 10 13 10 0 0 -12 2 -12 9 -2 4 7 12 12 17 11 13 -3 44 12 44 21 0 9 -68 5
-78 -4 -3 -3 -11 -1 -18 5 -8 7 -14 7 -19 -1z"/>
<path d="M1273 2237 c-34 -51 -58 -51 -98 2 -14 19 -25 30 -25 24 0 -6 10 -23
22 -38 21 -27 33 -69 17 -59 -11 6 -19 -10 -24 -46 -2 -17 0 -28 6 -25 5 4 9
18 9 33 1 26 2 26 26 -13 15 -22 23 -31 19 -20 -17 47 -17 55 -2 55 9 0 18 -8
20 -17 4 -17 5 -17 6 0 0 9 6 17 11 17 12 0 12 -2 0 -34 -6 -17 -6 -26 0 -26
6 0 10 10 10 21 0 18 3 19 15 9 12 -10 13 -7 5 22 -6 18 -10 34 -10 35 0 0
-15 -1 -32 -3 -26 -3 -29 -2 -12 5 28 12 95 101 76 101 -6 0 -23 -19 -39 -43z"/>
<path d="M2271 2266 c-5 -6 -12 -22 -15 -36 -5 -18 -4 -21 2 -11 14 20 72 25
72 6 0 -8 4 -15 8 -15 4 0 8 9 8 19 0 11 -4 17 -8 15 -4 -3 -8 1 -8 9 0 18
-47 28 -59 13z"/>
<path d="M1733 2226 c-37 -35 -50 -41 -56 -30 -9 16 -43 19 -52 4 -4 -6 -22
-1 -48 12 -32 16 -39 17 -28 4 7 -9 20 -16 27 -16 22 0 17 -19 -17 -61 -17
-21 -29 -43 -27 -49 1 -5 20 14 41 42 20 28 37 44 37 37 0 -11 2 -11 10 1 6 9
10 10 10 3 0 -6 -4 -14 -9 -18 -6 -3 -10 -28 -9 -55 0 -27 -3 -54 -7 -59 -3
-6 0 -11 8 -11 11 0 14 12 12 53 -2 42 -1 48 8 30 5 -13 18 -25 29 -29 23 -7
49 12 42 31 -3 7 -1 16 5 20 7 4 11 -6 11 -27 0 -41 10 -78 20 -78 5 0 4 15
-1 32 -5 18 -9 49 -9 68 l0 35 26 -43 c14 -24 28 -41 31 -38 7 7 -44 86 -55
86 -15 0 -71 -57 -64 -65 4 -5 1 -5 -6 -1 -10 6 -11 11 0 24 30 40 102 99 117
97 9 -1 10 0 3 2 -11 4 -10 9 4 24 33 37 -5 18 -53 -25z m-53 -56 c0 -5 -7 -7
-15 -4 -11 5 -14 2 -9 -12 6 -15 4 -17 -6 -7 -11 10 -11 15 0 27 12 16 30 13
30 -4z"/>
<path d="M1903 2239 c-25 -9 -30 -19 -10 -19 15 0 43 17 37 23 -3 3 -15 1 -27
-4z"/>
<path d="M2434 2224 c3 -9 6 -18 6 -20 0 -2 4 -4 9 -4 5 0 7 9 4 20 -3 11 -10
20 -15 20 -6 0 -7 -7 -4 -16z"/>
<path d="M1434 2195 c-15 -20 -24 -38 -21 -41 8 -8 67 51 67 65 0 21 -19 11
-46 -24z"/>
<path d="M1836 2222 c-32 -7 -49 -30 -42 -57 8 -32 25 -33 19 -2 -3 17 0 24
11 24 11 0 16 -10 17 -31 l1 -31 7 29 c3 16 12 31 20 34 9 3 11 0 7 -7 -8 -12
10 -41 25 -41 12 0 -7 47 -28 68 -10 10 -27 16 -37 14z"/>
<path d="M2460 2194 c-14 -7 -25 -18 -24 -24 2 -25 5 -30 14 -30 6 0 9 6 8 13
-2 6 6 12 18 11 14 0 20 6 19 18 -2 25 -7 26 -35 12z"/>
<path d="M1320 2170 c0 -5 5 -10 11 -10 5 0 7 5 4 10 -3 6 -8 10 -11 10 -2 0
-4 -4 -4 -10z"/>
<path d="M2140 2172 c0 -12 19 -26 26 -19 2 2 -2 10 -11 17 -9 8 -15 8 -15 2z"/>
<path d="M2229 2163 c-1 -5 -1 -11 0 -15 1 -8 1 -9 -41 -12 -16 -1 -36 -10
-45 -20 -10 -10 -12 -16 -5 -12 8 5 12 -1 13 -16 l1 -23 6 22 c5 16 11 20 21
14 9 -6 10 -11 2 -15 -6 -4 -11 -13 -11 -19 1 -7 9 -2 19 11 14 16 21 18 25
10 3 -7 4 -1 1 14 -4 22 0 28 24 36 16 6 31 10 33 9 2 -1 -3 4 -11 11 -17 14
-30 16 -32 5z"/>
<path d="M865 2124 c-18 -43 -19 -56 -4 -71 7 -7 0 -13 -28 -18 -39 -7 -63
-21 -63 -36 0 -5 8 -9 17 -9 14 0 13 -3 -5 -20 -12 -12 -22 -26 -22 -33 1 -7
5 -6 13 4 14 18 57 43 63 36 3 -2 -2 -10 -11 -17 -16 -13 -21 -60 -6 -60 5 0
7 8 4 18 -2 10 5 28 15 40 16 18 21 20 31 8 6 -7 9 -21 5 -30 -3 -9 -1 -16 5
-16 16 0 19 51 5 84 -5 14 -4 17 4 12 7 -4 12 -14 12 -22 0 -9 5 -12 12 -8 8
5 9 -4 5 -33 -6 -32 -4 -42 9 -47 12 -5 15 -16 12 -40 -2 -22 0 -32 7 -28 5 3
4 -2 -4 -12 -14 -16 -16 -16 -38 8 -25 28 -28 36 -13 36 6 0 15 -10 19 -22 8
-22 9 -22 17 -4 11 29 -23 51 -50 32 -28 -18 -27 -49 2 -61 27 -12 28 -21 2
-35 -27 -14 -25 -24 5 -38 28 -13 33 -39 10 -48 -9 -4 -14 -11 -13 -18 6 -35
-36 -82 -61 -66 -10 6 -10 12 -1 29 10 19 14 20 27 9 13 -10 15 -9 12 7 -5 24
-34 31 -55 14 -10 -8 -13 -21 -9 -38 6 -22 5 -23 -11 -11 -14 13 -16 12 -13
-5 3 -11 9 -20 16 -20 19 0 25 -12 18 -36 -6 -17 -9 -19 -16 -8 -5 8 -9 10 -9
5 0 -4 11 -21 25 -38 16 -19 25 -24 25 -14 0 8 -4 18 -10 21 -18 11 -11 27 10
22 11 -3 20 -1 20 5 0 5 4 7 10 3 6 -4 6 -15 0 -30 -6 -16 -6 -25 0 -25 10 0
11 4 14 53 2 22 -2 27 -24 28 -23 2 -23 2 -2 6 12 2 22 8 22 13 0 5 11 22 25
38 19 23 22 32 12 42 -9 11 -8 11 6 0 17 -12 20 -12 28 2 5 10 15 23 22 30 10
10 7 18 -15 41 -16 15 -28 24 -28 19 0 -5 9 -17 20 -27 19 -17 19 -19 4 -37
-22 -24 -33 -23 -27 2 3 11 10 17 17 14 6 -3 -1 5 -16 18 l-28 24 28 16 c23
14 32 15 42 5 12 -10 12 -9 1 6 -8 9 -11 20 -8 24 9 8 38 -17 47 -42 7 -17 9
-14 15 18 9 47 -3 64 -34 47 -17 -9 -22 -8 -27 5 -7 18 4 43 41 94 40 54 29
59 -21 11 l-46 -45 5 43 c4 32 2 45 -9 49 -8 3 -14 11 -14 19 0 8 -7 14 -16
14 -11 0 -14 5 -9 18 4 9 10 38 12 65 7 57 -10 63 -32 11z m15 -28 c0 -3 -4
-8 -10 -11 -5 -3 -10 -1 -10 4 0 6 5 11 10 11 6 0 10 -2 10 -4z m-10 -84 c0
-5 -7 -9 -15 -9 -8 0 -12 4 -9 9 3 4 9 8 15 8 5 0 9 -4 9 -8z m140 -191 c0 -5
-9 -7 -20 -4 -11 3 -20 7 -20 9 0 2 9 4 20 4 11 0 20 -4 20 -9z"/>
<path d="M1978 2153 c7 -3 16 -2 19 1 4 3 -2 6 -13 5 -11 0 -14 -3 -6 -6z"/>
<path d="M2013 2145 c-15 -17 -17 -41 -4 -49 5 -4 7 4 4 16 -5 21 -4 20 17 -5
12 -15 25 -26 28 -23 3 3 -3 15 -12 25 -17 19 -17 19 3 14 11 -3 22 -15 24
-27 3 -11 4 -5 4 14 -1 22 -7 34 -14 33 -7 -2 -13 2 -13 7 0 15 -23 12 -37 -5z"/>
<path d="M1347 2143 c-4 -3 -2 -12 4 -19 8 -10 5 -11 -11 -7 -22 6 -22 6 -5
-28 28 -55 33 -53 10 4 -3 8 2 13 14 14 17 1 19 -4 17 -43 -1 -24 2 -44 7 -44
5 0 7 15 5 33 -3 33 -2 34 32 35 30 1 37 -3 52 -33 23 -45 1 -48 -31 -4 -13
17 -25 28 -29 25 -3 -3 5 -17 17 -30 19 -20 20 -27 10 -50 -13 -27 -24 -33
-34 -16 -18 29 -66 -7 -58 -42 5 -23 5 -23 -10 -3 -8 11 -13 24 -10 29 4 5 1
6 -5 2 -6 -3 -13 -2 -17 4 -3 5 -15 10 -26 10 -10 0 -19 5 -19 10 0 7 -6 7
-17 2 -10 -5 -25 -7 -33 -5 -8 2 -4 -3 10 -11 14 -8 39 -15 56 -16 19 0 34 -6
38 -15 3 -8 0 -15 -6 -15 -6 0 0 -11 14 -23 14 -13 31 -40 39 -60 7 -21 17
-37 21 -37 11 0 10 7 -8 41 -19 37 -12 68 11 49 10 -8 15 -9 15 -2 0 6 7 9 16
5 13 -5 15 -15 9 -49 -3 -24 -2 -44 3 -44 15 0 14 89 -1 105 -8 8 -17 11 -21
8 -3 -4 -6 -1 -6 5 0 6 -7 9 -15 6 -19 -8 -19 6 2 31 11 14 14 15 10 3 -4 -10
1 -18 11 -20 11 -3 39 16 77 55 33 33 51 57 40 53 -11 -4 -24 -8 -29 -9 -5 -1
-15 17 -23 41 -10 29 -20 42 -33 42 -10 0 -22 5 -25 10 -7 11 -58 14 -68 3z
m73 -27 c0 -2 -7 -7 -16 -10 -8 -3 -12 -2 -9 4 6 10 25 14 25 6z"/>
<path d="M2332 2129 c2 -7 19 -13 37 -15 29 -4 32 -2 21 11 -15 18 -64 21 -58
4z"/>
<path d="M2301 2106 c-14 -17 -1 -28 19 -16 11 7 12 12 4 20 -8 8 -14 7 -23
-4z"/>
<path d="M2470 2100 c0 -5 6 -10 14 -10 8 0 17 -7 20 -16 4 -9 9 -14 12 -11 9
9 -16 47 -31 47 -8 0 -15 -4 -15 -10z"/>
<path d="M2400 2090 c-14 -4 -19 -8 -12 -9 7 -1 11 -5 8 -9 -2 -4 4 -8 14 -8
12 0 18 7 17 18 -1 10 -1 18 -2 17 0 -1 -11 -5 -25 -9z"/>
<path d="M697 2079 c-11 -6 -17 -20 -16 -32 2 -12 -5 -35 -15 -50 -11 -16 -20
-43 -21 -60 -2 -18 -5 -39 -8 -47 -10 -28 -4 -48 11 -42 8 3 21 -3 28 -13 12
-16 14 -16 14 -3 0 9 -6 18 -12 21 -9 3 -8 10 6 26 21 23 16 27 -15 11 -24
-14 -24 -5 1 30 34 47 71 136 64 154 -7 19 -12 19 -37 5z m17 -25 c4 -9 2 -13
-5 -8 -7 4 -9 0 -5 -13 4 -12 -5 -40 -24 -74 -16 -30 -30 -46 -30 -37 0 9 5
20 10 23 6 4 8 10 5 15 -8 14 6 40 22 40 11 0 13 7 9 25 -9 36 6 61 18 29z"/>
<path d="M780 2071 c0 -5 7 -12 16 -15 14 -5 15 -4 4 9 -14 17 -20 19 -20 6z"/>
<path d="M2440 2038 c0 -4 7 -8 15 -8 9 0 12 -6 9 -17 -5 -15 -4 -16 5 -3 17
23 13 39 -9 37 -11 -1 -20 -5 -20 -9z"/>
<path d="M657 2033 c-4 -3 -7 -11 -7 -17 0 -6 5 -5 12 2 6 6 9 14 7 17 -3 3
-9 2 -12 -2z"/>
<path d="M1930 2020 c-6 -12 -7 -20 -1 -20 5 0 11 5 13 12 3 8 13 7 35 -4 31
-15 31 -15 22 6 -13 29 -55 32 -69 6z"/>
<path d="M2100 2029 c0 -5 5 -7 10 -4 6 3 10 1 10 -5 0 -6 5 -8 10 -5 17 10
11 25 -10 25 -11 0 -20 -5 -20 -11z"/>
<path d="M1770 2021 c0 -6 4 -13 10 -16 6 -3 7 1 4 9 -7 18 -14 21 -14 7z"/>
<path d="M1835 2010 c-10 -11 -14 -20 -8 -20 5 0 18 9 28 20 10 11 14 20 8 20
-5 0 -18 -9 -28 -20z"/>
<path d="M2590 2014 c0 -13 3 -14 13 -5 8 6 17 8 20 4 4 -3 7 -1 7 5 0 7 -9
12 -20 12 -12 0 -20 -7 -20 -16z"/>
<path d="M626 1994 c-8 -22 -8 -49 1 -40 8 8 16 56 9 56 -2 0 -7 -7 -10 -16z"/>
<path d="M2310 2002 c0 -2 7 -10 15 -18 10 -10 15 -11 15 -3 0 8 4 8 13 1 8
-7 16 -6 25 4 14 15 15 15 -40 18 -16 1 -28 0 -28 -2z"/>
<path d="M2228 1993 c-10 -2 -18 -12 -17 -21 0 -11 2 -12 6 -4 2 6 11 12 19
12 8 0 14 5 14 10 0 6 -1 9 -2 9 -2 -1 -11 -3 -20 -6z"/>
<path d="M2625 1991 c-3 -6 -5 -11 -3 -12 27 -6 38 -5 35 4 -5 15 -24 20 -32
8z"/>
<path d="M1775 1967 c-4 -13 -5 -27 -4 -33 4 -21 -2 -28 -12 -14 -9 13 -10 13
-6 0 2 -8 -4 -26 -15 -39 -10 -13 -21 -41 -24 -62 -6 -33 -10 -37 -33 -37 -58
3 -81 -3 -108 -26 -24 -21 -26 -26 -13 -41 8 -9 22 -14 33 -11 11 3 16 1 11
-4 -5 -4 -18 -10 -29 -12 -15 -2 -21 -12 -23 -43 -2 -33 0 -37 9 -22 6 10 8
24 6 32 -4 8 9 17 39 25 24 7 47 17 51 23 4 6 -2 8 -14 5 -16 -4 -19 -2 -16
13 3 11 10 19 15 19 5 0 6 4 3 10 -4 6 1 7 11 3 13 -5 15 -3 10 8 -4 8 -1 5 8
-5 14 -18 16 -18 22 -2 6 16 8 16 25 0 20 -18 26 -69 9 -79 -5 -3 -18 -1 -27
4 -16 9 -16 10 4 11 16 0 21 4 17 15 -4 8 -10 12 -15 9 -13 -8 -11 10 4 25 10
10 9 11 -5 6 -9 -4 -19 -14 -21 -23 -4 -15 -5 -15 -6 1 0 9 -7 17 -15 17 -10
0 -9 -9 6 -40 11 -22 24 -40 29 -40 5 0 6 -18 3 -40 -5 -28 -3 -40 5 -40 7 0
9 5 6 10 -4 6 14 32 39 58 49 51 60 78 26 67 -11 -4 -20 -2 -20 4 0 6 5 11 10
11 6 0 10 9 10 21 0 11 -5 17 -10 14 -6 -4 -8 -11 -5 -16 4 -5 2 -9 -2 -9 -5
0 -17 14 -27 31 -11 18 -14 29 -8 25 7 -4 23 17 43 56 25 50 29 66 20 80 -14
22 -14 35 0 21 11 -11 59 -6 59 7 0 7 -45 30 -60 30 -5 0 -12 -10 -15 -23z
m-12 -108 c-22 -43 -29 -49 -31 -32 -3 19 46 98 55 89 2 -2 -9 -27 -24 -57z
m-140 -108 c-3 -11 -13 -21 -24 -24 -15 -4 -17 -2 -9 13 5 10 15 21 22 23 7 3
14 6 15 6 0 1 -1 -8 -4 -18z m130 -86 c-15 -19 -30 -30 -32 -23 -2 6 8 22 23
35 38 33 41 29 9 -12z"/>
<path d="M2484 1959 c-9 -10 -24 -18 -33 -17 -8 2 -17 -6 -19 -17 -4 -16 -2
-17 11 -7 12 10 16 10 20 0 4 -9 6 -8 6 3 1 22 27 43 36 29 7 -11 25 -4 25 10
0 18 -29 18 -46 -1z"/>
<path d="M2058 1965 c-4 -4 -3 -16 2 -26 7 -12 7 -20 0 -24 -5 -3 -10 -11 -10
-16 0 -6 5 -7 12 -3 8 5 9 1 5 -12 -7 -18 -6 -18 7 -1 14 18 31 22 39 10 2 -5
2 -1 -1 7 -2 8 -5 20 -5 26 0 6 -8 9 -18 7 -12 -4 -18 2 -21 17 -2 12 -6 19
-10 15z"/>
<path d="M2690 1956 c0 -9 8 -12 25 -8 37 7 41 22 6 22 -20 0 -31 -5 -31 -14z"/>
<path d="M2600 1947 c0 -7 12 -14 26 -15 22 -2 25 0 14 13 -15 18 -40 20 -40
2z"/>
<path d="M1444 1934 c-16 -13 -16 -15 -1 -10 10 3 17 0 17 -9 0 -7 4 -16 9
-19 4 -3 8 8 7 24 -1 34 -5 36 -32 14z"/>
<path d="M1825 1920 c20 -22 35 -18 35 8 0 13 -2 14 -9 3 -6 -9 -11 -10 -15
-2 -4 6 -12 11 -18 11 -6 0 -3 -9 7 -20z"/>
<path d="M2120 1927 c0 -7 8 -13 18 -13 10 0 24 6 31 13 9 10 6 13 -19 13 -18
0 -30 -5 -30 -13z"/>
<path d="M610 1921 c-8 -6 -27 -7 -42 -4 -34 7 -78 -20 -78 -47 0 -10 10 -26
23 -35 22 -17 22 -17 -9 -10 -29 5 -31 4 -31 -19 0 -18 6 -26 25 -31 14 -3 32
-14 39 -23 13 -15 13 -15 8 4 -4 17 0 23 20 28 14 4 25 11 25 17 0 6 -4 8 -10
4 -16 -10 -94 -15 -84 -5 5 5 27 10 49 12 25 2 39 8 38 16 -2 6 4 12 12 12 17
0 21 -16 5 -22 -17 -6 6 -28 38 -37 25 -8 32 -7 32 4 0 8 6 12 14 9 11 -4 14
-21 13 -60 -1 -30 2 -54 8 -54 6 0 9 26 7 65 -2 38 -8 65 -15 65 -6 0 -19 8
-30 17 -15 15 -19 15 -17 3 1 -8 2 -21 1 -28 -2 -23 -32 15 -34 42 -1 14 -11
32 -22 41 -19 15 -19 15 8 9 23 -5 27 -3 27 15 0 24 0 24 -20 12z m-15 -69
c-4 -4 -13 2 -21 12 -11 16 -17 17 -27 7 -9 -10 -8 -14 6 -22 17 -10 15 -29
-4 -29 -6 0 -8 4 -4 9 3 5 -4 12 -15 16 -11 3 -20 13 -20 20 0 9 6 12 18 8 9
-3 14 -3 10 2 -4 4 0 14 9 20 14 11 20 9 36 -12 11 -13 16 -27 12 -31z"/>
<path d="M1924 1907 c9 -7 17 -17 16 -22 -4 -20 0 -35 11 -35 5 0 7 5 4 10 -3
6 1 10 9 10 10 0 13 -6 10 -17 -5 -17 -5 -17 6 0 14 22 8 32 -32 51 -38 19
-48 20 -24 3z"/>
<path d="M2257 1914 c-4 -4 -7 -14 -7 -23 0 -13 2 -13 9 -3 4 8 11 13 15 13 3
-1 6 2 7 6 1 10 -16 15 -24 7z"/>
<path d="M407 1904 c-3 -6 9 -18 28 -27 19 -9 35 -12 35 -7 0 6 -7 10 -15 10
-10 0 -12 6 -8 18 6 14 4 15 -9 4 -13 -10 -17 -10 -20 0 -3 8 -7 8 -11 2z"/>
<path d="M1206 1894 c-8 -21 -8 -24 5 -24 5 0 7 5 3 12 -4 7 -3 8 5 4 9 -6 9
-11 0 -22 -6 -7 -15 -11 -20 -8 -5 3 -9 -2 -9 -10 0 -23 4 -31 13 -28 4 1 7
-5 7 -13 0 -20 16 -19 24 1 12 32 7 104 -8 104 -8 0 -17 -7 -20 -16z"/>
<path d="M1720 1899 c0 -5 5 -7 10 -4 6 3 10 8 10 11 0 2 -4 4 -10 4 -5 0 -10
-5 -10 -11z"/>
<path d="M1694 1856 c-3 -21 -4 -39 -1 -42 3 -4 9 10 13 30 3 21 4 39 1 42 -3
4 -9 -10 -13 -30z"/>
<path d="M2693 1883 c-13 -2 -23 -11 -23 -20 0 -10 6 -13 16 -9 8 3 12 2 9 -4
-3 -6 -2 -10 3 -10 5 0 12 11 14 25 3 14 5 24 4 24 0 -1 -11 -4 -23 -6z"/>
<path d="M2493 1841 c0 -10 7 -18 14 -18 18 0 17 23 -1 30 -10 4 -14 0 -13
-12z"/>
<path d="M1535 1820 c34 -27 55 -37 55 -26 0 5 -78 56 -86 56 -4 0 10 -13 31
-30z"/>
<path d="M2363 1842 c-29 -4 -29 -18 -1 -25 25 -7 31 -4 26 15 -2 7 -13 12
-25 10z"/>
<path d="M2767 1841 c-21 -8 -19 -25 4 -26 8 -1 16 7 16 17 1 10 1 18 0 17 -1
0 -10 -4 -20 -8z"/>
<path d="M2579 1831 c7 -5 11 -13 7 -19 -3 -6 -2 -13 4 -17 5 -3 10 1 10 9 0
9 5 16 11 16 6 0 8 -7 5 -16 -5 -13 -4 -14 7 -6 8 7 16 11 18 9 3 -1 -4 6 -14
16 -11 9 -29 17 -41 17 -16 0 -18 -2 -7 -9z"/>
<path d="M838 1802 c-23 -10 -81 -63 -75 -69 8 -7 47 16 82 48 29 28 27 35 -7
21z"/>
<path d="M590 1783 c0 -16 66 -114 73 -107 3 4 -5 21 -18 39 -14 17 -25 37
-25 42 0 6 -7 16 -15 23 -8 7 -15 8 -15 3z"/>
<path d="M1113 1775 c-17 -13 -17 -14 2 -35 14 -16 27 -20 46 -16 18 3 29 0
33 -9 3 -8 2 -14 -2 -13 -20 4 -42 -16 -37 -32 3 -10 1 -21 -5 -25 -5 -3 -10
-11 -10 -17 0 -6 6 -6 15 2 9 7 14 22 13 33 -2 11 3 22 11 25 8 3 11 0 7 -7
-4 -6 -2 -19 4 -28 10 -17 10 -16 9 2 -2 20 16 75 25 75 2 0 2 -9 -1 -20 -3
-12 0 -20 7 -20 7 0 10 -6 7 -13 -3 -8 -2 -19 3 -26 5 -9 9 -4 12 13 4 18 0
29 -10 35 -12 7 -8 10 16 16 32 7 44 25 17 25 -8 0 -15 -5 -15 -10 0 -6 -8 -5
-20 2 -11 7 -20 17 -20 22 0 4 7 3 15 -4 9 -7 19 -10 23 -6 9 9 -28 38 -43 33
-5 -2 -9 -12 -9 -21 1 -9 -2 -16 -7 -16 -5 0 -9 5 -9 10 0 6 -7 10 -15 10 -8
0 -15 -4 -15 -10 0 -5 -7 -10 -15 -10 -18 0 -9 26 10 28 8 1 22 3 30 4 8 1 15
4 15 8 0 12 -69 8 -87 -5z"/>
<path d="M2686 1781 c-18 -7 -18 -8 -2 -14 25 -10 72 3 54 14 -15 10 -26 10
-52 0z"/>
<path d="M747 1689 c14 -29 41 -55 29 -28 -3 8 -9 22 -12 31 -3 9 -12 19 -19
22 -10 3 -9 -2 2 -25z"/>
<path d="M2720 1706 c0 -8 8 -13 18 -11 9 2 19 4 22 4 7 2 -23 21 -32 21 -5 0
-8 -6 -8 -14z"/>
<path d="M420 1700 c0 -5 0 -13 1 -17 0 -4 -8 -10 -18 -14 -16 -7 -15 -8 5 -8
17 -1 22 5 22 24 0 14 -2 25 -5 25 -3 0 -5 -4 -5 -10z"/>
<path d="M1650 1685 c-7 -8 -19 -15 -26 -15 -7 0 -20 -14 -29 -30 -13 -24 -13
-35 -4 -53 7 -12 11 -23 10 -25 -2 -2 1 -7 4 -10 4 -4 5 9 1 29 -7 41 0 69 19
69 14 0 51 38 43 45 -3 3 -11 -1 -18 -10z"/>
<path d="M2787 1684 c-11 -12 3 -23 20 -17 11 4 14 3 9 -5 -4 -7 -5 -12 -2
-12 3 0 10 9 16 20 9 17 8 20 -13 20 -13 0 -27 -3 -30 -6z"/>
<path d="M390 1640 c0 -5 7 -7 15 -4 8 4 15 8 15 10 0 2 -7 4 -15 4 -8 0 -15
-4 -15 -10z"/>
<path d="M333 1633 c-15 -6 -17 -43 -3 -43 6 0 10 -4 10 -10 0 -5 -6 -7 -13
-4 -8 3 -13 -6 -15 -26 -1 -16 2 -30 8 -30 5 0 10 9 10 20 0 13 7 20 20 20 11
0 20 -6 20 -14 0 -7 8 -20 18 -27 15 -13 16 -12 3 4 -8 9 -12 18 -10 20 51 29
51 29 44 8 -4 -12 -2 -21 4 -21 6 0 11 14 11 30 0 27 -2 30 -19 20 -26 -14
-31 -13 -25 5 4 8 10 12 15 9 5 -3 6 2 3 10 -3 9 -10 13 -15 11 -5 -3 -19 1
-31 8 -13 8 -29 13 -35 10z m37 -28 c0 -8 -2 -15 -4 -15 -2 0 -6 7 -10 15 -3
8 -1 15 4 15 6 0 10 -7 10 -15z"/>
<path d="M2750 1620 c-20 -12 19 -21 41 -10 10 6 19 12 19 14 0 7 -48 3 -60
-4z"/>
<path d="M598 1591 c-12 -26 -13 -38 -4 -47 17 -19 28 -1 24 42 l-4 39 -16
-34z"/>
<path d="M893 1609 c-12 -12 -5 -56 10 -66 6 -4 8 4 5 21 -3 14 -1 29 3 32 11
7 12 24 1 24 -4 0 -13 -5 -19 -11z"/>
<path d="M750 1570 c0 -5 11 -9 25 -8 14 1 25 6 25 10 0 4 -11 8 -25 8 -14 0
-25 -4 -25 -10z"/>
<path d="M535 1520 c-5 -8 -1 -18 11 -27 15 -11 19 -11 27 2 11 20 31 19 23 0
-3 -9 1 -18 9 -21 8 -4 15 -16 15 -28 1 -19 2 -19 11 -3 5 9 8 21 5 26 -3 5 2
12 11 15 15 6 14 8 -4 21 -30 21 -99 30 -108 15z"/>
<path d="M1493 1495 c-33 -14 -43 -32 -43 -75 0 -41 8 -56 45 -85 l34 -25 36
35 c19 20 35 43 34 53 0 13 -3 11 -9 -5 -12 -30 -32 -30 -28 -1 2 16 -2 23
-15 24 -10 1 -11 0 -3 -3 15 -4 10 -43 -6 -43 -5 0 -6 -9 -3 -20 4 -12 2 -20
-5 -20 -7 0 -14 9 -17 19 -3 11 -12 22 -22 24 -15 4 -15 5 0 6 21 1 33 28 13
28 -8 0 -14 -5 -14 -11 0 -6 -5 -3 -11 7 -13 21 -3 57 16 57 7 0 20 -7 28 -15
13 -13 16 -13 21 0 4 10 -1 15 -14 15 -11 0 -20 5 -20 10 0 15 40 12 46 -4 3
-8 13 -12 25 -9 10 3 19 1 19 -5 0 -6 -8 -12 -17 -15 -15 -3 -13 -6 7 -14 21
-9 26 -7 32 9 17 44 -71 87 -129 63z"/>
<path d="M1265 1490 c10 -16 -22 -23 -55 -11 -22 7 -38 7 -54 -1 l-24 -10 28
-28 c30 -29 110 -63 191 -82 34 -8 50 -18 58 -35 16 -35 15 -36 -24 -30 -42 7
-57 -11 -27 -31 12 -8 22 -23 22 -33 0 -11 4 -19 9 -19 5 0 7 -10 4 -22 -5
-19 -3 -21 8 -10 10 9 11 21 3 52 -8 28 -8 37 0 33 6 -4 23 -6 38 -4 32 3 35
-9 11 -50 -16 -27 -16 -31 0 -64 10 -20 15 -41 12 -46 -4 -5 1 -9 9 -9 20 0
20 3 -3 50 -11 22 -15 40 -11 40 5 0 12 9 15 21 6 19 8 19 24 5 10 -9 22 -16
28 -16 6 0 13 -6 16 -12 3 -10 8 -9 21 2 11 11 14 25 9 53 -3 20 -10 37 -15
37 -5 0 -6 -5 -3 -10 8 -13 -3 -50 -15 -50 -5 0 -8 12 -6 28 2 15 1 19 -1 10
-5 -19 -12 -22 -28 -10 -14 10 -19 46 -6 37 6 -3 11 -1 11 5 0 6 5 8 11 4 6
-3 15 0 20 7 6 10 9 11 9 2 0 -7 7 -13 15 -13 8 0 15 4 15 9 0 14 -31 19 -58
9 -16 -5 -24 -4 -28 6 -3 8 -23 33 -44 57 -22 23 -37 46 -34 50 3 5 -2 6 -10
3 -9 -3 -16 -17 -16 -31 0 -18 -4 -23 -17 -19 -90 25 -131 41 -127 48 3 4 14
8 25 8 10 0 19 5 19 10 0 11 2 11 -61 15 -55 3 -78 13 -58 26 7 4 25 1 42 -7
22 -12 32 -13 43 -3 11 9 20 8 41 -6 l28 -18 -29 32 c-30 31 -43 40 -31 21z
m-13 -66 c-10 -8 -26 -9 -45 -3 -46 13 -43 17 11 16 39 -2 46 -4 34 -13z m206
-110 c27 -26 22 -45 -8 -37 -11 3 -20 14 -20 25 0 10 -7 33 -15 51 -15 32 -15
32 2 8 10 -13 29 -34 41 -47z"/>
<path d="M1748 1467 c-21 -17 -39 -38 -40 -46 -2 -8 -14 -25 -28 -38 l-25 -24
30 14 c17 8 37 12 45 10 11 -3 12 -2 2 5 -9 6 -5 12 15 22 34 16 77 24 70 13
-3 -5 3 -10 14 -10 11 -1 17 2 14 7 -3 4 7 11 23 14 15 4 36 9 47 12 11 2 4
-4 -15 -15 -48 -27 -44 -26 -145 -57 -49 -15 -95 -29 -102 -31 -12 -5 -11 15
2 50 4 10 3 17 -4 17 -6 0 -11 -4 -11 -10 0 -5 -8 -10 -17 -10 -10 0 -14 -4
-8 -8 6 -4 11 -18 13 -31 2 -20 -1 -22 -23 -17 -26 7 -33 -6 -16 -33 7 -11 11
-10 19 4 9 17 10 17 16 -3 8 -23 21 -28 31 -12 3 6 11 10 17 10 6 0 5 -7 -4
-17 -18 -22 -32 -99 -19 -108 6 -3 10 3 10 12 0 43 16 80 45 105 49 42 27 47
-56 13 -13 -5 -18 -2 -18 8 0 10 22 20 68 32 143 37 237 76 253 107 22 41 -43
52 -94 16 -39 -28 -76 -36 -57 -13 7 8 18 15 25 15 6 0 12 7 12 15 0 11 -11 6
-36 -17 -62 -57 -116 -80 -66 -28 15 16 33 26 39 23 6 -3 8 -3 4 2 -4 4 -3 14
3 22 19 22 6 15 -33 -20z m186 5 c3 -5 -20 -16 -50 -24 -58 -16 -61 -11 -9 16
34 18 51 20 59 8z"/>
<path d="M1310 1487 c0 -2 19 -19 43 -37 l42 -33 -34 36 c-30 32 -51 46 -51
34z"/>
<path d="M1380 1455 c13 -14 26 -25 28 -25 3 0 -5 11 -18 25 -13 14 -26 25
-28 25 -3 0 5 -11 18 -25z"/>
<path d="M1708 1463 c-9 -10 -21 -29 -28 -43 -9 -19 -5 -17 18 10 28 31 38 50
29 50 -2 0 -11 -8 -19 -17z"/>
<path d="M541 1435 c-17 -20 -31 -40 -31 -46 0 -6 -7 -18 -16 -26 -15 -16 -15
-27 2 -67 5 -15 4 -17 -6 -11 -9 5 -11 4 -6 -3 12 -21 28 -13 23 11 -7 30 26
133 42 129 7 -1 19 3 27 9 11 9 14 8 14 -4 0 -29 -41 -147 -51 -147 -6 0 -7 5
-3 11 4 7 7 26 6 43 0 17 6 41 14 54 8 12 10 22 5 22 -18 0 -30 -36 -35 -101
-3 -35 -3 -58 0 -51 3 6 11 12 18 12 19 0 48 84 52 146 4 65 -10 70 -55 19z
m33 10 c-4 -8 -11 -15 -16 -15 -6 0 -5 6 2 15 7 8 14 15 16 15 2 0 1 -7 -2
-15z m-77 -117 c-3 -8 -6 -5 -6 6 -1 11 2 17 5 13 3 -3 4 -12 1 -19z"/>
<path d="M1491 1434 c0 -11 3 -14 6 -6 3 7 2 16 -1 19 -3 4 -6 -2 -5 -13z"/>
<path d="M1310 1423 c8 -2 29 -9 45 -14 28 -8 29 -8 11 6 -11 8 -31 15 -45 14
-15 0 -19 -3 -11 -6z"/>
<path d="M1765 1400 c-13 -6 -15 -9 -5 -9 8 0 22 4 30 9 18 12 2 12 -25 0z"/>
<path d="M1328 1393 c7 -3 16 -2 19 1 4 3 -2 6 -13 5 -11 0 -14 -3 -6 -6z"/>
<path d="M1095 1344 c-9 -9 -14 -22 -11 -30 3 -7 0 -15 -7 -17 -7 -2 -9 -8 -4
-12 10 -12 19 0 21 26 0 12 7 24 15 27 8 3 11 0 7 -6 -3 -5 1 -13 9 -16 17 -6
31 17 20 34 -9 15 -31 12 -50 -6z"/>
<path d="M1050 1320 c0 -5 5 -10 10 -10 6 0 10 5 10 10 0 6 -4 10 -10 10 -5 0
-10 -4 -10 -10z"/>
<path d="M1104 1302 c3 -18 -34 -53 -47 -45 -4 2 -5 14 -2 26 3 12 -9 -1 -27
-30 -35 -56 -47 -64 -54 -35 -8 29 -68 64 -98 56 -40 -10 -49 -35 -26 -72 11
-18 16 -32 10 -32 -5 0 -11 4 -14 9 -9 15 -45 20 -55 7 -6 -8 -1 -12 20 -13
16 -1 40 -10 52 -19 21 -15 21 -16 1 -10 -32 9 -51 -2 -63 -36 -14 -40 -14
-43 3 -29 8 7 17 23 20 36 6 24 7 24 46 10 22 -8 48 -11 58 -8 14 5 15 3 5 -8
-7 -7 -13 -24 -13 -39 1 -30 25 -77 33 -63 4 6 0 18 -7 28 -7 10 -11 29 -8 42
3 14 7 21 11 15 14 -22 50 -23 68 -3 10 12 24 21 32 21 10 0 6 -10 -13 -29
-16 -16 -26 -35 -24 -41 4 -13 58 59 58 77 0 6 -17 14 -37 18 -21 4 -33 10
-26 12 7 2 10 10 7 18 -4 8 19 37 55 71 64 60 70 69 47 77 -9 4 -13 0 -12 -11z
m-60 -73 c-21 -24 -29 -18 -14 10 6 12 16 19 21 15 6 -4 4 -13 -7 -25z m-144
4 c1 -17 1 -17 11 0 10 17 13 16 40 -14 28 -31 34 -47 29 -79 -1 -8 1 -12 5
-8 11 10 47 -11 39 -23 -4 -6 -11 -6 -20 2 -12 10 -13 9 -8 -5 4 -10 1 -16 -9
-16 -9 0 -16 8 -16 18 -1 58 -23 112 -44 112 -5 0 1 -13 13 -29 13 -19 17 -32
10 -36 -8 -5 -7 -12 2 -23 12 -15 11 -16 -4 -3 -10 7 -15 17 -12 22 2 5 -3 20
-12 34 -13 20 -20 23 -30 14 -14 -12 -9 -33 6 -24 4 3 11 -2 14 -11 4 -11 0
-15 -16 -12 -17 2 -22 10 -24 32 -2 38 6 66 17 66 5 0 9 -8 9 -17z m17 -99
c-3 -3 -12 -4 -19 -1 -8 3 -5 6 6 6 11 1 17 -2 13 -5z"/>
<path d="M1021 1302 c-1 -7 -5 -11 -10 -8 -9 6 -24 -35 -16 -43 3 -2 5 1 5 8
0 7 5 9 12 5 6 -4 8 -3 4 4 -3 5 -1 12 5 14 7 2 9 11 6 19 -4 10 -6 10 -6 1z"/>
<path d="M1597 1277 c-20 -20 -19 -54 2 -49 9 2 9 -3 1 -17 -5 -11 -7 -26 -4
-35 3 -9 -7 -27 -27 -47 -25 -24 -29 -33 -18 -40 9 -5 15 -4 18 4 2 7 16 26
31 43 21 24 26 40 24 72 -1 29 2 40 10 35 8 -5 8 -3 0 8 -7 8 -13 21 -15 29
-3 13 -7 13 -22 -3z m17 -28 c-3 -5 -10 -7 -15 -3 -5 3 -7 10 -3 15 3 5 10 7
15 3 5 -3 7 -10 3 -15z"/>
<path d="M540 1247 c0 -11 10 -27 23 -38 12 -10 16 -18 10 -19 -7 0 -13 -4
-13 -10 0 -5 7 -6 17 -3 11 4 14 3 9 -5 -5 -8 -1 -10 10 -5 12 4 15 3 10 -5
-9 -15 -1 -15 25 -2 18 10 19 7 19 -55 0 -37 4 -65 10 -65 12 0 13 129 1 148
-7 12 -12 12 -30 1 -18 -12 -23 -11 -35 6 -7 11 -23 31 -35 45 -17 22 -20 22
-21 7z"/>
<path d="M370 1221 c-41 -40 -37 -70 12 -96 32 -17 41 -18 58 -7 26 16 35 15
21 -2 -9 -11 -9 -15 1 -20 7 -3 4 -4 -7 -2 -11 2 -36 7 -57 10 l-36 7 2 -38
c4 -50 17 -102 27 -109 4 -2 6 -11 3 -18 -3 -8 -1 -17 5 -21 15 -9 14 23 -3
79 -14 47 -14 47 10 57 14 5 34 9 44 9 23 0 58 32 41 38 -6 2 -11 10 -11 18 0
8 -7 14 -16 14 -14 0 -14 3 -4 15 10 12 10 15 -4 15 -14 0 -18 -6 -15 -26 2
-17 -26 -20 -52 -7 -30 15 -40 27 -14 17 13 -5 14 -2 5 21 -12 32 4 61 19 37
7 -11 9 -10 14 2 9 22 31 20 23 -1 -6 -17 -5 -17 7 -1 10 12 21 15 47 9 19 -4
34 -11 32 -16 -2 -6 4 -12 13 -13 14 -3 15 0 5 17 -6 12 -16 21 -23 22 -7 0
-21 3 -32 6 -69 17 -84 16 -115 -16z m43 -138 c-7 -2 -19 -2 -25 0 -7 3 -2 5
12 5 14 0 19 -2 13 -5z"/>
<path d="M455 1199 c-4 -6 2 -13 13 -16 14 -3 19 -11 16 -21 -4 -14 -3 -13 6
1 6 10 9 25 6 33 -6 16 -32 19 -41 3z"/>
<path d="M770 1203 c-8 -2 -22 -7 -30 -9 -20 -7 27 -44 55 -43 19 1 19 2 1 6
-11 3 -26 11 -34 19 -11 12 -11 14 2 14 8 0 18 5 21 10 3 6 5 10 3 9 -2 0 -10
-3 -18 -6z"/>
<path d="M413 1173 c-3 -10 -8 -21 -10 -25 -2 -5 0 -8 6 -8 16 0 33 38 21 45
-6 3 -13 -2 -17 -12z"/>
<path d="M525 1170 c3 -5 8 -10 11 -10 2 0 4 5 4 10 0 6 -5 10 -11 10 -5 0 -7
-4 -4 -10z"/>
<path d="M1335 1173 c-28 -7 -77 -55 -71 -70 6 -14 -42 -55 -54 -48 -9 6 -15
-10 -24 -66 -3 -19 -15 -53 -26 -74 -11 -22 -20 -45 -20 -52 0 -7 -5 -13 -12
-13 -6 0 -9 -3 -5 -6 3 -3 -1 -24 -9 -47 -8 -23 -10 -37 -4 -31 6 6 19 33 28
60 10 27 23 49 30 49 6 0 28 24 47 54 20 30 29 49 21 42 -8 -7 -17 -8 -20 -3
-7 12 22 38 31 28 3 -3 15 1 25 11 35 31 17 -1 -72 -133 -49 -73 -90 -138 -90
-144 0 -5 7 -10 15 -10 14 0 20 12 16 33 -1 4 16 33 36 63 88 127 135 203 163
261 29 58 39 104 23 102 -5 -1 -17 -3 -28 -6z m25 -20 c0 -3 -11 -26 -25 -50
-14 -23 -23 -43 -20 -43 3 0 1 -9 -5 -20 -6 -11 -15 -18 -19 -15 -5 2 -14 -2
-21 -10 -7 -8 -16 -12 -21 -9 -12 7 37 115 62 137 21 17 49 23 49 10z m-131
-140 c-23 -36 -24 -37 -27 -13 -3 16 4 30 18 42 33 26 36 15 9 -29z m-30 -91
c-13 -20 -23 -38 -25 -40 -1 -2 -5 1 -8 7 -3 5 2 17 11 27 10 10 17 20 17 23
-3 14 9 30 17 25 5 -3 0 -22 -12 -42z"/>
<path d="M1309 1108 c-35 -49 -73 -119 -44 -83 9 11 21 20 28 20 7 1 11 7 9
14 -1 7 6 24 16 39 46 66 38 74 -9 10z"/>
<path d="M285 1150 c-3 -5 -14 -10 -25 -10 -10 0 -20 -7 -24 -15 -5 -15 9 -22
16 -7 2 4 19 15 38 24 20 9 28 17 18 17 -9 1 -20 -3 -23 -9z"/>
<path d="M503 1096 l-2 -65 47 -34 c26 -20 50 -33 55 -30 8 5 -59 63 -73 63
-4 0 -7 13 -8 29 0 23 3 28 18 24 10 -3 21 1 26 8 5 9 2 11 -9 6 -10 -4 -16
-2 -14 6 1 7 -4 11 -11 9 -9 -1 -12 5 -10 19 2 12 -2 24 -7 26 -7 2 -11 -22
-12 -61z"/>
<path d="M557 1148 c6 -7 13 -26 17 -42 8 -31 18 -28 23 7 2 12 -4 27 -14 34
-22 17 -38 17 -26 1z"/>
<path d="M286 1121 c-11 -4 -15 -10 -10 -13 5 -4 18 0 29 8 20 15 12 17 -19 5z"/>
<path d="M193 1113 c-7 -2 -13 -12 -13 -20 0 -13 11 -15 68 -11 38 3 77 11 88
17 17 11 15 12 -11 6 -75 -14 -155 -9 -112 8 6 3 8 5 2 5 -5 0 -16 -2 -22 -5z"/>
<path d="M1226 1083 c-6 -14 -5 -15 5 -6 7 7 10 15 7 18 -3 3 -9 -2 -12 -12z"/>
<path d="M1162 992 c-10 -23 -11 -24 -8 -4 3 13 2 21 -2 18 -13 -14 -32 -83
-31 -116 1 -36 3 -32 14 34 4 23 10 35 14 28 4 -7 12 2 20 24 15 42 10 55 -7
16z"/>
<path d="M515 980 c3 -5 8 -10 11 -10 2 0 4 5 4 10 0 6 -5 10 -11 10 -5 0 -7
-4 -4 -10z"/>
<path d="M566 933 c160 -137 206 -174 210 -170 3 2 -29 33 -70 68 -41 34 -73
66 -70 71 3 4 0 8 -5 8 -22 0 -26 2 -41 14 -8 7 -22 16 -30 20 -8 4 -5 -1 6
-11z"/>
<path d="M1095 910 c-4 -17 -4 -49 -1 -73 l5 -42 -14 40 c-11 32 -14 35 -14
15 0 -14 6 -36 13 -49 13 -23 14 -23 19 -5 5 20 7 144 2 144 -2 0 -6 -14 -10
-30z"/>
<path d="M883 843 c5 -8 -8 -19 -37 -31 -73 -33 -88 -88 -42 -161 32 -50 58
-65 107 -58 22 3 39 4 39 2 0 -2 -11 -16 -24 -30 -21 -22 -37 -27 -104 -34
-93 -10 -102 -14 -102 -47 0 -25 63 -104 84 -104 6 0 11 -18 11 -45 -1 -36 -6
-51 -28 -71 -15 -14 -24 -30 -20 -36 4 -8 19 3 40 27 28 33 33 46 31 82 -1 24
-8 49 -15 55 -7 6 -13 16 -13 22 1 18 40 -35 40 -54 0 -10 10 -24 21 -32 13
-8 22 -24 22 -41 0 -15 3 -30 8 -33 23 -14 3 71 -34 144 -15 30 -57 52 -88 46
l-24 -5 25 12 c14 6 52 15 86 20 34 5 67 11 75 14 21 7 49 -58 49 -115 0 -27
7 -68 16 -90 9 -22 14 -47 10 -55 -3 -9 0 -15 8 -15 22 0 26 12 11 40 -17 33
-26 155 -14 188 5 13 5 22 -1 22 -12 0 -34 40 -26 47 3 4 17 1 32 -5 18 -9 31
-9 45 -1 26 14 33 6 33 -36 0 -27 4 -35 17 -35 25 0 32 15 14 30 -15 13 -11
55 6 75 14 14 11 31 -11 57 -11 12 -26 32 -34 42 -7 10 -18 16 -24 12 -8 -5
-6 -14 8 -28 11 -12 20 -29 20 -38 0 -9 6 -22 13 -29 10 -11 8 -11 -10 -2 -18
9 -23 9 -23 -1 0 -7 -5 -20 -10 -28 -8 -13 -12 -12 -29 7 -11 11 -17 24 -13
28 4 4 -3 4 -15 1 -20 -6 -23 -4 -23 18 0 14 5 28 10 31 19 12 10 24 -25 31
-19 3 -38 10 -41 15 -3 5 -10 7 -15 4 -5 -4 -9 1 -9 9 0 11 10 15 35 14 22 -1
35 -6 35 -15 0 -7 7 -13 16 -13 18 0 55 -43 66 -74 5 -18 6 -17 7 6 1 17 -7
32 -20 42 l-21 14 21 11 c27 15 28 50 2 48 -15 -1 -17 -5 -10 -18 14 -28 -16
-31 -41 -4 -13 14 -29 21 -41 18 -10 -3 -19 0 -19 6 0 5 -8 8 -17 5 -10 -3
-24 -8 -32 -10 -11 -3 -11 -7 -1 -19 7 -8 9 -15 6 -15 -4 0 2 -10 14 -22 11
-12 18 -23 16 -26 -9 -9 -46 10 -46 24 0 8 -4 14 -9 14 -5 0 -7 -10 -4 -22 4
-14 2 -20 -3 -15 -5 5 -9 20 -9 35 -1 14 -7 27 -15 30 -13 3 -13 2 0 -8 13 -9
12 -11 -4 -8 -10 2 -22 13 -27 25 -6 17 -5 21 7 16 19 -7 18 6 -3 29 -21 24
-9 36 15 15 10 -10 22 -14 25 -10 4 3 7 -1 7 -10 0 -21 16 -22 24 -1 8 21 7
32 -2 17 -5 -8 -12 -8 -26 3 -11 8 -16 14 -10 15 5 0 20 2 34 4 14 1 32 -3 40
-11 11 -9 20 -10 30 -3 13 9 12 10 -2 5 -11 -3 -24 5 -38 22 -11 15 -19 21
-18 13 2 -10 -7 -16 -25 -17 -32 -3 -27 13 9 26 17 7 31 6 46 -3 16 -9 22 -9
25 1 5 13 33 17 33 4 0 -4 -6 -14 -12 -21 -8 -9 -9 -12 -1 -7 17 9 45 -4 39
-19 -3 -10 6 -12 37 -9 29 3 35 1 18 -4 l-24 -8 26 -17 c28 -18 37 -13 33 19
-2 11 -12 20 -24 22 -12 2 -34 16 -49 32 -15 16 -30 27 -35 24 -4 -3 -8 -1 -8
4 0 8 -15 12 -55 13 -10 0 -26 5 -34 12 -11 9 -13 9 -8 0z m107 -223 c12 0 11
-4 -4 -15 -10 -7 -15 -18 -11 -24 3 -6 1 -11 -4 -11 -6 0 -11 8 -11 18 0 10
-5 23 -11 29 -9 9 -7 11 7 8 11 -2 26 -4 34 -5z m4 -91 c-8 -13 -24 -1 -24 18
0 13 3 13 15 3 8 -7 12 -16 9 -21z m-54 -3 c0 -8 -14 -15 -35 -18 -19 -2 -35
0 -35 4 0 4 14 8 31 8 17 0 28 4 24 10 -3 6 -1 10 4 10 6 0 11 -6 11 -14z
m-157 -38 c-13 -6 -23 -15 -23 -21 0 -5 -7 -3 -16 4 -14 12 -14 14 3 20 10 4
27 8 38 8 18 0 18 -1 -2 -11z"/>
<path d="M965 740 c-6 -10 2 -21 37 -48 14 -11 16 -10 14 13 0 15 -6 23 -13
20 -7 -2 -12 1 -10 7 3 14 -20 22 -28 8z"/>
<path d="M900 719 c0 -5 5 -7 10 -4 6 3 10 8 10 11 0 2 -4 4 -10 4 -5 0 -10
-5 -10 -11z"/>
<path d="M1112 694 c-20 -14 -33 -42 -13 -30 5 3 11 -5 15 -17 3 -13 17 -36
32 -52 21 -23 37 -29 85 -34 l58 -6 -19 -24 -18 -25 -34 26 c-34 26 -61 27
-51 3 3 -8 20 -24 39 -36 19 -11 34 -25 34 -30 0 -6 -5 -7 -11 -3 -15 9 -29
-14 -29 -47 0 -15 -9 -38 -20 -52 -11 -14 -20 -34 -20 -46 0 -18 3 -19 24 -9
21 9 24 16 19 39 -4 22 -2 29 10 29 9 0 21 15 28 35 7 19 21 38 31 41 11 3 18
13 17 22 -1 9 3 28 8 42 6 14 7 34 3 45 -6 17 -17 20 -69 20 -65 1 -91 16 -69
42 14 17 29 7 21 -15 -5 -14 -4 -15 8 -4 10 9 11 17 3 29 -10 17 -17 21 -64
42 -14 7 -17 9 -7 7 10 -4 17 0 17 9 0 19 -1 19 -28 -1z m48 -55 c0 -14 -27
-10 -33 5 -4 10 0 12 14 9 10 -3 19 -9 19 -14z m25 -309 c3 -5 1 -10 -4 -10
-6 0 -11 5 -11 10 0 6 2 10 4 10 3 0 8 -4 11 -10z"/>
</g>
</svg>
