<?xml version="1.0" standalone="no"?>
<!DOCTYPE svg PUBLIC "-//W3C//DTD SVG 20010904//EN"
 "http://www.w3.org/TR/2001/REC-SVG-20010904/DTD/svg10.dtd">
<svg version="1.0" xmlns="http://www.w3.org/2000/svg"
 width="300.000000pt" height="276.000000pt" viewBox="0 0 300.000000 276.000000"
 preserveAspectRatio="xMidYMid meet">
<metadata>
Created by potrace 1.10, written by Peter Selinger 2001-2011
</metadata>
<g transform="translate(0.000000,276.000000) scale(0.100000,-0.100000)"
fill="#000000" stroke="none">
<path d="M1621 2515 c-21 -31 -22 -39 -12 -63 10 -20 10 -24 1 -15 -24 23
-172 -159 -154 -188 3 -5 -2 -12 -10 -15 -9 -3 -18 -21 -22 -40 -3 -19 -9 -34
-13 -34 -4 0 -6 -22 -4 -50 1 -28 -2 -50 -7 -50 -6 0 -10 -5 -10 -12 0 -6 10
-3 21 8 22 19 22 19 10 -4 -16 -31 -9 -37 30 -23 18 6 42 11 54 11 20 0 21 4
17 56 -8 94 37 223 98 284 13 13 34 20 59 20 63 0 98 58 70 113 -16 30 -28 37
-69 37 -29 0 -39 -6 -59 -35z m110 -21 c12 -15 11 -16 -9 -10 -17 6 -22 3 -22
-9 0 -9 4 -14 9 -11 5 3 14 -1 20 -8 8 -9 8 -16 2 -20 -5 -4 -12 -2 -16 4 -4
6 -10 8 -14 5 -5 -2 -16 1 -26 9 -14 10 -16 16 -6 34 14 26 43 29 62 6z m-218
-246 c-3 -16 -9 -28 -13 -28 -4 0 -5 -11 -3 -24 3 -16 -1 -25 -13 -30 -28 -11
-28 0 1 59 30 60 36 65 28 23z"/>
<path d="M1744 2214 c3 -9 6 -18 6 -20 0 -3 4 -3 9 1 5 3 12 1 16 -5 11 -18
-27 -25 -40 -7 -10 14 -13 14 -31 -6 -11 -14 -19 -37 -19 -62 l0 -39 -54 -13
c-30 -6 -79 -24 -108 -39 -34 -17 -72 -27 -106 -29 -51 -2 -116 -30 -117 -50
0 -5 -8 -19 -17 -30 -13 -16 -15 -17 -10 -2 9 25 -5 21 -28 -9 -11 -14 -27
-34 -37 -44 -9 -10 -13 -21 -10 -25 4 -4 -1 -11 -11 -16 -18 -11 -24 -49 -6
-49 6 0 3 -7 -5 -16 -18 -18 -19 -24 -6 -44 10 -15 11 -13 14 24 1 20 26 36
26 16 0 -6 5 -8 10 -5 6 3 10 14 10 23 0 17 44 72 58 72 4 0 13 14 21 31 7 17
24 34 36 39 13 5 26 14 30 19 3 6 15 11 26 11 10 0 19 4 19 10 0 9 63 30 110
36 69 9 91 17 86 30 -4 11 1 13 18 8 14 -3 37 3 61 16 36 20 53 21 41 2 -7
-11 -89 -51 -114 -55 -9 -2 -26 -8 -37 -14 -11 -6 -54 -23 -94 -37 -40 -14
-80 -31 -87 -37 -7 -6 -17 -8 -23 -5 -5 3 -7 -3 -4 -14 4 -16 0 -20 -18 -21
-13 0 -18 -3 -11 -6 6 -2 12 -9 12 -15 0 -6 -7 -8 -15 -4 -8 3 -15 1 -15 -3 0
-5 5 -11 11 -13 8 -3 6 -14 -5 -36 -16 -31 -16 -33 1 -38 10 -3 30 -12 45 -20
14 -8 34 -14 43 -14 30 0 73 39 81 73 10 41 5 100 -8 108 -21 13 1 39 32 39
33 0 39 -14 13 -29 -10 -6 -13 -11 -6 -11 6 0 15 5 18 10 4 6 10 8 14 5 11 -6
2 -56 -13 -74 -9 -12 -8 -12 11 -3 21 12 21 11 12 -20 -10 -36 -11 -93 -2 -68
4 8 12 21 20 28 18 19 17 116 -3 153 -8 17 -14 32 -12 34 2 1 32 10 66 19 35
9 74 24 86 34 11 9 32 26 45 37 13 11 34 29 48 40 23 19 38 83 24 103 -26 37
-120 60 -107 26z m77 -71 c13 -15 12 -16 -8 -11 -15 4 -23 2 -23 -7 0 -7 6
-12 13 -11 6 0 14 -3 17 -9 3 -5 -10 -10 -28 -10 -18 0 -36 -6 -40 -12 -6 -10
-13 -9 -30 3 -30 20 -28 39 1 19 27 -17 37 -12 37 20 0 12 3 25 7 28 12 12 40
7 54 -10z m-367 -285 c0 -18 -6 -34 -12 -34 -24 -3 -27 -5 -15 -12 6 -4 13
-16 15 -27 2 -15 -2 -19 -16 -17 -10 2 -16 0 -13 -5 3 -4 -6 -9 -19 -9 -19 -2
-24 3 -24 23 0 44 45 112 75 113 6 0 10 -15 9 -32z"/>
<path d="M754 2066 c-17 -9 -17 -11 9 -16 l28 -5 -37 -35 -37 -35 5 28 c3 15
1 30 -3 33 -5 3 -9 -15 -9 -40 0 -25 -4 -46 -8 -46 -4 0 -13 -19 -20 -42 -15
-53 -6 -91 38 -152 37 -50 78 -66 178 -66 49 0 64 -4 86 -25 23 -21 32 -24 59
-17 21 5 33 15 34 28 2 10 0 13 -3 7 -3 -7 -13 -13 -22 -13 -14 0 -14 2 -2 14
8 8 25 17 38 21 20 6 21 4 12 -19 -6 -17 -6 -27 1 -32 14 -8 15 -7 31 57 17
67 9 96 -29 105 -15 4 -34 11 -40 17 -19 14 -16 -8 2 -23 8 -7 15 -21 15 -31
0 -10 9 -21 20 -24 11 -4 18 -11 14 -16 -3 -5 -9 -7 -14 -4 -9 6 -64 -43 -72
-65 -3 -8 -9 -12 -13 -8 -4 4 0 19 9 32 20 31 20 36 1 36 -8 0 -15 -7 -15 -15
0 -8 -4 -15 -9 -15 -5 0 -7 17 -4 39 4 30 1 43 -15 59 -17 17 -24 18 -55 9
-27 -9 -34 -16 -31 -31 5 -29 22 -42 29 -23 5 10 15 14 33 11 39 -8 44 -21 10
-28 -7 -2 -21 -6 -30 -11 -28 -11 -46 1 -56 37 -7 27 -13 33 -35 33 -15 1 -41
11 -57 25 l-29 24 20 38 c11 21 24 38 30 38 6 0 8 9 4 20 -7 22 18 29 31 9 11
-18 23 10 22 53 0 21 -6 43 -14 49 -22 18 -80 27 -100 15z m74 -68 c19 -19 14
-29 -13 -22 -19 5 -25 2 -25 -9 0 -22 -20 -33 -30 -17 -11 17 17 60 39 60 9 0
22 -5 29 -12z m-58 -92 c-5 -7 -13 -34 -16 -59 -6 -44 -5 -47 20 -56 29 -12
35 -36 10 -45 -8 -3 -12 -2 -9 4 3 6 0 10 -8 10 -14 0 -22 15 -37 73 -6 21 -4
27 9 28 14 0 14 1 0 11 -14 9 -13 13 5 33 21 24 46 24 26 1z m93 -138 c2 -7 1
-22 -3 -34 -7 -17 -15 -20 -39 -16 -28 4 -45 22 -21 22 6 0 11 8 11 18 1 16 2
16 6 0 2 -10 10 -18 18 -18 8 0 11 7 8 20 -6 22 12 28 20 8z"/>
<path d="M2363 2053 c0 -7 6 -12 13 -11 22 5 17 -16 -6 -24 -12 -4 -19 -4 -15
1 3 5 3 16 -1 24 -4 12 -13 13 -45 6 -63 -14 -109 -43 -166 -102 -48 -50 -136
-103 -201 -122 -25 -7 -27 -43 -1 -37 8 2 30 6 49 9 19 3 40 10 46 15 6 4 39
22 73 39 33 17 61 35 61 39 0 5 7 7 17 3 13 -5 8 -14 -26 -45 -24 -21 -51 -38
-61 -38 -10 0 -20 -9 -23 -20 -4 -17 -2 -19 21 -13 34 8 77 44 125 106 49 62
80 74 114 47 33 -26 94 -27 116 -2 21 23 29 85 14 106 -16 22 -104 38 -104 19z
m71 -59 c22 -22 20 -27 -9 -20 -14 4 -25 2 -25 -3 0 -5 10 -11 22 -13 31 -4
36 -28 5 -26 -14 1 -23 6 -21 10 3 4 -4 8 -15 8 -24 0 -29 28 -9 48 16 16 33
15 52 -4z"/>
<path d="M1704 1913 l-25 -27 23 -12 c21 -12 20 -13 -13 -7 l-36 5 -10 -51
c-6 -28 -9 -51 -7 -51 2 0 20 9 40 21 74 41 137 58 217 58 44 0 81 1 83 3 2 2
-9 18 -25 35 -33 37 -84 53 -164 53 -50 0 -61 -4 -83 -27z"/>
<path d="M1015 1830 c3 -5 -2 -10 -12 -11 -10 0 -13 -3 -5 -6 6 -2 12 -14 12
-24 0 -13 4 -18 12 -13 6 4 17 -1 25 -11 12 -18 13 -18 13 3 0 25 -27 72 -42
72 -5 0 -6 -4 -3 -10z"/>
<path d="M1823 1820 c-18 -7 -51 -48 -41 -51 2 0 17 -1 33 -2 27 -2 30 1 32
31 2 17 2 32 0 31 -1 0 -12 -4 -24 -9z"/>
<path d="M1868 1813 c-7 -28 1 -41 22 -36 24 6 25 16 4 37 -19 20 -21 20 -26
-1z"/>
<path d="M1736 1785 c-9 -26 -7 -35 8 -35 23 0 30 20 14 37 -14 13 -16 13 -22
-2z"/>
<path d="M2025 1771 c-3 -5 -14 -7 -24 -4 -11 3 -34 -3 -51 -13 -27 -16 -32
-17 -40 -4 -9 14 -14 7 -11 -14 1 -4 -4 -14 -10 -22 -17 -21 10 -18 66 6 l47
20 40 -34 c39 -34 113 -66 150 -66 10 0 42 -8 71 -18 59 -20 92 -18 83 5 -4
10 -2 13 8 10 16 -6 26 12 26 49 0 16 -9 28 -31 39 -29 16 -31 15 -50 -10 -12
-14 -24 -23 -29 -20 -5 3 -11 1 -15 -5 -3 -5 -13 -10 -22 -10 -22 0 -133 51
-133 61 0 5 -17 9 -37 10 -28 0 -33 2 -19 8 17 7 18 8 3 14 -9 3 -19 2 -22 -2z
m329 -107 c4 -12 2 -15 -9 -10 -8 3 -15 1 -15 -4 0 -6 -7 -10 -15 -10 -18 0
-19 12 -3 28 17 17 35 15 42 -4z"/>
<path d="M1674 1754 c-10 -8 -14 -13 -7 -10 6 4 13 1 15 -5 2 -5 11 -7 20 -4
9 4 14 13 11 21 -7 18 -15 18 -39 -2z"/>
<path d="M1210 1706 c0 -13 -7 -29 -15 -36 -8 -7 -12 -16 -10 -20 7 -12 65
-40 81 -40 15 0 64 -61 64 -78 0 -7 9 -12 19 -12 12 0 18 7 17 18 0 11 6 17
19 18 38 2 45 4 45 14 0 11 -59 2 -77 -13 -9 -6 -14 -5 -17 4 -2 8 -6 21 -9
30 -3 10 -23 23 -44 29 -21 7 -44 17 -50 23 -16 12 -17 44 -2 49 12 4 1 38
-12 38 -5 0 -9 -11 -9 -24z"/>
<path d="M1873 1673 c-24 -9 -13 -25 13 -19 14 4 23 3 20 -2 -3 -5 9 -9 25 -9
41 0 81 -45 72 -82 -9 -39 -27 -70 -29 -51 -11 69 -16 90 -22 90 -4 0 -5 -25
-4 -55 3 -39 0 -55 -9 -55 -8 0 -6 -7 6 -20 24 -27 31 -25 44 10 6 17 19 43
31 57 29 37 26 76 -11 112 -26 26 -38 31 -77 30 -26 0 -53 -3 -59 -6z"/>
<path d="M910 1641 c5 -11 15 -23 20 -26 6 -4 8 -11 5 -16 -3 -5 1 -6 9 -3 9
3 16 1 16 -5 0 -6 11 -21 25 -33 19 -16 22 -24 13 -35 -6 -7 -8 -17 -4 -20 4
-4 11 -1 15 6 5 7 14 11 20 7 6 -4 22 1 36 10 20 13 28 14 40 4 24 -20 17 -33
-15 -27 -20 5 -28 3 -25 -6 7 -17 -5 -31 -40 -48 -32 -16 -60 -14 -49 2 8 14
-6 11 -22 -5 -7 -8 -24 -12 -36 -9 -23 5 -23 4 2 -15 17 -15 28 -18 37 -10 7
5 17 7 23 3 6 -4 18 1 26 11 15 18 15 18 10 -4 -4 -22 -3 -23 13 -8 10 9 22
16 28 16 5 0 15 11 21 25 6 14 17 26 24 26 7 1 20 2 28 3 8 1 28 -5 43 -12 26
-12 27 -15 14 -30 -8 -9 -12 -23 -10 -30 3 -7 -2 -24 -11 -37 -19 -29 -20 -35
-3 -35 6 0 25 -7 40 -15 15 -8 44 -17 63 -21 22 -4 31 -10 24 -14 -7 -4 -22
-6 -34 -3 -20 4 -20 4 2 -10 25 -15 94 -11 71 4 -10 6 -7 9 11 10 16 1 8 5
-20 11 -25 5 -52 12 -60 15 -8 4 -22 7 -30 7 -33 2 -17 95 26 146 21 24 22 29
7 23 -19 -7 -18 -5 11 17 17 13 18 13 11 1 -6 -11 -4 -13 9 -8 10 4 20 7 22 7
3 0 0 9 -6 21 -7 12 -18 18 -26 15 -10 -4 -16 3 -20 23 -5 23 -11 28 -34 29
-16 0 -34 -6 -41 -14 -6 -8 -18 -14 -25 -14 -8 0 -14 -4 -14 -9 0 -5 -7 -12
-16 -15 -8 -3 -12 -2 -9 3 3 5 -4 13 -16 16 -16 5 -19 12 -15 31 5 19 2 24
-13 24 -20 0 -22 -14 -7 -40 5 -8 -2 -5 -16 8 -13 12 -32 22 -41 22 -20 0 -68
21 -85 37 -21 20 -34 16 -22 -6z m110 -71 c0 -5 11 -10 25 -10 14 0 25 -4 25
-10 0 -13 -21 -13 -54 0 -28 10 -35 30 -11 30 8 0 15 -4 15 -10z m237 -17 c5
-15 -48 -73 -67 -73 -16 1 -60 33 -60 45 0 4 13 5 28 4 18 -2 35 4 50 19 23
23 43 25 49 5z"/>
<path d="M2609 1627 c-23 -17 -39 -52 -39 -85 0 -25 -5 -30 -42 -42 -67 -20
-173 -14 -272 15 -91 26 -124 29 -188 19 -33 -6 -39 -11 -48 -42 -6 -24 -6
-40 0 -46 7 -7 10 0 10 18 l0 29 52 -7 c29 -4 58 -12 65 -18 7 -5 17 -7 22 -4
5 4 12 2 16 -4 3 -5 -3 -10 -14 -10 -15 0 -19 -5 -15 -17 5 -16 4 -15 -10 1
-15 19 -16 19 -38 0 -13 -10 -28 -26 -35 -35 -9 -12 -28 -17 -64 -17 -33 0
-56 -5 -67 -16 -14 -14 -12 -15 21 -5 41 11 72 5 100 -19 19 -17 24 -3 5 16
-7 7 -9 13 -5 13 4 1 10 2 15 3 4 1 18 9 32 17 14 9 53 22 87 29 53 11 72 10
138 -5 72 -16 135 -16 218 1 26 5 123 58 159 86 26 21 32 81 10 108 -21 26
-87 36 -113 17z m85 -63 c22 -22 20 -27 -9 -20 -14 4 -25 2 -25 -4 0 -5 9 -10
20 -10 11 0 20 -6 20 -14 0 -16 -37 -18 -57 -3 -16 12 -17 39 -1 55 16 16 33
15 52 -4z m-60 -60 c5 -13 2 -15 -14 -11 -13 3 -23 0 -26 -8 -3 -7 -12 -16
-20 -19 -9 -3 -6 5 8 24 24 33 43 38 52 14z"/>
<path d="M820 1620 c0 -14 51 -50 71 -50 36 0 27 17 -22 37 -27 12 -49 17 -49
13z"/>
<path d="M1556 1611 c6 -6 20 -13 32 -16 11 -2 30 -9 41 -15 12 -6 21 -8 21
-6 0 7 -48 31 -80 41 -18 5 -22 4 -14 -4z"/>
<path d="M1880 1580 c0 -5 7 -10 16 -10 11 0 14 -5 10 -16 -3 -9 -6 -20 -6
-25 0 -5 -8 -9 -17 -9 -16 -1 -16 -2 2 -16 18 -14 20 -13 28 11 11 33 1 75
-18 75 -8 0 -15 -4 -15 -10z"/>
<path d="M350 1556 c-14 -9 -21 -15 -16 -16 22 -1 -19 -30 -43 -30 -19 0 -22
-3 -12 -9 11 -7 9 -10 -8 -16 -23 -7 -81 -61 -81 -75 0 -50 75 -99 124 -80 24
9 26 13 15 26 -10 12 -14 12 -20 2 -7 -11 -9 -11 -9 0 0 7 -4 11 -9 7 -6 -3
-15 3 -21 14 -14 27 18 62 49 54 19 -5 22 -9 21 -30 -1 -5 -10 -7 -20 -5 -11
2 -20 -1 -20 -6 0 -14 64 -21 72 -8 4 6 5 30 2 52 -4 39 -3 42 23 47 15 3 84
-11 162 -33 177 -49 191 -52 191 -41 0 5 -14 12 -30 16 -17 4 -28 11 -25 16 4
5 -6 6 -22 3 -17 -3 -36 1 -48 10 -28 20 -16 26 30 16 28 -6 42 -5 47 3 11 18
-12 37 -46 37 -18 0 -37 5 -44 12 -9 9 -12 9 -12 -2 0 -11 -3 -11 -12 -2 -7 7
-21 12 -33 12 -12 0 -26 5 -33 12 -7 7 -12 8 -12 4 0 -5 -6 -4 -13 2 -23 20
-119 24 -147 8z m200 -52 c54 -21 53 -20 46 -32 -4 -6 -25 -3 -54 8 -75 29
-138 35 -166 17 -13 -9 -33 -13 -45 -10 -20 5 -19 7 16 23 47 22 138 20 203
-6z m-255 -44 c-3 -5 -13 -10 -21 -10 -8 0 -15 -4 -15 -10 -1 -5 -3 -14 -4
-20 -1 -5 -3 -14 -4 -20 0 -5 -5 -10 -11 -10 -14 0 -12 54 2 68 14 14 62 16
53 2z"/>
<path d="M930 1556 c0 -9 -10 -18 -22 -20 -13 -3 -32 -7 -43 -9 -14 -3 -12 -5
8 -6 15 0 27 -6 27 -12 0 -6 -6 -9 -14 -6 -14 6 -26 -12 -26 -40 0 -11 6 -10
27 7 26 20 28 20 34 3 6 -17 7 -17 14 0 4 9 13 17 20 17 19 0 11 74 -9 78 -9
2 -16 -3 -16 -12z"/>
<path d="M1486 1551 c18 -17 50 -21 68 -8 15 11 11 13 -30 15 -28 1 -44 -2
-38 -7z"/>
<path d="M1600 1537 c0 -8 -9 -19 -20 -22 -26 -8 -16 -25 16 -25 22 0 24 3 18
28 -8 33 -14 41 -14 19z"/>
<path d="M808 1487 c-14 -18 -17 -19 -18 -5 0 13 -8 17 -35 16 -19 -1 -32 -5
-29 -10 3 -4 0 -8 -5 -8 -6 0 -11 -5 -11 -10 0 -18 49 -30 96 -23 41 5 45 8
42 31 -4 33 -19 37 -40 9z"/>
<path d="M1475 1500 c3 -5 14 -10 23 -10 35 -1 82 -72 82 -126 0 -29 -26 -33
-35 -4 -3 11 -11 20 -16 20 -6 0 -5 -9 2 -22 9 -18 8 -24 -6 -34 -36 -27 -61
12 -29 47 14 16 13 20 -15 48 -17 17 -36 31 -44 31 -16 0 -37 -20 -37 -34 0
-6 5 -4 10 4 18 28 28 -8 14 -48 -24 -67 -21 -72 44 -72 34 1 65 6 76 15 23
17 40 20 31 5 -3 -5 1 -10 10 -10 9 0 13 -4 10 -10 -3 -5 -1 -10 6 -10 7 0 9
8 6 21 -3 12 0 22 9 26 12 4 11 11 -6 41 -24 39 -20 73 5 52 8 -7 15 -18 15
-26 0 -7 4 -16 10 -19 6 -4 7 1 3 11 -4 12 -3 15 6 10 8 -5 10 -18 7 -35 -5
-21 -4 -23 4 -8 6 9 9 25 6 35 -4 11 4 28 19 45 14 15 21 27 16 27 -5 0 -13
-4 -16 -10 -8 -14 -25 -13 -25 2 0 6 8 21 18 32 17 21 17 21 -6 2 -12 -11 -21
-28 -20 -40 2 -12 -1 -22 -7 -23 -5 -1 -9 5 -9 13 2 12 -5 14 -26 9 -22 -5
-31 -2 -39 13 -5 10 -27 24 -49 30 -48 15 -55 15 -47 2z"/>
<path d="M1130 1440 c-8 -11 -24 -19 -35 -18 -14 2 -21 -4 -23 -19 -2 -16 2
-23 12 -23 9 0 16 -4 16 -8 0 -4 9 -8 20 -9 11 -1 18 2 15 6 -7 12 20 33 30
23 5 -4 5 -1 0 6 -4 8 -17 12 -32 9 -22 -4 -23 -3 -7 14 9 10 21 16 25 13 5
-3 6 2 3 10 -8 20 -7 20 -24 -4z"/>
<path d="M1297 1432 c-15 -16 -29 -43 -32 -60 -5 -42 1 -40 20 4 13 31 18 35
40 30 15 -4 25 -2 25 4 0 6 -4 8 -10 5 -9 -5 -15 15 -11 38 2 12 -4 8 -32 -21z"/>
<path d="M1817 1441 c3 -11 11 -21 19 -21 14 0 34 -30 34 -51 0 -8 -15 -10
-52 -5 l-53 7 33 -26 c43 -36 41 -52 -8 -57 -22 -2 -40 -1 -40 3 0 4 -9 9 -20
12 -25 7 -18 -6 20 -33 23 -16 28 -17 24 -6 -5 13 -1 15 25 10 20 -4 31 -3 31
5 0 6 6 11 13 11 16 0 47 51 47 78 0 11 -7 25 -15 32 -9 7 -14 19 -11 27 3 8
-2 13 -12 13 -10 0 -23 5 -29 11 -9 9 -10 7 -6 -10z"/>
<path d="M1916 1453 c-3 -3 0 -15 6 -27 6 -11 11 -23 10 -26 -1 -3 3 -5 8 -4
6 1 19 2 30 3 13 0 17 6 14 16 -7 16 -60 46 -68 38z"/>
<path d="M798 1420 c-15 -4 -30 -5 -35 -1 -4 3 -1 -2 6 -11 7 -10 24 -18 36
-18 24 0 49 22 38 33 -7 8 -9 8 -45 -3z"/>
<path d="M947 1378 c-15 -17 -27 -39 -26 -47 0 -10 4 -7 9 7 5 12 15 22 21 22
9 0 9 -4 0 -14 -8 -10 -9 -16 -1 -21 18 -11 11 -22 -15 -20 -20 3 -26 -3 -35
-31 -6 -19 -19 -38 -28 -43 -9 -5 -14 -12 -11 -16 4 -3 37 20 75 52 58 49 65
58 47 61 -19 3 -21 6 -11 28 6 13 15 24 19 24 10 0 24 -49 21 -67 -4 -21 7
-15 44 21 36 35 30 51 -16 39 -14 -4 -29 2 -44 16 l-23 21 -26 -32z"/>
<path d="M631 1377 c-24 -6 -31 -11 -22 -17 10 -6 9 -13 -5 -36 -18 -27 -19
-28 -22 -6 -5 33 -22 27 -22 -8 0 -23 7 -33 30 -45 49 -25 87 -20 105 15 11
21 23 30 43 32 15 0 34 2 42 2 14 1 16 21 5 54 -8 22 -23 13 -18 -10 4 -22 4
-22 -11 -4 -9 10 -20 15 -27 10 -8 -5 -11 -2 -7 7 6 17 -39 20 -91 6z m63 -13
c18 -17 21 -44 6 -44 -11 0 -34 40 -23 40 4 0 1 5 -7 10 -9 6 -10 10 -3 10 6
0 19 -7 27 -16z m-30 -40 c22 -9 20 -24 -3 -24 -11 0 -21 -5 -23 -11 -2 -5
-11 -7 -21 -3 -17 6 -17 8 -1 25 19 21 24 22 48 13z"/>
<path d="M828 1362 c-12 -20 -14 -32 -7 -39 7 -7 2 -17 -15 -31 -14 -11 -26
-24 -26 -29 0 -6 -14 -30 -32 -54 -20 -29 -24 -38 -10 -25 12 11 22 15 22 9 0
-10 -32 -43 -42 -43 -3 0 -22 -16 -41 -35 -19 -19 -43 -35 -53 -35 -14 0 -11
7 16 35 29 30 32 37 20 45 -8 5 -19 10 -25 10 -5 0 -4 -4 3 -9 31 -19 -52 -61
-120 -61 -16 0 -28 -5 -28 -11 0 -8 18 -10 55 -7 45 4 55 2 50 -9 -4 -12 9
-14 68 -12 80 2 109 12 105 37 -2 9 5 18 15 20 16 3 17 1 4 -30 -7 -18 -19
-33 -25 -33 -15 0 -17 -18 -3 -23 5 -2 33 33 61 77 35 54 56 78 66 74 8 -3 14
-8 14 -12 0 -13 -59 -97 -86 -125 -29 -29 -27 -32 10 -15 14 7 23 15 21 20 -3
4 0 11 6 15 8 5 10 2 5 -7 -4 -8 4 -1 18 16 14 16 26 38 28 50 2 11 10 20 18
21 35 2 41 5 35 14 -3 6 -14 10 -25 10 -30 0 -12 40 25 56 23 9 42 11 64 4 23
-6 31 -5 31 4 0 21 67 79 82 70 10 -6 10 -4 -1 9 -13 16 -16 16 -37 2 -13 -8
-32 -15 -44 -15 -24 0 -27 -20 -2 -21 10 0 12 -3 5 -6 -7 -2 -13 -11 -13 -20
0 -8 -7 -13 -17 -11 -10 2 -17 11 -15 20 2 12 -3 15 -18 11 -11 -3 -20 -9 -20
-14 0 -5 -7 -9 -15 -9 -7 0 -18 -6 -22 -14 -11 -18 -47 -36 -73 -36 -14 0 -20
-5 -17 -13 5 -14 -30 -63 -39 -55 -10 11 8 56 35 86 16 17 31 41 34 54 3 12 9
33 12 46 5 14 3 22 -4 22 -6 0 -11 -4 -11 -9 0 -5 -5 -22 -12 -38 -6 -15 -11
-32 -10 -38 1 -5 -8 -21 -19 -35 l-20 -25 7 35 c3 19 13 48 21 63 8 16 13 44
11 63 l-3 36 -17 -30z m-30 -134 c-7 -13 -11 -26 -10 -30 1 -4 -5 -5 -13 -2
-18 7 -18 9 -3 34 7 11 19 20 26 20 10 0 10 -4 0 -22z"/>
<path d="M1369 1375 c-5 -55 0 -75 17 -75 14 0 14 3 4 15 -10 12 -10 22 -2 39
10 23 7 36 -10 36 -4 0 -9 -7 -9 -15z"/>
<path d="M2106 1354 c-15 -39 11 -113 35 -98 5 3 16 1 23 -5 8 -7 18 -11 22
-10 5 1 18 1 29 0 19 -2 19 -2 -3 -14 -18 -10 -20 -15 -10 -26 11 -11 9 -12
-12 -6 -22 7 -23 6 -12 -8 10 -12 10 -16 0 -19 -10 -4 -10 -8 1 -21 7 -10 10
-24 6 -34 -6 -16 -10 -14 -30 12 -20 24 -27 27 -37 17 -11 -11 -9 -16 7 -28
11 -9 19 -19 18 -24 -2 -5 6 -12 17 -15 11 -4 25 -15 30 -26 13 -24 2 -25 -16
-1 -7 9 -14 12 -14 7 -1 -27 51 -63 100 -70 28 -4 53 -5 56 -2 3 2 -17 19 -44
36 -57 36 -88 68 -78 78 4 4 11 1 16 -7 19 -31 20 -1 1 33 -19 33 -19 36 -2
51 25 22 59 20 108 -8 69 -40 133 -57 193 -51 121 11 149 23 103 44 -21 10
-28 9 -34 -1 -4 -7 -11 -9 -14 -6 -11 11 42 61 55 53 8 -5 6 -11 -7 -22 -15
-12 -15 -14 -2 -10 9 3 21 1 27 -5 6 -6 12 -6 17 1 12 20 -5 47 -41 64 -19 10
-32 12 -29 7 4 -7 0 -10 -10 -8 -10 2 -21 -5 -26 -14 -5 -10 -13 -26 -18 -35
-19 -40 -163 6 -212 68 -43 55 -63 64 -142 68 -19 1 -31 9 -39 26 -13 29 -23
32 -32 9z m124 -74 c11 -6 32 -22 47 -36 l28 -27 -42 22 c-23 11 -54 21 -69
21 -22 0 -25 2 -14 15 15 18 25 19 50 5z"/>
<path d="M1955 1339 c-4 -6 -13 -8 -21 -5 -31 12 -57 -70 -33 -104 9 -12 10
-10 6 8 -7 28 1 54 14 46 5 -3 9 2 9 10 0 8 10 22 22 30 46 33 52 11 8 -32
-16 -16 -32 -27 -36 -23 -11 9 6 -52 18 -66 18 -22 28 -14 16 12 -9 19 -8 29
6 50 9 14 21 26 26 26 6 1 16 2 23 3 14 3 37 -13 37 -25 0 -5 -11 -9 -24 -9
-30 0 -43 -17 -26 -33 10 -9 14 -9 17 1 3 6 16 12 30 12 21 0 24 4 19 23 -3
12 -6 28 -6 35 0 7 -4 11 -9 8 -5 -3 -11 1 -15 9 -3 8 0 15 7 16 7 0 3 4 -8 9
-29 12 -73 12 -80 -1z"/>
<path d="M1155 1310 c-9 -14 -6 -17 20 -22 13 -2 20 3 20 12 0 18 -30 26 -40
10z"/>
<path d="M1684 1286 c14 -19 26 -39 26 -44 0 -15 40 -56 47 -48 4 3 -3 13 -15
22 -12 8 -20 20 -16 25 7 12 -42 79 -58 79 -6 0 1 -15 16 -34z"/>
<path d="M1194 1259 c-9 -10 -21 -17 -27 -16 -6 1 -19 -25 -29 -57 -10 -33
-24 -67 -32 -75 -7 -9 -16 -23 -19 -31 -4 -12 -6 -11 -6 3 -1 10 -5 15 -11 12
-5 -3 -10 3 -10 15 0 12 5 18 10 15 6 -3 10 2 10 12 0 10 7 28 15 40 9 12 11
24 6 27 -10 7 -41 -20 -41 -35 0 -5 -5 -9 -10 -9 -6 0 -8 11 -4 28 5 21 4 24
-6 16 -6 -7 -10 -22 -8 -35 2 -13 -3 -29 -11 -35 -12 -10 -11 -13 7 -18 12 -4
22 -12 22 -18 0 -36 43 -294 49 -296 5 -1 5 -17 1 -35 -3 -18 -3 -39 2 -47 4
-8 17 -49 29 -90 12 -41 24 -70 26 -63 2 6 -5 42 -17 80 -13 43 -19 80 -15
101 3 17 2 32 -3 32 -5 0 -8 11 -7 24 2 13 -4 55 -12 92 -15 73 -12 189 7 208
7 7 10 1 10 -17 0 -15 5 -27 11 -27 6 0 9 15 8 35 -2 19 2 40 9 47 6 6 12 20
12 29 0 26 40 89 56 89 19 0 18 -19 -1 -26 -8 -3 -17 -22 -21 -42 -4 -21 -9
-41 -12 -46 -3 -5 -4 -37 -2 -70 1 -34 3 -71 4 -83 1 -12 4 -25 8 -29 4 -4 5
-17 2 -29 -3 -13 0 -26 6 -30 9 -5 10 -1 5 15 -5 17 -4 21 6 15 9 -6 10 -2 4
16 -4 13 -9 74 -12 134 -4 91 -2 114 11 130 16 19 16 18 9 -20 -10 -56 -7
-165 6 -195 8 -19 9 -2 6 70 -4 112 9 163 42 165 13 1 26 4 29 8 4 3 19 0 34
-8 30 -15 46 -9 29 11 -6 8 -26 11 -56 8 -27 -3 -56 1 -73 10 -26 12 -30 12
-46 -5z"/>
<path d="M1550 1263 c-19 -8 -57 -16 -85 -18 -71 -4 -72 -4 -55 -15 13 -8 12
-10 -2 -10 -22 0 -23 -16 -2 -24 22 -8 24 -8 24 8 0 20 28 28 32 9 3 -15 5
-15 18 -2 8 8 22 18 32 21 14 6 15 2 8 -21 -9 -33 -1 -119 11 -127 5 -3 9 5 9
18 0 13 6 30 12 36 9 9 10 15 2 20 -18 11 -24 56 -10 74 16 22 51 28 50 8 -1
-9 5 -21 12 -28 21 -19 18 7 -4 40 -17 25 -18 26 -52 11z"/>
<path d="M1847 1250 c4 -16 0 -20 -21 -20 -14 0 -26 6 -26 13 0 6 -5 4 -11 -6
-8 -13 -4 -32 13 -75 23 -58 23 -58 58 -51 19 4 49 6 65 5 27 -1 30 -5 33 -38
2 -25 8 -38 17 -38 8 0 19 -9 25 -19 8 -16 6 -21 -10 -26 -11 -4 -18 -11 -14
-16 4 -6 11 -6 19 1 10 8 19 8 34 1 35 -19 45 -12 18 13 -34 31 -77 101 -77
125 0 10 7 21 15 25 11 4 25 -13 50 -65 42 -86 52 -99 71 -92 17 6 19 24 2 20
-15 -3 -39 43 -34 66 2 9 0 15 -4 12 -5 -3 -17 6 -26 19 -14 23 -14 27 -1 40
13 13 17 14 27 1 6 -8 9 -19 6 -24 -4 -5 -2 -12 4 -16 10 -6 14 6 11 38 -1 9
4 17 13 17 9 0 16 6 16 13 1 6 12 -1 26 -18 l26 -30 -16 32 c-9 18 -16 38 -16
45 0 8 -8 21 -19 30 -18 15 -20 14 -32 -11 -7 -14 -12 -35 -11 -46 0 -16 0
-16 -4 -3 -5 16 -7 16 -30 2 -24 -16 -68 -16 -109 1 -16 7 -18 6 -7 -6 19 -21
14 -34 -15 -35 -16 -1 -39 -5 -52 -9 -17 -6 -22 -5 -17 3 4 7 2 12 -3 12 -6 0
-11 6 -11 13 0 8 -9 22 -20 32 -19 17 -19 20 -4 28 11 6 19 5 25 -4 7 -12 9
-12 9 0 0 9 7 11 21 8 15 -4 19 -2 15 10 -3 8 -6 21 -6 29 0 8 -6 14 -14 14
-9 0 -12 -7 -9 -20z"/>
<path d="M1638 1213 c2 -12 8 -20 13 -17 5 3 9 0 9 -5 0 -6 5 -11 12 -11 9 0
9 3 0 12 -7 7 -12 19 -12 28 0 9 -6 17 -13 17 -9 0 -12 -9 -9 -24z"/>
<path d="M1280 1182 c0 -5 -9 -12 -20 -15 -20 -5 -28 -27 -10 -27 5 0 7 -23 5
-52 -3 -35 -2 -44 3 -28 7 22 9 23 15 7 4 -10 5 -28 2 -40 -3 -12 -1 -35 3
-52 8 -29 9 -29 16 -7 9 26 21 28 35 5 8 -13 10 8 11 79 0 53 4 100 10 103 16
10 12 21 -7 22 -10 1 -28 4 -40 8 -14 4 -23 3 -23 -3z m30 -23 c0 -5 5 -7 11
-3 9 5 10 -1 5 -22 -3 -16 -9 -47 -13 -69 -3 -22 -12 -49 -20 -60 -13 -18 -14
-17 -8 15 3 19 2 47 -4 62 -7 18 -6 36 2 57 11 30 27 42 27 20z"/>
<path d="M1618 1183 c-2 -5 1 -27 7 -51 8 -33 13 -40 23 -30 15 15 16 38 2 38
-5 0 -10 9 -10 19 0 21 -16 37 -22 24z"/>
<path d="M1732 1159 c7 -13 18 -27 24 -31 6 -4 9 -19 6 -33 -3 -18 1 -30 13
-39 15 -11 17 -24 13 -87 -3 -41 -9 -83 -14 -93 -5 -13 -4 -17 3 -13 11 7 26
-19 19 -32 -3 -4 -7 -27 -10 -51 -3 -25 -12 -58 -20 -75 -8 -16 -17 -38 -20
-47 -9 -30 -26 -20 -27 15 -1 26 -2 28 -6 7 -2 -14 -10 -49 -18 -78 -12 -47
-11 -53 3 -61 11 -6 21 -4 30 5 7 8 10 14 7 14 -3 0 2 11 11 25 8 13 13 29 9
35 -3 5 -2 10 4 10 37 0 81 385 48 428 -5 7 -7 15 -4 18 9 10 -24 94 -38 94
-7 0 -21 3 -30 6 -15 6 -16 4 -3 -17z"/>
<path d="M1369 1160 c-11 -6 -14 -19 -11 -41 5 -35 22 -21 22 20 0 18 3 21 13
12 11 -9 10 -26 -9 -98 -28 -106 -28 -104 -9 -97 10 4 15 0 15 -12 0 -11 3
-14 9 -9 5 6 12 44 15 85 7 84 13 110 26 110 10 0 6 -64 -5 -102 -6 -19 -5
-21 6 -11 17 17 29 111 15 117 -6 2 -1 5 12 5 18 1 22 -4 22 -29 0 -42 0 -42
18 -72 18 -31 42 -37 42 -10 0 21 -11 38 -29 43 -8 3 -16 20 -18 39 -5 46 -16
56 -48 42 -25 -12 -55 -7 -55 9 0 11 -11 11 -31 -1z"/>
<path d="M1692 1135 c0 -16 3 -39 8 -50 8 -18 9 -18 8 5 0 14 -4 36 -8 50 -8
24 -8 24 -8 -5z"/>
<path d="M963 1130 c-13 -5 -23 -14 -23 -20 0 -6 5 -8 11 -4 8 4 9 -1 4 -16
-6 -17 -4 -21 6 -15 8 5 6 -1 -4 -12 -10 -12 -15 -27 -11 -37 6 -15 7 -15 21
1 14 18 14 12 0 -47 -5 -20 16 -80 28 -80 17 0 39 -36 30 -50 -3 -5 3 -14 12
-20 17 -11 17 -11 1 -6 -10 3 -18 1 -18 -4 0 -6 4 -10 8 -10 4 0 13 -29 19
-65 10 -57 9 -69 -8 -102 -11 -21 -25 -42 -32 -48 -7 -5 -20 -26 -30 -46 -20
-44 -33 -55 -74 -64 -48 -10 -42 -29 8 -22 37 5 43 2 75 -31 19 -21 36 -46 39
-57 8 -26 65 -61 65 -40 0 8 2 15 4 15 11 0 76 -31 80 -39 4 -5 21 -13 39 -17
17 -3 50 -22 73 -40 42 -35 59 -41 68 -25 3 5 -14 21 -39 35 -57 34 -58 41 -2
16 23 -10 59 -37 79 -59 l37 -40 23 27 c29 35 76 67 108 76 17 5 11 -2 -17
-20 -24 -14 -40 -30 -37 -35 10 -17 30 -9 68 26 21 19 45 35 52 35 8 0 41 14
75 32 48 25 62 29 69 18 7 -11 13 -10 34 4 14 9 26 22 26 30 0 7 18 31 40 53
36 38 43 41 80 36 26 -4 40 -2 40 6 0 6 -11 11 -24 11 -27 0 -61 24 -79 56 -7
12 -20 33 -30 46 -22 32 -35 128 -17 128 7 0 10 8 7 20 -3 13 0 20 10 20 10 0
13 6 9 16 -3 9 -6 23 -6 32 0 14 -2 15 -9 3 -6 -9 -7 21 -4 80 3 52 2 91 -2
87 -4 -3 -8 -61 -11 -128 -2 -68 -7 -128 -12 -134 -4 -6 -8 -23 -7 -38 0 -15
-3 -24 -7 -22 -4 3 -8 0 -8 -6 0 -6 -8 -28 -18 -49 -19 -39 -15 -60 18 -88 13
-12 13 -15 -2 -27 -10 -7 -18 -22 -18 -34 0 -34 -145 -143 -169 -127 -6 3 -27
-3 -48 -13 -21 -11 -47 -18 -58 -16 -12 2 -30 -7 -43 -21 -13 -14 -26 -25 -30
-25 -16 0 -62 37 -55 44 5 4 -4 5 -19 1 -20 -5 -36 -1 -58 15 -16 12 -38 20
-48 18 -10 -1 -40 12 -68 30 -28 17 -60 32 -72 32 -11 0 -31 12 -43 28 -20 25
-21 25 -16 4 7 -30 -8 -19 -27 20 -22 42 -20 55 4 33 11 -10 20 -14 20 -10 0
4 9 0 20 -10 19 -17 20 -17 20 -1 0 10 -9 20 -20 23 -22 6 -26 23 -9 40 8 8 8
13 0 17 -6 4 -11 1 -11 -7 0 -8 -8 -17 -17 -21 -10 -3 -28 -10 -40 -15 -19 -8
-21 -7 -16 7 4 9 13 27 21 39 7 12 11 26 8 32 -3 5 2 7 13 4 15 -4 21 2 27 29
4 18 7 38 6 45 -2 6 3 15 9 19 9 5 11 -9 6 -54 -5 -65 7 -94 18 -42 8 38 -4
150 -16 150 -5 0 -8 19 -8 43 1 66 -21 147 -40 147 -13 0 -31 88 -34 162 -1
43 -2 78 -2 77 0 0 -10 -4 -22 -9z m857 -551 c0 -5 4 -8 9 -5 5 3 14 -8 21
-24 7 -17 20 -35 29 -40 13 -7 14 -11 4 -21 -10 -10 -16 -10 -25 -1 -7 7 -20
12 -30 12 -10 0 -18 7 -18 16 0 9 -5 12 -12 8 -8 -5 -9 0 -5 17 4 13 7 30 7
37 0 6 5 12 10 12 6 0 10 -5 10 -11z m30 -108 c0 -14 -81 -101 -94 -101 -6 1
-1 9 12 19 12 11 22 25 22 32 0 12 39 56 53 58 4 1 7 -3 7 -8z"/>
<path d="M1566 1122 c-13 -15 -14 -25 -6 -46 13 -35 13 -83 0 -91 -5 -3 -9
-32 -9 -63 1 -61 0 -64 24 48 4 19 7 63 7 98 0 57 1 62 15 50 14 -11 15 -11
12 1 -8 23 -24 23 -43 3z"/>
<path d="M1018 1083 c-7 -61 21 -231 36 -212 5 7 -19 227 -26 234 -3 4 -8 -6
-10 -22z"/>
<path d="M883 1049 c-38 -22 -50 -35 -46 -46 6 -14 9 -13 21 5 8 12 20 22 26
22 7 0 23 11 36 25 29 31 27 31 -37 -6z"/>
<path d="M1610 1045 c0 -16 -5 -48 -11 -70 -15 -59 -15 -67 -2 -72 6 -2 13 6
15 19 2 13 9 22 16 20 9 -1 12 4 9 15 -15 51 -17 82 -8 88 7 4 11 -4 11 -20 0
-15 4 -24 10 -20 6 4 8 10 5 14 -2 5 2 17 10 27 22 29 18 34 -20 31 -32 -2
-35 -5 -35 -32z"/>
<path d="M1726 1049 c-7 -20 -9 -21 -13 -6 -4 14 -8 16 -19 6 -8 -6 -14 -19
-14 -28 0 -9 -9 -35 -19 -58 -15 -32 -16 -41 -5 -36 13 5 19 -17 17 -66 -1 -8
3 -9 8 -4 7 7 12 42 18 151 1 6 6 12 11 12 6 0 10 -17 11 -37 l0 -38 14 44 c8
25 10 52 6 64 -7 20 -8 20 -15 -4z"/>
<path d="M1840 1045 c0 -18 29 -79 35 -73 6 6 -19 88 -27 88 -4 0 -8 -7 -8
-15z"/>
<path d="M1137 1032 c-21 -23 -23 -72 -2 -72 10 0 15 10 15 28 0 21 2 24 10
12 9 -13 10 -13 9 0 0 8 -4 23 -8 33 -6 18 -7 18 -24 -1z"/>
<path d="M1910 1040 c-12 -7 -12 -12 4 -29 11 -12 26 -21 34 -21 12 0 10 5 -6
23 -12 13 -19 27 -15 30 9 10 1 8 -17 -3z"/>
<path d="M2097 1034 c3 -7 10 -14 17 -14 6 0 22 -3 36 -6 l25 -6 -25 14 c-44
25 -60 28 -53 12z"/>
<path d="M733 1001 c-10 -10 -25 -21 -33 -25 -8 -3 9 -4 38 -2 34 2 52 -1 50
-8 -1 -6 1 -21 6 -33 8 -24 -8 -63 -25 -63 -6 0 -7 5 -3 12 4 7 3 8 -5 4 -6
-4 -9 -11 -6 -16 3 -4 -2 -11 -11 -14 -9 -4 -14 -9 -11 -12 11 -12 79 19 88
40 8 20 9 20 8 -4 -2 -43 0 -50 16 -50 8 0 15 -9 15 -20 0 -12 7 -34 15 -51
12 -22 14 -38 6 -64 -6 -23 -6 -37 1 -41 6 -4 7 -21 3 -41 -4 -22 -3 -33 4
-29 5 4 13 2 16 -4 4 -6 1 -9 -7 -8 -8 2 -12 -4 -10 -17 4 -22 20 -45 31 -45
12 0 51 104 51 135 -1 29 -1 29 -21 -12 -11 -24 -23 -43 -28 -43 -17 0 -18 12
-4 41 10 20 13 44 9 69 -3 21 -1 51 4 65 8 20 7 26 -2 23 -7 -3 -16 -18 -19
-34 -6 -25 -14 -15 -10 10 4 18 -11 85 -17 83 -9 -3 -12 7 -12 36 0 17 2 19 9
8 8 -12 11 -9 17 14 5 19 3 30 -4 33 -7 2 -12 12 -12 23 0 12 -7 19 -19 19
-15 0 -18 -5 -13 -22 3 -13 10 -26 16 -30 6 -4 1 -6 -12 -5 -15 1 -25 10 -29
25 -4 18 -8 21 -14 10 -6 -9 -9 -4 -9 15 0 19 4 26 13 22 6 -4 3 1 -7 9 -26
21 -51 20 -73 -3z"/>
<path d="M1474 1008 c-5 -7 -18 -32 -30 -56 -17 -33 -18 -42 -7 -38 8 3 18 6
23 6 5 0 10 10 12 23 2 14 10 22 23 22 15 0 22 -9 26 -35 l6 -35 2 38 c1 36
-22 87 -40 87 -4 0 -11 -6 -15 -12z"/>
<path d="M1756 1004 c-3 -9 -6 -25 -6 -37 0 -28 -30 -107 -41 -107 -5 0 -6 -6
-3 -14 5 -12 9 -11 25 5 17 17 30 58 43 137 6 33 -7 45 -18 16z"/>
<path d="M896 995 c-3 -8 2 -22 12 -31 10 -10 15 -29 13 -46 -1 -15 2 -28 8
-28 14 0 14 60 1 94 -11 29 -25 34 -34 11z"/>
<path d="M2138 947 l-3 -37 -25 23 c-30 27 -70 31 -70 5 0 -9 5 -20 12 -24 6
-4 9 -3 6 2 -3 5 0 15 8 22 13 12 18 8 15 -10 0 -4 5 -5 13 -2 8 3 17 1 21 -5
3 -7 -3 -11 -17 -12 -18 -1 -19 -2 -5 -6 13 -3 17 -11 14 -24 -3 -10 -1 -19 4
-19 5 0 9 -4 9 -10 0 -15 -14 -12 -36 8 -17 16 -20 17 -30 4 -19 -26 -44 -7
-40 31 2 19 6 39 10 45 3 6 2 13 -4 17 -11 7 -12 2 -19 -77 0 -11 -7 -15 -15
-12 -8 3 -17 1 -21 -5 -12 -20 -26 -11 -20 12 l7 22 -22 -23 c-12 -12 -20 -29
-18 -37 3 -13 7 -13 32 0 31 17 43 14 30 -7 -14 -23 -11 -46 7 -51 14 -4 16
-1 10 17 -10 28 -3 56 15 56 10 0 14 -12 14 -40 0 -34 -4 -41 -25 -46 -14 -3
-25 -13 -25 -21 0 -9 -9 -31 -21 -49 -17 -29 -19 -38 -9 -74 7 -25 15 -38 22
-34 7 5 8 2 4 -5 -13 -20 -42 14 -57 65 -7 24 -18 44 -24 45 -5 0 -1 4 10 9
16 7 17 9 3 9 -9 1 -19 9 -21 19 -4 13 -5 12 -6 -5 0 -12 -5 -24 -9 -27 -4 -3
-6 -22 -3 -43 l5 -38 6 30 7 30 7 -30 c10 -40 34 -107 45 -124 8 -12 12 -12
26 2 12 12 17 41 20 109 2 51 4 97 4 102 1 11 15 -2 17 -15 1 -5 2 -13 3 -18
2 -16 31 -41 47 -41 12 0 11 6 -6 28 l-22 27 21 3 c17 3 20 8 15 25 -4 12 -8
31 -10 42 -1 11 -5 28 -9 38 -9 21 1 22 21 2 10 -10 35 -15 70 -15 54 0 66 8
42 28 -9 7 -12 29 -9 63 2 35 6 47 12 38 7 -11 13 -9 28 11 25 31 19 41 -24
37 -32 -2 -34 -5 -37 -40z"/>
<path d="M1907 964 c3 -8 9 -14 14 -14 5 0 14 -12 19 -26 6 -14 14 -22 20 -19
18 11 10 30 -25 52 -22 14 -32 17 -28 7z"/>
<path d="M1881 943 c-15 -29 -14 -43 3 -43 21 0 27 15 18 41 l-9 23 -12 -21z"/>
<path d="M957 849 c-10 -23 -16 -43 -14 -46 2 -2 10 11 18 28 l13 33 8 -29 c4
-16 4 -32 -1 -35 -5 -3 -13 -21 -19 -40 -5 -19 -13 -44 -18 -55 -8 -19 -7 -19
10 -2 11 10 20 28 21 40 1 12 3 28 4 35 0 6 8 12 16 12 13 0 14 4 4 21 -6 12
-9 30 -6 40 3 10 1 17 -3 14 -5 -3 -10 2 -12 10 -2 10 -11 -1 -21 -26z"/>
<path d="M904 857 c3 -12 6 -29 6 -36 0 -19 16 -3 24 25 5 16 2 23 -15 27 -18
5 -20 2 -15 -16z"/>
<path d="M1132 838 c6 -18 15 -37 21 -43 7 -7 8 -4 3 8 -3 11 -9 30 -12 43 -3
13 -10 24 -15 24 -4 0 -3 -15 3 -32z"/>
<path d="M1933 789 c-6 -6 -9 -17 -7 -24 3 -7 1 -16 -5 -20 -6 -3 -11 -10 -11
-16 0 -13 37 -11 46 3 4 7 3 8 -5 4 -8 -5 -10 3 -7 28 5 40 5 41 -11 25z"/>
<path d="M1150 747 c0 -8 -3 -23 -7 -33 -4 -11 -3 -15 4 -11 6 4 14 1 16 -5 3
-7 4 2 3 20 -3 33 -16 58 -16 29z"/>
<path d="M1296 686 c3 -8 11 -17 17 -19 7 -3 29 -12 50 -21 20 -9 37 -14 37
-12 0 3 -20 14 -45 25 -25 11 -45 25 -45 30 0 6 -4 11 -10 11 -5 0 -7 -6 -4
-14z"/>
<path d="M840 620 c-12 -16 -32 -33 -46 -36 -13 -3 -24 -10 -24 -15 0 -13 9
-11 57 12 33 16 43 26 43 45 0 31 -4 30 -30 -6z"/>
<path d="M1641 580 c1 -42 -4 -65 -16 -76 -9 -9 -13 -19 -10 -22 3 -4 11 0 16
8 8 11 10 8 6 -12 -6 -37 2 -35 44 9 18 20 28 33 21 29 -7 -4 -15 -1 -18 9 -4
9 -12 14 -19 11 -10 -4 -11 3 -4 27 11 40 11 50 0 43 -5 -4 -7 3 -4 14 3 11 1
20 -5 20 -7 0 -11 -24 -11 -60z"/>
<path d="M1990 620 c0 -23 32 -46 75 -55 27 -5 28 -5 10 7 -11 7 -31 25 -46
41 -32 32 -39 34 -39 7z"/>
<path d="M1112 571 c-1 -41 3 -61 11 -61 17 0 19 54 3 91 -13 31 -13 30 -14
-30z"/>
<path d="M1230 622 c0 -7 18 -41 39 -75 22 -34 38 -64 35 -67 -3 -2 -9 2 -14
10 -14 22 -12 10 8 -42 14 -37 21 -45 32 -38 10 7 11 10 3 10 -9 0 -13 20 -13
65 0 40 -4 65 -11 65 -13 0 -38 24 -61 59 -10 14 -18 20 -18 13z"/>
<path d="M1170 612 c0 -2 13 -30 30 -61 16 -31 34 -68 39 -83 6 -16 17 -28 26
-28 8 0 15 2 15 4 0 13 -42 96 -54 105 -8 7 -17 25 -21 40 -3 15 -12 28 -20
28 -8 0 -15 -2 -15 -5z"/>
<path d="M1467 593 c16 -24 6 -32 -15 -11 -7 7 -12 8 -12 2 0 -6 3 -14 8 -18
4 -4 15 -33 24 -64 15 -54 16 -55 17 -21 1 20 4 56 7 81 6 43 5 46 -19 50 -25
5 -25 4 -10 -19z"/>
<path d="M1557 585 c-10 -25 -8 -95 2 -95 5 0 11 -9 14 -21 10 -38 22 -12 24
53 1 34 0 57 -4 49 -4 -11 -9 -8 -18 9 -10 20 -13 20 -18 5z"/>
<path d="M1411 555 c-2 -16 -3 -36 -2 -42 3 -22 -19 -14 -44 15 -37 42 -29 8
10 -44 19 -25 33 -50 29 -55 -9 -15 -19 -10 -36 19 -11 16 -18 21 -18 12 0 -9
7 -26 16 -38 8 -12 12 -28 8 -35 -3 -6 5 0 20 16 25 25 27 32 23 105 -1 42 -4
64 -6 47z"/>
<path d="M1518 560 c-14 -50 -19 -120 -8 -120 17 0 21 23 18 86 -2 43 -5 52
-10 34z"/>
<path d="M1167 543 c-27 -26 38 -124 102 -155 49 -24 49 -16 1 19 -49 37 -103
110 -96 129 6 15 3 18 -7 7z"/>
<path d="M1740 519 c-34 -50 -65 -81 -121 -124 -33 -25 -63 -45 -68 -45 -5 0
-11 -9 -14 -20 -5 -18 -3 -19 22 -6 14 8 38 12 53 9 14 -3 29 0 33 6 5 8 -2
10 -22 6 -25 -6 -26 -5 -10 8 9 8 17 22 17 31 0 9 5 16 11 16 6 0 8 -8 5 -17
-6 -17 -5 -17 8 0 7 9 18 17 25 17 6 0 21 16 33 36 19 33 23 35 29 18 6 -14 8
-10 7 16 0 19 3 43 7 53 10 23 3 22 -15 -4z"/>
<path d="M1111 478 c-10 -27 -2 -46 10 -27 8 11 12 10 20 -5 9 -15 13 -16 20
-5 6 10 10 7 18 -11 5 -14 10 -18 10 -10 0 14 -52 80 -64 80 -3 0 -9 -10 -14
-22z"/>
<path d="M1411 387 c-7 -10 -10 -17 -5 -17 5 0 2 -5 -6 -10 -11 -7 -3 -8 25
-6 22 2 48 4 58 5 9 0 17 9 16 19 0 10 -3 12 -6 5 -7 -20 -61 -16 -65 4 -3 15
-4 15 -17 0z"/>
</g>
</svg>
